<?xml version="1.0" encoding="iso-8859-1"?>
<!-- Generator: Adobe Illustrator 19.0.0, SVG Export Plug-In . SVG Version: 6.00 Build 0)  -->
<svg version="1.1" id="Capa_1" xmlns="http://www.w3.org/2000/svg" xmlns:xlink="http://www.w3.org/1999/xlink" x="0px" y="0px"
	 viewBox="0 0 490.268 490.268" style="enable-background:new 0 0 490.268 490.268;" xml:space="preserve">
<g>
	<g>
		<path d="M409.9,270.634c8.3,0,15.6-5.2,18.7-14.6l60.3-159.2c3.9-11.2,0-26-18.7-27H111.4v-10.4c0-32.3-24-59.3-53.1-59.3H20.8
			c-11.4,0-20.8,9.4-20.8,20.8s9.4,20.8,20.8,20.8h38.5c6.2,0,12.5,7.3,12.5,18.7v266.3c0,11.4,9.4,20.8,20.8,20.8h356.8
			c11.4,0,20.8-9.4,19.8-20.8c0-11.4-9.4-20.8-20.8-20.8h-337v-35.4h298.5V270.634z M112.4,111.434h327.7l-44.7,118.6h-283
			L112.4,111.434L112.4,111.434z"/>
		<path d="M160.2,367.334c-34.3,0-61.4,28.1-61.4,61.4c0,34.3,28.1,61.4,61.4,61.4c34.3,0,61.4-27,61.4-61.4
			S193.5,367.334,160.2,367.334z M160.2,449.534c-11.4,0-20.8-9.4-20.8-20.8s9.4-20.8,20.8-20.8c11.4,0,20.8,9.4,20.8,20.8
			C181.1,440.234,171.7,449.534,160.2,449.534z"/>
		<path d="M394.3,367.334c-34.3,0-61.4,28.1-61.4,61.4c0,34.3,28.1,61.4,61.4,61.4c34.3,0,61.4-27,61.4-61.4
			S427.6,367.334,394.3,367.334z M394.3,449.534c-11.4,0-20.8-9.4-20.8-20.8s9.4-20.8,20.8-20.8s20.8,9.4,20.8,20.8
			C415.1,440.234,405.8,449.534,394.3,449.534z"/>
	</g>
</g>
<g>
</g>
<g>
</g>
<g>
</g>
<g>
</g>
<g>
</g>
<g>
</g>
<g>
</g>
<g>
</g>
<g>
</g>
<g>
</g>
<g>
</g>
<g>
</g>
<g>
</g>
<g>
</g>
<g>
</g>
</svg>
