<?xml version="1.0" encoding="iso-8859-1"?>
<!-- Generator: Adobe Illustrator 16.0.0, SVG Export Plug-In . SVG Version: 6.00 Build 0)  -->
<!DOCTYPE svg PUBLIC "-//W3C//DTD SVG 1.1//EN" "http://www.w3.org/Graphics/SVG/1.1/DTD/svg11.dtd">
<svg version="1.1" id="Capa_1" xmlns="http://www.w3.org/2000/svg" xmlns:xlink="http://www.w3.org/1999/xlink" x="0px" y="0px"
	 width="401.952px" height="401.952px" viewBox="0 0 401.952 401.952" style="enable-background:new 0 0 401.952 401.952;"
	 xml:space="preserve">
<g>
	<g>
		<g id="Layer_5_58_">
			<path d="M322.978,216.742H273.91c-8.673,0-15.771-7.096-15.771-15.77l-0.077-51.191V14.693l0,0
				C257.5,6.517,250.398,0.002,242.093,0l-82.79,0.002c-8.673,0-15.77,7.094-15.77,15.764l0.279,185.207
				c0,8.673-7.094,15.77-15.768,15.77H78.977c-8.675,0-11.163,5.396-5.535,11.994l117.294,168.267
				c5.633,6.598,14.848,6.598,20.479,0l117.29-168.265C334.138,222.141,331.653,216.742,322.978,216.742z"/>
		</g>
	</g>
</g>
<g>
</g>
<g>
</g>
<g>
</g>
<g>
</g>
<g>
</g>
<g>
</g>
<g>
</g>
<g>
</g>
<g>
</g>
<g>
</g>
<g>
</g>
<g>
</g>
<g>
</g>
<g>
</g>
<g>
</g>
</svg>
