<?xml version="1.0" encoding="iso-8859-1"?>
<!-- Generator: Adobe Illustrator 19.0.0, SVG Export Plug-In . SVG Version: 6.00 Build 0)  -->
<svg version="1.1" id="Layer_1" xmlns="http://www.w3.org/2000/svg" xmlns:xlink="http://www.w3.org/1999/xlink" x="0px" y="0px"
	 viewBox="0 0 512 512" style="enable-background:new 0 0 512 512;" xml:space="preserve">
<g>
	<g>
		<path d="M151.414,0H72.975C32.737,0,0,32.737,0,72.975v78.439c0,11.422,9.26,20.682,20.682,20.682
			c11.422,0,20.682-9.26,20.682-20.682V72.975c0-17.43,14.181-31.611,31.611-31.611h78.439c11.422,0,20.682-9.26,20.682-20.682
			C172.096,9.26,162.836,0,151.414,0z"/>
	</g>
</g>
<g>
	<g>
		<path d="M439.025,0h-78.44c-11.422,0-20.682,9.26-20.682,20.682c0,11.422,9.259,20.682,20.682,20.682h78.44
			c17.43,0,31.611,14.181,31.611,31.611v78.439c0,11.422,9.259,20.682,20.682,20.682c11.423,0,20.682-9.26,20.682-20.682V72.975
			C512,32.737,479.264,0,439.025,0z"/>
	</g>
</g>
<g>
	<g>
		<path d="M491.318,339.903c-11.423,0-20.682,9.259-20.682,20.682v78.44c0,17.43-14.181,31.611-31.611,31.611h-78.44
			c-11.423,0-20.682,9.259-20.682,20.682c0,11.423,9.259,20.682,20.682,20.682h78.44C479.264,512,512,479.264,512,439.025v-78.44
			C512,349.162,502.741,339.903,491.318,339.903z"/>
	</g>
</g>
<g>
	<g>
		<path d="M151.414,470.636H72.975c-17.43,0-31.611-14.181-31.611-31.611v-78.44c0-11.423-9.26-20.682-20.682-20.682
			C9.26,339.903,0,349.162,0,360.585v78.44C0,479.264,32.737,512,72.975,512h78.439c11.422,0,20.682-9.259,20.682-20.682
			C172.096,479.895,162.836,470.636,151.414,470.636z"/>
	</g>
</g>
<g>
</g>
<g>
</g>
<g>
</g>
<g>
</g>
<g>
</g>
<g>
</g>
<g>
</g>
<g>
</g>
<g>
</g>
<g>
</g>
<g>
</g>
<g>
</g>
<g>
</g>
<g>
</g>
<g>
</g>
</svg>
