<?xml version="1.0" encoding="iso-8859-1"?>
<!-- Generator: Adobe Illustrator 19.0.0, SVG Export Plug-In . SVG Version: 6.00 Build 0)  -->
<svg version="1.1" id="Layer_1" xmlns="http://www.w3.org/2000/svg" xmlns:xlink="http://www.w3.org/1999/xlink" x="0px" y="0px"
	 viewBox="0 0 511.999 511.999" style="enable-background:new 0 0 511.999 511.999;" xml:space="preserve">
<g>
	<g>
		<g>
			<polygon points="469.715,72.39 469.717,72.392 469.714,72.389 			"/>
			<path d="M469.794,72.469c-0.027-0.028-0.055-0.055-0.077-0.077c-56.34-56.367-148.035-56.387-204.403-0.048
				c-0.005,0.006-0.013,0.013-0.019,0.019c-0.007,0.008-0.017,0.017-0.025,0.025l-9.242,9.243l-9.243-9.243
				c-27.304-27.305-63.608-42.342-102.222-42.342c-38.615,0-74.917,15.038-102.222,42.342C15.037,99.693,0,135.996,0,174.61
				c0,38.615,15.037,74.917,42.342,102.223l199.061,199.061c3.88,3.88,9.141,6.058,14.627,6.058c5.486,0,10.747-2.179,14.626-6.058
				l199.056-199.057C526.064,220.509,526.097,128.844,469.794,72.469z M440.462,247.58L256.028,432.014L71.594,247.579
				c-19.49-19.491-30.224-45.404-30.224-72.969c0-27.563,10.734-53.478,30.224-72.968c20.118-20.118,46.544-30.176,72.969-30.176
				c26.426,0,52.852,10.058,72.969,30.176l23.87,23.869c8.078,8.078,21.174,8.078,29.252,0l23.87-23.869
				c0.002-0.001,0.003-0.003,0.005-0.005c0.011-0.011,0.022-0.022,0.033-0.033c40.22-40.202,105.639-40.202,145.857-0.006
				c0.029,0.029,0.058,0.058,0.08,0.081C480.713,141.913,480.699,207.361,440.462,247.58z"/>
		</g>
	</g>
</g>
<g>
</g>
<g>
</g>
<g>
</g>
<g>
</g>
<g>
</g>
<g>
</g>
<g>
</g>
<g>
</g>
<g>
</g>
<g>
</g>
<g>
</g>
<g>
</g>
<g>
</g>
<g>
</g>
<g>
</g>
</svg>
