<?xml version="1.0" encoding="iso-8859-1"?>
<!-- Generator: Adobe Illustrator 18.1.1, SVG Export Plug-In . SVG Version: 6.00 Build 0)  -->
<svg version="1.1" id="Capa_1" xmlns="http://www.w3.org/2000/svg" xmlns:xlink="http://www.w3.org/1999/xlink" x="0px" y="0px"
	 viewBox="0 0 78 78" style="enable-background:new 0 0 78 78;" xml:space="preserve">
<g id="_x37_7_Essential_Icons_44_">
	<path id="Phone" d="M55,0H23c-3.3,0-6,2.7-6,6v66c0,3.3,2.7,6,6,6h32c3.3,0,6-2.7,6-6V6C61,2.7,58.3,0,55,0z M57,72
		c0,1.1-0.9,2-2,2H23c-1.1,0-2-0.9-2-2v-4h36V72z M57,64H21V14h36V64z M57,10H21V6c0-1.1,0.9-2,2-2h32c1.1,0,2,0.9,2,2V10z"/>
</g>
<g>
</g>
<g>
</g>
<g>
</g>
<g>
</g>
<g>
</g>
<g>
</g>
<g>
</g>
<g>
</g>
<g>
</g>
<g>
</g>
<g>
</g>
<g>
</g>
<g>
</g>
<g>
</g>
<g>
</g>
</svg>
