<svg xmlns="http://www.w3.org/2000/svg" viewBox="0 0 490.268 490.268"><path d="M409.9 270.634c8.3 0 15.6-5.2 18.7-14.6l60.3-159.2c3.9-11.2 0-26-18.7-27H111.4v-10.4c0-32.3-24-59.3-53.1-59.3H20.8C9.4.134 0 9.534 0 20.934s9.4 20.8 20.8 20.8h38.5c6.2 0 12.5 7.3 12.5 18.7v266.3c0 11.4 9.4 20.8 20.8 20.8h356.8c11.4 0 20.8-9.4 19.8-20.8 0-11.4-9.4-20.8-20.8-20.8h-337v-35.4h298.5v.1zm-297.5-159.2h327.7l-44.7 118.6h-283v-118.6zM160.2 367.334c-34.3 0-61.4 28.1-61.4 61.4 0 34.3 28.1 61.4 61.4 61.4 34.3 0 61.4-27 61.4-61.4s-28.1-61.4-61.4-61.4zm0 82.2c-11.4 0-20.8-9.4-20.8-20.8s9.4-20.8 20.8-20.8 20.8 9.4 20.8 20.8c.1 11.5-9.3 20.8-20.8 20.8zM394.3 367.334c-34.3 0-61.4 28.1-61.4 61.4 0 34.3 28.1 61.4 61.4 61.4 34.3 0 61.4-27 61.4-61.4s-28.1-61.4-61.4-61.4zm0 82.2c-11.4 0-20.8-9.4-20.8-20.8s9.4-20.8 20.8-20.8 20.8 9.4 20.8 20.8c0 11.5-9.3 20.8-20.8 20.8z"/></svg>