<svg xmlns="http://www.w3.org/2000/svg" viewBox="0 0 408 408"><path d="M170 19.833c0-9.35-7.65-17-17-17H17c-9.35 0-17 7.65-17 17v136c0 9.35 7.65 17 17 17h136c9.35 0 17-7.65 17-17v-136zm-136 17h102v102H34v-102zM408 19.833c0-9.35-7.65-17-17-17H255c-9.35 0-17 7.65-17 17v136c0 9.35 7.65 17 17 17h136c9.35 0 17-7.65 17-17v-136zm-136 17h102v102H272v-102zM170 252.167c0-9.35-7.65-17-17-17H17c-9.35 0-17 7.65-17 17v136c0 9.35 7.65 17 17 17h136c9.35 0 17-7.65 17-17v-136zm-136 17h102v102H34v-102zM408 252.167c0-9.35-7.65-17-17-17H255c-9.35 0-17 7.65-17 17v136c0 9.35 7.65 17 17 17h136c9.35 0 17-7.65 17-17v-136zm-136 17h102v102H272v-102z"/></svg>