<svg xmlns="http://www.w3.org/2000/svg" viewBox="0 0 512 512"><path d="M151.414 0H72.975C32.737 0 0 32.737 0 72.975v78.439c0 11.422 9.26 20.682 20.682 20.682 11.422 0 20.682-9.26 20.682-20.682V72.975c0-17.43 14.181-31.611 31.611-31.611h78.439c11.422 0 20.682-9.26 20.682-20.682C172.096 9.26 162.836 0 151.414 0zM439.025 0h-78.44c-11.422 0-20.682 9.26-20.682 20.682 0 11.422 9.259 20.682 20.682 20.682h78.44c17.43 0 31.611 14.181 31.611 31.611v78.439c0 11.422 9.259 20.682 20.682 20.682 11.423 0 20.682-9.26 20.682-20.682V72.975C512 32.737 479.264 0 439.025 0zM491.318 339.903c-11.423 0-20.682 9.259-20.682 20.682v78.44c0 17.43-14.181 31.611-31.611 31.611h-78.44c-11.423 0-20.682 9.259-20.682 20.682 0 11.423 9.259 20.682 20.682 20.682h78.44C479.264 512 512 479.264 512 439.025v-78.44c0-11.423-9.259-20.682-20.682-20.682zM151.414 470.636H72.975c-17.43 0-31.611-14.181-31.611-31.611v-78.44c0-11.423-9.26-20.682-20.682-20.682C9.26 339.903 0 349.162 0 360.585v78.44C0 479.264 32.737 512 72.975 512h78.439c11.422 0 20.682-9.259 20.682-20.682 0-11.423-9.26-20.682-20.682-20.682z"/></svg>