<svg xmlns="http://www.w3.org/2000/svg" viewBox="0 0 511.999 511.999"><path d="M469.715 72.39l.002.002-.003-.003z"/><path d="M469.794 72.469l-.077-.077c-56.34-56.367-148.035-56.387-204.403-.048l-.019.019-.025.025-9.242 9.243-9.243-9.243c-27.304-27.305-63.608-42.342-102.222-42.342-38.615 0-74.917 15.038-102.222 42.342C15.037 99.693 0 135.996 0 174.61c0 38.615 15.037 74.917 42.342 102.223l199.061 199.061a20.684 20.684 0 0 0 29.253 0l199.056-199.057c56.352-56.328 56.385-147.993.082-204.368zM440.462 247.58L256.028 432.014 71.594 247.579c-19.49-19.491-30.224-45.404-30.224-72.969 0-27.563 10.734-53.478 30.224-72.968 20.118-20.118 46.544-30.176 72.969-30.176 26.426 0 52.852 10.058 72.969 30.176l23.87 23.869c8.078 8.078 21.174 8.078 29.252 0l23.87-23.869.005-.005.033-.033c40.22-40.202 105.639-40.202 145.857-.006l.08.081c40.214 40.234 40.2 105.682-.037 145.901z"/></svg>