<svg xmlns="http://www.w3.org/2000/svg" viewBox="0 0 513.32 513.32"><path d="M346.491 316.547c49.193-29.944 81.275-83.414 81.275-145.44C427.767 76.998 350.768 0 256.66 0S85.553 76.998 85.553 171.107c0 62.026 32.082 115.497 81.275 145.44C81.275 348.63 17.11 423.489 0 513.32h42.777c21.388-98.386 109.081-171.107 213.883-171.107s192.495 72.72 213.883 171.107h42.777c-17.11-91.97-81.275-166.829-166.829-196.773zM128.33 171.107c0-70.581 57.749-128.33 128.33-128.33s128.33 57.749 128.33 128.33-57.749 128.33-128.33 128.33-128.33-57.749-128.33-128.33z"/></svg>