<?xml version="1.0" standalone="no"?>
<!DOCTYPE svg PUBLIC "-//W3C//DTD SVG 1.1//EN" "http://www.w3.org/Graphics/SVG/1.1/DTD/svg11.dtd" >
<svg xmlns="http://www.w3.org/2000/svg" xmlns:xlink="http://www.w3.org/1999/xlink" version="1.1">
<metadata>
Created by FontForge 20161013 at Wed Nov 12 18:22:58 2014
 By ,,,
Copyright (c) 2014 ParaType, Inc., ParaType Ltd. All rights reserved.
</metadata>
<defs>
<font id="Stem-Bold" horiz-adv-x="622" >
  <font-face 
    font-family="Stem Bold"
    font-weight="700"
    font-stretch="normal"
    units-per-em="1000"
    panose-1="2 11 7 3 2 2 3 2 2 4"
    ascent="778"
    descent="-222"
    x-height="520"
    cap-height="700"
    bbox="-538 -296 1338 994"
    underline-thickness="50"
    underline-position="-200"
    unicode-range="U+0020-FEFF"
  />
<missing-glyph horiz-adv-x="236" 
 />
    <glyph glyph-name="uniF350.var.accented" unicode="&#xf350;`" 
d="M-5 0l261 559h110l261 -559h-157l-42 85h-235l-43 -85h-155zM310 334l-66 -124h129zM452 771l-132 -164l-100 70l123 176z" />
    <glyph glyph-name="uniF355.var.accented" unicode="&#xf355;`" horiz-adv-x="554" 
d="M53 0v560h453v-140h-303v-69h282v-135h-282v-76h310v-140h-460zM427 771l-132 -164l-100 70l123 176z" />
    <glyph glyph-name="uniF358.var.accented" unicode="&#xf358;`" horiz-adv-x="644" 
d="M175 0h-122v560h150v-311l264 311h124v-560h-150v311zM457 771l-132 -164l-100 70l123 176z" />
    <glyph glyph-name="uniF35E.var.accented" unicode="&#xf35e;`" horiz-adv-x="664" 
d="M24 280q0 121 89.5 205.5t218.5 84.5t218.5 -83t89.5 -207q0 -123 -89.5 -206.5t-218.5 -83.5t-218.5 83.5t-89.5 206.5zM179 280q0 -66 45 -105.5t108 -39.5q65 0 109 39t44 106q0 66 -46 105.5t-107 39.5q-63 0 -108 -39.5t-45 -105.5zM487 771l-132 -164l-100 70
l123 176z" />
    <glyph glyph-name="uniF363.var.accented" unicode="&#xf363;`" horiz-adv-x="630" 
d="M155 24l64 120q6 -7 21 -7q29 0 40 33l-280 390h187l166 -237l120 237h158l-214 -427q-34 -68 -73.5 -100.5t-100.5 -32.5q-50 0 -88 24zM457 771l-132 -164l-100 70l123 176z" />
    <glyph glyph-name="uniF36B.var.accented" unicode="&#xf36b;`" horiz-adv-x="777" 
d="M573 0v560h151v-560h-151zM275 245h-72v-105h70q56 0 79.5 10t23.5 43q0 52 -101 52zM203 560v-174h99q117 0 173 -51.5t56 -141.5q0 -94 -66 -143.5t-179 -49.5h-233v560h150zM487 771l-132 -164l-100 70l123 176z" />
    <glyph glyph-name="uniF36D.var.accented" unicode="&#xf36d;`" horiz-adv-x="604" 
d="M208 216v140h215q-16 33 -55.5 53.5t-96.5 20.5q-108 0 -167 -68l-98 97q43 55 115 83t155 28q140 0 222 -78.5t82 -209.5q0 -128 -83 -210t-228 -82q-181 0 -273 130l99 85q56 -75 177 -75q60 0 101.5 23.5t51.5 62.5h-217zM417 771l-132 -164l-100 70l123 176z" />
    <glyph glyph-name="uniF36E.var.accented" unicode="&#xf36e;`" horiz-adv-x="878" 
d="M53 0v560h150v-212h57q21 97 101.5 159.5t192.5 62.5q136 0 218 -81.5t82 -208.5q0 -124 -86 -207t-214 -83q-118 0 -198.5 60.5t-96.5 170.5h-56v-221h-150zM405 280q0 -68 42.5 -109t106.5 -41q66 0 105.5 40.5t39.5 109.5q0 68 -40 109t-105 41q-64 0 -106.5 -41
t-42.5 -109zM627 771l-132 -164l-100 70l123 176z" />
    <glyph glyph-name="uniF36F.var.accented" unicode="&#xf36f;`" horiz-adv-x="601" 
d="M398 0v174h-81l-143 -174h-176l169 202q-126 45 -126 165q0 85 66 139t188 54h253v-560h-150zM286 314h112v106h-110q-49 0 -70.5 -12t-21.5 -40q0 -24 25.5 -40t64.5 -14zM447 771l-132 -164l-100 70l123 176z" />
    <glyph glyph-name="uniF371.var.accented" unicode="&#xf371;`" horiz-adv-x="564" 
d="M55 700q0 30 23 50t55 20q30 0 54.5 -20t24.5 -50q0 -32 -24 -52t-55 -20q-32 0 -55 19.5t-23 52.5zM359 700q0 30 24 50t57 20q32 0 55.5 -20t23.5 -50q0 -33 -23 -52.5t-56 -19.5q-34 0 -57.5 19.5t-23.5 52.5zM386 801l-96 -174l-70 22l37 184zM53 0v560h463v-140
h-313v-69h292v-135h-292v-76h320v-140h-470z" />
    <glyph glyph-name="afii10017.var.accented" unicode="&#x410;`" horiz-adv-x="721" 
d="M-4 0l307 700h115l307 -700h-162l-57 130h-293l-57 -130h-160zM359 470l-92 -209h182zM557 846l-240 -113l-57 99l228 142z" />
    <glyph glyph-name="afii10022.var.accented" unicode="&#x415;`" horiz-adv-x="649" 
d="M65 0v700h535v-145h-380v-130h355v-140h-355v-140h389v-145h-544zM537 846l-240 -113l-57 99l228 142z" />
    <glyph glyph-name="afii10026.var.accented" unicode="&#x418;`" horiz-adv-x="753" 
d="M192 0h-127v700h155v-429l339 429h129v-700h-155v427zM577 846l-240 -113l-57 99l228 142z" />
    <glyph glyph-name="afii10032.var.accented" unicode="&#x41e;`" horiz-adv-x="781" 
d="M30 350q0 152 104.5 257t256.5 105q151 0 255.5 -103.5t104.5 -258.5q0 -154 -104.5 -258t-255.5 -104t-256 103.5t-105 258.5zM191 350q0 -94 58.5 -153t141.5 -59q85 0 142 58.5t57 153.5q0 94 -59.5 153t-139.5 59q-83 0 -141.5 -59t-58.5 -153zM572 846l-240 -113
l-57 99l228 142z" />
    <glyph glyph-name="afii10037.var.accented" unicode="&#x423;`" horiz-adv-x="728" 
d="M566 700h162l-254 -536q-40 -84 -85 -124t-115 -40q-87 0 -141 80l100 91q17 -26 43 -26q30 0 50 42l-326 513h192l213 -348zM577 846l-240 -113l-57 99l228 142z" />
    <glyph glyph-name="afii10045.var.accented" unicode="&#x42b;`" horiz-adv-x="900" 
d="M680 0v700h155v-700h-155zM321 323h-101v-178h99q72 0 105 20t33 71q0 87 -136 87zM220 700v-232h104q144 0 219 -62.5t75 -169.5q0 -116 -79.5 -176t-223.5 -60h-250v700h155zM637 846l-240 -113l-57 99l228 142z" />
    <glyph glyph-name="afii10047.var.accented" unicode="&#x42d;`" horiz-adv-x="707" 
d="M207 285v145h308q-17 62 -69.5 97.5t-131.5 35.5q-54 0 -109.5 -21t-93.5 -68l-102 100q50 67 133 100.5t178 33.5q165 0 261 -96t96 -259q0 -160 -97.5 -260.5t-267.5 -100.5q-208 0 -312 150l103 88q67 -93 213 -93q81 0 135.5 40t65.5 108h-310zM507 846l-240 -113
l-57 99l228 142z" />
    <glyph glyph-name="afii10048.var.accented" unicode="&#x42e;`" horiz-adv-x="1014" 
d="M65 0v700h155v-278h71q22 126 116.5 206t227.5 80q158 0 253.5 -100t95.5 -258q0 -154 -99.5 -256t-249.5 -102q-140 0 -233.5 79t-111.5 219h-70v-290h-155zM443 350q0 -96 54.5 -154.5t137.5 -58.5q86 0 137 57.5t51 155.5q0 97 -52 155t-136 58t-138 -58.5t-54 -154.5
zM777 846l-240 -113l-57 99l228 142z" />
    <glyph glyph-name="afii10049.var.accented" unicode="&#x42f;`" horiz-adv-x="701" 
d="M481 0v231h-119l-179 -231h-183l206 260q-76 23 -116 75t-40 129q0 104 75.5 170t217.5 66h293v-700h-155zM328 376h153v179h-147q-123 0 -123 -90q0 -38 32.5 -63.5t84.5 -25.5zM567 846l-240 -113l-57 99l228 142z" />
    <glyph glyph-name="afii10023.var.accented" unicode="&#x401;`" horiz-adv-x="649" 
d="M95 831q0 33 24.5 54.5t60.5 21.5q32 0 57.5 -22t25.5 -54q0 -33 -25.5 -55t-57.5 -22q-36 0 -60.5 21.5t-24.5 55.5zM414 831q0 32 25.5 54t59.5 22q32 0 57 -21.5t25 -54.5t-25 -55t-57 -22q-35 0 -60 21.5t-25 55.5zM444 935l-84 -156l-84 16l25 176zM65 0v700h535
v-145h-380v-130h355v-140h-355v-140h389v-145h-544z" />
    <glyph glyph-name="afii10065.var.accented" unicode="&#x430;`" horiz-adv-x="532" 
d="M117 346l-69 105q77 80 229 80q101 0 157 -56.5t56 -159.5v-315h-145v47q-18 -21 -56.5 -37t-83.5 -16q-86 0 -138 46.5t-52 123.5q0 85 67.5 128t168.5 43q58 0 94 -13q1 39 -20 56.5t-64 17.5q-42 0 -72.5 -10.5t-71.5 -39.5zM235 119q36 0 66.5 17t43.5 42v24
q-35 13 -79 13q-101 0 -101 -51q0 -21 18.5 -33t51.5 -12zM437 751l-132 -164l-100 70l123 176z" />
    <glyph glyph-name="afii10070.var.accented" unicode="&#x435;`" horiz-adv-x="558" 
d="M438 184l87 -88q-83 -104 -224 -104q-127 0 -204 73.5t-77 195.5q0 118 71 194t199 76q108 0 178 -66t70 -173q0 -32 -8 -84h-358q20 -81 131 -81q39 0 76 15t59 42zM285 401q-83 0 -110 -68h213q-18 68 -103 68zM456 751l-132 -164l-100 70l123 176z" />
    <glyph glyph-name="afii10074.var.accented" unicode="&#x438;`" horiz-adv-x="591" 
d="M168 0h-123v520h145v-283l233 283h123v-520h-145v283zM472 751l-132 -164l-100 70l123 176z" />
    <glyph glyph-name="afii10080.var.accented" unicode="&#x43e;`" horiz-adv-x="604" 
d="M20 261q0 118 78.5 194t202.5 76t203.5 -76t79.5 -194q0 -117 -79.5 -193t-203.5 -76q-121 0 -201 76t-80 193zM170 261q0 -58 36.5 -96t94.5 -38q60 0 96.5 36t36.5 98t-38 98.5t-95 36.5t-94 -36t-37 -99zM472 751l-132 -164l-100 70l123 176z" />
    <glyph glyph-name="afii10085.var.accented" unicode="&#x443;`" horiz-adv-x="557" 
d="M572 520l-293 -720h-157l107 244l-249 476h169l151 -302l117 302h155zM447 751l-132 -164l-100 70l123 176z" />
    <glyph glyph-name="afii10093.var.accented" unicode="&#x44b;`" horiz-adv-x="703" 
d="M45 0v520h145v-138h66q121 0 174.5 -53t53.5 -137q0 -82 -57 -137t-178 -55h-204zM248 247h-58v-112h57q47 0 67 13.5t20 42.5q0 30 -20 43t-66 13zM513 0v520h145v-520h-145zM497 751l-132 -164l-100 70l123 176z" />
    <glyph glyph-name="afii10095.var.accented" unicode="&#x44d;`" horiz-adv-x="552" 
d="M183 203v125h195q-13 38 -45 53t-85 15q-36 0 -74 -16t-63 -52l-104 78q91 125 258 125q121 0 194 -73t73 -197q0 -118 -74 -193.5t-204 -75.5q-80 0 -149 29.5t-100 92.5l105 75q45 -62 129 -62q115 0 142 76h-198zM413 751l-132 -164l-100 70l123 176z" />
    <glyph glyph-name="afii10096.var.accented" unicode="&#x44e;`" horiz-adv-x="803" 
d="M45 0v520h145v-190h65q21 92 88.5 146.5t167.5 54.5q120 0 196 -76t76 -194q0 -117 -76 -193t-196 -76q-103 0 -171.5 57t-87.5 153h-62v-202h-145zM397 261q0 -63 32 -98.5t83 -35.5q55 0 88 35.5t33 98.5t-33 99t-88 36q-49 0 -82 -36.5t-33 -98.5zM602 751l-132 -164
l-100 70l123 176z" />
    <glyph glyph-name="afii10097.var.accented" unicode="&#x44f;`" horiz-adv-x="533" 
d="M268 520h220v-520h-145v157h-67l-107 -157h-167l133 182q-105 32 -105 161q0 78 57.5 127.5t180.5 49.5zM180 337q0 -45 74 -45h89v93h-84q-79 0 -79 -48zM456 751l-132 -164l-100 70l123 176z" />
    <glyph glyph-name="afii10071.var.accented" unicode="&#x451;`" horiz-adv-x="558" 
d="M60 660q0 30 23 50t55 20q30 0 54.5 -20t24.5 -50q0 -32 -24 -52t-55 -20q-32 0 -55 19.5t-23 52.5zM364 660q0 30 24 50t57 20q32 0 55.5 -20t23.5 -50q0 -33 -23 -52.5t-56 -19.5q-34 0 -57.5 19.5t-23.5 52.5zM391 761l-96 -174l-70 22l37 184zM428 184l87 -88
q-83 -104 -214 -104q-127 0 -204 73.5t-77 195.5q0 118 71 194t199 76q108 0 178 -66t70 -173q0 -32 -8 -84h-358q20 -81 131 -81q79 0 125 57zM285 401q-83 0 -110 -68h213q-18 68 -103 68z" />
    <glyph glyph-name="fi" unicode="fi" horiz-adv-x="586" 
d="M5 385v135h72v10q0 106 53 157t136 51q48 0 82 -17l-48 -128q-11 10 -25 10q-54 0 -54 -73v-10h111v-135h-110v-385h-145v385h-72zM387 0v520h145v-520h-145zM378 658q0 31 23 51.5t59 20.5q35 0 58 -20.5t23 -51.5q0 -32 -23 -53t-58 -21q-38 0 -60 20.5t-22 53.5z" />
    <glyph glyph-name="fl" unicode="fl" horiz-adv-x="516" 
d="M326 0v584q-19 19 -51 19q-54 0 -54 -73v-10h61v-135h-60v-385h-145v385h-72v135h72v10q0 106 53 157t136 51q64 0 110 -32l95 32v-738h-145z" />
    <glyph glyph-name=".notdef" horiz-adv-x="236" 
 />
    <glyph glyph-name=".notdef" horiz-adv-x="236" 
 />
    <glyph glyph-name=".null" horiz-adv-x="0" 
 />
    <glyph glyph-name="nonmarkingreturn" horiz-adv-x="333" 
 />
    <glyph glyph-name="space" unicode=" " horiz-adv-x="236" 
 />
    <glyph glyph-name="exclam" unicode="!" horiz-adv-x="309" 
d="M80 197v503h151v-503h-151zM70 75q0 29 24.5 52t61.5 23q34 0 58.5 -23.5t24.5 -51.5q0 -31 -24 -54t-59 -23q-38 0 -62 23t-24 54z" />
    <glyph glyph-name="quotedbl" unicode="&#x22;" horiz-adv-x="460" 
d="M251 432v268h149v-268h-149zM60 432v268h149v-268h-149z" />
    <glyph glyph-name="numbersign" unicode="#" horiz-adv-x="717" 
d="M274 21l60 161h-78l-75 -203l-133 42l60 161h-68v126h115q2 4 12.5 31t19.5 53h-147v126h193q48 126 76 203l132 -42l-60 -161h78l74 203l133 -41l-61 -162h72v-126h-118q-4 -11 -32 -84h150v-126h-196l-74 -203zM334 392l-32 -84h79l30 84h-77z" />
    <glyph glyph-name="dollar" unicode="$" horiz-adv-x="605" 
d="M427 194q0 28 -29 47.5t-72 30t-94 27.5t-94 38t-72 63.5t-29 102.5q0 72 54 130t145 76v70h149v-70q124 -25 197 -122l-104 -100q-76 84 -176 84q-105 0 -105 -66q0 -25 29 -42t72 -26.5t94 -26.5t94 -38t72 -64t29 -102q0 -81 -56.5 -140t-145.5 -76v-78h-149v80
q-86 15 -146.5 59t-91.5 104l113 94q35 -56 89 -88t118 -32q55 0 82 18.5t27 46.5z" />
    <glyph glyph-name="percent" unicode="%" horiz-adv-x="937" 
d="M157 42l512 693l111 -81l-506 -680zM30 517q0 82 58 134t144 52q87 0 144.5 -52t57.5 -134q0 -81 -57.5 -133t-144.5 -52q-86 0 -144 52.5t-58 132.5zM176 517q0 -28 16.5 -45t39.5 -17q24 0 40 17t16 45t-16.5 45t-39.5 17t-39.5 -17t-16.5 -45zM503 182
q0 82 57.5 133.5t144.5 51.5t144.5 -51.5t57.5 -133.5q0 -81 -58 -133.5t-144 -52.5q-87 0 -144.5 52.5t-57.5 133.5zM649 182q0 -28 16.5 -45t39.5 -17t39.5 17t16.5 45t-16.5 45t-39.5 17t-39.5 -17t-16.5 -45z" />
    <glyph glyph-name="ampersand" unicode="&#x26;" horiz-adv-x="783" 
d="M794 0h-193q-28 20 -78 66q-30 -22 -53 -35.5t-67.5 -26.5t-96.5 -13q-129 0 -204 55t-75 144q0 42 14.5 77.5t44 64.5t59 50t73.5 46q-59 75 -59 141q0 58 47 99t137 41q189 0 189 -138q0 -44 -31 -90.5t-82 -79.5q27 -44 103 -125q69 82 69 224h149q0 -90 -30.5 -187.5
t-85.5 -156.5q80 -88 170 -156zM312 131q34 0 62.5 12t42.5 29q-22 27 -62.5 72t-56.5 66q-65 -39 -85.5 -59.5t-20.5 -44.5q0 -28 29.5 -51.5t90.5 -23.5zM319 549q0 -21 25 -46q28 18 28 46q0 30 -26 30q-16 0 -21.5 -7t-5.5 -23z" />
    <glyph glyph-name="quotesingle" unicode="'" horiz-adv-x="269" 
d="M60 432v268h149v-268h-149z" />
    <glyph glyph-name="parenleft" unicode="(" horiz-adv-x="371" 
d="M361 -113l-107 -87q-120 104 -172 226t-52 241q0 268 220 467l109 -87q-181 -169 -181 -380q0 -104 48.5 -202t134.5 -178z" />
    <glyph glyph-name="parenright" unicode=")" horiz-adv-x="369" 
d="M119 -199l-109 87q88 77 134.5 180.5t46.5 198.5q0 211 -180 380l108 87q220 -200 220 -467q0 -119 -50.5 -241t-169.5 -225z" />
    <glyph glyph-name="asterisk" unicode="*" horiz-adv-x="499" 
d="M324 700l-4 -109l108 39l41 -135l-109 -30l71 -89l-121 -87l-60 87l-60 -89l-122 87l71 91l-109 31l41 135l111 -39l-3 108h145z" />
    <glyph glyph-name="plus" unicode="+" horiz-adv-x="605" 
d="M60 294v130h174v173h135v-173h176v-130h-176v-175h-135v175h-174z" />
    <glyph glyph-name="comma" unicode="," horiz-adv-x="264" 
d="M96 -5q-26 9 -43.5 32.5t-17.5 52.5q0 40 25 61.5t71 21.5q44 0 68.5 -28.5t24.5 -75.5q0 -83 -49.5 -139.5t-114.5 -68.5l-40 87q67 14 76 57z" />
    <glyph glyph-name="hyphen" unicode="-" horiz-adv-x="424" 
d="M60 217v130h304v-130h-304z" />
    <glyph glyph-name="period" unicode="." horiz-adv-x="286" 
d="M50 81q0 33 26.5 59t67.5 26q38 0 65 -26.5t27 -58.5q0 -34 -27 -60.5t-65 -26.5q-41 0 -67.5 26t-26.5 61z" />
    <glyph glyph-name="slash" unicode="/" horiz-adv-x="377" 
d="M-40 -150l324 871l133 -42l-326 -879z" />
    <glyph glyph-name="zero" unicode="0" horiz-adv-x="679" 
d="M30 350q0 160 80.5 258.5t228.5 98.5q147 0 228.5 -99t81.5 -258q0 -160 -80.5 -258.5t-227.5 -98.5q-150 0 -230.5 98t-80.5 259zM190 350q0 -101 40.5 -154t110.5 -53q148 0 148 207t-150 207q-70 0 -109.5 -53t-39.5 -154z" />
    <glyph glyph-name="one" unicode="1" horiz-adv-x="398" 
d="M0 585l230 115h98v-700h-150v516l-125 -57z" />
    <glyph glyph-name="two" unicode="2" horiz-adv-x="594" 
d="M155 445l-135 51q25 101 106 156t182 55q124 0 190 -64.5t66 -167.5q0 -94 -54 -163t-160 -137l-47 -30h268v-145h-541v113l83 58q155 108 188 135q102 86 103 155q0 46 -26 71t-76 25q-103 0 -147 -112z" />
    <glyph glyph-name="three" unicode="3" horiz-adv-x="621" 
d="M152 472l-124 58q67 179 294 179q111 0 178.5 -50t67.5 -137q0 -100 -91 -143q114 -41 114 -162q0 -101 -72 -163t-195 -62q-116 0 -192.5 41t-115.5 144l136 61q15 -45 56 -73t100 -28q56 0 89.5 21.5t33.5 58.5q0 71 -113 71h-102v140h82q51 0 80.5 20t29.5 50
q0 66 -100 66q-114 0 -156 -92z" />
    <glyph glyph-name="four" unicode="4" horiz-adv-x="643" 
d="M376 0v122h-371v100l397 478h124v-443h107v-135h-107v-122h-150zM205 257h171v195z" />
    <glyph glyph-name="five" unicode="5" horiz-adv-x="629" 
d="M64 346l37 354h468v-145h-336l-13 -108q40 20 143 20q117 0 181.5 -63.5t64.5 -170.5q0 -110 -76 -175.5t-207 -65.5q-109 0 -183.5 40.5t-122.5 138.5l140 62q17 -41 62 -66t100 -25q60 0 93.5 24t33.5 64q0 46 -33 71.5t-96 25.5q-51 0 -82.5 -10t-68.5 -33z" />
    <glyph glyph-name="six" unicode="6" horiz-adv-x="648" 
d="M30 331q0 183 90.5 280.5t238.5 97.5q84 0 139 -28t99 -75l-86 -110q-24 21 -41.5 33.5t-47.5 23.5t-63 11q-81 0 -127.5 -47t-46.5 -124q63 88 202 88q111 0 176 -63t65 -166q0 -114 -78 -187.5t-195 -73.5q-147 0 -236 89t-89 251zM209 250q1 -44 39.5 -79t93.5 -35
q56 0 91 30t35 77q0 45 -32 71.5t-85 26.5q-54 0 -92.5 -29t-49.5 -62z" />
    <glyph glyph-name="seven" unicode="7" horiz-adv-x="570" 
d="M10 555v145h550v-97l-303 -603h-161l280 555h-366z" />
    <glyph glyph-name="eight" unicode="8" horiz-adv-x="668" 
d="M321 424h28q47 0 77.5 19.5t30.5 54.5q0 70 -124 70q-122 0 -122 -69q0 -33 29 -54t81 -21zM347 294h-23q-66 0 -100 -22.5t-34 -57.5q0 -39 37 -60.5t107 -21.5q144 0 144 79q0 83 -131 83zM335 -8q-145 0 -225 55.5t-80 154.5q0 51 28 97t73 66q-34 16 -57 57.5
t-23 82.5q0 92 75.5 147.5t207.5 55.5q137 0 210 -54.5t73 -148.5q0 -96 -79 -136q50 -18 75 -62.5t25 -100.5q0 -101 -82 -157.5t-221 -56.5z" />
    <glyph glyph-name="nine" unicode="9" horiz-adv-x="668" 
d="M638 369q0 -183 -90 -280.5t-239 -97.5q-87 0 -157.5 30t-110.5 73l86 110q31 -27 82 -47.5t100 -20.5q85 0 130 45.5t44 105.5q-57 -68 -179 -68q-134 0 -209 64t-75 172q0 111 82.5 182.5t211.5 71.5q148 0 236 -89t88 -251zM465 430q-2 56 -39.5 95t-101.5 39
q-65 0 -104.5 -29.5t-39.5 -77.5q0 -44 37.5 -71t94.5 -27q58 0 101 21t52 50z" />
    <glyph glyph-name="colon" unicode=":" horiz-adv-x="289" 
d="M60 445q0 29 24.5 51.5t61.5 22.5q34 0 58.5 -23t24.5 -51q0 -31 -24 -54t-59 -23q-38 0 -62 22.5t-24 54.5zM60 75q0 29 24.5 52t61.5 23q34 0 58.5 -23.5t24.5 -51.5q0 -31 -24 -54t-59 -23q-38 0 -62 23t-24 54z" />
    <glyph glyph-name="semicolon" unicode=";" horiz-adv-x="288" 
d="M56 445q0 29 24.5 51.5t61.5 22.5q34 0 58.5 -23t24.5 -51q0 -31 -24 -54t-59 -23q-38 0 -62 22.5t-24 54.5zM113 -5q-22 8 -38.5 30t-16.5 46q0 36 22.5 55.5t63.5 19.5q40 0 62 -25.5t22 -67.5q0 -76 -45.5 -128t-108.5 -64l-34 85q25 3 47 15t26 34z" />
    <glyph glyph-name="less" unicode="&#x3c;" horiz-adv-x="540" 
d="M480 35l-470 296v61l470 292v-156l-269 -168l269 -168v-157z" />
    <glyph glyph-name="equal" unicode="=" horiz-adv-x="575" 
d="M60 391v126h455v-126h-455zM60 200v126h455v-126h-455z" />
    <glyph glyph-name="greater" unicode="&#x3e;" horiz-adv-x="540" 
d="M530 331l-470 -296v157l271 168l-271 168v156l470 -292v-61z" />
    <glyph glyph-name="question" unicode="?" horiz-adv-x="625" 
d="M435 490q0 28 -30 48t-79 20q-62 0 -98.5 -23t-56.5 -70l-141 49q20 64 70.5 109.5t109.5 65t122 19.5q123 0 193 -55t70 -138q0 -53 -17.5 -92t-44 -59.5t-57 -37.5t-57 -27.5t-44 -27t-17.5 -39.5q0 -10 2 -21t2 -14l-141 -2q-9 25 -9 52q0 45 23 77.5t56 50t65.5 32
t55.5 35t23 48.5zM202 75q0 29 24.5 52t61.5 23q34 0 58.5 -23.5t24.5 -51.5q0 -31 -24 -54t-59 -23q-38 0 -62 23t-24 54z" />
    <glyph glyph-name="at" unicode="@" horiz-adv-x="948" 
d="M554 0v24q-42 -32 -106 -32q-98 0 -162.5 67.5t-64.5 175.5q0 109 77 181.5t193 72.5q123 0 208 -66v-287q35 13 52 47t17 104q0 121 -78.5 185t-207.5 64t-215.5 -82.5t-86.5 -212.5q0 -128 84 -212t218 -84q79 0 144 23l10 -131q-69 -22 -154 -22q-203 0 -322.5 120.5
t-119.5 305.5q0 189 124 307t318 118q197 0 311.5 -102.5t114.5 -274.5q0 -114 -67 -201.5t-185 -87.5h-102zM475 122q23 0 45 14.5t34 36.5v169q-22 17 -64 17q-52 0 -85.5 -36t-33.5 -93q0 -49 28.5 -78.5t75.5 -29.5z" />
    <glyph glyph-name="A" unicode="A" horiz-adv-x="721" 
d="M-4 0l307 700h115l307 -700h-162l-57 130h-293l-57 -130h-160zM359 470l-92 -209h182z" />
    <glyph glyph-name="B" unicode="B" horiz-adv-x="678" 
d="M65 0v700h313q242 0 242 -179q0 -91 -68 -150q91 -43 91 -163q0 -106 -74 -157t-199 -51h-305zM362 287h-142v-142h134q69 0 98 16.5t29 55.5q0 37 -27 53.5t-92 16.5zM352 555h-132v-128h145q46 0 70 15.5t24 43.5q0 36 -23 52.5t-84 16.5z" />
    <glyph glyph-name="C" unicode="C" horiz-adv-x="696" 
d="M594 231l92 -99q-47 -69 -125.5 -106.5t-172.5 -37.5q-163 0 -260.5 99.5t-97.5 262.5q0 153 101 257.5t261 104.5q94 0 169.5 -36.5t113.5 -96.5l-105 -96q-30 38 -76 58.5t-91 20.5q-95 0 -153.5 -57.5t-58.5 -154.5q0 -94 59.5 -153t150.5 -59q119 0 193 93z" />
    <glyph glyph-name="D" unicode="D" horiz-adv-x="720" 
d="M65 0v700h222q109 0 189 -27t125.5 -75.5t67 -107.5t21.5 -131q0 -160 -104 -259.5t-314 -99.5h-207zM285 555h-65v-410h65q245 0 245 214q0 196 -245 196z" />
    <glyph glyph-name="E" unicode="E" horiz-adv-x="649" 
d="M65 0v700h535v-145h-380v-130h355v-140h-355v-140h389v-145h-544z" />
    <glyph glyph-name="F" unicode="F" horiz-adv-x="620" 
d="M65 0v700h530v-145h-375v-153h350v-145h-350v-257h-155z" />
    <glyph glyph-name="G" unicode="G" horiz-adv-x="731" 
d="M365 252v140h326v-283q-52 -57 -125.5 -89t-156.5 -32q-166 0 -272.5 100t-106.5 262q0 153 101.5 257.5t260.5 104.5q90 0 168 -34.5t115 -91.5l-107 -96q-64 72 -170 72q-96 0 -151.5 -56.5t-55.5 -155.5q0 -100 60.5 -156t158.5 -56q77 0 132 40v74h-177z" />
    <glyph glyph-name="H" unicode="H" horiz-adv-x="751" 
d="M531 0v280h-311v-280h-155v700h155v-275h311v275h155v-700h-155z" />
    <glyph glyph-name="I" unicode="I" horiz-adv-x="295" 
d="M70 0v700h155v-700h-155z" />
    <glyph glyph-name="J" unicode="J" horiz-adv-x="486" 
d="M426 700v-481q0 -111 -57 -171t-155 -60q-159 0 -224 134l113 87q37 -76 97 -76q38 0 54.5 28.5t16.5 87.5v451h155z" />
    <glyph glyph-name="K" unicode="K" horiz-adv-x="701" 
d="M65 0v700h155v-273l269 273h202l-304 -310l324 -390h-204l-237 286l-50 -51v-235h-155z" />
    <glyph glyph-name="L" unicode="L" horiz-adv-x="608" 
d="M65 0v700h155v-555h378v-145h-533z" />
    <glyph glyph-name="M" unicode="M" horiz-adv-x="851" 
d="M65 0v700h144l224 -335l213 335h140v-700h-155v420l-182 -279h-41l-188 282v-423h-155z" />
    <glyph glyph-name="N" unicode="N" horiz-adv-x="740" 
d="M675 0h-120l-339 415v-415h-151v700h119l340 -416v416h151v-700z" />
    <glyph glyph-name="O" unicode="O" horiz-adv-x="781" 
d="M30 350q0 152 104.5 257t256.5 105q151 0 255.5 -103.5t104.5 -258.5q0 -154 -104.5 -258t-255.5 -104t-256 103.5t-105 258.5zM191 350q0 -94 58.5 -153t141.5 -59q85 0 142 58.5t57 153.5q0 94 -59.5 153t-139.5 59q-83 0 -141.5 -59t-58.5 -153z" />
    <glyph glyph-name="P" unicode="P" horiz-adv-x="677" 
d="M220 0h-155v700h290q85 0 146 -21t92.5 -57t45 -76t13.5 -87q0 -100 -72 -169.5t-225 -69.5h-135v-220zM359 555h-139v-190h133q138 0 138 95t-132 95z" />
    <glyph glyph-name="Q" unicode="Q" horiz-adv-x="781" 
d="M30 350q0 153 103 257.5t258 104.5q159 0 259.5 -102.5t100.5 -259.5q0 -144 -92 -242l60 -74l-108 -87l-64 78q-79 -37 -156 -37q-161 0 -261 99.5t-100 262.5zM191 350q0 -96 56 -154t144 -58q37 0 70 13l-56 64l98 83l56 -68q31 44 31 120q0 96 -56 154t-143 58
q-88 0 -144 -58t-56 -154z" />
    <glyph glyph-name="R" unicode="R" horiz-adv-x="689" 
d="M220 0h-155v700h283q80 0 137.5 -19t88 -52.5t44 -71.5t13.5 -85q0 -68 -37 -124t-100 -81l195 -267h-187l-171 239h-111v-239zM345 555h-125v-171h131q57 0 88 23t31 65q0 41 -27.5 62t-97.5 21z" />
    <glyph glyph-name="S" unicode="S" horiz-adv-x="619" 
d="M429 194q0 28 -29 47.5t-72 30t-94 27.5t-94 38t-72 63.5t-29 102.5q0 87 75.5 150t195.5 63q177 0 274 -129l-104 -100q-76 84 -176 84q-105 0 -105 -66q0 -25 29 -42t72 -26.5t94 -26.5t94 -38t72 -64t29 -102q0 -95 -76 -158.5t-189 -63.5q-119 0 -202 48t-122 123
l113 94q35 -56 89 -88t118 -32q55 0 82 18.5t27 46.5z" />
    <glyph glyph-name="T" unicode="T" horiz-adv-x="604" 
d="M0 555v145h604v-145h-225v-555h-155v555h-224z" />
    <glyph glyph-name="U" unicode="U" horiz-adv-x="720" 
d="M665 700v-400q0 -64 -17 -116t-45 -87t-66.5 -59t-80.5 -34.5t-88 -10.5q-133 0 -223 82t-90 231v394h155v-376q0 -85 41 -135.5t117 -50.5q142 0 142 182v380h155z" />
    <glyph glyph-name="V" unicode="V" horiz-adv-x="730" 
d="M740 700l-313 -700h-108l-329 700h171l213 -464l199 464h167z" />
    <glyph glyph-name="W" unicode="W" horiz-adv-x="971" 
d="M971 700l-207 -700h-126l-149 424l-145 -424h-126l-218 700h160l128 -422l140 422h124l143 -419l122 419h154z" />
    <glyph glyph-name="X" unicode="X" horiz-adv-x="707" 
d="M699 700l-253 -345l261 -355h-189l-164 229l-165 -229h-189l262 355l-251 345h187l157 -217l156 217h188z" />
    <glyph glyph-name="Y" unicode="Y" horiz-adv-x="700" 
d="M710 700l-284 -449v-251h-155v251l-281 449h185l176 -280l180 280h179z" />
    <glyph glyph-name="Z" unicode="Z" horiz-adv-x="635" 
d="M27 555v145h579v-103l-373 -452h382v-145h-605v103l371 452h-354z" />
    <glyph glyph-name="bracketleft" unicode="[" horiz-adv-x="374" 
d="M60 -175v884h304v-145h-149v-594h149v-145h-304z" />
    <glyph glyph-name="backslash" unicode="\" horiz-adv-x="377" 
d="M92 721l325 -871l-132 -50l-325 879z" />
    <glyph glyph-name="bracketright" unicode="]" horiz-adv-x="374" 
d="M314 709v-884h-304v145h149v594h-149v145h304z" />
    <glyph glyph-name="asciicircum" unicode="^" horiz-adv-x="533" 
d="M10 394l212 313h90l211 -313h-169l-87 134l-89 -134h-168z" />
    <glyph glyph-name="underscore" unicode="_" horiz-adv-x="355" 
d="M0 -175v130h355v-130h-355z" />
    <glyph glyph-name="grave" unicode="`" horiz-adv-x="364" 
d="M278 587l-147 160l114 86l119 -177z" />
    <glyph glyph-name="a" unicode="a" horiz-adv-x="532" 
d="M117 346l-69 105q77 80 229 80q101 0 157 -56.5t56 -159.5v-315h-145v47q-18 -21 -56.5 -37t-83.5 -16q-86 0 -138 46.5t-52 123.5q0 85 67.5 128t168.5 43q58 0 94 -13q1 39 -20 56.5t-64 17.5q-42 0 -72.5 -10.5t-71.5 -39.5zM235 119q36 0 66.5 17t43.5 42v24
q-35 13 -79 13q-101 0 -101 -51q0 -21 18.5 -33t51.5 -12z" />
    <glyph glyph-name="b" unicode="b" horiz-adv-x="593" 
d="M45 0v730h145v-245q17 22 57.5 34t84.5 12q110 0 175.5 -70t65.5 -193q0 -127 -70.5 -201.5t-186.5 -74.5q-75 0 -126 29v-21h-145zM302 396q-86 0 -112 -68v-137q37 -64 112 -64q56 0 88.5 34.5t32.5 101.5q0 66 -32 99.5t-89 33.5z" />
    <glyph glyph-name="c" unicode="c" horiz-adv-x="540" 
d="M431 195l106 -63q-35 -68 -97.5 -104t-137.5 -36q-127 0 -204.5 73.5t-77.5 195.5q0 117 77 193.5t198 76.5q89 0 150.5 -35.5t87.5 -94.5l-108 -70q-48 65 -121 65q-60 0 -97 -37t-37 -98q0 -56 41 -95t107 -39q72 0 113 68z" />
    <glyph glyph-name="d" unicode="d" horiz-adv-x="586" 
d="M396 0v41q-17 -19 -51 -34t-80 -15q-110 0 -177.5 70t-67.5 197q0 118 74 195t180 77q83 0 122 -25v224h145v-730h-145zM296 127q30 0 59 17t41 44v168q-32 40 -91 40q-58 0 -96.5 -35.5t-38.5 -99.5q0 -62 35 -98t91 -36z" />
    <glyph glyph-name="e" unicode="e" horiz-adv-x="558" 
d="M438 184l87 -88q-83 -104 -224 -104q-127 0 -204 73.5t-77 195.5q0 118 71 194t199 76q108 0 178 -66t70 -173q0 -32 -8 -84h-358q20 -81 131 -81q39 0 76 15t59 42zM285 401q-83 0 -110 -68h213q-18 68 -103 68z" />
    <glyph glyph-name="f" unicode="f" horiz-adv-x="348" 
d="M5 385v135h72v10q0 106 53 157t136 51q95 0 141 -61l-80 -94q-18 20 -52 20q-54 0 -54 -73v-10h131v-135h-130v-385h-145v385h-72z" />
    <glyph glyph-name="g" unicode="g" horiz-adv-x="579" 
d="M534 520v-475q0 -127 -64.5 -190.5t-182.5 -63.5q-91 0 -153.5 37.5t-88.5 105.5l127 53q32 -61 101 -61q116 0 116 90v23q-32 -47 -117 -47q-113 0 -182.5 70t-69.5 199q0 121 75 193.5t177 72.5q77 0 117 -28v21h145zM297 127q33 0 57.5 16.5t34.5 41.5v173
q-28 34 -93 34q-55 0 -90.5 -34.5t-35.5 -98.5t33.5 -98t93.5 -34z" />
    <glyph glyph-name="h" unicode="h" horiz-adv-x="574" 
d="M45 0v730h145v-243q48 43 138 43q105 0 155.5 -57.5t50.5 -181.5v-291h-145v284q0 61 -23 86t-76 25q-63 0 -100 -62v-333h-145z" />
    <glyph glyph-name="i" unicode="i" horiz-adv-x="253" 
d="M54 0v520h145v-520h-145zM45 658q0 31 23 51.5t59 20.5q35 0 58 -20.5t23 -51.5q0 -32 -23 -53t-58 -21q-38 0 -60 20.5t-22 53.5z" />
    <glyph glyph-name="j" unicode="j" horiz-adv-x="252" 
d="M200 520v-518q0 -101 -45.5 -156t-137.5 -55q-138 0 -187 120l127 49q17 -34 47 -34q51 0 51 79v515h145zM45 659q0 31 22.5 51.5t60.5 20.5q34 0 56.5 -20.5t22.5 -51.5q0 -33 -21.5 -53.5t-57.5 -20.5q-38 0 -60.5 20.5t-22.5 53.5z" />
    <glyph glyph-name="k" unicode="k" horiz-adv-x="532" 
d="M45 0v730h145v-386l164 176h186l-223 -227l230 -293h-184l-155 196l-18 -12v-184h-145z" />
    <glyph glyph-name="l" unicode="l" horiz-adv-x="235" 
d="M45 0v730h145v-730h-145z" />
    <glyph glyph-name="m" unicode="m" horiz-adv-x="826" 
d="M786 346v-346h-145v305q0 90 -67 90q-58 0 -86 -63v-332h-145v329q0 30 -16 48t-45 18q-67 0 -92 -64v-331h-145v520h145v-35q41 45 125 45q81 0 134 -56q29 30 60 43t76 13q97 0 149 -47t52 -137z" />
    <glyph glyph-name="n" unicode="n" horiz-adv-x="577" 
d="M45 0v520h145v-37q39 47 142 47q102 0 153.5 -57.5t51.5 -180.5v-292h-145v283q0 61 -24.5 86.5t-77.5 25.5q-72 0 -100 -69v-326h-145z" />
    <glyph glyph-name="o" unicode="o" horiz-adv-x="604" 
d="M20 261q0 118 78.5 194t202.5 76t203.5 -76t79.5 -194q0 -117 -79.5 -193t-203.5 -76q-121 0 -201 76t-80 193zM170 261q0 -58 36.5 -96t94.5 -38q60 0 96.5 36t36.5 98t-38 98.5t-95 36.5t-94 -36t-37 -99z" />
    <glyph glyph-name="p" unicode="p" horiz-adv-x="582" 
d="M45 -200v720h145v-27q41 38 116 38q117 0 186.5 -73t69.5 -190q0 -120 -71.5 -198t-188.5 -78q-89 0 -112 26v-218h-145zM290 396q-68 0 -100 -59v-166q13 -19 37.5 -31.5t54.5 -12.5q60 0 95 35t35 95q0 68 -32 103.5t-90 35.5z" />
    <glyph glyph-name="q" unicode="q" horiz-adv-x="579" 
d="M389 -200v225q-37 -33 -116 -33q-112 0 -182.5 73.5t-70.5 195.5q0 119 79 192.5t195 73.5q62 0 95 -20v13h145v-720h-145zM297 127q27 0 53.5 13t38.5 35v185q-31 32 -92 32q-54 0 -90.5 -36t-36.5 -97q0 -62 36 -97t91 -35z" />
    <glyph glyph-name="r" unicode="r" horiz-adv-x="362" 
d="M45 0v520h145v-21q9 12 32.5 21.5t47.5 9.5q39 0 61 -10.5t41 -34.5l-74 -116q-11 21 -47 21q-46 0 -61 -54v-336h-145z" />
    <glyph glyph-name="s" unicode="s" horiz-adv-x="496" 
d="M331 155q0 13 -30.5 24t-73.5 23t-86.5 30t-74 53.5t-30.5 84.5q0 75 59.5 118t164.5 43q71 0 130.5 -27.5t85.5 -66.5l-99 -95q-52 54 -146 54q-45 0 -45 -25q0 -12 30.5 -21.5t73.5 -21t86.5 -29.5t74 -55t30.5 -88q0 -81 -62.5 -122.5t-157.5 -41.5q-90 0 -154.5 35.5
t-94.5 90.5l115 78q22 -29 63 -49t87 -20q54 0 54 28z" />
    <glyph glyph-name="t" unicode="t" horiz-adv-x="446" 
d="M5 385v135h99v121h145v-121h159v-135h-159v-169q0 -47 12 -67t41 -20q46 0 89 34l60 -103q-63 -66 -163 -66q-84 0 -134 45.5t-50 133.5v212h-99z" />
    <glyph glyph-name="u" unicode="u" horiz-adv-x="570" 
d="M525 523v-523h-145v34q-54 -42 -122 -42q-110 0 -164 57t-54 177v297h145v-286q0 -110 88 -110q69 0 107 64v332h145z" />
    <glyph glyph-name="v" unicode="v" horiz-adv-x="527" 
d="M552 520l-228 -520h-110l-239 520h163l133 -300l127 300h154z" />
    <glyph glyph-name="w" unicode="w" horiz-adv-x="747" 
d="M762 520l-167 -520h-115l-104 282l-105 -282h-114l-172 520h150l88 -273l100 273h108l101 -273l83 273h147z" />
    <glyph glyph-name="x" unicode="x" horiz-adv-x="576" 
d="M577 520l-199 -252l208 -268h-180l-119 159l-123 -159h-174l208 267l-198 253h179l111 -141l112 141h175z" />
    <glyph glyph-name="y" unicode="y" horiz-adv-x="557" 
d="M572 520l-293 -720h-157l107 244l-249 476h169l151 -302l117 302h155z" />
    <glyph glyph-name="z" unicode="z" horiz-adv-x="514" 
d="M35 385v135h459v-93l-259 -292h254v-135h-469v94l258 291h-243z" />
    <glyph glyph-name="braceleft" unicode="{" horiz-adv-x="362" 
d="M89 -21v144q0 48 -19 63.5t-60 15.5v128q47 0 63 12t16 52v151q0 91 40.5 127.5t135.5 36.5h87v-128h-58q-34 0 -45.5 -14.5t-11.5 -54.5v-145q0 -71 -50 -97q50 -22 50 -102v-153q0 -35 11 -48.5t44 -13.5h60v-128h-105q-79 0 -118.5 37t-39.5 117z" />
    <glyph glyph-name="bar" unicode="|" horiz-adv-x="315" 
d="M80 0v700h155v-700h-155z" />
    <glyph glyph-name="braceright" unicode="}" horiz-adv-x="362" 
d="M273 123v-144q0 -80 -39.5 -117t-118.5 -37h-105v128h60q33 0 44 13.5t11 48.5v153q0 80 50 102q-50 26 -50 97v145q0 40 -11.5 54.5t-45.5 14.5h-58v128h87q95 0 135.5 -36.5t40.5 -127.5v-151q0 -40 16 -52t63 -12v-128q-41 0 -60 -15.5t-19 -63.5z" />
    <glyph glyph-name="asciitilde" unicode="~" horiz-adv-x="561" 
d="M85 258l-75 100q58 56 89 74q41 22 87 22q44 0 105.5 -32t88.5 -32q62 0 107 64l64 -102q-33 -40 -77 -64t-84 -24q-54 0 -114.5 32t-88.5 32q-50 0 -102 -70z" />
    <glyph glyph-name="uni00A0" unicode="&#xa0;" horiz-adv-x="236" 
 />
    <glyph glyph-name="exclamdown" unicode="&#xa1;" horiz-adv-x="309" 
d="M80 -182v503h151v-503h-151zM70 443q0 31 24 54t62 23q35 0 59 -23t24 -54q0 -28 -24.5 -51.5t-58.5 -23.5q-37 0 -61.5 23t-24.5 52z" />
    <glyph glyph-name="cent" unicode="&#xa2;" horiz-adv-x="545" 
d="M436 195l106 -63q-52 -102 -162 -131v-201h-155v201q-93 22 -146.5 90.5t-53.5 169.5q0 97 54.5 168t145.5 93v178h155v-178q117 -28 158 -121l-108 -70q-31 42 -70 57v-256q45 12 76 63zM175 261q0 -36 18.5 -67t51.5 -49v237q-70 -32 -70 -121z" />
    <glyph glyph-name="sterling" unicode="&#xa3;" horiz-adv-x="598" 
d="M55 248v124h47q-27 62 -27 121q0 87 64.5 150.5t169.5 63.5q139 0 227 -98l-82 -116q-70 69 -147 69q-33 0 -55 -20.5t-22 -59.5q0 -12 3.5 -27t7 -24.5t11.5 -29t12 -29.5h166v-124h-141v-12q0 -45 -23 -74q23 -1 74.5 -18t76.5 -17q30 0 49.5 12t44.5 45l77 -98
q-66 -86 -168 -86q-45 0 -114.5 21t-106.5 21q-66 0 -120 -53l-69 107q52 51 106 66q22 30 22 71v15h-83z" />
    <glyph glyph-name="currency" unicode="&#xa4;" horiz-adv-x="650" 
d="M77 347q0 68 31 123l-83 84l94 94l87 -85q58 27 119 27q68 0 119 -27l91 89l95 -94l-89 -89q33 -63 33 -122q0 -61 -33 -120l85 -86l-94 -95l-87 87q-51 -28 -120 -28t-121 28l-91 -91l-93 94l89 91q-32 58 -32 120zM222 347q0 -45 30 -75.5t73 -30.5q44 0 74 30t30 76
q0 48 -30.5 78t-73.5 30q-44 0 -73.5 -30.5t-29.5 -77.5z" />
    <glyph glyph-name="yen" unicode="&#xa5;" horiz-adv-x="700" 
d="M122 301v126h60l-192 273h192l169 -247l171 247h188l-195 -273h62v-126h-151v-65h151v-126h-151v-110h-155v110h-149v126h149v65h-149z" />
    <glyph glyph-name="brokenbar" unicode="&#xa6;" horiz-adv-x="315" 
d="M235 385h-155v315h155v-315zM80 315h155v-315h-155v315z" />
    <glyph glyph-name="section" unicode="&#xa7;" horiz-adv-x="498" 
d="M30 262q0 114 88 164q-44 47 -44 109q0 73 54 119t132 46q99 0 175 -98l-93 -86q-31 39 -72 39q-17 0 -29 -10.5t-12 -26.5q0 -23 10.5 -34t34.5 -21q87 -9 140.5 -64.5t53.5 -136.5q0 -108 -88 -166q42 -47 42 -106q0 -73 -53.5 -119t-131.5 -46q-99 0 -175 98l87 102
q35 -55 88 -55q17 0 27.5 11t10.5 29q0 15 -14.5 29t-37.5 21q-87 9 -140 64.5t-53 137.5zM178 262q0 -33 21 -55t50 -22q30 0 50.5 22t20.5 55q0 32 -20.5 54.5t-50.5 22.5q-29 0 -50 -22.5t-21 -54.5z" />
    <glyph glyph-name="dieresis" unicode="&#xa8;" horiz-adv-x="479" 
d="M115 660q0 30 23 50t55 20q30 0 54.5 -20t24.5 -50q0 -32 -24 -52t-55 -20q-32 0 -55 19.5t-23 52.5zM319 660q0 30 24 50t57 20q32 0 55.5 -20t23.5 -50q0 -33 -23 -52.5t-56 -19.5q-34 0 -57.5 19.5t-23.5 52.5z" />
    <glyph glyph-name="copyright" unicode="&#xa9;" horiz-adv-x="941" 
d="M40 237q0 177 123.5 299.5t306.5 122.5q187 0 309 -117.5t122 -304.5q0 -183 -123 -302.5t-308 -119.5q-188 0 -309 115t-121 307zM173 237q0 -132 85 -214t212 -82q131 0 214.5 82t83.5 214q0 136 -81.5 216t-216.5 80q-125 0 -211 -84t-86 -212zM604 185l80 -88
q-30 -45 -88 -75t-114 -30q-123 0 -192 67.5t-69 181.5q0 105 71.5 176.5t177.5 71.5q140 0 204 -100l-94 -82q-41 49 -97 49q-48 0 -82 -30.5t-34 -84.5t35 -85t87 -31q68 0 115 60z" />
    <glyph glyph-name="ordfeminine" unicode="&#xaa;" horiz-adv-x="464" 
d="M109 529l-44 90q67 41 178 42q76 1 118.5 -38t42.5 -109v-215h-130v27q-28 -31 -90 -31q-64 0 -101.5 31.5t-37.5 84.5q0 57 50 83.5t128 26.5q29 0 51 -7q0 18 -11 27.5t-43 9.5q-52 0 -111 -22zM221 400q32 0 53 16v16q-27 9 -52 9q-42 0 -42 -21q0 -12 8.5 -16
t32.5 -4z" />
    <glyph glyph-name="guillemotleft" unicode="&#xab;" horiz-adv-x="578" 
d="M217 38l-187 222v7l187 214l100 -89l-112 -130l113 -132zM447 38l-187 222v7l187 214l100 -89l-112 -130l113 -132z" />
    <glyph glyph-name="logicalnot" unicode="&#xac;" horiz-adv-x="524" 
d="M20 296v126h484v-241h-122v115h-362z" />
    <glyph glyph-name="uni00AD" unicode="&#xad;" horiz-adv-x="424" 
d="M60 217v130h304v-130h-304z" />
    <glyph glyph-name="registered" unicode="&#xae;" horiz-adv-x="576" 
d="M30 479q0 103 75.5 175.5t183.5 72.5q106 0 181.5 -72.5t75.5 -175.5q0 -105 -75.5 -178t-181.5 -73q-108 0 -183.5 73t-75.5 178zM75 478q0 -88 62 -146.5t151 -58.5q86 0 149.5 63t63.5 142q0 85 -64.5 144.5t-148.5 59.5q-89 0 -151 -61t-62 -143zM262 332h-106v295
h124q76 0 109 -28.5t33 -74.5q0 -61 -44 -86l55 -106h-118l-29 65h-24v-65zM307 513q0 16 -21 16h-24v-32h24q21 0 21 16z" />
    <glyph glyph-name="macron" unicode="&#xaf;" horiz-adv-x="454" 
d="M160 610v120h294v-120h-294z" />
    <glyph glyph-name="degree" unicode="&#xb0;" horiz-adv-x="417" 
d="M30 542q0 72 52 121t126 49q75 0 127 -48.5t52 -120.5q0 -71 -52.5 -120.5t-126.5 -49.5t-126 49t-52 120zM170 542q0 -17 11 -25.5t27 -8.5t27.5 8.5t11.5 25.5t-11.5 26t-27.5 9t-27 -8.5t-11 -26.5z" />
    <glyph glyph-name="plusminus" unicode="&#xb1;" horiz-adv-x="535" 
d="M40 365v125h164v175h125v-175h166v-125h-166v-94h-125v94h-164zM40 122v125h455v-125h-455z" />
    <glyph glyph-name="twosuperior" unicode="&#xb2;" horiz-adv-x="425" 
d="M125 549l-95 61q51 114 194 114q73 0 116 -35.5t43 -90.5q0 -96 -90 -153l-39 -25h141v-120h-351v101l78 45q126 72 126 119q0 39 -38 39q-61 0 -85 -55z" />
    <glyph glyph-name="threesuperior" unicode="&#xb3;" horiz-adv-x="432" 
d="M114 557l-87 70q58 98 185 98q79 0 125 -28.5t46 -76.5q0 -34 -14 -55.5t-44 -38.5q67 -25 67 -96q0 -60 -51 -97.5t-133 -37.5q-133 0 -188 112l99 57q15 -49 89 -49q27 0 38 5t11 18q0 22 -54 22h-39v100h33q51 0 51 24q0 21 -38 21q-35 0 -56 -11.5t-40 -36.5z" />
    <glyph glyph-name="acute" unicode="&#xb4;" horiz-adv-x="454" 
d="M437 751l-132 -164l-100 70l123 176z" />
    <glyph glyph-name="mu" unicode="&#xb5;" horiz-adv-x="577" 
d="M532 520v-520h-145v27q-47 -35 -122 -35q-44 0 -75 19v-210h-145v719h145v-283q0 -59 21.5 -84.5t69.5 -25.5q66 0 106 40v353h145z" />
    <glyph glyph-name="mu" unicode="&#x3bc;" horiz-adv-x="577" 
d="M532 520v-520h-145v27q-47 -35 -122 -35q-44 0 -75 19v-210h-145v719h145v-283q0 -59 21.5 -84.5t69.5 -25.5q66 0 106 40v353h145z" />
    <glyph glyph-name="paragraph" unicode="&#xb6;" horiz-adv-x="451" 
d="M22 465q0 109 63 172t171 63h175v-128h-82v-555q0 -97 -41.5 -148t-137.5 -51q-41 0 -82 17t-68 48l65 112q41 -32 81 -32q35 0 35 55v217q-81 15 -130 75.5t-49 154.5z" />
    <glyph glyph-name="periodcentered" unicode="&#xb7;" horiz-adv-x="236" 
d="M18 303q0 29 24.5 51.5t61.5 22.5q34 0 58.5 -23t24.5 -51q0 -31 -24 -54t-59 -23q-38 0 -62 22.5t-24 54.5z" />
    <glyph glyph-name="cedilla" unicode="&#xb8;" horiz-adv-x="468" 
d="M184 -161l44 69q28 -28 81 -28q29 0 29 13q0 17 -45 17h-6v90h75v-26q106 -9 106 -90q0 -43 -38.5 -68.5t-112.5 -25.5q-79 0 -133 49z" />
    <glyph glyph-name="onesuperior" unicode="&#xb9;" horiz-adv-x="330" 
d="M10 653l161 67h99v-420h-135v270l-77 -31z" />
    <glyph glyph-name="ordmasculine" unicode="&#xba;" horiz-adv-x="463" 
d="M40 478q0 83 52.5 133t138.5 50q87 0 139.5 -50t52.5 -133q0 -82 -52.5 -132.5t-139.5 -50.5q-86 0 -138.5 50.5t-52.5 132.5zM175 478q0 -27 16 -42.5t40 -15.5q57 0 57 58q0 27 -16 42.5t-41 15.5q-26 0 -41 -15.5t-15 -42.5z" />
    <glyph glyph-name="guillemotright" unicode="&#xbb;" horiz-adv-x="578" 
d="M548 260l-187 -222l-101 92l113 132l-112 130l100 89l187 -214v-7zM318 260l-187 -222l-101 92l113 132l-112 130l100 89l187 -214v-7z" />
    <glyph glyph-name="onequarter" unicode="&#xbc;" horiz-adv-x="899" 
d="M120 59l551 671l107 -86l-549 -675zM20 653l161 67h99v-420h-135v270l-77 -31zM686 0v64h-226v94l244 262h107v-241h68v-115h-68v-64h-125zM608 179h78v81z" />
    <glyph glyph-name="onehalf" unicode="&#xbd;" horiz-adv-x="965" 
d="M120 59l551 671l107 -86l-549 -675zM20 653l161 67h99v-420h-135v270l-77 -31zM655 249l-95 61q51 114 194 114q73 0 116 -35.5t43 -90.5q0 -96 -90 -153l-39 -25h141v-120h-351v101l78 45q126 72 126 119q0 39 -38 39q-61 0 -85 -55z" />
    <glyph glyph-name="threequarters" unicode="&#xbe;" horiz-adv-x="939" 
d="M160 59l551 671l107 -86l-549 -675zM726 0v64h-226v94l244 262h107v-241h68v-115h-68v-64h-125zM648 179h78v81zM114 557l-87 70q58 98 185 98q79 0 125 -28.5t46 -76.5q0 -34 -14 -55.5t-44 -38.5q67 -25 67 -96q0 -60 -51 -97.5t-133 -37.5q-133 0 -188 112l99 57
q15 -49 89 -49q27 0 38 5t11 18q0 22 -54 22h-39v100h33q51 0 51 24q0 21 -38 21q-35 0 -56 -11.5t-40 -36.5z" />
    <glyph glyph-name="questiondown" unicode="&#xbf;" horiz-adv-x="625" 
d="M190 28q0 -28 30 -48t79 -20q62 0 98.5 23t56.5 70l141 -49q-20 -64 -70.5 -109.5t-109.5 -65t-122 -19.5q-123 0 -193 55t-70 138q0 53 17.5 92t44 59.5t57 37.5t57 27.5t44 27t17.5 39.5q0 10 -2 21t-2 14l141 2q9 -25 9 -52q0 -45 -23 -77.5t-55.5 -50t-65.5 -32
t-56 -35t-23 -48.5zM423 443q0 -29 -24.5 -52t-61.5 -23q-34 0 -58.5 23.5t-24.5 51.5q0 31 24 54t59 23q38 0 62 -23t24 -54z" />
    <glyph glyph-name="Agrave" unicode="&#xc0;" horiz-adv-x="721" 
d="M-4 0l307 700h115l307 -700h-162l-57 130h-293l-57 -130h-160zM359 470l-92 -209h182zM410 733l-240 113l69 128l228 -142z" />
    <glyph glyph-name="Aacute" unicode="&#xc1;" horiz-adv-x="721" 
d="M-4 0l307 700h115l307 -700h-162l-57 130h-293l-57 -130h-160zM359 470l-92 -209h182zM577 846l-240 -113l-57 99l228 142z" />
    <glyph glyph-name="Acircumflex" unicode="&#xc2;" horiz-adv-x="721" 
d="M-4 0l307 700h115l307 -700h-162l-57 130h-293l-57 -130h-160zM359 470l-92 -209h182zM359 945l184 -117l-58 -85l-128 66l-128 -66l-52 83l178 119h4z" />
    <glyph glyph-name="Atilde" unicode="&#xc3;" horiz-adv-x="721" 
d="M-4 0l307 700h115l307 -700h-162l-57 130h-293l-57 -130h-160zM359 470l-92 -209h182zM218 766l-46 94q23 28 57.5 45.5t67.5 17.5q31 0 70 -15t65 -15q50 0 78 30l38 -94q-41 -66 -126 -66q-24 0 -66.5 15t-71.5 15q-33 0 -66 -27z" />
    <glyph glyph-name="Adieresis" unicode="&#xc4;" horiz-adv-x="721" 
d="M-4 0l307 700h115l307 -700h-162l-57 130h-293l-57 -130h-160zM359 470l-92 -209h182zM152 831q0 33 24.5 54.5t60.5 21.5q32 0 57.5 -22t25.5 -54q0 -33 -25.5 -55t-57.5 -22q-36 0 -60.5 21.5t-24.5 55.5zM401 831q0 32 25.5 54t59.5 22q32 0 57 -21.5t25 -54.5
t-25 -55t-57 -22q-35 0 -60 21.5t-25 55.5z" />
    <glyph glyph-name="Aring" unicode="&#xc5;" horiz-adv-x="721" 
d="M-4 0l307 700h115l307 -700h-162l-57 130h-293l-57 -130h-160zM359 470l-92 -209h182zM203 849q0 59 43.5 88.5t111.5 29.5q71 0 115.5 -29.5t44.5 -88.5q0 -58 -45 -89.5t-115 -31.5q-67 0 -111 31.5t-44 89.5zM313 849q0 -41 47 -41q48 0 48 41q0 38 -48 38
q-47 0 -47 -38z" />
    <glyph glyph-name="AE" unicode="&#xc6;" horiz-adv-x="1154" 
d="M570 0v130h-299l-102 -130h-169l527 700h578v-145h-380v-130h355v-140h-355v-140h389v-145h-544zM365 261h205v271z" />
    <glyph glyph-name="Ccedilla" unicode="&#xc7;" horiz-adv-x="696" 
d="M233 -157l54 65q28 -28 81 -28q29 0 29 13q0 17 -45 17h-6v84q-146 13 -231 108.5t-85 247.5q0 153 101 255.5t261 102.5q95 0 170 -34.5t113 -94.5l-105 -96q-30 37 -75.5 56t-91.5 19q-95 0 -153.5 -56t-58.5 -152q0 -93 59 -150.5t151 -57.5q122 0 193 89l92 -99
q-43 -62 -112 -97.5t-153 -40.5v-20q116 -7 116 -90q0 -94 -139 -94q-110 0 -165 53z" />
    <glyph glyph-name="Egrave" unicode="&#xc8;" horiz-adv-x="649" 
d="M65 0v700h535v-145h-380v-130h355v-140h-355v-140h389v-145h-544zM400 733l-240 113l69 128l228 -142z" />
    <glyph glyph-name="Eacute" unicode="&#xc9;" horiz-adv-x="649" 
d="M65 0v700h535v-145h-380v-130h355v-140h-355v-140h389v-145h-544zM537 846l-240 -113l-57 99l228 142z" />
    <glyph glyph-name="Ecircumflex" unicode="&#xca;" horiz-adv-x="649" 
d="M65 0v700h535v-145h-380v-130h355v-140h-355v-140h389v-145h-544zM338 945l184 -117l-58 -85l-128 66l-128 -66l-52 83l178 119h4z" />
    <glyph glyph-name="Edieresis" unicode="&#xcb;" horiz-adv-x="649" 
d="M65 0v700h535v-145h-380v-130h355v-140h-355v-140h389v-145h-544zM127 831q0 33 24.5 54.5t60.5 21.5q32 0 57.5 -22t25.5 -54q0 -33 -25.5 -55t-57.5 -22q-36 0 -60.5 21.5t-24.5 55.5zM376 831q0 32 25.5 54t59.5 22q32 0 57 -21.5t25 -54.5t-25 -55t-57 -22
q-35 0 -60 21.5t-25 55.5z" />
    <glyph glyph-name="Igrave" unicode="&#xcc;" horiz-adv-x="295" 
d="M70 0v700h155v-700h-155zM190 733l-240 113l69 128l228 -142z" />
    <glyph glyph-name="Iacute" unicode="&#xcd;" horiz-adv-x="295" 
d="M70 0v700h155v-700h-155zM357 846l-240 -113l-57 99l228 142z" />
    <glyph glyph-name="Icircumflex" unicode="&#xce;" horiz-adv-x="295" 
d="M70 0v700h155v-700h-155zM147 945l184 -117l-58 -85l-128 66l-128 -66l-52 83l178 119h4z" />
    <glyph glyph-name="Idieresis" unicode="&#xcf;" horiz-adv-x="295" 
d="M70 0v700h155v-700h-155zM-60 831q0 33 24.5 54.5t60.5 21.5q32 0 57.5 -22t25.5 -54q0 -33 -25.5 -55t-57.5 -22q-36 0 -60.5 21.5t-24.5 55.5zM189 831q0 32 25.5 54t59.5 22q32 0 57 -21.5t25 -54.5t-25 -55t-57 -22q-35 0 -60 21.5t-25 55.5z" />
    <glyph glyph-name="Eth" unicode="&#xd0;" horiz-adv-x="786" 
d="M20 285v129h111v286h222q109 0 189 -27t125.5 -75.5t67 -107.5t21.5 -131q0 -160 -104 -259.5t-314 -99.5h-207v285h-111zM351 555h-65v-141h158v-129h-158v-140h65q244 0 244 214q0 94 -57 145t-187 51z" />
    <glyph glyph-name="Ntilde" unicode="&#xd1;" horiz-adv-x="740" 
d="M675 0h-120l-339 415v-415h-151v700h119l340 -416v416h151v-700zM228 766l-46 94q23 28 57.5 45.5t67.5 17.5q31 0 70 -15t65 -15q50 0 78 30l38 -94q-41 -66 -126 -66q-24 0 -66.5 15t-71.5 15q-33 0 -66 -27z" />
    <glyph glyph-name="Ograve" unicode="&#xd2;" horiz-adv-x="781" 
d="M30 350q0 152 104.5 257t256.5 105q151 0 255.5 -103.5t104.5 -258.5q0 -154 -104.5 -258t-255.5 -104t-256 103.5t-105 258.5zM191 350q0 -94 58.5 -153t141.5 -59q85 0 142 58.5t57 153.5q0 94 -59.5 153t-139.5 59q-83 0 -141.5 -59t-58.5 -153zM445 733l-240 113
l69 128l228 -142z" />
    <glyph glyph-name="Oacute" unicode="&#xd3;" horiz-adv-x="781" 
d="M30 350q0 152 104.5 257t256.5 105q151 0 255.5 -103.5t104.5 -258.5q0 -154 -104.5 -258t-255.5 -104t-256 103.5t-105 258.5zM191 350q0 -94 58.5 -153t141.5 -59q85 0 142 58.5t57 153.5q0 94 -59.5 153t-139.5 59q-83 0 -141.5 -59t-58.5 -153zM602 846l-240 -113
l-57 99l228 142z" />
    <glyph glyph-name="Ocircumflex" unicode="&#xd4;" horiz-adv-x="781" 
d="M30 350q0 152 104.5 257t256.5 105q151 0 255.5 -103.5t104.5 -258.5q0 -154 -104.5 -258t-255.5 -104t-256 103.5t-105 258.5zM191 350q0 -94 58.5 -153t141.5 -59q85 0 142 58.5t57 153.5q0 94 -59.5 153t-139.5 59q-83 0 -141.5 -59t-58.5 -153zM389 945l184 -117
l-58 -85l-128 66l-128 -66l-52 83l178 119h4z" />
    <glyph glyph-name="Otilde" unicode="&#xd5;" horiz-adv-x="781" 
d="M30 350q0 152 104.5 257t256.5 105q151 0 255.5 -103.5t104.5 -258.5q0 -154 -104.5 -258t-255.5 -104t-256 103.5t-105 258.5zM191 350q0 -94 58.5 -153t141.5 -59q85 0 142 58.5t57 153.5q0 94 -59.5 153t-139.5 59q-83 0 -141.5 -59t-58.5 -153zM248 766l-46 94
q23 28 57.5 45.5t67.5 17.5q31 0 70 -15t65 -15q50 0 78 30l38 -94q-41 -66 -126 -66q-24 0 -66.5 15t-71.5 15q-33 0 -66 -27z" />
    <glyph glyph-name="Odieresis" unicode="&#xd6;" horiz-adv-x="781" 
d="M30 350q0 152 104.5 257t256.5 105q151 0 255.5 -103.5t104.5 -258.5q0 -154 -104.5 -258t-255.5 -104t-256 103.5t-105 258.5zM191 350q0 -94 58.5 -153t141.5 -59q85 0 142 58.5t57 153.5q0 94 -59.5 153t-139.5 59q-83 0 -141.5 -59t-58.5 -153zM182 831
q0 33 24.5 54.5t60.5 21.5q32 0 57.5 -22t25.5 -54q0 -33 -25.5 -55t-57.5 -22q-36 0 -60.5 21.5t-24.5 55.5zM431 831q0 32 25.5 54t59.5 22q32 0 57 -21.5t25 -54.5t-25 -55t-57 -22q-35 0 -60 21.5t-25 55.5z" />
    <glyph glyph-name="multiply" unicode="&#xd7;" horiz-adv-x="605" 
d="M80 482l92 92l123 -124l124 124l92 -92l-124 -124l124 -123l-92 -92l-124 124l-123 -124l-92 92l124 123z" />
    <glyph glyph-name="Oslash" unicode="&#xd8;" horiz-adv-x="781" 
d="M59 58l51 62q-80 98 -80 230q0 151 104.5 254.5t256.5 103.5q91 0 169 -40l50 61l107 -86l-49 -60q83 -97 83 -233q0 -153 -104.5 -255.5t-255.5 -102.5q-93 0 -171 40l-52 -64zM590 350q0 57 -26 106l-245 -302q35 -12 72 -12q85 0 142 56.5t57 151.5zM191 350
q0 -59 23 -103l245 299q-33 12 -68 12q-83 0 -141.5 -57t-58.5 -151z" />
    <glyph glyph-name="Ugrave" unicode="&#xd9;" horiz-adv-x="720" 
d="M665 700v-400q0 -64 -17 -116t-45 -87t-66.5 -59t-80.5 -34.5t-88 -10.5q-133 0 -223 82t-90 231v394h155v-376q0 -85 41 -135.5t117 -50.5q142 0 142 182v380h155zM415 733l-240 113l69 128l228 -142z" />
    <glyph glyph-name="Uacute" unicode="&#xda;" horiz-adv-x="720" 
d="M665 700v-400q0 -64 -17 -116t-45 -87t-66.5 -59t-80.5 -34.5t-88 -10.5q-133 0 -223 82t-90 231v394h155v-376q0 -85 41 -135.5t117 -50.5q142 0 142 182v380h155zM572 846l-240 -113l-57 99l228 142z" />
    <glyph glyph-name="Ucircumflex" unicode="&#xdb;" horiz-adv-x="720" 
d="M665 700v-400q0 -64 -17 -116t-45 -87t-66.5 -59t-80.5 -34.5t-88 -10.5q-133 0 -223 82t-90 231v394h155v-376q0 -85 41 -135.5t117 -50.5q142 0 142 182v380h155zM359 945l184 -117l-58 -85l-128 66l-128 -66l-52 83l178 119h4z" />
    <glyph glyph-name="Udieresis" unicode="&#xdc;" horiz-adv-x="720" 
d="M665 700v-400q0 -64 -17 -116t-45 -87t-66.5 -59t-80.5 -34.5t-88 -10.5q-133 0 -223 82t-90 231v394h155v-376q0 -85 41 -135.5t117 -50.5q142 0 142 182v380h155zM152 831q0 33 24.5 54.5t60.5 21.5q32 0 57.5 -22t25.5 -54q0 -33 -25.5 -55t-57.5 -22
q-36 0 -60.5 21.5t-24.5 55.5zM401 831q0 32 25.5 54t59.5 22q32 0 57 -21.5t25 -54.5t-25 -55t-57 -22q-35 0 -60 21.5t-25 55.5z" />
    <glyph glyph-name="Yacute" unicode="&#xdd;" horiz-adv-x="700" 
d="M710 700l-284 -449v-251h-155v251l-281 449h185l176 -280l180 280h179zM567 846l-240 -113l-57 99l228 142z" />
    <glyph glyph-name="Thorn" unicode="&#xde;" horiz-adv-x="662" 
d="M220 0h-155v700h155v-100h115q85 0 146 -21t92.5 -57t45 -76t13.5 -87q0 -100 -72 -169.5t-225 -69.5h-115v-120zM339 455h-119v-190h113q138 0 138 95t-132 95z" />
    <glyph glyph-name="germandbls" unicode="&#xdf;" horiz-adv-x="567" 
d="M291 738q106 0 162 -56t56 -154q0 -103 -75 -140q59 -20 83.5 -61t24.5 -111q0 -103 -54.5 -165t-161.5 -62q-61 0 -102 20l33 131q33 -16 60 -16q37 0 58.5 24.5t21.5 64.5q0 43 -26 64.5t-71 21.5h-49v135h14q99 0 99 80q0 42 -25 65.5t-62 23.5q-43 0 -65 -35.5
t-22 -130.5v-437h-145v436q0 302 246 302z" />
    <glyph glyph-name="agrave" unicode="&#xe0;" horiz-adv-x="532" 
d="M117 346l-69 105q77 80 229 80q101 0 157 -56.5t56 -159.5v-315h-145v47q-18 -21 -56.5 -37t-83.5 -16q-86 0 -138 46.5t-52 123.5q0 85 67.5 128t168.5 43q58 0 94 -13q1 39 -20 56.5t-64 17.5q-42 0 -72.5 -10.5t-71.5 -39.5zM235 119q36 0 66.5 17t43.5 42v24
q-35 13 -79 13q-101 0 -101 -51q0 -21 18.5 -33t51.5 -12zM268 587l-147 160l114 86l119 -177z" />
    <glyph glyph-name="aacute" unicode="&#xe1;" horiz-adv-x="532" 
d="M117 346l-69 105q77 80 229 80q101 0 157 -56.5t56 -159.5v-315h-145v47q-18 -21 -56.5 -37t-83.5 -16q-86 0 -138 46.5t-52 123.5q0 85 67.5 128t168.5 43q58 0 94 -13q1 39 -20 56.5t-64 17.5q-42 0 -72.5 -10.5t-71.5 -39.5zM235 119q36 0 66.5 17t43.5 42v24
q-35 13 -79 13q-101 0 -101 -51q0 -21 18.5 -33t51.5 -12zM414 751l-132 -164l-100 70l123 176z" />
    <glyph glyph-name="acircumflex" unicode="&#xe2;" horiz-adv-x="532" 
d="M117 346l-69 105q77 80 229 80q101 0 157 -56.5t56 -159.5v-315h-145v47q-18 -21 -56.5 -37t-83.5 -16q-86 0 -138 46.5t-52 123.5q0 85 67.5 128t168.5 43q58 0 94 -13q1 39 -20 56.5t-64 17.5q-42 0 -72.5 -10.5t-71.5 -39.5zM235 119q36 0 66.5 17t43.5 42v24
q-35 13 -79 13q-101 0 -101 -51q0 -21 18.5 -33t51.5 -12zM270 796l165 -136l-70 -88l-98 81l-100 -79l-67 87l166 135h4z" />
    <glyph glyph-name="atilde" unicode="&#xe3;" horiz-adv-x="532" 
d="M117 346l-69 105q77 80 229 80q101 0 157 -56.5t56 -159.5v-315h-145v47q-18 -21 -56.5 -37t-83.5 -16q-86 0 -138 46.5t-52 123.5q0 85 67.5 128t168.5 43q58 0 94 -13q1 39 -20 56.5t-64 17.5q-42 0 -72.5 -10.5t-71.5 -39.5zM235 119q36 0 66.5 17t43.5 42v24
q-35 13 -79 13q-101 0 -101 -51q0 -21 18.5 -33t51.5 -12zM145 599l-60 67q55 78 132 78q24 0 61 -19.5t57 -19.5q36 0 66 27l49 -75q-60 -72 -127 -72q-22 0 -59 19.5t-60 19.5q-28 0 -59 -25z" />
    <glyph glyph-name="adieresis" unicode="&#xe4;" horiz-adv-x="532" 
d="M117 346l-69 105q77 80 229 80q101 0 157 -56.5t56 -159.5v-315h-145v47q-18 -21 -56.5 -37t-83.5 -16q-86 0 -138 46.5t-52 123.5q0 85 67.5 128t168.5 43q58 0 94 -13q1 39 -20 56.5t-64 17.5q-42 0 -72.5 -10.5t-71.5 -39.5zM235 119q36 0 66.5 17t43.5 42v24
q-35 13 -79 13q-101 0 -101 -51q0 -21 18.5 -33t51.5 -12zM86 660q0 30 23 50t55 20q30 0 54.5 -20t24.5 -50q0 -32 -24 -52t-55 -20q-32 0 -55 19.5t-23 52.5zM290 660q0 30 24 50t57 20q32 0 55.5 -20t23.5 -50q0 -33 -23 -52.5t-56 -19.5q-34 0 -57.5 19.5t-23.5 52.5z
" />
    <glyph glyph-name="aring" unicode="&#xe5;" horiz-adv-x="532" 
d="M117 346l-69 105q77 80 229 80q101 0 157 -56.5t56 -159.5v-315h-145v47q-18 -21 -56.5 -37t-83.5 -16q-86 0 -138 46.5t-52 123.5q0 85 67.5 128t168.5 43q58 0 94 -13q1 39 -20 56.5t-64 17.5q-42 0 -72.5 -10.5t-71.5 -39.5zM235 119q36 0 66.5 17t43.5 42v24
q-35 13 -79 13q-101 0 -101 -51q0 -21 18.5 -33t51.5 -12zM130 701q0 54 39 91.5t98 37.5q60 0 99.5 -37.5t39.5 -91.5q0 -53 -39.5 -90t-99.5 -37q-59 0 -98 37t-39 90zM225 703q0 -20 12 -32t32 -12q19 0 30.5 12t11.5 32q0 19 -11.5 30.5t-30.5 11.5q-20 0 -32 -11.5
t-12 -30.5z" />
    <glyph glyph-name="ae" unicode="&#xe6;" horiz-adv-x="878" 
d="M748 184l87 -88q-83 -104 -214 -104q-133 0 -209 78q-73 -76 -188 -76q-99 0 -154 46t-55 124q0 85 67.5 128t168.5 43q58 0 94 -13q1 39 -20 56.5t-64 17.5q-42 0 -72.5 -10.5t-71.5 -39.5l-69 105q77 80 229 80q98 0 156 -56q70 56 177 56q108 0 178 -66t70 -173
q0 -32 -8 -84h-358q20 -81 131 -81q79 0 125 57zM235 119q36 0 66.5 17t43.5 42v24q-35 13 -79 13q-101 0 -101 -51q0 -21 18.5 -33t51.5 -12zM605 401q-83 0 -110 -68h213q-18 68 -103 68z" />
    <glyph glyph-name="ccedilla" unicode="&#xe7;" horiz-adv-x="540" 
d="M146 -161l44 69q28 -28 81 -28q29 0 29 13q0 17 -45 17h-6v86q-105 14 -167 85t-62 180q0 117 77 193.5t198 76.5q89 0 150.5 -35.5t87.5 -94.5l-108 -70q-48 65 -121 65q-60 0 -97 -37t-37 -98q0 -56 41 -95t107 -39q72 0 113 68l106 -63q-32 -62 -88.5 -98t-124.5 -41
v-19q106 -9 106 -90q0 -43 -38.5 -68.5t-112.5 -25.5q-79 0 -133 49z" />
    <glyph glyph-name="egrave" unicode="&#xe8;" horiz-adv-x="558" 
d="M438 184l87 -88q-83 -104 -224 -104q-127 0 -204 73.5t-77 195.5q0 118 71 194t199 76q108 0 178 -66t70 -173q0 -32 -8 -84h-358q20 -81 131 -81q39 0 76 15t59 42zM285 401q-83 0 -110 -68h213q-18 68 -103 68zM289 587l-147 160l114 86l119 -177z" />
    <glyph glyph-name="eacute" unicode="&#xe9;" horiz-adv-x="558" 
d="M438 184l87 -88q-83 -104 -224 -104q-127 0 -204 73.5t-77 195.5q0 118 71 194t199 76q108 0 178 -66t70 -173q0 -32 -8 -84h-358q20 -81 131 -81q39 0 76 15t59 42zM285 401q-83 0 -110 -68h213q-18 68 -103 68zM425 751l-132 -164l-100 70l123 176z" />
    <glyph glyph-name="ecircumflex" unicode="&#xea;" horiz-adv-x="558" 
d="M438 184l87 -88q-83 -104 -224 -104q-127 0 -204 73.5t-77 195.5q0 118 71 194t199 76q108 0 178 -66t70 -173q0 -32 -8 -84h-358q20 -81 131 -81q39 0 76 15t59 42zM285 401q-83 0 -110 -68h213q-18 68 -103 68zM292 796l165 -136l-70 -88l-98 81l-100 -79l-67 87
l166 135h4z" />
    <glyph glyph-name="edieresis" unicode="&#xeb;" horiz-adv-x="558" 
d="M438 184l87 -88q-83 -104 -224 -104q-127 0 -204 73.5t-77 195.5q0 118 71 194t199 76q108 0 178 -66t70 -173q0 -32 -8 -84h-358q20 -81 131 -81q39 0 76 15t59 42zM285 401q-83 0 -110 -68h213q-18 68 -103 68zM97 660q0 30 23 50t55 20q30 0 54.5 -20t24.5 -50
q0 -32 -24 -52t-55 -20q-32 0 -55 19.5t-23 52.5zM301 660q0 30 24 50t57 20q32 0 55.5 -20t23.5 -50q0 -33 -23 -52.5t-56 -19.5q-34 0 -57.5 19.5t-23.5 52.5z" />
    <glyph glyph-name="igrave" unicode="&#xec;" horiz-adv-x="263" 
d="M59 0v520h145v-520h-145zM142 587l-147 160l114 86l119 -177z" />
    <glyph glyph-name="iacute" unicode="&#xed;" horiz-adv-x="263" 
d="M59 0v520h145v-520h-145zM268 751l-132 -164l-100 70l123 176z" />
    <glyph glyph-name="icircumflex" unicode="&#xee;" horiz-adv-x="263" 
d="M59 0v520h145v-520h-145zM134 796l165 -136l-70 -88l-98 81l-100 -79l-67 87l166 135h4z" />
    <glyph glyph-name="idieresis" unicode="&#xef;" horiz-adv-x="263" 
d="M59 0v520h145v-520h-145zM-50 660q0 30 23 50t55 20q30 0 54.5 -20t24.5 -50q0 -32 -24 -52t-55 -20q-32 0 -55 19.5t-23 52.5zM154 660q0 30 24 50t57 20q32 0 55.5 -20t23.5 -50q0 -33 -23 -52.5t-56 -19.5q-34 0 -57.5 19.5t-23.5 52.5z" />
    <glyph glyph-name="eth" unicode="&#xf0;" horiz-adv-x="614" 
d="M274 780l100 -39l-20 -44q113 -54 174 -152t61 -233q0 -152 -77.5 -236t-205.5 -84q-121 0 -201 76t-80 193t78 188.5t203 71.5q51 0 91 -22q-31 50 -95 85l-21 -46l-99 39l19 43q-21 4 -61 8l35 120q42 -6 77 -15zM175 261q0 -58 36.5 -96t94.5 -38q61 0 97 38.5
t36 112.5q0 54 -10 78q-37 40 -100 40q-72 0 -113 -35.5t-41 -99.5z" />
    <glyph glyph-name="ntilde" unicode="&#xf1;" horiz-adv-x="577" 
d="M45 0v520h145v-37q39 47 142 47q102 0 153.5 -57.5t51.5 -180.5v-292h-145v283q0 61 -24.5 86.5t-77.5 25.5q-72 0 -100 -69v-326h-145zM168 599l-60 67q55 78 132 78q24 0 61 -19.5t57 -19.5q36 0 66 27l49 -75q-60 -72 -127 -72q-22 0 -59 19.5t-60 19.5q-28 0 -59 -25
z" />
    <glyph glyph-name="ograve" unicode="&#xf2;" horiz-adv-x="604" 
d="M20 261q0 118 78.5 194t202.5 76t203.5 -76t79.5 -194q0 -117 -79.5 -193t-203.5 -76q-121 0 -201 76t-80 193zM170 261q0 -58 36.5 -96t94.5 -38q60 0 96.5 36t36.5 98t-38 98.5t-95 36.5t-94 -36t-37 -99zM292 587l-147 160l114 86l119 -177z" />
    <glyph glyph-name="oacute" unicode="&#xf3;" horiz-adv-x="604" 
d="M20 261q0 118 78.5 194t202.5 76t203.5 -76t79.5 -194q0 -117 -79.5 -193t-203.5 -76q-121 0 -201 76t-80 193zM170 261q0 -58 36.5 -96t94.5 -38q60 0 96.5 36t36.5 98t-38 98.5t-95 36.5t-94 -36t-37 -99zM448 751l-132 -164l-100 70l123 176z" />
    <glyph glyph-name="ocircumflex" unicode="&#xf4;" horiz-adv-x="604" 
d="M20 261q0 118 78.5 194t202.5 76t203.5 -76t79.5 -194q0 -117 -79.5 -193t-203.5 -76q-121 0 -201 76t-80 193zM170 261q0 -58 36.5 -96t94.5 -38q60 0 96.5 36t36.5 98t-38 98.5t-95 36.5t-94 -36t-37 -99zM304 796l165 -136l-70 -88l-98 81l-100 -79l-67 87l166 135h4z
" />
    <glyph glyph-name="otilde" unicode="&#xf5;" horiz-adv-x="604" 
d="M20 261q0 118 78.5 194t202.5 76t203.5 -76t79.5 -194q0 -117 -79.5 -193t-203.5 -76q-121 0 -201 76t-80 193zM170 261q0 -58 36.5 -96t94.5 -38q60 0 96.5 36t36.5 98t-38 98.5t-95 36.5t-94 -36t-37 -99zM179 599l-60 67q55 78 132 78q24 0 61 -19.5t57 -19.5
q36 0 66 27l49 -75q-60 -72 -127 -72q-22 0 -59 19.5t-60 19.5q-28 0 -59 -25z" />
    <glyph glyph-name="odieresis" unicode="&#xf6;" horiz-adv-x="604" 
d="M20 261q0 118 78.5 194t202.5 76t203.5 -76t79.5 -194q0 -117 -79.5 -193t-203.5 -76q-121 0 -201 76t-80 193zM170 261q0 -58 36.5 -96t94.5 -38q60 0 96.5 36t36.5 98t-38 98.5t-95 36.5t-94 -36t-37 -99zM120 660q0 30 23 50t55 20q30 0 54.5 -20t24.5 -50
q0 -32 -24 -52t-55 -20q-32 0 -55 19.5t-23 52.5zM324 660q0 30 24 50t57 20q32 0 55.5 -20t23.5 -50q0 -33 -23 -52.5t-56 -19.5q-34 0 -57.5 19.5t-23.5 52.5z" />
    <glyph glyph-name="divide" unicode="&#xf7;" horiz-adv-x="555" 
d="M196 543q0 27 23 49.5t59 22.5q34 0 57.5 -22.5t23.5 -49.5q0 -29 -23 -51t-58 -22q-37 0 -59.5 21.5t-22.5 51.5zM196 175q0 29 22.5 50.5t59.5 21.5q35 0 58 -22t23 -50q0 -30 -23 -52t-58 -22q-37 0 -59.5 21.5t-22.5 52.5zM30 296v126h495v-126h-495z" />
    <glyph glyph-name="oslash" unicode="&#xf8;" horiz-adv-x="604" 
d="M20 261q0 118 78.5 194t202.5 76q63 0 118 -22l45 54l107 -86l-41 -50q54 -71 54 -166q0 -117 -79.5 -193t-203.5 -76q-60 0 -112 20l-51 -62l-109 90l46 55q-55 71 -55 166zM170 261q0 -25 6 -44l148 177q-16 2 -23 2q-57 0 -94 -36t-37 -99zM434 261q0 23 -6 42
l-144 -175q6 -1 17 -1q60 0 96.5 36t36.5 98z" />
    <glyph glyph-name="ugrave" unicode="&#xf9;" horiz-adv-x="570" 
d="M525 523v-523h-145v34q-54 -42 -122 -42q-110 0 -164 57t-54 177v297h145v-286q0 -110 88 -110q69 0 107 64v332h145zM293 587l-147 160l114 86l119 -177z" />
    <glyph glyph-name="uacute" unicode="&#xfa;" horiz-adv-x="570" 
d="M525 523v-523h-145v34q-54 -42 -122 -42q-110 0 -164 57t-54 177v297h145v-286q0 -110 88 -110q69 0 107 64v332h145zM419 751l-132 -164l-100 70l123 176z" />
    <glyph glyph-name="ucircumflex" unicode="&#xfb;" horiz-adv-x="570" 
d="M525 523v-523h-145v34q-54 -42 -122 -42q-110 0 -164 57t-54 177v297h145v-286q0 -110 88 -110q69 0 107 64v332h145zM285 796l165 -136l-70 -88l-98 81l-100 -79l-67 87l166 135h4z" />
    <glyph glyph-name="udieresis" unicode="&#xfc;" horiz-adv-x="570" 
d="M525 523v-523h-145v34q-54 -42 -122 -42q-110 0 -164 57t-54 177v297h145v-286q0 -110 88 -110q69 0 107 64v332h145zM101 660q0 30 23 50t55 20q30 0 54.5 -20t24.5 -50q0 -32 -24 -52t-55 -20q-32 0 -55 19.5t-23 52.5zM305 660q0 30 24 50t57 20q32 0 55.5 -20
t23.5 -50q0 -33 -23 -52.5t-56 -19.5q-34 0 -57.5 19.5t-23.5 52.5z" />
    <glyph glyph-name="yacute" unicode="&#xfd;" horiz-adv-x="557" 
d="M572 520l-293 -720h-157l107 244l-249 476h169l151 -302l117 302h155zM425 751l-132 -164l-100 70l123 176z" />
    <glyph glyph-name="thorn" unicode="&#xfe;" horiz-adv-x="587" 
d="M45 -200v930h145v-237q41 38 116 38q117 0 186.5 -73t69.5 -190q0 -120 -71.5 -198t-188.5 -78q-89 0 -112 26v-218h-145zM290 396q-68 0 -100 -59v-166q13 -19 37.5 -31.5t54.5 -12.5q60 0 95 35t35 95q0 68 -32 103.5t-90 35.5z" />
    <glyph glyph-name="ydieresis" unicode="&#xff;" horiz-adv-x="557" 
d="M572 520l-293 -720h-157l107 244l-249 476h169l151 -302l117 302h155zM97 660q0 30 23 50t55 20q30 0 54.5 -20t24.5 -50q0 -32 -24 -52t-55 -20q-32 0 -55 19.5t-23 52.5zM301 660q0 30 24 50t57 20q32 0 55.5 -20t23.5 -50q0 -33 -23 -52.5t-56 -19.5q-34 0 -57.5 19.5
t-23.5 52.5z" />
    <glyph glyph-name="Amacron" unicode="&#x100;" horiz-adv-x="721" 
d="M-4 0l307 700h115l307 -700h-162l-57 130h-293l-57 -130h-160zM359 470l-92 -209h182zM203 770v120h314v-120h-314z" />
    <glyph glyph-name="amacron" unicode="&#x101;" horiz-adv-x="532" 
d="M117 346l-69 105q77 80 229 80q101 0 157 -56.5t56 -159.5v-315h-145v47q-18 -21 -56.5 -37t-83.5 -16q-86 0 -138 46.5t-52 123.5q0 85 67.5 128t168.5 43q58 0 94 -13q1 39 -20 56.5t-64 17.5q-42 0 -72.5 -10.5t-71.5 -39.5zM235 119q36 0 66.5 17t43.5 42v24
q-35 13 -79 13q-101 0 -101 -51q0 -21 18.5 -33t51.5 -12zM121 610v120h294v-120h-294z" />
    <glyph glyph-name="Abreve" unicode="&#x102;" horiz-adv-x="721" 
d="M-4 0l307 700h115l307 -700h-162l-57 130h-293l-57 -130h-160zM359 470l-92 -209h182zM159 863l64 77q58 -60 143 -60q86 0 140 60l55 -78q-28 -47 -81.5 -79.5t-113.5 -32.5q-66 0 -122.5 34t-84.5 79z" />
    <glyph glyph-name="abreve" unicode="&#x103;" horiz-adv-x="532" 
d="M117 346l-69 105q77 80 229 80q101 0 157 -56.5t56 -159.5v-315h-145v47q-18 -21 -56.5 -37t-83.5 -16q-86 0 -138 46.5t-52 123.5q0 85 67.5 128t168.5 43q58 0 94 -13q1 39 -20 56.5t-64 17.5q-42 0 -72.5 -10.5t-71.5 -39.5zM235 119q36 0 66.5 17t43.5 42v24
q-35 13 -79 13q-101 0 -101 -51q0 -21 18.5 -33t51.5 -12zM92 707l66 75q47 -52 105 -52q68 0 110 50l51 -72q-65 -98 -167 -98q-61 0 -103 31t-62 66z" />
    <glyph glyph-name="Aogonek" unicode="&#x104;" horiz-adv-x="721" 
d="M680 -70l45 -90q-13 -16 -47 -28t-73 -12q-63 0 -104 24t-41 71q0 73 102 106l-56 129h-293l-57 -130h-160l307 700h115l307 -700h-25q-38 -2 -64 -19t-26 -35q0 -26 30 -26q19 0 40 10zM359 470l-92 -209h182z" />
    <glyph glyph-name="aogonek" unicode="&#x105;" horiz-adv-x="535" 
d="M459 -70l45 -90q-13 -16 -47 -28t-73 -12q-63 0 -104 24t-41 71q0 75 106 108v44q-18 -21 -56.5 -37t-83.5 -16q-86 0 -138 46.5t-52 123.5q0 85 67.5 128t168.5 43q58 0 94 -13q1 39 -20 56.5t-64 17.5q-42 0 -72.5 -10.5t-71.5 -39.5l-69 105q77 80 229 80
q101 0 157 -56.5t56 -159.5v-315h-11q-38 -2 -64 -19t-26 -35q0 -26 30 -26q19 0 40 10zM235 119q36 0 66.5 17t43.5 42v24q-35 13 -79 13q-101 0 -101 -51q0 -21 18.5 -33t51.5 -12z" />
    <glyph glyph-name="Cacute" unicode="&#x106;" horiz-adv-x="696" 
d="M594 231l92 -99q-47 -69 -125.5 -106.5t-172.5 -37.5q-163 0 -260.5 99.5t-97.5 262.5q0 153 101 257.5t261 104.5q94 0 169.5 -36.5t113.5 -96.5l-105 -96q-30 38 -76 58.5t-91 20.5q-95 0 -153.5 -57.5t-58.5 -154.5q0 -94 59.5 -153t150.5 -59q119 0 193 93zM587 846
l-240 -113l-57 99l228 142z" />
    <glyph glyph-name="cacute" unicode="&#x107;" horiz-adv-x="540" 
d="M431 195l106 -63q-35 -68 -97.5 -104t-137.5 -36q-127 0 -204.5 73.5t-77.5 195.5q0 117 77 193.5t198 76.5q89 0 150.5 -35.5t87.5 -94.5l-108 -70q-48 65 -121 65q-60 0 -97 -37t-37 -98q0 -56 41 -95t107 -39q72 0 113 68zM454 751l-132 -164l-100 70l123 176z" />
    <glyph glyph-name="Ccircumflex" unicode="&#x108;" horiz-adv-x="696" 
d="M594 231l92 -99q-47 -69 -125.5 -106.5t-172.5 -37.5q-163 0 -260.5 99.5t-97.5 262.5q0 153 101 257.5t261 104.5q94 0 169.5 -36.5t113.5 -96.5l-105 -96q-30 38 -76 58.5t-91 20.5q-95 0 -153.5 -57.5t-58.5 -154.5q0 -94 59.5 -153t150.5 -59q119 0 193 93zM375 945
l184 -117l-58 -85l-128 66l-128 -66l-52 83l178 119h4z" />
    <glyph glyph-name="ccircumflex" unicode="&#x109;" horiz-adv-x="540" 
d="M431 195l106 -63q-35 -68 -97.5 -104t-137.5 -36q-127 0 -204.5 73.5t-77.5 195.5q0 117 77 193.5t198 76.5q89 0 150.5 -35.5t87.5 -94.5l-108 -70q-48 65 -121 65q-60 0 -97 -37t-37 -98q0 -56 41 -95t107 -39q72 0 113 68zM300 796l165 -136l-70 -88l-98 81l-100 -79
l-67 87l166 135h4z" />
    <glyph glyph-name="Cdotaccent" unicode="&#x10a;" horiz-adv-x="696" 
d="M594 231l92 -99q-47 -69 -125.5 -106.5t-172.5 -37.5q-163 0 -260.5 99.5t-97.5 262.5q0 153 101 257.5t261 104.5q94 0 169.5 -36.5t113.5 -96.5l-105 -96q-30 38 -76 58.5t-91 20.5q-95 0 -153.5 -57.5t-58.5 -154.5q0 -94 59.5 -153t150.5 -59q119 0 193 93zM300 828
q0 31 23 51.5t59 20.5q35 0 58 -20.5t23 -51.5q0 -32 -23 -53t-58 -21q-38 0 -60 20.5t-22 53.5z" />
    <glyph glyph-name="cdotaccent" unicode="&#x10b;" horiz-adv-x="540" 
d="M431 195l106 -63q-35 -68 -97.5 -104t-137.5 -36q-127 0 -204.5 73.5t-77.5 195.5q0 117 77 193.5t198 76.5q89 0 150.5 -35.5t87.5 -94.5l-108 -70q-48 65 -121 65q-60 0 -97 -37t-37 -98q0 -56 41 -95t107 -39q72 0 113 68zM216 658q0 31 23 51.5t59 20.5
q35 0 58 -20.5t23 -51.5q0 -32 -23 -53t-58 -21q-38 0 -60 20.5t-22 53.5z" />
    <glyph glyph-name="Ccaron" unicode="&#x10c;" horiz-adv-x="696" 
d="M594 231l92 -99q-47 -69 -125.5 -106.5t-172.5 -37.5q-163 0 -260.5 99.5t-97.5 262.5q0 153 101 257.5t261 104.5q94 0 169.5 -36.5t113.5 -96.5l-105 -96q-30 38 -76 58.5t-91 20.5q-95 0 -153.5 -57.5t-58.5 -154.5q0 -94 59.5 -153t150.5 -59q119 0 193 93zM375 743
l-184 117l58 85l128 -76l128 76l52 -83l-178 -119h-4z" />
    <glyph glyph-name="ccaron" unicode="&#x10d;" horiz-adv-x="540" 
d="M431 195l106 -63q-35 -68 -97.5 -104t-137.5 -36q-127 0 -204.5 73.5t-77.5 195.5q0 117 77 193.5t198 76.5q89 0 150.5 -35.5t87.5 -94.5l-108 -70q-48 65 -121 65q-60 0 -97 -37t-37 -98q0 -56 41 -95t107 -39q72 0 113 68zM295 598l-165 136l70 88l98 -81l100 79
l67 -87l-166 -135h-4z" />
    <glyph glyph-name="Dcaron" unicode="&#x10e;" horiz-adv-x="720" 
d="M65 0v700h222q109 0 189 -27t125.5 -75.5t67 -107.5t21.5 -131q0 -160 -104 -259.5t-314 -99.5h-207zM285 555h-65v-410h65q245 0 245 214q0 196 -245 196zM305 743l-184 117l58 85l128 -76l128 76l52 -83l-178 -119h-4z" />
    <glyph glyph-name="dcaron" unicode="&#x10f;" horiz-adv-x="586" 
d="M396 0v41q-17 -19 -51 -34t-80 -15q-110 0 -177.5 70t-67.5 197q0 118 74 195t180 77q83 0 122 -25v224h145v-730h-145zM296 127q30 0 59 17t41 44v168q-32 40 -91 40q-58 0 -96.5 -35.5t-38.5 -99.5q0 -62 35 -98t91 -36zM593 731h154q14 -22 14 -70q0 -57 -36 -105.5
t-87 -79.5l-63 55q44 44 44 106q0 59 -26 94z" />
    <glyph glyph-name="Dcroat" unicode="&#x110;" horiz-adv-x="786" 
d="M20 285v129h111v286h222q109 0 189 -27t125.5 -75.5t67 -107.5t21.5 -131q0 -160 -104 -259.5t-314 -99.5h-207v285h-111zM351 555h-65v-141h158v-129h-158v-140h65q244 0 244 214q0 94 -57 145t-187 51z" />
    <glyph glyph-name="dcroat" unicode="&#x111;" horiz-adv-x="586" 
d="M282 550v130h114v50h145v-50h45v-130h-45v-550h-145v41q-17 -19 -51 -34t-80 -15q-110 0 -177.5 70t-67.5 197q0 118 74 195t180 77q83 0 122 -25v44h-114zM296 127q30 0 59 17t41 44v168q-32 40 -91 40q-58 0 -96.5 -35.5t-38.5 -99.5q0 -62 35 -98t91 -36z" />
    <glyph glyph-name="Emacron" unicode="&#x112;" horiz-adv-x="649" 
d="M65 0v700h535v-145h-380v-130h355v-140h-355v-140h389v-145h-544zM170 770v120h314v-120h-314z" />
    <glyph glyph-name="emacron" unicode="&#x113;" horiz-adv-x="558" 
d="M438 184l87 -88q-83 -104 -224 -104q-127 0 -204 73.5t-77 195.5q0 118 71 194t199 76q108 0 178 -66t70 -173q0 -32 -8 -84h-358q20 -81 131 -81q39 0 76 15t59 42zM285 401q-83 0 -110 -68h213q-18 68 -103 68zM132 610v120h294v-120h-294z" />
    <glyph glyph-name="Edotaccent" unicode="&#x116;" horiz-adv-x="649" 
d="M65 0v700h535v-145h-380v-130h355v-140h-355v-140h389v-145h-544zM250 828q0 31 23 51.5t59 20.5q35 0 58 -20.5t23 -51.5q0 -32 -23 -53t-58 -21q-38 0 -60 20.5t-22 53.5z" />
    <glyph glyph-name="edotaccent" unicode="&#x117;" horiz-adv-x="558" 
d="M438 184l87 -88q-83 -104 -224 -104q-127 0 -204 73.5t-77 195.5q0 118 71 194t199 76q108 0 178 -66t70 -173q0 -32 -8 -84h-358q20 -81 131 -81q39 0 76 15t59 42zM285 401q-83 0 -110 -68h213q-18 68 -103 68zM207 658q0 31 23 51.5t59 20.5q35 0 58 -20.5t23 -51.5
q0 -32 -23 -53t-58 -21q-38 0 -60 20.5t-22 53.5z" />
    <glyph glyph-name="Eogonek" unicode="&#x118;" horiz-adv-x="649" 
d="M65 0v700h535v-145h-380v-130h355v-140h-355v-140h389v-145h-13q-38 -2 -64 -19t-26 -35q0 -26 30 -26q19 0 40 10l45 -90q-13 -16 -47 -28t-73 -12q-63 0 -104 24t-41 71q0 70 97 105h-388z" />
    <glyph glyph-name="eogonek" unicode="&#x119;" horiz-adv-x="558" 
d="M428 184l87 -88q-35 -44 -80 -70q-62 -57 -62 -80q0 -26 30 -26q19 0 40 10l45 -90q-13 -16 -47 -28t-73 -12q-63 0 -104 24t-41 71q0 31 21.5 53.5t63.5 43.5h-7q-127 0 -204 73.5t-77 195.5q0 118 71 194t199 76q108 0 178 -66t70 -173q0 -32 -8 -84h-358
q20 -81 131 -81q79 0 125 57zM285 401q-83 0 -110 -68h213q-18 68 -103 68z" />
    <glyph glyph-name="Ecaron" unicode="&#x11a;" horiz-adv-x="649" 
d="M65 0v700h535v-145h-380v-130h355v-140h-355v-140h389v-145h-544zM335 743l-184 117l58 85l128 -76l128 76l52 -83l-178 -119h-4z" />
    <glyph glyph-name="ecaron" unicode="&#x11b;" horiz-adv-x="558" 
d="M438 184l87 -88q-83 -104 -224 -104q-127 0 -204 73.5t-77 195.5q0 118 71 194t199 76q108 0 178 -66t70 -173q0 -32 -8 -84h-358q20 -81 131 -81q39 0 76 15t59 42zM285 401q-83 0 -110 -68h213q-18 68 -103 68zM277 598l-165 136l70 88l98 -81l100 79l67 -87l-166 -135
h-4z" />
    <glyph glyph-name="Gcircumflex" unicode="&#x11c;" horiz-adv-x="731" 
d="M365 252v140h326v-283q-52 -57 -125.5 -89t-156.5 -32q-166 0 -272.5 100t-106.5 262q0 153 101.5 257.5t260.5 104.5q90 0 168 -34.5t115 -91.5l-107 -96q-64 72 -170 72q-96 0 -151.5 -56.5t-55.5 -155.5q0 -100 60.5 -156t158.5 -56q77 0 132 40v74h-177zM375 945
l184 -117l-58 -85l-128 66l-128 -66l-52 83l178 119h4z" />
    <glyph glyph-name="gcircumflex" unicode="&#x11d;" horiz-adv-x="579" 
d="M534 520v-475q0 -127 -64.5 -190.5t-182.5 -63.5q-91 0 -153.5 37.5t-88.5 105.5l127 53q32 -61 101 -61q116 0 116 90v23q-32 -47 -117 -47q-113 0 -182.5 70t-69.5 199q0 121 75 193.5t177 72.5q77 0 117 -28v21h145zM297 127q33 0 57.5 16.5t34.5 41.5v173
q-28 34 -93 34q-55 0 -90.5 -34.5t-35.5 -98.5t33.5 -98t93.5 -34zM300 796l165 -136l-70 -88l-98 81l-100 -79l-67 87l166 135h4z" />
    <glyph glyph-name="Gbreve" unicode="&#x11e;" horiz-adv-x="731" 
d="M365 252v140h326v-283q-52 -57 -125.5 -89t-156.5 -32q-166 0 -272.5 100t-106.5 262q0 153 101.5 257.5t260.5 104.5q90 0 168 -34.5t115 -91.5l-107 -96q-64 72 -170 72q-96 0 -151.5 -56.5t-55.5 -155.5q0 -100 60.5 -156t158.5 -56q77 0 132 40v74h-177zM193 863
l64 77q58 -60 143 -60q86 0 140 60l55 -78q-28 -47 -81.5 -79.5t-113.5 -32.5q-66 0 -122.5 34t-84.5 79z" />
    <glyph glyph-name="gbreve" unicode="&#x11f;" horiz-adv-x="579" 
d="M534 520v-475q0 -127 -64.5 -190.5t-182.5 -63.5q-91 0 -153.5 37.5t-88.5 105.5l127 53q32 -61 101 -61q116 0 116 90v23q-32 -47 -117 -47q-113 0 -182.5 70t-69.5 199q0 121 75 193.5t177 72.5q77 0 117 -28v21h145zM297 127q33 0 57.5 16.5t34.5 41.5v173
q-28 34 -93 34q-55 0 -90.5 -34.5t-35.5 -98.5t33.5 -98t93.5 -34zM121 707l66 75q47 -52 105 -52q68 0 110 50l51 -72q-65 -98 -167 -98q-61 0 -103 31t-62 66z" />
    <glyph glyph-name="Gdotaccent" unicode="&#x120;" horiz-adv-x="731" 
d="M365 252v140h326v-283q-52 -57 -125.5 -89t-156.5 -32q-166 0 -272.5 100t-106.5 262q0 153 101.5 257.5t260.5 104.5q90 0 168 -34.5t115 -91.5l-107 -96q-64 72 -170 72q-96 0 -151.5 -56.5t-55.5 -155.5q0 -100 60.5 -156t158.5 -56q77 0 132 40v74h-177zM300 828
q0 31 23 51.5t59 20.5q35 0 58 -20.5t23 -51.5q0 -32 -23 -53t-58 -21q-38 0 -60 20.5t-22 53.5z" />
    <glyph glyph-name="gdotaccent" unicode="&#x121;" horiz-adv-x="579" 
d="M534 520v-475q0 -127 -64.5 -190.5t-182.5 -63.5q-91 0 -153.5 37.5t-88.5 105.5l127 53q32 -61 101 -61q116 0 116 90v23q-32 -47 -117 -47q-113 0 -182.5 70t-69.5 199q0 121 75 193.5t177 72.5q77 0 117 -28v21h145zM297 127q33 0 57.5 16.5t34.5 41.5v173
q-28 34 -93 34q-55 0 -90.5 -34.5t-35.5 -98.5t33.5 -98t93.5 -34zM215 658q0 31 23 51.5t59 20.5q35 0 58 -20.5t23 -51.5q0 -32 -23 -53t-58 -21q-38 0 -60 20.5t-22 53.5z" />
    <glyph glyph-name="Gcommaaccent" unicode="&#x122;" horiz-adv-x="731" 
d="M365 252v140h326v-283q-52 -57 -125.5 -89t-156.5 -32q-166 0 -272.5 100t-106.5 262q0 153 101.5 257.5t260.5 104.5q90 0 168 -34.5t115 -91.5l-107 -96q-64 72 -170 72q-96 0 -151.5 -56.5t-55.5 -155.5q0 -100 60.5 -156t158.5 -56q77 0 132 40v74h-177zM317 -109
l121 78q52 -38 52 -94q0 -59 -31 -102.5t-73 -68.5l-69 50q32 34 32 75q0 26 -32 62z" />
    <glyph glyph-name="gcommaaccent" unicode="&#x123;" horiz-adv-x="579" 
d="M395 632l-121 -78q-52 38 -52 94q0 59 31 102.5t73 68.5l69 -50q-32 -34 -32 -75q0 -26 32 -62zM534 520v-475q0 -127 -64.5 -190.5t-182.5 -63.5q-91 0 -153.5 37.5t-88.5 105.5l127 53q32 -61 101 -61q116 0 116 90v23q-32 -47 -117 -47q-113 0 -182.5 70t-69.5 199
q0 121 75 193.5t177 72.5q77 0 117 -28v21h145zM297 127q33 0 57.5 16.5t34.5 41.5v173q-28 34 -93 34q-55 0 -90.5 -34.5t-35.5 -98.5t33.5 -98t93.5 -34z" />
    <glyph glyph-name="Hcircumflex" unicode="&#x124;" horiz-adv-x="751" 
d="M531 0v280h-311v-280h-155v700h155v-275h311v275h155v-700h-155zM374 945l184 -117l-58 -85l-128 66l-128 -66l-52 83l178 119h4z" />
    <glyph glyph-name="hcircumflex" unicode="&#x125;" horiz-adv-x="574" 
d="M45 0v730h145v-243q48 43 138 43q105 0 155.5 -57.5t50.5 -181.5v-291h-145v284q0 61 -23 86t-76 25q-63 0 -100 -62v-333h-145zM125 945l184 -117l-58 -85l-128 66l-128 -66l-52 83l178 119h4z" />
    <glyph glyph-name="Hbar" unicode="&#x126;" horiz-adv-x="751" 
d="M0 502v120h65v78h155v-78h311v78h155v-78h65v-120h-65v-502h-155v280h-311v-280h-155v502h-65zM220 425h311v77h-311v-77z" />
    <glyph glyph-name="hbar" unicode="&#x127;" horiz-adv-x="574" 
d="M0 550v130h45v50h145v-50h114v-130h-114v-63q48 43 121 43q223 0 223 -239v-291h-145v284q0 61 -23 86t-76 25q-63 0 -100 -62v-333h-145v550h-45z" />
    <glyph glyph-name="Imacron" unicode="&#x12a;" horiz-adv-x="295" 
d="M70 0v700h155v-700h-155zM-9 770v120h314v-120h-314z" />
    <glyph glyph-name="imacron" unicode="&#x12b;" horiz-adv-x="263" 
d="M59 0v520h145v-520h-145zM-15 610v120h294v-120h-294z" />
    <glyph glyph-name="Iogonek" unicode="&#x12e;" horiz-adv-x="295" 
d="M70 0v700h155v-700h-2q-41 0 -70 -17.5t-29 -36.5q0 -26 30 -26q19 0 40 10l45 -90q-13 -16 -47 -28t-73 -12q-63 0 -104 24t-41 71q0 70 97 105h-1z" />
    <glyph glyph-name="iogonek" unicode="&#x12f;" horiz-adv-x="263" 
d="M172 -70l45 -90q-13 -16 -47 -28t-73 -12q-63 0 -104 24t-41 71q0 74 107 108v517h145v-520h-3q-41 0 -70 -17.5t-29 -36.5q0 -26 30 -26q19 0 40 10zM50 658q0 31 23 51.5t59 20.5q35 0 58 -20.5t23 -51.5q0 -32 -23 -53t-58 -21q-38 0 -60 20.5t-22 53.5z" />
    <glyph glyph-name="Idotaccent" unicode="&#x130;" horiz-adv-x="295" 
d="M70 0v700h155v-700h-155zM67 828q0 31 23 51.5t59 20.5q35 0 58 -20.5t23 -51.5q0 -32 -23 -53t-58 -21q-38 0 -60 20.5t-22 53.5z" />
    <glyph glyph-name="dotlessi" unicode="&#x131;" horiz-adv-x="263" 
d="M59 0v520h145v-520h-145z" />
    <glyph glyph-name="Jcircumflex" unicode="&#x134;" horiz-adv-x="486" 
d="M426 700v-481q0 -111 -57 -171t-155 -60q-159 0 -224 134l113 87q37 -76 97 -76q38 0 54.5 28.5t16.5 87.5v451h155zM338 945l184 -117l-58 -85l-128 66l-128 -66l-52 83l178 119h4z" />
    <glyph glyph-name="jcircumflex" unicode="&#x135;" horiz-adv-x="263" 
d="M206 520v-518q0 -101 -45.5 -156t-137.5 -55q-138 0 -187 120l127 49q17 -34 47 -34q51 0 51 79v515h145zM134 796l165 -136l-70 -88l-98 81l-100 -79l-67 87l166 135h4z" />
    <glyph glyph-name="Kcommaaccent" unicode="&#x136;" horiz-adv-x="701" 
d="M65 0v700h155v-273l269 273h202l-304 -310l324 -390h-204l-237 286l-50 -51v-235h-155zM237 -109l121 78q52 -38 52 -94q0 -59 -31 -102.5t-73 -68.5l-69 50q32 34 32 75q0 26 -32 62z" />
    <glyph glyph-name="kcommaaccent" unicode="&#x137;" horiz-adv-x="532" 
d="M45 0v730h145v-386l164 176h186l-223 -227l230 -293h-184l-155 196l-18 -12v-184h-145zM160 -109l121 78q52 -38 52 -94q0 -59 -31 -102.5t-73 -68.5l-69 50q32 34 32 75q0 26 -32 62z" />
    <glyph glyph-name="Lacute" unicode="&#x139;" horiz-adv-x="608" 
d="M65 0v700h155v-555h378v-145h-533zM507 846l-240 -113l-57 99l228 142z" />
    <glyph glyph-name="lacute" unicode="&#x13a;" horiz-adv-x="235" 
d="M45 0v730h145v-730h-145zM342 866l-240 -113l-57 99l228 142z" />
    <glyph glyph-name="Lcommaaccent" unicode="&#x13b;" horiz-adv-x="608" 
d="M65 0v700h155v-555h378v-145h-533zM247 -109l121 78q52 -38 52 -94q0 -59 -31 -102.5t-73 -68.5l-69 50q32 34 32 75q0 26 -32 62z" />
    <glyph glyph-name="lcommaaccent" unicode="&#x13c;" horiz-adv-x="235" 
d="M45 0v730h145v-730h-145zM31 -109l121 78q52 -38 52 -94q0 -59 -31 -102.5t-73 -68.5l-69 50q32 34 32 75q0 26 -32 62z" />
    <glyph glyph-name="Lcaron" unicode="&#x13d;" horiz-adv-x="608" 
d="M65 0v700h155v-555h378v-145h-533zM368 701h154q14 -22 14 -70q0 -57 -36 -105.5t-87 -79.5l-63 55q44 44 44 106q0 59 -26 94z" />
    <glyph glyph-name="lcaron" unicode="&#x13e;" horiz-adv-x="282" 
d="M45 0v730h145v-730h-145zM233 731h154q14 -22 14 -70q0 -57 -36 -105.5t-87 -79.5l-63 55q44 44 44 106q0 59 -26 94z" />
    <glyph glyph-name="Ldot" unicode="&#x13f;" horiz-adv-x="608" 
d="M65 0v700h155v-555h378v-145h-533zM350 398q0 29 24.5 51.5t61.5 22.5q34 0 58.5 -23t24.5 -51q0 -31 -24 -54t-59 -23q-38 0 -62 22.5t-24 54.5z" />
    <glyph glyph-name="ldot" unicode="&#x140;" horiz-adv-x="352" 
d="M45 0v730h145v-730h-145zM210 345q0 29 24.5 51.5t61.5 22.5q34 0 58.5 -23t24.5 -51q0 -31 -24 -54t-59 -23q-38 0 -62 22.5t-24 54.5z" />
    <glyph glyph-name="Lslash" unicode="&#x141;" 
d="M0 109v156l79 57v378h155v-266l182 131v-156l-182 -131v-133h378v-145h-533v166z" />
    <glyph glyph-name="lslash" unicode="&#x142;" horiz-adv-x="336" 
d="M0 142v156l93 67v365h145v-260l98 71v-156l-98 -71v-314h-145v209z" />
    <glyph glyph-name="Nacute" unicode="&#x143;" horiz-adv-x="740" 
d="M675 0h-120l-339 415v-415h-151v700h119l340 -416v416h151v-700zM577 846l-240 -113l-57 99l228 142z" />
    <glyph glyph-name="nacute" unicode="&#x144;" horiz-adv-x="577" 
d="M45 0v520h145v-37q39 47 142 47q102 0 153.5 -57.5t51.5 -180.5v-292h-145v283q0 61 -24.5 86.5t-77.5 25.5q-72 0 -100 -69v-326h-145zM427 751l-132 -164l-100 70l123 176z" />
    <glyph glyph-name="Ncommaaccent" unicode="&#x145;" horiz-adv-x="740" 
d="M675 0h-120l-339 415v-415h-151v700h119l340 -416v416h151v-700zM297 -109l121 78q52 -38 52 -94q0 -59 -31 -102.5t-73 -68.5l-69 50q32 34 32 75q0 26 -32 62z" />
    <glyph glyph-name="ncommaaccent" unicode="&#x146;" horiz-adv-x="577" 
d="M45 0v520h145v-37q39 47 142 47q102 0 153.5 -57.5t51.5 -180.5v-292h-145v283q0 61 -24.5 86.5t-77.5 25.5q-72 0 -100 -69v-326h-145zM195 -109l121 78q52 -38 52 -94q0 -59 -31 -102.5t-73 -68.5l-69 50q32 34 32 75q0 26 -32 62z" />
    <glyph glyph-name="Ncaron" unicode="&#x147;" horiz-adv-x="740" 
d="M675 0h-120l-339 415v-415h-151v700h119l340 -416v416h151v-700zM371 743l-184 117l58 85l128 -76l128 76l52 -83l-178 -119h-4z" />
    <glyph glyph-name="ncaron" unicode="&#x148;" horiz-adv-x="577" 
d="M45 0v520h145v-37q39 47 142 47q102 0 153.5 -57.5t51.5 -180.5v-292h-145v283q0 61 -24.5 86.5t-77.5 25.5q-72 0 -100 -69v-326h-145zM289 598l-165 136l70 88l98 -81l100 79l67 -87l-166 -135h-4z" />
    <glyph glyph-name="Omacron" unicode="&#x14c;" horiz-adv-x="781" 
d="M30 350q0 152 104.5 257t256.5 105q151 0 255.5 -103.5t104.5 -258.5q0 -154 -104.5 -258t-255.5 -104t-256 103.5t-105 258.5zM191 350q0 -94 58.5 -153t141.5 -59q85 0 142 58.5t57 153.5q0 94 -59.5 153t-139.5 59q-83 0 -141.5 -59t-58.5 -153zM233 770v120h314v-120
h-314z" />
    <glyph glyph-name="omacron" unicode="&#x14d;" horiz-adv-x="604" 
d="M20 261q0 118 78.5 194t202.5 76t203.5 -76t79.5 -194q0 -117 -79.5 -193t-203.5 -76q-121 0 -201 76t-80 193zM170 261q0 -58 36.5 -96t94.5 -38q60 0 96.5 36t36.5 98t-38 98.5t-95 36.5t-94 -36t-37 -99zM155 610v120h294v-120h-294z" />
    <glyph glyph-name="Ohungarumlaut" unicode="&#x150;" horiz-adv-x="781" 
d="M30 350q0 152 104.5 257t256.5 105q151 0 255.5 -103.5t104.5 -258.5q0 -154 -104.5 -258t-255.5 -104t-256 103.5t-105 258.5zM191 350q0 -94 58.5 -153t141.5 -59q85 0 142 58.5t57 153.5q0 94 -59.5 153t-139.5 59q-83 0 -141.5 -59t-58.5 -153zM680 841l-204 -113
l-61 63l159 144zM460 870l-167 -142l-64 58l101 149z" />
    <glyph glyph-name="ohungarumlaut" unicode="&#x151;" horiz-adv-x="604" 
d="M20 261q0 118 78.5 194t202.5 76t203.5 -76t79.5 -194q0 -117 -79.5 -193t-203.5 -76q-121 0 -201 76t-80 193zM170 261q0 -58 36.5 -96t94.5 -38q60 0 96.5 36t36.5 98t-38 98.5t-95 36.5t-94 -36t-37 -99zM541 741l-142 -154l-76 57l125 169zM365 757l-125 -170l-77 58
l109 178z" />
    <glyph glyph-name="OE" unicode="&#x152;" horiz-adv-x="1130" 
d="M546 0v33q-73 -41 -155 -41q-152 0 -256.5 102t-104.5 256q0 151 104.5 254.5t256.5 103.5q86 0 155 -39v31h535v-145h-380v-130h355v-140h-355v-140h389v-145h-544zM391 142q97 0 155 70v272q-59 74 -155 74q-83 0 -141.5 -57t-58.5 -151t58.5 -151t141.5 -57z" />
    <glyph glyph-name="oe" unicode="&#x153;" horiz-adv-x="932" 
d="M802 184l87 -88q-83 -104 -214 -104q-115 0 -189 60q-76 -60 -185 -60q-121 0 -201 76t-80 193q0 118 78.5 194t202.5 76q108 0 183 -58q72 58 180 58t178 -66t70 -173q0 -32 -8 -84h-358q20 -81 131 -81q79 0 125 57zM312 127q59 0 97 36q-15 43 -15 98q0 52 13 94
q-37 41 -106 41q-57 0 -94 -36t-37 -99q0 -58 38.5 -96t103.5 -38zM659 401q-83 0 -110 -68h213q-18 68 -103 68z" />
    <glyph glyph-name="Racute" unicode="&#x154;" horiz-adv-x="689" 
d="M220 0h-155v700h283q80 0 137.5 -19t88 -52.5t44 -71.5t13.5 -85q0 -68 -37 -124t-100 -81l195 -267h-187l-171 239h-111v-239zM345 555h-125v-171h131q57 0 88 23t31 65q0 41 -27.5 62t-97.5 21zM517 846l-240 -113l-57 99l228 142z" />
    <glyph glyph-name="racute" unicode="&#x155;" horiz-adv-x="362" 
d="M45 0v520h145v-21q9 12 32.5 21.5t47.5 9.5q39 0 61 -10.5t41 -34.5l-74 -116q-11 21 -47 21q-46 0 -61 -54v-336h-145zM322 751l-132 -164l-100 70l123 176z" />
    <glyph glyph-name="Rcommaaccent" unicode="&#x156;" horiz-adv-x="689" 
d="M220 0h-155v700h283q80 0 137.5 -19t88 -52.5t44 -71.5t13.5 -85q0 -68 -37 -124t-100 -81l195 -267h-187l-171 239h-111v-239zM345 555h-125v-171h131q57 0 88 23t31 65q0 41 -27.5 62t-97.5 21zM247 -109l121 78q52 -38 52 -94q0 -59 -31 -102.5t-73 -68.5l-69 50
q32 34 32 75q0 26 -32 62z" />
    <glyph glyph-name="rcommaaccent" unicode="&#x157;" horiz-adv-x="362" 
d="M45 0v520h145v-21q9 12 32.5 21.5t47.5 9.5q39 0 61 -10.5t41 -34.5l-74 -116q-11 21 -47 21q-46 0 -61 -54v-336h-145zM60 -109l121 78q52 -38 52 -94q0 -59 -31 -102.5t-73 -68.5l-69 50q32 34 32 75q0 26 -32 62z" />
    <glyph glyph-name="Rcaron" unicode="&#x158;" horiz-adv-x="689" 
d="M220 0h-155v700h283q80 0 137.5 -19t88 -52.5t44 -71.5t13.5 -85q0 -68 -37 -124t-100 -81l195 -267h-187l-171 239h-111v-239zM345 555h-125v-171h131q57 0 88 23t31 65q0 41 -27.5 62t-97.5 21zM315 743l-184 117l58 85l128 -76l128 76l52 -83l-178 -119h-4z" />
    <glyph glyph-name="rcaron" unicode="&#x159;" horiz-adv-x="362" 
d="M45 0v520h145v-21q9 12 32.5 21.5t47.5 9.5q39 0 61 -10.5t41 -34.5l-74 -116q-11 21 -47 21q-46 0 -61 -54v-336h-145zM184 598l-165 136l70 88l98 -81l100 79l67 -87l-166 -135h-4z" />
    <glyph glyph-name="Sacute" unicode="&#x15a;" horiz-adv-x="619" 
d="M429 194q0 28 -29 47.5t-72 30t-94 27.5t-94 38t-72 63.5t-29 102.5q0 87 75.5 150t195.5 63q177 0 274 -129l-104 -100q-76 84 -176 84q-105 0 -105 -66q0 -25 29 -42t72 -26.5t94 -26.5t94 -38t72 -64t29 -102q0 -95 -76 -158.5t-189 -63.5q-119 0 -202 48t-122 123
l113 94q35 -56 89 -88t118 -32q55 0 82 18.5t27 46.5zM543 846l-240 -113l-57 99l228 142z" />
    <glyph glyph-name="sacute" unicode="&#x15b;" horiz-adv-x="496" 
d="M331 155q0 13 -30.5 24t-73.5 23t-86.5 30t-74 53.5t-30.5 84.5q0 75 59.5 118t164.5 43q71 0 130.5 -27.5t85.5 -66.5l-99 -95q-52 54 -146 54q-45 0 -45 -25q0 -12 30.5 -21.5t73.5 -21t86.5 -29.5t74 -55t30.5 -88q0 -81 -62.5 -122.5t-157.5 -41.5q-90 0 -154.5 35.5
t-94.5 90.5l115 78q22 -29 63 -49t87 -20q54 0 54 28zM394 751l-132 -164l-100 70l123 176z" />
    <glyph glyph-name="Scircumflex" unicode="&#x15c;" horiz-adv-x="619" 
d="M429 194q0 28 -29 47.5t-72 30t-94 27.5t-94 38t-72 63.5t-29 102.5q0 87 75.5 150t195.5 63q177 0 274 -129l-104 -100q-76 84 -176 84q-105 0 -105 -66q0 -25 29 -42t72 -26.5t94 -26.5t94 -38t72 -64t29 -102q0 -95 -76 -158.5t-189 -63.5q-119 0 -202 48t-122 123
l113 94q35 -56 89 -88t118 -32q55 0 82 18.5t27 46.5zM333 945l184 -117l-58 -85l-128 66l-128 -66l-52 83l178 119h4z" />
    <glyph glyph-name="scircumflex" unicode="&#x15d;" horiz-adv-x="496" 
d="M331 155q0 13 -30.5 24t-73.5 23t-86.5 30t-74 53.5t-30.5 84.5q0 75 59.5 118t164.5 43q71 0 130.5 -27.5t85.5 -66.5l-99 -95q-52 54 -146 54q-45 0 -45 -25q0 -12 30.5 -21.5t73.5 -21t86.5 -29.5t74 -55t30.5 -88q0 -81 -62.5 -122.5t-157.5 -41.5q-90 0 -154.5 35.5
t-94.5 90.5l115 78q22 -29 63 -49t87 -20q54 0 54 28zM261 796l165 -136l-70 -88l-98 81l-100 -79l-67 87l166 135h4z" />
    <glyph glyph-name="Scedilla" unicode="&#x15e;" horiz-adv-x="599" 
d="M140 -157l54 65q28 -28 81 -28q29 0 29 13q0 17 -45 17h-6v86q-80 10 -151 50.5t-102 90.5l93 112q44 -53 102.5 -82.5t122.5 -29.5q44 0 67.5 15t23.5 42t-29 46t-72 29t-94 27.5t-94 39t-72 64.5t-29 103q0 86 75 145.5t196 59.5q183 0 274 -121l-104 -100
q-69 76 -176 76q-45 0 -75 -15t-30 -43q0 -25 29 -43t72 -28.5t94 -28t94 -39t72 -63t29 -97.5q0 -89 -68 -148t-173 -65v-19q116 -7 116 -90q0 -94 -139 -94q-110 0 -165 53z" />
    <glyph glyph-name="scedilla" unicode="&#x15f;" horiz-adv-x="496" 
d="M116 -161l44 69q28 -28 81 -28q29 0 29 13q0 17 -45 17h-6v84q-74 8 -127 42t-80 82l115 78q22 -29 63 -49t87 -20q54 0 54 28q0 13 -30.5 24t-73.5 23t-86.5 30t-74 53.5t-30.5 84.5q0 75 59.5 118t164.5 43q71 0 130.5 -27.5t85.5 -66.5l-99 -95q-52 54 -146 54
q-45 0 -45 -25q0 -12 30.5 -21.5t73.5 -21t86.5 -29.5t74 -55t30.5 -88q0 -74 -52 -115t-135 -47v-20q106 -9 106 -90q0 -43 -38.5 -68.5t-112.5 -25.5q-79 0 -133 49z" />
    <glyph glyph-name="Scaron" unicode="&#x160;" horiz-adv-x="619" 
d="M429 194q0 28 -29 47.5t-72 30t-94 27.5t-94 38t-72 63.5t-29 102.5q0 87 75.5 150t195.5 63q177 0 274 -129l-104 -100q-76 84 -176 84q-105 0 -105 -66q0 -25 29 -42t72 -26.5t94 -26.5t94 -38t72 -64t29 -102q0 -95 -76 -158.5t-189 -63.5q-119 0 -202 48t-122 123
l113 94q35 -56 89 -88t118 -32q55 0 82 18.5t27 46.5zM325 743l-184 117l58 85l128 -76l128 76l52 -83l-178 -119h-4z" />
    <glyph glyph-name="scaron" unicode="&#x161;" horiz-adv-x="496" 
d="M331 155q0 13 -30.5 24t-73.5 23t-86.5 30t-74 53.5t-30.5 84.5q0 75 59.5 118t164.5 43q71 0 130.5 -27.5t85.5 -66.5l-99 -95q-52 54 -146 54q-45 0 -45 -25q0 -12 30.5 -21.5t73.5 -21t86.5 -29.5t74 -55t30.5 -88q0 -81 -62.5 -122.5t-157.5 -41.5q-90 0 -154.5 35.5
t-94.5 90.5l115 78q22 -29 63 -49t87 -20q54 0 54 28zM246 598l-165 136l70 88l98 -81l100 79l67 -87l-166 -135h-4z" />
    <glyph glyph-name="Tcedilla" unicode="&#x162;" horiz-adv-x="604" 
d="M0 555v145h604v-145h-225v-555h-40v-26q116 -7 116 -90q0 -94 -139 -94q-110 0 -165 53l54 65q28 -28 81 -28q29 0 29 13q0 17 -45 17h-6v90h-40v555h-224z" />
    <glyph glyph-name="tcedilla" unicode="&#x163;" horiz-adv-x="426" 
d="M111 -161l44 69q28 -28 81 -28q29 0 29 13q0 17 -45 17h-6v88q-59 12 -94.5 56.5t-35.5 118.5v212h-79v135h79v101h145v-101h159v-135h-159v-169q0 -47 11 -67t35 -20q30 0 65 44l88 -80q-44 -82 -139 -96v-23q106 -9 106 -90q0 -43 -38.5 -68.5t-112.5 -25.5
q-79 0 -133 49z" />
    <glyph glyph-name="Tcaron" unicode="&#x164;" horiz-adv-x="604" 
d="M0 555v145h604v-145h-225v-555h-155v555h-224zM303 743l-184 117l58 85l128 -76l128 76l52 -83l-178 -119h-4z" />
    <glyph glyph-name="tcaron" unicode="&#x165;" horiz-adv-x="426" 
d="M5 385v135h81v101h143v-405q0 -47 11 -67t35 -20q30 0 65 44l88 -80q-23 -44 -69.5 -71.5t-103.5 -27.5q-75 0 -122 46t-47 133v212h-81zM288 701h154q14 -22 14 -70q0 -57 -36 -105.5t-87 -79.5l-63 55q44 44 44 106q0 59 -26 94z" />
    <glyph glyph-name="Umacron" unicode="&#x16a;" horiz-adv-x="720" 
d="M665 700v-400q0 -64 -17 -116t-45 -87t-66.5 -59t-80.5 -34.5t-88 -10.5q-133 0 -223 82t-90 231v394h155v-376q0 -85 41 -135.5t117 -50.5q142 0 142 182v380h155zM203 770v120h314v-120h-314z" />
    <glyph glyph-name="umacron" unicode="&#x16b;" horiz-adv-x="570" 
d="M525 523v-523h-145v34q-54 -42 -122 -42q-110 0 -164 57t-54 177v297h145v-286q0 -110 88 -110q69 0 107 64v332h145zM136 610v120h294v-120h-294z" />
    <glyph glyph-name="Ubreve" unicode="&#x16c;" horiz-adv-x="720" 
d="M665 700v-400q0 -64 -17 -116t-45 -87t-66.5 -59t-80.5 -34.5t-88 -10.5q-133 0 -223 82t-90 231v394h155v-376q0 -85 41 -135.5t117 -50.5q142 0 142 182v380h155zM159 863l64 77q58 -60 143 -60q86 0 140 60l55 -78q-28 -47 -81.5 -79.5t-113.5 -32.5q-66 0 -122.5 34
t-84.5 79z" />
    <glyph glyph-name="ubreve" unicode="&#x16d;" horiz-adv-x="570" 
d="M525 523v-523h-145v34q-54 -42 -122 -42q-110 0 -164 57t-54 177v297h145v-286q0 -110 88 -110q69 0 107 64v332h145zM117 707l66 75q47 -52 105 -52q68 0 110 50l51 -72q-65 -98 -167 -98q-61 0 -103 31t-62 66z" />
    <glyph glyph-name="Uring" unicode="&#x16e;" horiz-adv-x="720" 
d="M665 700v-400q0 -64 -17 -116t-45 -87t-66.5 -59t-80.5 -34.5t-88 -10.5q-133 0 -223 82t-90 231v394h155v-376q0 -85 41 -135.5t117 -50.5q142 0 142 182v380h155zM203 849q0 59 43.5 88.5t111.5 29.5q71 0 115.5 -29.5t44.5 -88.5q0 -58 -45 -89.5t-115 -31.5
q-67 0 -111 31.5t-44 89.5zM313 849q0 -41 47 -41q48 0 48 41q0 38 -48 38q-47 0 -47 -38z" />
    <glyph glyph-name="uring" unicode="&#x16f;" horiz-adv-x="570" 
d="M525 523v-523h-145v34q-54 -42 -122 -42q-110 0 -164 57t-54 177v297h145v-286q0 -110 88 -110q69 0 107 64v332h145zM145 701q0 54 39 91.5t98 37.5q60 0 99.5 -37.5t39.5 -91.5q0 -53 -39.5 -90t-99.5 -37q-59 0 -98 37t-39 90zM240 703q0 -20 12 -32t32 -12
q19 0 30.5 12t11.5 32q0 19 -11 30.5t-31 11.5t-32 -11.5t-12 -30.5z" />
    <glyph glyph-name="Uhungarumlaut" unicode="&#x170;" horiz-adv-x="720" 
d="M665 700v-400q0 -64 -17 -116t-45 -87t-66.5 -59t-80.5 -34.5t-88 -10.5q-133 0 -223 82t-90 231v394h155v-376q0 -85 41 -135.5t117 -50.5q142 0 142 182v380h155zM640 841l-204 -113l-61 63l159 144zM420 870l-167 -142l-64 58l101 149z" />
    <glyph glyph-name="uhungarumlaut" unicode="&#x171;" horiz-adv-x="570" 
d="M525 523v-523h-145v34q-54 -42 -122 -42q-110 0 -164 57t-54 177v297h145v-286q0 -110 88 -110q69 0 107 64v332h145zM512 741l-142 -154l-76 57l125 169zM336 757l-125 -170l-77 58l109 178z" />
    <glyph glyph-name="Uogonek" unicode="&#x172;" horiz-adv-x="720" 
d="M665 700v-400q0 -121 -56 -195t-146 -99q-18 -21 -18 -46q0 -40 30 -40q19 0 40 10l45 -90q-13 -16 -47 -28t-73 -12q-63 0 -104 24t-41 71q0 53 72 98q-133 1 -222.5 82.5t-89.5 230.5v394h155v-376q0 -79 41.5 -132.5t116.5 -53.5q72 0 107 51t35 131v380h155z" />
    <glyph glyph-name="uogonek" unicode="&#x173;" horiz-adv-x="570" 
d="M494 -70l45 -90q-13 -16 -47 -28t-73 -12q-63 0 -104 24t-41 71q0 75 106 108v31q-54 -42 -122 -42q-110 0 -164 57t-54 177v297h145v-286q0 -110 88 -110q69 0 107 64v332h145v-523h-11q-38 -2 -64 -19t-26 -35q0 -26 30 -26q19 0 40 10z" />
    <glyph glyph-name="Ydieresis" unicode="&#x178;" horiz-adv-x="700" 
d="M710 700l-284 -449v-251h-155v251l-281 449h185l176 -280l180 280h179zM142 831q0 33 24.5 54.5t60.5 21.5q32 0 57.5 -22t25.5 -54q0 -33 -25.5 -55t-57.5 -22q-36 0 -60.5 21.5t-24.5 55.5zM391 831q0 32 25.5 54t59.5 22q32 0 57 -21.5t25 -54.5t-25 -55t-57 -22
q-35 0 -60 21.5t-25 55.5z" />
    <glyph glyph-name="Zacute" unicode="&#x179;" horiz-adv-x="635" 
d="M27 555v145h579v-103l-373 -452h382v-145h-605v103l371 452h-354zM507 846l-240 -113l-57 99l228 142z" />
    <glyph glyph-name="zacute" unicode="&#x17a;" horiz-adv-x="514" 
d="M35 385v135h459v-93l-259 -292h254v-135h-469v94l258 291h-243zM403 751l-132 -164l-100 70l123 176z" />
    <glyph glyph-name="Zdotaccent" unicode="&#x17b;" horiz-adv-x="635" 
d="M27 555v145h579v-103l-373 -452h382v-145h-605v103l371 452h-354zM236 828q0 31 23 51.5t59 20.5q35 0 58 -20.5t23 -51.5q0 -32 -23 -53t-58 -21q-38 0 -60 20.5t-22 53.5z" />
    <glyph glyph-name="zdotaccent" unicode="&#x17c;" horiz-adv-x="514" 
d="M35 385v135h459v-93l-259 -292h254v-135h-469v94l258 291h-243zM175 658q0 31 23 51.5t59 20.5q35 0 58 -20.5t23 -51.5q0 -32 -23 -53t-58 -21q-38 0 -60 20.5t-22 53.5z" />
    <glyph glyph-name="Zcaron" unicode="&#x17d;" horiz-adv-x="635" 
d="M27 555v145h579v-103l-373 -452h382v-145h-605v103l371 452h-354zM318 743l-184 117l58 85l128 -76l128 76l52 -83l-178 -119h-4z" />
    <glyph glyph-name="zcaron" unicode="&#x17e;" horiz-adv-x="514" 
d="M35 385v135h459v-93l-259 -292h254v-135h-469v94l258 291h-243zM255 598l-165 136l70 88l98 -81l100 79l67 -87l-166 -135h-4z" />
    <glyph glyph-name="uni018F" unicode="&#x18f;" horiz-adv-x="766" 
d="M25 306q0 65 23 124h526q-17 62 -69.5 97.5t-131.5 35.5q-54 0 -109.5 -21t-93.5 -68l-102 100q50 67 133 100.5t178 33.5q165 0 261 -96t96 -259q0 -160 -97.5 -260.5t-267.5 -100.5q-86 0 -154 28.5t-108.5 74.5t-62 100.5t-21.5 110.5zM576 285h-393q10 -69 58 -108.5
t134 -39.5q81 0 135.5 40t65.5 108z" />
    <glyph glyph-name="florin" unicode="&#x192;" horiz-adv-x="539" 
d="M325 465l-1 -1v-3h132v-135h-156l-57 -319q-17 -100 -60.5 -157.5t-131.5 -57.5q-82 0 -135 58l50 112q34 -35 75 -35q42 0 55 68l61 331h-123v135h147l4 26q34 222 221 222q83 0 133 -41l-53 -116q-35 22 -72 22q-38 0 -57 -24.5t-32 -84.5z" />
    <glyph glyph-name="uni01DD" unicode="&#x1dd;" horiz-adv-x="558" 
d="M130 339l-87 88q83 104 237 104q111 0 184.5 -74t73.5 -195q0 -118 -71 -194t-199 -76q-108 0 -178 66t-70 173q0 32 8 84h358q-10 40 -42 60.5t-68 20.5q-100 0 -146 -57zM273 122q83 0 110 68h-213q18 -68 103 -68z" />
    <glyph glyph-name="Scommaaccent" unicode="&#x218;" horiz-adv-x="619" 
d="M429 194q0 28 -29 47.5t-72 30t-94 27.5t-94 38t-72 63.5t-29 102.5q0 87 75.5 150t195.5 63q177 0 274 -129l-104 -100q-76 84 -176 84q-105 0 -105 -66q0 -25 29 -42t72 -26.5t94 -26.5t94 -38t72 -64t29 -102q0 -95 -76 -158.5t-189 -63.5q-119 0 -202 48t-122 123
l113 94q35 -56 89 -88t118 -32q55 0 82 18.5t27 46.5zM238 -109l121 78q52 -38 52 -94q0 -59 -31 -102.5t-73 -68.5l-69 50q32 34 32 75q0 26 -32 62z" />
    <glyph glyph-name="scommaaccent" unicode="&#x219;" horiz-adv-x="496" 
d="M331 155q0 13 -30.5 24t-73.5 23t-86.5 30t-74 53.5t-30.5 84.5q0 75 59.5 118t164.5 43q71 0 130.5 -27.5t85.5 -66.5l-99 -95q-52 54 -146 54q-45 0 -45 -25q0 -12 30.5 -21.5t73.5 -21t86.5 -29.5t74 -55t30.5 -88q0 -81 -62.5 -122.5t-157.5 -41.5q-90 0 -154.5 35.5
t-94.5 90.5l115 78q22 -29 63 -49t87 -20q54 0 54 28zM162 -109l121 78q52 -38 52 -94q0 -59 -31 -102.5t-73 -68.5l-69 50q32 34 32 75q0 26 -32 62z" />
    <glyph glyph-name="Tcommaaccent" unicode="&#x21a;" horiz-adv-x="604" 
d="M0 555v145h604v-145h-225v-555h-155v555h-224zM216 -109l121 78q52 -38 52 -94q0 -59 -31 -102.5t-73 -68.5l-69 50q32 34 32 75q0 26 -32 62z" />
    <glyph glyph-name="tcommaaccent" unicode="&#x21b;" horiz-adv-x="446" 
d="M5 385v135h99v121h145v-121h159v-135h-159v-169q0 -47 12 -67t41 -20q46 0 89 34l60 -103q-63 -66 -163 -66q-84 0 -134 45.5t-50 133.5v212h-99zM167 -109l121 78q52 -38 52 -94q0 -59 -31 -102.5t-73 -68.5l-69 50q32 34 32 75q0 26 -32 62z" />
    <glyph glyph-name="uni0237" unicode="&#x237;" horiz-adv-x="263" 
d="M206 520v-518q0 -101 -45.5 -156t-137.5 -55q-138 0 -187 120l127 49q17 -34 47 -34q51 0 51 79v515h145z" />
    <glyph glyph-name="uni0259" unicode="&#x259;" horiz-adv-x="558" 
d="M130 339l-87 88q83 104 237 104q111 0 184.5 -74t73.5 -195q0 -118 -71 -194t-199 -76q-108 0 -178 66t-70 173q0 32 8 84h358q-10 40 -42 60.5t-68 20.5q-100 0 -146 -57zM273 122q83 0 110 68h-213q18 -68 103 -68z" />
    <glyph glyph-name="afii57929" unicode="&#x2bc;" horiz-adv-x="216" 
d="M42 665l122 76q52 -42 52 -110q0 -57 -36 -105.5t-87 -79.5l-63 55q44 41 44 86q0 35 -32 78z" />
    <glyph glyph-name="circumflex" unicode="&#x2c6;" horiz-adv-x="467" 
d="M302 796l165 -136l-70 -88l-98 81l-100 -79l-67 87l166 135h4z" />
    <glyph glyph-name="caron" unicode="&#x2c7;" horiz-adv-x="464" 
d="M294 598l-165 136l70 88l98 -81l100 79l67 -87l-166 -135h-4z" />
    <glyph glyph-name="breve" unicode="&#x2d8;" horiz-adv-x="471" 
d="M139 707l66 75q47 -52 105 -52q68 0 110 50l51 -72q-65 -98 -167 -98q-61 0 -103 31t-62 66z" />
    <glyph glyph-name="dotaccent" unicode="&#x2d9;" horiz-adv-x="250" 
d="M50 658q0 31 23 51.5t59 20.5q35 0 58 -20.5t23 -51.5q0 -32 -23 -53t-58 -21q-38 0 -60 20.5t-22 53.5z" />
    <glyph glyph-name="ring" unicode="&#x2da;" horiz-adv-x="443" 
d="M167 701q0 54 39 91.5t98 37.5q60 0 99.5 -37.5t39.5 -91.5q0 -53 -39.5 -90t-99.5 -37q-59 0 -98 37t-39 90zM262 703q0 -20 12 -32t32 -12q19 0 30.5 12t11.5 32q0 19 -11 30.5t-31 11.5t-32 -11.5t-12 -30.5z" />
    <glyph glyph-name="ogonek" unicode="&#x2db;" horiz-adv-x="395" 
d="M350 -70l45 -90q-13 -16 -47 -28t-73 -12q-63 0 -104 24t-41 71q0 44 40 74.5t94.5 42.5t114.5 11v-23q-41 0 -70 -17.5t-29 -36.5q0 -26 30 -26q19 0 40 10z" />
    <glyph glyph-name="tilde" unicode="&#x2dc;" horiz-adv-x="470" 
d="M165 599l-60 67q55 78 132 78q24 0 61 -19.5t57 -19.5q36 0 66 27l49 -75q-60 -72 -127 -72q-22 0 -59 19.5t-60 19.5q-28 0 -59 -25z" />
    <glyph glyph-name="hungarumlaut" unicode="&#x2dd;" horiz-adv-x="544" 
d="M544 741l-142 -154l-76 57l125 169zM368 757l-125 -170l-77 58l109 178z" />
    <glyph glyph-name="gravecomb" unicode="&#x300;" horiz-adv-x="0" 
d="M-269 587l-147 160l114 86l119 -177z" />
    <glyph glyph-name="acutecomb" unicode="&#x301;" horiz-adv-x="0" 
d="M-134 751l-132 -164l-100 70l123 176z" />
    <glyph glyph-name="uni0394" unicode="&#x394;" horiz-adv-x="733" 
d="M10 0l303 707h101l309 -707h-713zM364 455l-139 -325h281q-121 277 -142 325z" />
    <glyph glyph-name="uni0394" unicode="&#x2206;" horiz-adv-x="733" 
d="M10 0l303 707h101l309 -707h-713zM364 455l-139 -325h281q-121 277 -142 325z" />
    <glyph glyph-name="uni03A9" unicode="&#x3a9;" horiz-adv-x="829" 
d="M40 0v150h120q-30 13 -63.5 83t-33.5 157q0 149 98.5 235.5t253.5 86.5q158 0 255 -86t97 -236q0 -93 -35 -156.5t-70 -83.5h127v-150h-341v150q68 23 113.5 87.5t45.5 137.5q0 72 -51.5 129.5t-140.5 57.5q-95 0 -143.5 -54.5t-48.5 -135.5q0 -74 45.5 -138t112.5 -84
v-150h-341z" />
    <glyph glyph-name="uni03A9" unicode="&#x2126;" horiz-adv-x="829" 
d="M40 0v150h120q-30 13 -63.5 83t-33.5 157q0 149 98.5 235.5t253.5 86.5q158 0 255 -86t97 -236q0 -93 -35 -156.5t-70 -83.5h127v-150h-341v150q68 23 113.5 87.5t45.5 137.5q0 72 -51.5 129.5t-140.5 57.5q-95 0 -143.5 -54.5t-48.5 -135.5q0 -74 45.5 -138t112.5 -84
v-150h-341z" />
    <glyph glyph-name="pi" unicode="&#x3c0;" horiz-adv-x="645" 
d="M38 385v135h563v-135h-75v-221q0 -43 29 -43q15 0 45 19l35 -105q-59 -49 -137 -49q-59 0 -88 39.5t-29 124.5v235h-112v-60q0 -137 -23.5 -210t-72.5 -101t-140 -28l-13 139q26 1 41.5 6t30.5 22.5t22 53.5t8 95l1 83h-85z" />
    <glyph glyph-name="afii10023" unicode="&#x401;" horiz-adv-x="649" 
d="M65 0v700h535v-145h-380v-130h355v-140h-355v-140h389v-145h-544zM114 831q0 33 24.5 54.5t60.5 21.5q32 0 57.5 -22t25.5 -54q0 -33 -25.5 -55t-57.5 -22q-36 0 -60.5 21.5t-24.5 55.5zM363 831q0 32 25.5 54t59.5 22q32 0 57 -21.5t25 -54.5t-25 -55t-57 -22
q-35 0 -60 21.5t-25 55.5z" />
    <glyph glyph-name="afii10051" unicode="&#x402;" horiz-adv-x="767" 
d="M581 203q0 54 -27.5 82t-70.5 28q-74 0 -109 -55v-258h-155v555h-219v145h599v-145h-225v-134q50 37 137 37q44 0 82.5 -12.5t71.5 -38t52.5 -71.5t19.5 -108q0 -117 -62 -177t-144 -60q-91 0 -134 63l83 104q9 -9 13 -12t14 -6.5t24 -3.5q23 0 36.5 18.5t13.5 48.5z" />
    <glyph glyph-name="afii10052" unicode="&#x403;" horiz-adv-x="590" 
d="M65 0v700h525v-145h-370v-555h-155zM517 846l-240 -113l-57 99l228 142z" />
    <glyph glyph-name="afii10053" unicode="&#x404;" horiz-adv-x="690" 
d="M487 429v-145h-299q15 -75 71 -111t131 -36q106 0 169 96l121 -61q-32 -86 -114.5 -133t-160.5 -47q-169 0 -272 98t-103 260q0 157 101.5 257.5t266.5 100.5q74 0 151.5 -33.5t114.5 -97.5l-113 -83q-53 69 -163 69q-71 0 -124 -34.5t-73 -99.5h296z" />
    <glyph glyph-name="afii10054" unicode="&#x405;" horiz-adv-x="619" 
d="M429 194q0 28 -29 47.5t-72 30t-94 27.5t-94 38t-72 63.5t-29 102.5q0 87 75.5 150t195.5 63q177 0 274 -129l-104 -100q-76 84 -176 84q-105 0 -105 -66q0 -25 29 -42t72 -26.5t94 -26.5t94 -38t72 -64t29 -102q0 -95 -76 -158.5t-189 -63.5q-119 0 -202 48t-122 123
l113 94q35 -56 89 -88t118 -32q55 0 82 18.5t27 46.5z" />
    <glyph glyph-name="afii10055" unicode="&#x406;" horiz-adv-x="295" 
d="M70 0v700h155v-700h-155z" />
    <glyph glyph-name="afii10056" unicode="&#x407;" horiz-adv-x="295" 
d="M-25 806q0 31 23 51t58 20q32 0 56 -20.5t24 -50.5q0 -31 -24 -51.5t-56 -20.5q-35 0 -58 20t-23 52zM159 806q0 30 24 50.5t58 20.5q32 0 55.5 -20.5t23.5 -50.5q0 -31 -23.5 -51.5t-55.5 -20.5q-34 0 -58 20t-24 52zM70 0v700h155v-700h-155z" />
    <glyph glyph-name="afii10057" unicode="&#x408;" horiz-adv-x="486" 
d="M426 700v-481q0 -111 -57 -171t-155 -60q-159 0 -224 134l113 87q37 -76 97 -76q38 0 54.5 28.5t16.5 87.5v451h155z" />
    <glyph glyph-name="afii10058" unicode="&#x409;" horiz-adv-x="1042" 
d="M747 316h-99v-171h95q66 0 97 20t31 71q0 44 -30 62t-94 18zM648 700v-239h101q283 0 283 -225q0 -115 -78.5 -175.5t-215.5 -60.5h-245v550h-205l-4 -81q-6 -128 -21.5 -216t-35 -138t-52.5 -76.5t-64 -34t-79 -7.5q-21 0 -40 3v144q58 -7 85 20.5t41.5 130.5t17.5 326
l1 79h511z" />
    <glyph glyph-name="afii10059" unicode="&#x40a;" horiz-adv-x="1038" 
d="M651 444h101q276 0 276 -217q0 -115 -74.5 -171t-211.5 -56h-246v299h-276v-299h-155v700h155v-256h276v256h155v-256zM751 299h-100v-154h96q64 0 92 17t28 62q0 42 -26.5 58.5t-89.5 16.5z" />
    <glyph glyph-name="afii10060" unicode="&#x40b;" horiz-adv-x="739" 
d="M0 555v145h599v-145h-225v-130q56 33 114 33q221 0 221 -240v-218h-155v198q0 48 -21 81.5t-67 33.5q-56 0 -92 -45v-268h-155v555h-219z" />
    <glyph glyph-name="afii10061" unicode="&#x40c;" horiz-adv-x="701" 
d="M65 0v700h155v-273l269 273h202l-304 -310l324 -390h-204l-237 286l-50 -51v-235h-155zM514 846l-240 -113l-57 99l228 142z" />
    <glyph glyph-name="afii10062" unicode="&#x40e;" horiz-adv-x="728" 
d="M566 700h162l-254 -536q-40 -84 -85 -124t-115 -40q-87 0 -141 80l100 91q17 -26 43 -26q30 0 50 42l-326 513h192l213 -348zM188 893h130q12 -51 60 -51q23 0 40.5 13t21.5 38h130q-4 -67 -62 -115.5t-124 -48.5q-87 0 -136 44.5t-60 119.5z" />
    <glyph glyph-name="afii10145" unicode="&#x40f;" horiz-adv-x="745" 
d="M65 0v700h155v-555h305v555h155v-700h-233v-137h-150v137h-232z" />
    <glyph glyph-name="afii10017" unicode="&#x410;" horiz-adv-x="721" 
d="M-4 0l307 700h115l307 -700h-162l-57 130h-293l-57 -130h-160zM359 470l-92 -209h182z" />
    <glyph glyph-name="afii10018" unicode="&#x411;" horiz-adv-x="665" 
d="M592 700v-145h-372v-114h176q122 0 183 -56t61 -160q0 -225 -291 -225h-284v700h527zM361 296h-141v-151h135q65 0 94.5 18.5t29.5 60.5q0 39 -27 55.5t-91 16.5z" />
    <glyph glyph-name="afii10019" unicode="&#x412;" horiz-adv-x="678" 
d="M65 0v700h313q242 0 242 -179q0 -91 -68 -150q91 -43 91 -163q0 -106 -74 -157t-199 -51h-305zM362 287h-142v-142h134q69 0 98 16.5t29 55.5q0 37 -27 53.5t-92 16.5zM352 555h-132v-128h145q46 0 70 15.5t24 43.5q0 36 -23 52.5t-84 16.5z" />
    <glyph glyph-name="afii10020" unicode="&#x413;" horiz-adv-x="590" 
d="M65 0v700h525v-145h-370v-555h-155z" />
    <glyph glyph-name="afii10021" unicode="&#x414;" horiz-adv-x="751" 
d="M2 -117v262h76q73 154 73 471v84h509v-555h81v-262h-145v117h-449v-117h-145zM299 555l-1 -39q-6 -245 -60 -371h267v410h-206z" />
    <glyph glyph-name="afii10022" unicode="&#x415;" horiz-adv-x="649" 
d="M65 0v700h535v-145h-380v-130h355v-140h-355v-140h389v-145h-544z" />
    <glyph glyph-name="afii10024" unicode="&#x416;" horiz-adv-x="990" 
d="M276 360l-280 340h190l232 -277v277h155v-279l229 279h192l-280 -325l278 -375h-184l-215 286l-20 -30v-256h-155l1 255l-19 27l-225 -282h-176z" />
    <glyph glyph-name="afii10025" unicode="&#x417;" horiz-adv-x="655" 
d="M338 -12q-232 0 -338 157l123 83q71 -95 211 -95q135 0 135 76q0 75 -146 75h-110v145h104q61 0 95 17.5t34 47.5q0 39 -37 56t-86 17q-110 0 -178 -77l-120 81q103 141 307 141q131 0 200.5 -54t69.5 -150q0 -91 -72 -133q95 -38 95 -157q0 -107 -79 -168.5t-208 -61.5z
" />
    <glyph glyph-name="afii10026" unicode="&#x418;" horiz-adv-x="753" 
d="M192 0h-127v700h155v-429l339 429h129v-700h-155v427z" />
    <glyph glyph-name="afii10027" unicode="&#x419;" horiz-adv-x="753" 
d="M192 0h-127v700h155v-429l339 429h129v-700h-155v427zM193 893h130q12 -51 60 -51q23 0 40.5 13t21.5 38h130q-4 -67 -62 -115.5t-124 -48.5q-87 0 -136 44.5t-60 119.5z" />
    <glyph glyph-name="afii10028" unicode="&#x41a;" horiz-adv-x="701" 
d="M65 0v700h155v-273l269 273h202l-304 -310l324 -390h-204l-237 286l-50 -51v-235h-155z" />
    <glyph glyph-name="afii10029" unicode="&#x41b;" horiz-adv-x="727" 
d="M507 0v550h-219l-4 -81q-6 -128 -21.5 -216t-35 -138t-52.5 -76.5t-64 -34t-79 -7.5q-21 0 -40 3v144q58 -7 85 20.5t41.5 130.5t17.5 326l1 79h525v-700h-155z" />
    <glyph glyph-name="afii10030" unicode="&#x41c;" horiz-adv-x="851" 
d="M65 0v700h144l224 -335l213 335h140v-700h-155v420l-182 -279h-41l-188 282v-423h-155z" />
    <glyph glyph-name="afii10031" unicode="&#x41d;" horiz-adv-x="751" 
d="M531 0v280h-311v-280h-155v700h155v-275h311v275h155v-700h-155z" />
    <glyph glyph-name="afii10032" unicode="&#x41e;" horiz-adv-x="781" 
d="M30 350q0 152 104.5 257t256.5 105q151 0 255.5 -103.5t104.5 -258.5q0 -154 -104.5 -258t-255.5 -104t-256 103.5t-105 258.5zM191 350q0 -94 58.5 -153t141.5 -59q85 0 142 58.5t57 153.5q0 94 -59.5 153t-139.5 59q-83 0 -141.5 -59t-58.5 -153z" />
    <glyph glyph-name="afii10033" unicode="&#x41f;" horiz-adv-x="750" 
d="M530 0v555h-310v-555h-155v700h620v-700h-155z" />
    <glyph glyph-name="afii10034" unicode="&#x420;" horiz-adv-x="677" 
d="M220 0h-155v700h290q85 0 146 -21t92.5 -57t45 -76t13.5 -87q0 -100 -72 -169.5t-225 -69.5h-135v-220zM359 555h-139v-190h133q138 0 138 95t-132 95z" />
    <glyph glyph-name="afii10035" unicode="&#x421;" horiz-adv-x="696" 
d="M594 231l92 -99q-47 -69 -125.5 -106.5t-172.5 -37.5q-163 0 -260.5 99.5t-97.5 262.5q0 153 101 257.5t261 104.5q94 0 169.5 -36.5t113.5 -96.5l-105 -96q-30 38 -76 58.5t-91 20.5q-95 0 -153.5 -57.5t-58.5 -154.5q0 -94 59.5 -153t150.5 -59q119 0 193 93z" />
    <glyph glyph-name="afii10036" unicode="&#x422;" horiz-adv-x="604" 
d="M0 555v145h604v-145h-225v-555h-155v555h-224z" />
    <glyph glyph-name="afii10037" unicode="&#x423;" horiz-adv-x="728" 
d="M566 700h162l-254 -536q-40 -84 -85 -124t-115 -40q-87 0 -141 80l100 91q17 -26 43 -26q30 0 50 42l-326 513h192l213 -348z" />
    <glyph glyph-name="afii10038" unicode="&#x424;" horiz-adv-x="899" 
d="M372 -15v81h-4q-156 0 -249.5 80.5t-93.5 213.5q0 141 91.5 217.5t255.5 76.5v61h155v-61q156 0 251.5 -75.5t95.5 -218.5q0 -133 -92.5 -213.5t-248.5 -80.5h-6v-81h-155zM529 509h-2v-298h6q181 0 181 149q0 75 -43 112t-142 37zM185 360q0 -63 46.5 -106t137.5 -43h3
v298q-100 0 -143.5 -35.5t-43.5 -113.5z" />
    <glyph glyph-name="afii10039" unicode="&#x425;" horiz-adv-x="707" 
d="M699 700l-253 -345l261 -355h-189l-164 229l-165 -229h-189l262 355l-251 345h187l157 -217l156 217h188z" />
    <glyph glyph-name="afii10040" unicode="&#x426;" horiz-adv-x="749" 
d="M65 0v700h155v-555h283v555h155v-555h81v-262h-144v117h-530z" />
    <glyph glyph-name="afii10041" unicode="&#x427;" horiz-adv-x="709" 
d="M644 700v-700h-155v263q-74 -39 -171 -39q-125 0 -201.5 58.5t-76.5 181.5v236h156v-138q0 -106 33.5 -149.5t109.5 -43.5q85 0 150 42v289h155z" />
    <glyph glyph-name="afii10042" unicode="&#x428;" horiz-adv-x="949" 
d="M65 0v700h155v-555h177v555h155v-555h177v555h155v-700h-819z" />
    <glyph glyph-name="afii10043" unicode="&#x429;" horiz-adv-x="977" 
d="M65 0v700h155v-555h178v555h155v-555h178v555h155v-555h81v-262h-145v117h-757z" />
    <glyph glyph-name="afii10044" unicode="&#x42a;" horiz-adv-x="741" 
d="M0 555v145h308v-232h129q294 0 294 -232q0 -120 -78.5 -178t-224.5 -58h-275v555h-153zM435 323h-127v-178h124q72 0 105 20t33 71q0 87 -135 87z" />
    <glyph glyph-name="afii10045" unicode="&#x42b;" horiz-adv-x="900" 
d="M680 0v700h155v-700h-155zM321 323h-101v-178h99q72 0 105 20t33 71q0 87 -136 87zM220 700v-232h104q144 0 219 -62.5t75 -169.5q0 -116 -79.5 -176t-223.5 -60h-250v700h155z" />
    <glyph glyph-name="afii10046" unicode="&#x42c;" horiz-adv-x="657" 
d="M351 323h-130v-178h127q138 0 138 91q0 87 -135 87zM221 700v-232h132q294 0 294 -232q0 -115 -79 -175.5t-223 -60.5h-280v700h156z" />
    <glyph glyph-name="afii10047" unicode="&#x42d;" horiz-adv-x="707" 
d="M207 285v145h308q-17 62 -69.5 97.5t-131.5 35.5q-54 0 -109.5 -21t-93.5 -68l-102 100q50 67 133 100.5t178 33.5q165 0 261 -96t96 -259q0 -160 -97.5 -260.5t-267.5 -100.5q-208 0 -312 150l103 88q67 -93 213 -93q81 0 135.5 40t65.5 108h-310z" />
    <glyph glyph-name="afii10048" unicode="&#x42e;" horiz-adv-x="1014" 
d="M65 0v700h155v-278h71q22 126 116.5 206t227.5 80q158 0 253.5 -100t95.5 -258q0 -154 -99.5 -256t-249.5 -102q-140 0 -233.5 79t-111.5 219h-70v-290h-155zM443 350q0 -96 54.5 -154.5t137.5 -58.5q86 0 137 57.5t51 155.5q0 97 -52 155t-136 58t-138 -58.5t-54 -154.5
z" />
    <glyph glyph-name="afii10049" unicode="&#x42f;" horiz-adv-x="701" 
d="M481 0v231h-119l-179 -231h-183l206 260q-76 23 -116 75t-40 129q0 104 75.5 170t217.5 66h293v-700h-155zM328 376h153v179h-147q-123 0 -123 -90q0 -38 32.5 -63.5t84.5 -25.5z" />
    <glyph glyph-name="afii10065" unicode="&#x430;" horiz-adv-x="532" 
d="M117 346l-69 105q77 80 229 80q101 0 157 -56.5t56 -159.5v-315h-145v47q-18 -21 -56.5 -37t-83.5 -16q-86 0 -138 46.5t-52 123.5q0 85 67.5 128t168.5 43q58 0 94 -13q1 39 -20 56.5t-64 17.5q-42 0 -72.5 -10.5t-71.5 -39.5zM235 119q36 0 66.5 17t43.5 42v24
q-35 13 -79 13q-101 0 -101 -51q0 -21 18.5 -33t51.5 -12z" />
    <glyph glyph-name="afii10066" unicode="&#x431;" horiz-adv-x="593" 
d="M506 743l25 -131q-48 -23 -139.5 -34t-125.5 -24q-101 -39 -112 -139q28 36 77 55.5t106 19.5q100 0 168 -60.5t68 -173.5q0 -118 -71.5 -192t-192.5 -74q-129 0 -206.5 81.5t-77.5 230.5q0 143 41.5 230.5t133.5 133.5q56 28 161.5 42t144.5 35zM175 278v-16
q0 -53 37.5 -95t95.5 -42t86.5 33t28.5 89q0 49 -28.5 78.5t-83.5 29.5q-92 0 -136 -77z" />
    <glyph glyph-name="afii10067" unicode="&#x432;" horiz-adv-x="531" 
d="M45 0v520h227q114 0 170 -34t56 -110q0 -51 -48 -99q61 -30 61 -116q0 -78 -54.5 -119.5t-149.5 -41.5h-262zM287 201h-97v-71h103q68 0 68 34q0 20 -17.5 28.5t-56.5 8.5zM269 390h-79v-64h109q49 0 49 32q0 20 -17 26t-62 6z" />
    <glyph glyph-name="afii10068" unicode="&#x433;" horiz-adv-x="456" 
d="M45 0v520h406v-135h-261v-385h-145z" />
    <glyph glyph-name="afii10069" unicode="&#x434;" horiz-adv-x="603" 
d="M5 -112v247h59q52 109 52 322v63h412v-385h70v-247h-135v112h-323v-112h-135zM249 385v-32q0 -45 -10.5 -116t-26.5 -102h171v250h-134z" />
    <glyph glyph-name="afii10070" unicode="&#x435;" horiz-adv-x="558" 
d="M438 184l87 -88q-83 -104 -224 -104q-127 0 -204 73.5t-77 195.5q0 118 71 194t199 76q108 0 178 -66t70 -173q0 -32 -8 -84h-358q20 -81 131 -81q39 0 76 15t59 42zM285 401q-83 0 -110 -68h213q-18 68 -103 68z" />
    <glyph glyph-name="afii10072" unicode="&#x436;" horiz-adv-x="765" 
d="M187 286l-197 234h182l138 -177v177h145v-178l145 178h175l-198 -234l198 -286h-177l-123 198l-20 -24v-174h-145v173l-20 24l-125 -197h-172z" />
    <glyph glyph-name="afii10073" unicode="&#x437;" horiz-adv-x="507" 
d="M249 -12q-93 0 -150.5 33t-96.5 99l109 75q46 -77 140 -77q86 0 86 51q0 33 -60 33h-108v125h103q48 0 48 33q0 23 -20.5 34t-48.5 11q-52 0 -81.5 -16t-56.5 -49l-102 68q31 55 91 91t153 36q104 0 159.5 -43t55.5 -113q0 -57 -39 -96q56 -43 56 -114q0 -83 -66.5 -132
t-171.5 -49z" />
    <glyph glyph-name="afii10074" unicode="&#x438;" horiz-adv-x="591" 
d="M168 0h-123v520h145v-283l233 283h123v-520h-145v283z" />
    <glyph glyph-name="afii10075" unicode="&#x439;" horiz-adv-x="591" 
d="M168 0h-123v520h145v-283l233 283h123v-520h-145v283zM123 738h133q2 -53 52 -53q49 0 49 53h132q-1 -80 -53.5 -121.5t-127.5 -41.5q-79 0 -131.5 40.5t-53.5 122.5z" />
    <glyph glyph-name="afii10076" unicode="&#x43a;" horiz-adv-x="557" 
d="M45 0v520h145v-186l184 186h188l-236 -231l241 -289h-184l-161 197l-32 -33v-164h-145z" />
    <glyph glyph-name="afii10077" unicode="&#x43b;" horiz-adv-x="581" 
d="M391 0v385h-141v-14q0 -213 -59 -304.5t-189 -66.5v130q40 -5 62 12t35.5 80t13.5 185v113h423v-520h-145z" />
    <glyph glyph-name="afii10078" unicode="&#x43c;" horiz-adv-x="663" 
d="M45 0v520h128l162 -208l164 208h119v-520h-145v266l-137 -172l-146 175v-269h-145z" />
    <glyph glyph-name="afii10079" unicode="&#x43d;" horiz-adv-x="579" 
d="M389 0v195h-199v-195h-145v520h145v-190h199v190h145v-520h-145z" />
    <glyph glyph-name="afii10080" unicode="&#x43e;" horiz-adv-x="604" 
d="M20 261q0 118 78.5 194t202.5 76t203.5 -76t79.5 -194q0 -117 -79.5 -193t-203.5 -76q-121 0 -201 76t-80 193zM170 261q0 -58 36.5 -96t94.5 -38q60 0 96.5 36t36.5 98t-38 98.5t-95 36.5t-94 -36t-37 -99z" />
    <glyph glyph-name="afii10081" unicode="&#x43f;" horiz-adv-x="573" 
d="M383 0v385h-193v-385h-145v520h483v-520h-145z" />
    <glyph glyph-name="afii10082" unicode="&#x440;" horiz-adv-x="582" 
d="M45 -200v720h145v-27q41 38 116 38q117 0 186.5 -73t69.5 -190q0 -120 -71.5 -198t-188.5 -78q-89 0 -112 26v-218h-145zM290 396q-68 0 -100 -59v-166q13 -19 37.5 -31.5t54.5 -12.5q60 0 95 35t35 95q0 68 -32 103.5t-90 35.5z" />
    <glyph glyph-name="afii10083" unicode="&#x441;" horiz-adv-x="540" 
d="M431 195l106 -63q-35 -68 -97.5 -104t-137.5 -36q-127 0 -204.5 73.5t-77.5 195.5q0 117 77 193.5t198 76.5q89 0 150.5 -35.5t87.5 -94.5l-108 -70q-48 65 -121 65q-60 0 -97 -37t-37 -98q0 -56 41 -95t107 -39q72 0 113 68z" />
    <glyph glyph-name="afii10084" unicode="&#x442;" horiz-adv-x="509" 
d="M4 385v135h501v-135h-179v-385h-145v385h-177z" />
    <glyph glyph-name="afii10085" unicode="&#x443;" horiz-adv-x="557" 
d="M572 520l-293 -720h-157l107 244l-249 476h169l151 -302l117 302h155z" />
    <glyph glyph-name="afii10086" unicode="&#x444;" horiz-adv-x="749" 
d="M302 -200v190h-6q-130 0 -204 75t-74 194q0 112 75 191t202 79h7v201h145v-201h8q125 0 200.5 -76t75.5 -194q0 -119 -74 -194t-204 -75h-6v-190h-145zM168 259q0 -66 33 -100t95 -34h6v269h-7q-127 0 -127 -135zM453 394h-6v-269h6q69 0 98.5 32.5t29.5 101.5
q0 67 -29.5 101t-98.5 34z" />
    <glyph glyph-name="afii10087" unicode="&#x445;" horiz-adv-x="576" 
d="M577 520l-199 -252l208 -268h-180l-119 159l-123 -159h-174l208 267l-198 253h179l111 -141l112 141h175z" />
    <glyph glyph-name="afii10088" unicode="&#x446;" horiz-adv-x="595" 
d="M45 0v520h145v-385h190v385h145v-385h65v-247h-135v112h-410z" />
    <glyph glyph-name="afii10089" unicode="&#x447;" horiz-adv-x="550" 
d="M505 520v-520h-145v185q-46 -35 -120 -35q-215 0 -215 207v163h145v-107q0 -73 23 -100.5t81 -27.5q53 0 86 42v193h145z" />
    <glyph glyph-name="afii10090" unicode="&#x448;" horiz-adv-x="749" 
d="M45 0v520h145v-385h112v385h145v-385h112v385h145v-520h-659z" />
    <glyph glyph-name="afii10091" unicode="&#x449;" horiz-adv-x="774" 
d="M45 0v520h145v-385h112v385h145v-385h112v385h145v-385h65v-247h-135v112h-589z" />
    <glyph glyph-name="afii10092" unicode="&#x44a;" horiz-adv-x="595" 
d="M5 385v135h264v-136h84q121 0 174 -53.5t53 -138.5q0 -82 -56 -137t-177 -55h-223v385h-119zM344 249h-75v-114h75q46 0 66 13.5t20 42.5q0 30 -20 44t-66 14z" />
    <glyph glyph-name="afii10093" unicode="&#x44b;" horiz-adv-x="703" 
d="M45 0v520h145v-138h66q121 0 174.5 -53t53.5 -137q0 -82 -57 -137t-178 -55h-204zM248 247h-58v-112h57q47 0 67 13.5t20 42.5q0 30 -20 43t-66 13zM513 0v520h145v-520h-145z" />
    <glyph glyph-name="afii10094" unicode="&#x44c;" horiz-adv-x="517" 
d="M45 0v520h145v-138h85q120 0 173.5 -53t53.5 -137q0 -82 -56.5 -137t-177.5 -55h-223zM265 247h-75v-112h75q47 0 67 13.5t20 42.5q0 30 -20 43t-67 13z" />
    <glyph glyph-name="afii10095" unicode="&#x44d;" horiz-adv-x="552" 
d="M183 203v125h195q-13 38 -45 53t-85 15q-36 0 -74 -16t-63 -52l-104 78q91 125 258 125q121 0 194 -73t73 -197q0 -118 -74 -193.5t-204 -75.5q-80 0 -149 29.5t-100 92.5l105 75q45 -62 129 -62q115 0 142 76h-198z" />
    <glyph glyph-name="afii10096" unicode="&#x44e;" horiz-adv-x="803" 
d="M45 0v520h145v-190h65q21 92 88.5 146.5t167.5 54.5q120 0 196 -76t76 -194q0 -117 -76 -193t-196 -76q-103 0 -171.5 57t-87.5 153h-62v-202h-145zM397 261q0 -63 32 -98.5t83 -35.5q55 0 88 35.5t33 98.5t-33 99t-88 36q-49 0 -82 -36.5t-33 -98.5z" />
    <glyph glyph-name="afii10097" unicode="&#x44f;" horiz-adv-x="533" 
d="M268 520h220v-520h-145v157h-67l-107 -157h-167l133 182q-105 32 -105 161q0 78 57.5 127.5t180.5 49.5zM180 337q0 -45 74 -45h89v93h-84q-79 0 -79 -48z" />
    <glyph glyph-name="afii10071" unicode="&#x451;" horiz-adv-x="558" 
d="M438 184l87 -88q-83 -104 -224 -104q-127 0 -204 73.5t-77 195.5q0 118 71 194t199 76q108 0 178 -66t70 -173q0 -32 -8 -84h-358q20 -81 131 -81q39 0 76 15t59 42zM285 401q-83 0 -110 -68h213q-18 68 -103 68zM110 660q0 30 23 50t55 20q30 0 54.5 -20t24.5 -50
q0 -32 -24 -52t-55 -20q-32 0 -55 19.5t-23 52.5zM314 660q0 30 24 50t57 20q32 0 55.5 -20t23.5 -50q0 -33 -23 -52.5t-56 -19.5q-34 0 -57.5 19.5t-23.5 52.5z" />
    <glyph glyph-name="afii10099" unicode="&#x452;" horiz-adv-x="649" 
d="M0 520v130h120v80h145v-80h197v-130h-197v-128q51 39 128 39q105 0 165.5 -63t60.5 -185q0 -121 -56 -223.5t-171 -168.5l-86 98q95 63 129 127.5t34 153.5q0 126 -102 126q-30 0 -58 -18t-44 -49v-229h-145v520h-120z" />
    <glyph glyph-name="afii10100" unicode="&#x453;" horiz-adv-x="456" 
d="M45 0v520h406v-135h-261v-385h-145zM406 751l-132 -164l-100 70l123 176z" />
    <glyph glyph-name="afii10101" unicode="&#x454;" horiz-adv-x="541" 
d="M373 328v-125h-197q24 -76 132 -76q76 0 119 58l108 -58q-31 -68 -95.5 -101.5t-139.5 -33.5q-121 0 -198 75t-77 194q0 124 77.5 197t204.5 73q161 0 227 -113l-111 -72q-24 29 -51 39.5t-66 10.5q-98 0 -128 -68h195z" />
    <glyph glyph-name="afii10102" unicode="&#x455;" horiz-adv-x="496" 
d="M331 155q0 13 -30.5 24t-73.5 23t-86.5 30t-74 53.5t-30.5 84.5q0 75 59.5 118t164.5 43q71 0 130.5 -27.5t85.5 -66.5l-99 -95q-52 54 -146 54q-45 0 -45 -25q0 -12 30.5 -21.5t73.5 -21t86.5 -29.5t74 -55t30.5 -88q0 -81 -62.5 -122.5t-157.5 -41.5q-90 0 -154.5 35.5
t-94.5 90.5l115 78q22 -29 63 -49t87 -20q54 0 54 28z" />
    <glyph glyph-name="afii10103" unicode="&#x456;" horiz-adv-x="253" 
d="M54 0v520h145v-520h-145zM45 658q0 31 23 51.5t59 20.5q35 0 58 -20.5t23 -51.5q0 -32 -23 -53t-58 -21q-38 0 -60 20.5t-22 53.5z" />
    <glyph glyph-name="afii10104" unicode="&#x457;" horiz-adv-x="235" 
d="M45 0v520h145v-520h-145zM-40 657q0 30 22 51.5t54 21.5q27 0 50 -22t23 -51q0 -31 -23 -53t-50 -22q-33 0 -54.5 21.5t-21.5 53.5zM126 657q0 29 23 51t53 22q29 0 52 -22t23 -51q0 -31 -22.5 -53t-52.5 -22t-53 22t-23 53z" />
    <glyph glyph-name="afii10105" unicode="&#x458;" horiz-adv-x="252" 
d="M200 520v-518q0 -101 -45.5 -156t-137.5 -55q-138 0 -187 120l127 49q17 -34 47 -34q51 0 51 79v515h145zM45 659q0 31 22.5 51.5t60.5 20.5q34 0 56.5 -20.5t22.5 -51.5q0 -33 -21.5 -53.5t-57.5 -20.5q-38 0 -60.5 20.5t-22.5 53.5z" />
    <glyph glyph-name="afii10106" unicode="&#x459;" horiz-adv-x="823" 
d="M388 385h-138v-14q0 -213 -59 -304.5t-189 -66.5v130q40 -5 62 12t35.5 80t13.5 185v113h420v-148h48q227 0 227 -185q0 -81 -56 -134t-177 -53h-187v385zM573 237h-40v-102h52q43 0 58 12.5t15 38.5q0 29 -19 40t-66 11z" />
    <glyph glyph-name="afii10107" unicode="&#x45a;" horiz-adv-x="821" 
d="M45 0v520h145v-169h197v169h145v-169h47q123 0 175 -45.5t52 -128.5q0 -82 -55.5 -129.5t-177.5 -47.5h-186v216h-197v-216h-145zM572 216h-40v-81h39q48 0 66.5 9t18.5 32q0 22 -19 31t-65 9z" />
    <glyph glyph-name="afii10108" unicode="&#x45b;" horiz-adv-x="646" 
d="M0 520v130h120v80h145v-80h197v-130h-197v-141q49 42 133 42q213 0 213 -239v-182h-145v174q0 55 -22 83.5t-77 28.5q-31 0 -59.5 -17t-42.5 -47v-222h-145v520h-120z" />
    <glyph glyph-name="afii10109" unicode="&#x45c;" horiz-adv-x="557" 
d="M45 0v520h145v-186l184 186h188l-236 -231l241 -289h-184l-161 197l-32 -33v-164h-145zM423 751l-132 -164l-100 70l123 176z" />
    <glyph glyph-name="afii10110" unicode="&#x45e;" horiz-adv-x="557" 
d="M572 521l-293 -720h-157l107 244l-249 476h169l151 -302l117 302h155zM103 738h133q2 -53 52 -53q49 0 49 53h132q-1 -80 -53.5 -121.5t-127.5 -41.5q-79 0 -131.5 40.5t-53.5 122.5z" />
    <glyph glyph-name="afii10193" unicode="&#x45f;" horiz-adv-x="583" 
d="M45 0v520h145v-385h203v385h145v-520h-179v-130h-135v130h-179z" />
    <glyph glyph-name="afii10146" unicode="&#x462;" horiz-adv-x="707" 
d="M0 485v145h115v70h155v-70h215v-145h-215v-57h133q150 0 222 -50t72 -162q0 -113 -77.5 -164.5t-224.5 -51.5h-280v485h-115zM401 283h-131v-138h128q75 0 106.5 14t31.5 57q0 42 -30.5 54.5t-104.5 12.5z" />
    <glyph glyph-name="afii10194" unicode="&#x463;" horiz-adv-x="587" 
d="M417 390h-157v-48h85q120 0 173.5 -47.5t53.5 -122.5t-56.5 -123.5t-177.5 -48.5h-223v390h-110v130h110v210h145v-210h157v-130zM335 207h-75v-72h75q49 0 68 7.5t19 28.5q0 22 -18.5 29t-68.5 7z" />
    <glyph glyph-name="afii10147" unicode="&#x472;" horiz-adv-x="781" 
d="M30 350q0 151 104.5 254.5t256.5 103.5t256 -102t104 -256q0 -153 -104.5 -255.5t-255.5 -102.5q-152 0 -256.5 102t-104.5 256zM391 142q67 0 118.5 36.5t70.5 100.5h-379q21 -64 73 -100.5t117 -36.5zM391 558q-64 0 -116 -36t-73 -98h376q-21 62 -73 98t-114 36z" />
    <glyph glyph-name="afii10195" unicode="&#x473;" horiz-adv-x="604" 
d="M20 261q0 118 78.5 194t202.5 76t203.5 -76t79.5 -194q0 -117 -79.5 -193t-203.5 -76q-121 0 -201 76t-80 193zM301 127q89 0 120 71h-237q33 -71 117 -71zM301 396q-83 0 -117 -68h235q-34 68 -118 68z" />
    <glyph glyph-name="afii10148" unicode="&#x474;" horiz-adv-x="769" 
d="M649 495l-222 -495h-108l-329 700h168l216 -474l141 333q31 73 80.5 111.5t104.5 38.5q53 0 99 -33l-58 -129q-12 9 -28 9q-38 -2 -64 -61z" />
    <glyph glyph-name="afii10196" unicode="&#x475;" horiz-adv-x="570" 
d="M458 306l-134 -306h-110l-239 520h163l133 -300l82 194q49 116 150 114q64 -2 107 -43l-61 -110q-10 10 -26 10q-30 0 -65 -79z" />
    <glyph glyph-name="afii10050" unicode="&#x490;" horiz-adv-x="590" 
d="M65 0v700h380v115h145v-260h-370v-555h-155z" />
    <glyph glyph-name="afii10098" unicode="&#x491;" horiz-adv-x="456" 
d="M45 0v520h271v94h135v-229h-261v-385h-145z" />
    <glyph glyph-name="uni1E9E" unicode="&#x1e9e;" horiz-adv-x="657" 
d="M356 708q101 0 163.5 -46.5t80.5 -112.5l-120 -146q76 -13 111.5 -64t35.5 -123q0 -100 -68 -163.5t-178 -63.5q-60 0 -122 30l47 134q40 -19 66 -19q40 0 70 21t30 58q0 76 -107 76h-49v117l112 128q-27 29 -86 29q-127 0 -127 -147v-416h-155v436q0 272 296 272z" />
    <glyph glyph-name="uni2010" unicode="&#x2010;" horiz-adv-x="424" 
d="M60 217v130h304v-130h-304z" />
    <glyph glyph-name="uni2011" unicode="&#x2011;" horiz-adv-x="424" 
d="M60 217v130h304v-130h-304z" />
    <glyph glyph-name="figuredash" unicode="&#x2012;" horiz-adv-x="616" 
d="M80 301v126h456v-126h-456z" />
    <glyph glyph-name="endash" unicode="&#x2013;" horiz-adv-x="616" 
d="M80 217v126h456v-126h-456z" />
    <glyph glyph-name="emdash" unicode="&#x2014;" horiz-adv-x="796" 
d="M80 217v126h636v-126h-636z" />
    <glyph glyph-name="quoteleft" unicode="&#x2018;" horiz-adv-x="251" 
d="M209 519l-122 -76q-57 65 -57 113q0 104 128 182l63 -55q-44 -41 -44 -90q0 -31 32 -74z" />
    <glyph glyph-name="quoteright" unicode="&#x2019;" horiz-adv-x="251" 
d="M42 662l122 76q57 -65 57 -113q0 -104 -128 -182l-63 55q44 41 44 90q0 31 -32 74z" />
    <glyph glyph-name="quotesinglbase" unicode="&#x201a;" horiz-adv-x="251" 
d="M42 88l122 76q57 -65 57 -113q0 -104 -128 -182l-63 55q44 41 44 90q0 31 -32 74z" />
    <glyph glyph-name="quotedblleft" unicode="&#x201c;" horiz-adv-x="451" 
d="M209 519l-122 -76q-57 65 -57 113q0 104 128 182l63 -55q-44 -41 -44 -90q0 -31 32 -74zM409 519l-122 -76q-57 65 -57 113q0 104 128 182l63 -55q-44 -41 -44 -90q0 -31 32 -74z" />
    <glyph glyph-name="quotedblright" unicode="&#x201d;" horiz-adv-x="451" 
d="M242 662l122 76q57 -65 57 -113q0 -104 -128 -182l-63 55q44 41 44 90q0 31 -32 74zM42 662l122 76q57 -65 57 -113q0 -104 -128 -182l-63 55q44 41 44 90q0 31 -32 74z" />
    <glyph glyph-name="quotedblbase" unicode="&#x201e;" horiz-adv-x="451" 
d="M242 88l122 76q57 -65 57 -113q0 -104 -128 -182l-63 55q44 41 44 90q0 31 -32 74zM42 88l122 76q57 -65 57 -113q0 -104 -128 -182l-63 55q44 41 44 90q0 31 -32 74z" />
    <glyph glyph-name="dagger" unicode="&#x2020;" horiz-adv-x="461" 
d="M20 375v145h133v180h155v-180h133v-145h-133v-463h-155v463h-133z" />
    <glyph glyph-name="daggerdbl" unicode="&#x2021;" horiz-adv-x="472" 
d="M30 376v145h133v179h146v-179h133v-145h-133v-114h133v-145h-133v-205h-146v205h-133v145h133v114h-133z" />
    <glyph glyph-name="bullet" unicode="&#x2022;" horiz-adv-x="324" 
d="M60 360q0 39 30.5 66t72.5 27q41 0 71 -27t30 -66q0 -37 -30 -65t-71 -28q-42 0 -72.5 27.5t-30.5 65.5z" />
    <glyph glyph-name="ellipsis" unicode="&#x2026;" horiz-adv-x="774" 
d="M565 75q0 29 24.5 52t61.5 23q34 0 58.5 -23.5t24.5 -51.5q0 -31 -24 -54t-59 -23q-38 0 -62 23t-24 54zM303 75q0 29 24 52t61 23q35 0 59 -23.5t24 -51.5q0 -31 -24 -54t-59 -23q-37 0 -61 23t-24 54zM40 75q0 29 24.5 52t61.5 23q34 0 58.5 -23.5t24.5 -51.5
q0 -31 -24 -54t-59 -23q-38 0 -62 23t-24 54z" />
    <glyph glyph-name="perthousand" unicode="&#x2030;" horiz-adv-x="1368" 
d="M30 517q0 82 58 134t144 52q87 0 144.5 -52t57.5 -134q0 -81 -57.5 -133t-144.5 -52q-86 0 -144 52.5t-58 132.5zM176 517q0 -28 16.5 -45t39.5 -17q24 0 40 17t16 45t-16.5 45t-39.5 17t-39.5 -17t-16.5 -45zM161 45l512 685l107 -76l-512 -684zM503 182
q0 82 57.5 133.5t144.5 51.5t144.5 -51.5t57.5 -133.5q0 -81 -58 -133.5t-144 -52.5q-87 0 -144.5 52.5t-57.5 133.5zM649 182q0 -28 16.5 -45t39.5 -17t39.5 17t16.5 45t-16.5 45t-39.5 17t-39.5 -17t-16.5 -45zM934 182q0 82 57.5 133.5t144.5 51.5t144.5 -51.5
t57.5 -133.5q0 -81 -57.5 -133.5t-144.5 -52.5q-86 0 -144 52.5t-58 133.5zM1080 182q0 -28 16.5 -45t39.5 -17q24 0 40 17t16 45t-16.5 45t-39.5 17t-39.5 -17t-16.5 -45z" />
    <glyph glyph-name="guilsinglleft" unicode="&#x2039;" horiz-adv-x="348" 
d="M217 38l-187 222v7l187 214l100 -89l-112 -130l113 -132z" />
    <glyph glyph-name="guilsinglright" unicode="&#x203a;" horiz-adv-x="348" 
d="M318 260l-187 -222l-101 92l113 132l-112 130l100 89l187 -214v-7z" />
    <glyph glyph-name="fraction" unicode="&#x2044;" horiz-adv-x="358" 
d="M-150 59l551 671l107 -86l-549 -675z" />
    <glyph glyph-name="uni2070" unicode="&#x2070;" horiz-adv-x="485" 
d="M40 510q0 95 55 154.5t147 59.5q93 0 148 -59.5t55 -154.5t-54 -154.5t-147 -59.5t-148.5 60t-55.5 154zM175 510q0 -42 19 -65.5t50 -23.5q30 0 48 22.5t18 66.5q0 89 -68 89q-67 0 -67 -89z" />
    <glyph glyph-name="uni2074" unicode="&#x2074;" horiz-adv-x="449" 
d="M236 300v64h-226v94l244 262h107v-241h68v-115h-68v-64h-125zM158 479h78v81z" />
    <glyph glyph-name="uni2075" unicode="&#x2075;" horiz-adv-x="418" 
d="M57 456l17 264h283v-120h-179l-3 -23q17 3 50 3q72 0 112.5 -38.5t40.5 -101.5q0 -65 -50.5 -105t-130.5 -40q-121 0 -177 84l95 75q30 -39 80 -39q48 0 48 27q0 33 -64 33q-51 0 -122 -19z" />
    <glyph glyph-name="uni2076" unicode="&#x2076;" horiz-adv-x="475" 
d="M40 499q0 109 60 167.5t156 58.5q100 0 165 -42l-53 -94q-50 21 -112 21q-43 0 -64.5 -18t-21.5 -41q41 38 106 38q78 0 123.5 -38t45.5 -100q0 -68 -54.5 -112t-137.5 -44q-93 0 -153 54t-60 150zM187 456q1 -18 19 -29.5t47 -11.5q57 0 57 35q0 14 -17.5 21.5
t-41.5 7.5q-44 0 -64 -23z" />
    <glyph glyph-name="uni2077" unicode="&#x2077;" horiz-adv-x="397" 
d="M20 595v125h357v-96l-174 -324h-151l166 295h-198z" />
    <glyph glyph-name="uni2078" unicode="&#x2078;" horiz-adv-x="498" 
d="M240 565h19q39 0 39 24q0 12 -11 16.5t-39 4.5q-48 0 -48 -21q0 -14 9 -19t31 -5zM258 465h-16q-57 0 -57 -27q0 -28 64 -28t64 27q0 28 -55 28zM249 295q-87 0 -143 34.5t-56 91.5q0 64 55 97q-40 24 -40 85q0 54 51.5 88t132.5 34q82 0 133 -33.5t51 -88.5
q0 -54 -41 -83q56 -27 56 -96q0 -60 -55.5 -94.5t-143.5 -34.5z" />
    <glyph glyph-name="uni2079" unicode="&#x2079;" horiz-adv-x="475" 
d="M435 521q0 -109 -60 -167.5t-156 -58.5q-100 0 -165 42l53 94q50 -21 112 -21q43 0 64.5 18t21.5 41q-41 -38 -106 -38q-78 0 -123.5 38t-45.5 100q0 68 55 112t137 44q93 0 153 -54t60 -150zM288 564q-1 18 -19 29.5t-47 11.5q-57 0 -57 -35q0 -14 17.5 -21.5t41.5 -7.5
q44 0 64 23z" />
    <glyph glyph-name="uni207A" unicode="&#x207a;" horiz-adv-x="439" 
d="M50 455v120h104v103h130v-103h105v-120h-105v-104h-130v104h-104z" />
    <glyph glyph-name="uni207B" unicode="&#x207b;" horiz-adv-x="426" 
d="M50 455v120h326v-120h-326z" />
    <glyph glyph-name="uni207C" unicode="&#x207c;" horiz-adv-x="408" 
d="M50 535v110h308v-110h-308zM50 386v110h308v-110h-308z" />
    <glyph glyph-name="uni207D" unicode="&#x207d;" horiz-adv-x="295" 
d="M285 265l-83 -75q-85 63 -123.5 136.5t-38.5 143.5q0 155 162 280l76 -78q-48 -36 -75.5 -91.5t-27.5 -110.5t31.5 -110.5t78.5 -94.5z" />
    <glyph glyph-name="uni207E" unicode="&#x207e;" horiz-adv-x="292" 
d="M92 191l-78 78q103 84 103 201q0 56 -24 104t-83 99l81 77q88 -68 124.5 -134.5t36.5 -145.5q0 -70 -38 -143.5t-122 -135.5z" />
    <glyph glyph-name="uni2080" unicode="&#x2080;" horiz-adv-x="485" 
d="M40 110q0 95 55 154.5t147 59.5q93 0 148 -59.5t55 -154.5t-54 -154.5t-147 -59.5t-148.5 60t-55.5 154zM175 110q0 -42 19 -65.5t50 -23.5q30 0 48 22.5t18 66.5q0 89 -68 89q-67 0 -67 -89z" />
    <glyph glyph-name="uni2081" unicode="&#x2081;" horiz-adv-x="330" 
d="M10 253l161 67h99v-420h-135v270l-77 -31z" />
    <glyph glyph-name="uni2082" unicode="&#x2082;" horiz-adv-x="425" 
d="M125 149l-95 61q51 114 194 114q73 0 116 -35.5t43 -90.5q0 -96 -90 -153l-39 -25h141v-120h-351v101l78 45q126 72 126 119q0 39 -38 39q-61 0 -85 -55z" />
    <glyph glyph-name="uni2083" unicode="&#x2083;" horiz-adv-x="432" 
d="M114 157l-87 70q58 98 185 98q79 0 125 -28.5t46 -76.5q0 -34 -14 -55.5t-44 -38.5q67 -25 67 -96q0 -60 -51 -97.5t-133 -37.5q-133 0 -188 112l99 57q15 -49 89 -49q27 0 38 5t11 18q0 22 -54 22h-39v100h33q51 0 51 24q0 21 -38 21q-35 0 -56 -11.5t-40 -36.5z" />
    <glyph glyph-name="uni2084" unicode="&#x2084;" horiz-adv-x="449" 
d="M236 -100v64h-226v94l244 262h107v-241h68v-115h-68v-64h-125zM158 79h78v81z" />
    <glyph glyph-name="uni2085" unicode="&#x2085;" horiz-adv-x="418" 
d="M57 56l17 264h283v-120h-179l-3 -23q16 3 50 3q72 0 112.5 -38.5t40.5 -101.5q0 -65 -50.5 -105t-130.5 -40q-121 0 -177 84l95 75q30 -39 80 -39q48 0 48 27q0 33 -64 33q-51 0 -122 -19z" />
    <glyph glyph-name="uni2086" unicode="&#x2086;" horiz-adv-x="475" 
d="M40 99q0 109 60 167.5t156 58.5q100 0 165 -42l-53 -94q-50 21 -112 21q-43 0 -64.5 -18t-21.5 -41q41 38 106 38q78 0 123.5 -38t45.5 -100q0 -68 -54.5 -112t-137.5 -44q-93 0 -153 54t-60 150zM187 56q1 -18 19 -29.5t47 -11.5q57 0 57 35q0 14 -17.5 21.5t-41.5 7.5
q-44 0 -64 -23z" />
    <glyph glyph-name="uni2087" unicode="&#x2087;" horiz-adv-x="397" 
d="M20 195v125h357v-96l-174 -324h-151l166 295h-198z" />
    <glyph glyph-name="uni2088" unicode="&#x2088;" horiz-adv-x="498" 
d="M240 165h19q39 0 39 24q0 12 -11 16.5t-39 4.5q-48 0 -48 -21q0 -14 9 -19t31 -5zM258 65h-16q-57 0 -57 -27q0 -28 64 -28t64 27q0 28 -55 28zM249 -105q-87 0 -143 34.5t-56 91.5q0 64 55 97q-40 24 -40 85q0 54 51.5 88t132.5 34q82 0 133 -33.5t51 -88.5
q0 -54 -41 -83q56 -27 56 -96q0 -60 -55.5 -94.5t-143.5 -34.5z" />
    <glyph glyph-name="uni2089" unicode="&#x2089;" horiz-adv-x="475" 
d="M435 121q0 -109 -60 -167.5t-156 -58.5q-100 0 -165 42l53 94q50 -21 112 -21q43 0 64.5 18t21.5 41q-41 -38 -106 -38q-78 0 -123.5 38t-45.5 100q0 68 55 112t137 44q93 0 153 -54t60 -150zM288 164q-1 18 -19 29.5t-47 11.5q-57 0 -57 -35q0 -14 17.5 -21.5t41.5 -7.5
q44 0 64 23z" />
    <glyph glyph-name="uni208A" unicode="&#x208a;" horiz-adv-x="439" 
d="M50 55v120h104v103h130v-103h105v-120h-105v-104h-130v104h-104z" />
    <glyph glyph-name="uni208B" unicode="&#x208b;" horiz-adv-x="426" 
d="M50 55v120h326v-120h-326z" />
    <glyph glyph-name="uni208C" unicode="&#x208c;" horiz-adv-x="408" 
d="M50 135v110h308v-110h-308zM50 -14v110h308v-110h-308z" />
    <glyph glyph-name="uni208D" unicode="&#x208d;" horiz-adv-x="295" 
d="M285 -135l-83 -75q-85 63 -123.5 136.5t-38.5 143.5q0 155 162 280l76 -78q-48 -36 -75.5 -91.5t-27.5 -110.5t31.5 -110.5t78.5 -94.5z" />
    <glyph glyph-name="uni208E" unicode="&#x208e;" horiz-adv-x="292" 
d="M92 -209l-78 78q103 84 103 201q0 56 -24 104t-83 99l81 77q88 -68 124.5 -134.5t36.5 -145.5q0 -70 -38 -143.5t-122 -135.5z" />
    <glyph glyph-name="Euro" unicode="&#x20ac;" horiz-adv-x="696" 
d="M20 371l50 124h65q38 97 123 155t200 58q130 0 198 -55l-54 -113q-59 37 -144 37q-103 0 -157 -82h291l-46 -124h-284v-42h269l-39 -123h-200q22 -38 70 -61t106 -23q26 0 66 10t64 28l41 -116q-24 -21 -74 -36.5t-100 -15.5q-255 0 -336 214h-106l47 123h39q-1 5 -1 17
q0 17 1 25h-89z" />
    <glyph glyph-name="uni20B4" unicode="&#x20b4;" horiz-adv-x="621" 
d="M40 387v120h336q6 8 6 23q0 34 -75 34q-97 0 -153 -37l-62 121q85 61 226 61q84 0 151.5 -43t67.5 -105q0 -35 -12 -54h56v-120h-138q-19 -15 -104 -54h242v-120h-339q-10 -18 -10 -29q0 -48 97 -48q102 0 171 52l66 -102q-28 -43 -102 -69t-142 -26q-111 0 -178 44.5
t-67 130.5q0 20 9 47h-46v120h127q38 17 74.5 32t50.5 22h-252z" />
    <glyph glyph-name="uni20BD" unicode="&#x20bd;" horiz-adv-x="629" 
d="M30 287v135h98v278q96 0 125 1q15 0 41.5 0.5t33.5 0.5q137 0 204 -55.5t67 -147.5q0 -95 -67.5 -153.5t-203.5 -58.5h-50v-42h160v-135h-160v-110h-150v110h-98v135h98v42h-98zM333 567h-55v-145h48q61 0 89.5 17t28.5 57q0 39 -27 55t-84 16z" />
    <glyph glyph-name="afii61352" unicode="&#x2116;" horiz-adv-x="1131" 
d="M650 0h-118l-324 424v-424h-148v700h118l323 -426v426h149v-700zM688 478q0 83 52.5 134t138.5 51q87 0 139.5 -51t52.5 -134q0 -82 -53 -134t-139 -52t-138.5 52t-52.5 134zM823 478q0 -28 16 -44.5t40 -16.5q27 0 42 16t15 45q0 27 -16 43.5t-41 16.5q-26 0 -41 -16
t-15 -44zM707 121v130h345v-130h-345z" />
    <glyph glyph-name="trademark" unicode="&#x2122;" horiz-adv-x="831" 
d="M363 337v363h116l100 -115l95 115h117v-363h-146v128l-67 -80h-3l-66 81v-129h-146zM10 573v127h339v-127h-77v-236h-146v236h-116z" />
    <glyph glyph-name="partialdiff" unicode="&#x2202;" horiz-adv-x="601" 
d="M20 238q0 129 69 205.5t188 76.5q108 0 151 -61q-5 67 -75 97.5t-156 21.5l22 134q169 0 260.5 -78t91.5 -233q0 -116 -32 -207.5t-100.5 -148.5t-165.5 -57q-115 0 -184 72.5t-69 177.5zM175 243q0 -60 30.5 -90t72.5 -30q50 0 85 45.5t41 117.5q-13 50 -45.5 74.5
t-65.5 24.5q-49 0 -83.5 -38t-34.5 -104z" />
    <glyph glyph-name="product" unicode="&#x220f;" horiz-adv-x="885" 
d="M635 -200v750h-385v-750h-160v900h705v-900h-160z" />
    <glyph glyph-name="summation" unicode="&#x2211;" horiz-adv-x="650" 
d="M307 250l-267 338v112h570v-150h-347l228 -300l-238 -300h357v-150h-570v112z" />
    <glyph glyph-name="minus" unicode="&#x2212;" horiz-adv-x="555" 
d="M30 296v126h495v-126h-495z" />
    <glyph glyph-name="uni2215" unicode="&#x2215;" horiz-adv-x="358" 
d="M-150 59l551 671l107 -86l-549 -675z" />
    <glyph glyph-name="radical" unicode="&#x221a;" horiz-adv-x="615" 
d="M0 351v130h194l109 -233l94 452h308v-120h-199l-136 -585h-92l-182 356h-96z" />
    <glyph glyph-name="infinity" unicode="&#x221e;" horiz-adv-x="683" 
d="M494 171q-85 0 -151 64q-61 -64 -146 -64q-73 0 -125 48t-52 123q0 71 49.5 121.5t129.5 50.5q75 0 140 -63q63 63 154 63q75 0 122.5 -48t47.5 -127q0 -67 -44 -117.5t-125 -50.5zM486 388q-29 0 -61 -42q40 -49 66 -49q15 0 23.5 13t8.5 29q0 21 -9.5 35t-27.5 14z
M200 297q23 0 57 43q-38 48 -56 48t-29.5 -13.5t-11.5 -32.5q0 -20 13 -32.5t27 -12.5z" />
    <glyph glyph-name="integral" unicode="&#x222b;" horiz-adv-x="348" 
d="M77 530q0 106 53 157t136 51q95 0 141 -61l-80 -94q-18 20 -52 20q-53 0 -53 -73v-531q0 -106 -53 -157t-136 -51q-95 0 -141 61l80 94q18 -20 52 -20q53 0 53 73v531z" />
    <glyph glyph-name="approxequal" unicode="&#x2248;" horiz-adv-x="570" 
d="M86 358l-56 98q31 36 70 54.5t71 18.5q41 0 105.5 -25.5t99.5 -25.5q56 0 109 50l55 -93q-74 -73 -154 -73q-50 0 -112.5 23.5t-85.5 23.5q-41 0 -102 -51zM86 168l-56 98q31 36 70 54.5t71 18.5q41 0 105.5 -25.5t99.5 -25.5q56 0 109 50l55 -93q-74 -73 -154 -73
q-50 0 -112.5 23.5t-85.5 23.5q-41 0 -102 -51z" />
    <glyph glyph-name="notequal" unicode="&#x2260;" horiz-adv-x="555" 
d="M40 391v126h219l76 204l132 -42l-60 -162h108v-126h-156l-24 -65h180v-126h-225l-85 -225l-130 49l68 176h-103v126h147l24 65h-171z" />
    <glyph glyph-name="lessequal" unicode="&#x2264;" horiz-adv-x="453" 
d="M30 235v150l393 -244v-153zM423 188l-393 248v61l393 243v-156l-192 -118l192 -121v-157z" />
    <glyph glyph-name="greaterequal" unicode="&#x2265;" horiz-adv-x="453" 
d="M423 385v-150l-393 -247v153zM423 436l-393 -248v157l192 121l-192 118v156l393 -243v-61z" />
    <glyph glyph-name="lozenge" unicode="&#x25ca;" horiz-adv-x="498" 
d="M187 0l-167 254l168 266h123l167 -255l-168 -265h-123zM171 255l78 -120l78 130l-78 111z" />
    <glyph glyph-name="uniF350" unicode="&#xf350;" 
d="M-5 0l261 559h110l261 -559h-157l-42 85h-235l-43 -85h-155zM310 334l-66 -124h129z" />
    <glyph glyph-name="uniF351" unicode="&#xf351;" horiz-adv-x="568" 
d="M509 560v-140h-306v-56h140q103 0 154.5 -47t51.5 -132q0 -185 -251 -185h-245v560h456zM308 224h-105v-84h100q48 0 69.5 10t21.5 34q0 23 -19 31.5t-67 8.5z" />
    <glyph glyph-name="uniF352" unicode="&#xf352;" horiz-adv-x="588" 
d="M53 0v560h285q204 0 204 -145q0 -62 -49 -116q68 -41 68 -129q0 -86 -63 -128t-168 -42h-277zM318 218h-115v-78h109q52 0 72 8.5t20 29.5q0 23 -18.5 31.5t-67.5 8.5zM310 420h-107v-67h118q65 0 65 27q0 21 -16 30.5t-60 9.5z" />
    <glyph glyph-name="uniF353" unicode="&#xf353;" horiz-adv-x="507" 
d="M53 0v560h454v-140h-304v-420h-150z" />
    <glyph glyph-name="uniF354" unicode="&#xf354;" horiz-adv-x="659" 
d="M0 -100v240h65q60 92 60 367v53h449v-420h77v-240h-140v100h-371v-100h-140zM266 420v-15q0 -192 -46 -265h204v280h-158z" />
    <glyph glyph-name="uniF355" unicode="&#xf355;" horiz-adv-x="554" 
d="M53 0v560h453v-140h-303v-69h282v-135h-282v-76h310v-140h-460z" />
    <glyph glyph-name="uniF356" unicode="&#xf356;" horiz-adv-x="834" 
d="M214 305l-222 255h184l166 -191v191h150v-193l164 193h186l-224 -254l220 -306h-178l-150 216l-18 -17v-199h-150l1 197l-18 20l-158 -217h-170z" />
    <glyph glyph-name="uniF357" unicode="&#xf357;" horiz-adv-x="559" 
d="M290 -13q-103 0 -172.5 29.5t-121.5 104.5l120 79q58 -73 170 -73q30 0 51.5 5t31 13.5t13.5 16t4 15.5q0 22 -24.5 30t-90.5 8h-69v140h90q75 0 75 41q0 37 -92 37q-87 0 -139 -55l-117 78q88 117 272 117q110 0 168.5 -45.5t58.5 -123.5q0 -74 -54 -108q73 -36 73 -117
q0 -89 -65.5 -140.5t-181.5 -51.5z" />
    <glyph glyph-name="uniF358" unicode="&#xf358;" horiz-adv-x="644" 
d="M175 0h-122v560h150v-311l264 311h124v-560h-150v311z" />
    <glyph glyph-name="uniF359" unicode="&#xf359;" horiz-adv-x="644" 
d="M175 0h-122v560h150v-311l264 311h124v-560h-150v311zM141 768h133q2 -53 52 -53q49 0 49 53h132q-1 -80 -53.5 -121.5t-127.5 -41.5q-79 0 -131.5 40.5t-53.5 122.5z" />
    <glyph glyph-name="uniF35A" unicode="&#xf35a;" horiz-adv-x="608" 
d="M53 0v560h150v-201l205 201h195l-251 -245l266 -315h-197l-183 214l-35 -33v-181h-150z" />
    <glyph glyph-name="uniF35B" unicode="&#xf35b;" horiz-adv-x="633" 
d="M430 0v420h-158v-23q0 -210 -66 -309.5t-174 -93.5q-5 0 -15.5 2t-16.5 3v144q62 -10 93 52.5t31 228.5v136h456v-560h-150z" />
    <glyph glyph-name="uniF35C" unicode="&#xf35c;" horiz-adv-x="728" 
d="M53 0v560h127l188 -213l181 213h126v-560h-150v306l-138 -165h-40l-144 169v-310h-150z" />
    <glyph glyph-name="uniF35D" unicode="&#xf35d;" horiz-adv-x="640" 
d="M437 0v211h-234v-211h-150v560h150v-209h234v209h150v-560h-150z" />
    <glyph glyph-name="uniF35E" unicode="&#xf35e;" horiz-adv-x="664" 
d="M24 280q0 121 89.5 205.5t218.5 84.5t218.5 -83t89.5 -207q0 -123 -89.5 -206.5t-218.5 -83.5t-218.5 83.5t-89.5 206.5zM179 280q0 -66 45 -105.5t108 -39.5q65 0 109 39t44 106q0 66 -46 105.5t-107 39.5q-63 0 -108 -39.5t-45 -105.5z" />
    <glyph glyph-name="uniF35F" unicode="&#xf35f;" horiz-adv-x="640" 
d="M437 0v420h-234v-420h-150v560h534v-560h-150z" />
    <glyph glyph-name="uniF360" unicode="&#xf360;" horiz-adv-x="586" 
d="M203 0h-150v560h253q73 0 125.5 -17.5t79.5 -48t39 -63.5t12 -72q0 -83 -62 -140.5t-193 -57.5h-104v-161zM310 420h-107v-119h102q102 0 102 59q0 60 -97 60z" />
    <glyph glyph-name="uniF361" unicode="&#xf361;" horiz-adv-x="594" 
d="M499 209l89 -96q-41 -60 -109.5 -91.5t-150.5 -31.5q-138 0 -221 80t-83 210q0 122 87 206t223 84q82 0 147 -30t98 -83l-103 -92q-22 29 -60 44.5t-70 15.5q-74 0 -120.5 -39t-46.5 -106q0 -64 46.5 -104.5t115.5 -40.5q99 0 158 74z" />
    <glyph glyph-name="uniF362" unicode="&#xf362;" horiz-adv-x="529" 
d="M4 415v145h521v-145h-186v-415h-150v415h-185z" />
    <glyph glyph-name="uniF363" unicode="&#xf363;" horiz-adv-x="630" 
d="M155 24l64 120q6 -7 21 -7q29 0 40 33l-280 390h187l166 -237l120 237h158l-214 -427q-34 -68 -73.5 -100.5t-100.5 -32.5q-50 0 -88 24z" />
    <glyph glyph-name="uniF364" unicode="&#xf364;" horiz-adv-x="800" 
d="M324 -12v63h-3q-141 0 -221 62t-80 175q0 116 82 175.5t222 61.5v47h152v-47q138 0 221 -58t83 -179q0 -113 -80 -175t-220 -62h-4v-63h-152zM477 384h-1v-192h4q73 0 109 23t36 73t-32 73t-116 23zM175 288q0 -96 147 -96h2v192q-149 0 -149 -96z" />
    <glyph glyph-name="uniF365" unicode="&#xf365;" horiz-adv-x="614" 
d="M611 560l-215 -276l222 -284h-184l-127 161l-128 -161h-183l223 284l-214 276h182l121 -152l121 152h182z" />
    <glyph glyph-name="uniF366" unicode="&#xf366;" horiz-adv-x="648" 
d="M53 0v560h150v-420h210v420h150v-420h77v-240h-140v100h-447z" />
    <glyph glyph-name="uniF367" unicode="&#xf367;" horiz-adv-x="610" 
d="M557 560v-560h-150v196q-59 -26 -134 -26q-109 0 -175 47.5t-66 147.5v195h150v-94q0 -88 25 -122t85 -34q68 0 115 30v220h150z" />
    <glyph glyph-name="uniF368" unicode="&#xf368;" horiz-adv-x="794" 
d="M53 0v560h150v-420h119v420h150v-420h119v420h150v-560h-688z" />
    <glyph glyph-name="uniF369" unicode="&#xf369;" horiz-adv-x="816" 
d="M53 0v560h150v-420h119v420h150v-420h119v420h150v-420h67v-240h-140v100h-615z" />
    <glyph glyph-name="uniF36A" unicode="&#xf36a;" horiz-adv-x="639" 
d="M0 420v140h277v-174h94q253 0 253 -193t-261 -193h-236v420h-127zM369 245h-92v-105h90q56 0 79 10t23 43q0 52 -100 52z" />
    <glyph glyph-name="uniF36B" unicode="&#xf36b;" horiz-adv-x="777" 
d="M573 0v560h151v-560h-151zM275 245h-72v-105h70q56 0 79.5 10t23.5 43q0 52 -101 52zM203 560v-174h99q117 0 173 -51.5t56 -141.5q0 -94 -66 -143.5t-179 -49.5h-233v560h150z" />
    <glyph glyph-name="uniF36C" unicode="&#xf36c;" horiz-adv-x="570" 
d="M300 245h-97v-105h95q102 0 102 53q0 52 -100 52zM203 560v-174h99q253 0 253 -193q0 -95 -68 -144t-192 -49h-242v560h150z" />
    <glyph glyph-name="uniF36D" unicode="&#xf36d;" horiz-adv-x="604" 
d="M208 216v140h215q-16 33 -55.5 53.5t-96.5 20.5q-108 0 -167 -68l-98 97q43 55 115 83t155 28q140 0 222 -78.5t82 -209.5q0 -128 -83 -210t-228 -82q-181 0 -273 130l99 85q56 -75 177 -75q60 0 101.5 23.5t51.5 62.5h-217z" />
    <glyph glyph-name="uniF36E" unicode="&#xf36e;" horiz-adv-x="878" 
d="M53 0v560h150v-212h57q21 97 101.5 159.5t192.5 62.5q136 0 218 -81.5t82 -208.5q0 -124 -86 -207t-214 -83q-118 0 -198.5 60.5t-96.5 170.5h-56v-221h-150zM405 280q0 -68 42.5 -109t106.5 -41q66 0 105.5 40.5t39.5 109.5q0 68 -40 109t-105 41q-64 0 -106.5 -41
t-42.5 -109z" />
    <glyph glyph-name="uniF36F" unicode="&#xf36f;" horiz-adv-x="601" 
d="M398 0v174h-81l-143 -174h-176l169 202q-126 45 -126 165q0 85 66 139t188 54h253v-560h-150zM286 314h112v106h-110q-49 0 -70.5 -12t-21.5 -40q0 -24 25.5 -40t64.5 -14z" />
    <glyph glyph-name="uniF371" unicode="&#xf371;" horiz-adv-x="554" 
d="M86 662q0 31 23 51.5t58 20.5q30 0 54.5 -21t24.5 -51q0 -32 -24 -52.5t-55 -20.5q-35 0 -58 20t-23 53zM301 662q0 30 24.5 51t56.5 21q31 0 54.5 -20.5t23.5 -51.5q0 -32 -23.5 -52.5t-54.5 -20.5q-33 0 -57 20.5t-24 52.5zM53 0v560h453v-140h-303v-69h282v-135h-282
v-76h310v-140h-460z" />
    <glyph glyph-name="uniF372" unicode="&#xf372;" horiz-adv-x="659" 
d="M484 174q0 30 -22 45.5t-51 15.5q-56 0 -82 -35v-200h-150v420h-180v140h516v-140h-186v-65q37 20 109 20q51 0 93.5 -16.5t73 -60t30.5 -109.5q0 -98 -53.5 -147t-128.5 -49q-32 0 -59.5 12.5t-41.5 30.5l70 111q11 -14 28 -14q34 0 34 41z" />
    <glyph glyph-name="uniF373" unicode="&#xf373;" horiz-adv-x="507" 
d="M53 0v560h454v-140h-304v-420h-150zM427 771l-132 -164l-100 70l123 176z" />
    <glyph glyph-name="uniF374" unicode="&#xf374;" horiz-adv-x="589" 
d="M416 355v-140h-239q25 -81 151 -81q37 0 66.5 14t42 26.5t28.5 34.5l118 -58q-18 -51 -61.5 -88t-89.5 -53t-88 -16q-144 0 -232 78t-88 208q0 125 86.5 205.5t227.5 80.5q63 0 131 -28t99 -81l-110 -80q-44 49 -129 49q-115 0 -149 -71h236z" />
    <glyph glyph-name="uniF375" unicode="&#xf375;" horiz-adv-x="537" 
d="M370 170q0 24 -35 35.5t-85 19t-100 20.5t-85 50t-35 98q0 77 68.5 127t175.5 50q79 0 145.5 -24.5t98.5 -68.5l-87 -98q-47 28 -84.5 39.5t-90.5 11.5q-32 0 -51.5 -10.5t-19.5 -28.5t25 -28.5t63 -14t82 -14t82 -25.5t63 -51t25 -88q0 -79 -66 -129.5t-173 -50.5
q-81 0 -158 28t-118 71l79 112q89 -71 221 -71q60 0 60 40z" />
    <glyph glyph-name="uniF376" unicode="&#xf376;" horiz-adv-x="262" 
d="M56 0v560h150v-560h-150z" />
    <glyph glyph-name="uniF377" unicode="&#xf377;" horiz-adv-x="262" 
d="M-28 646q0 28 22.5 47.5t55.5 19.5q30 0 53 -19.5t23 -47.5q0 -30 -23 -49t-53 -19q-34 0 -56 19t-22 49zM136 646q0 28 23 47.5t55 19.5q31 0 53.5 -19.5t22.5 -47.5q0 -30 -22.5 -49t-53.5 -19q-33 0 -55.5 19t-22.5 49zM56 0v560h150v-560h-150z" />
    <glyph glyph-name="uniF378" unicode="&#xf378;" horiz-adv-x="413" 
d="M366 560v-381q0 -91 -48.5 -140t-132.5 -49q-140 0 -195 110l109 84q10 -21 30.5 -37.5t41.5 -16.5q25 0 35 16.5t10 62.5v351h150z" />
    <glyph glyph-name="uniF379" unicode="&#xf379;" horiz-adv-x="880" 
d="M393 0v420h-120l-5 -47q-10 -99 -29 -170t-40.5 -111t-51.5 -62.5t-56.5 -28t-61.5 -3.5l-29 2l1 142q12 -1 24 3.5t28 21.5t29 46t25 83.5t17 127.5l10 136h409v-183h77q245 0 245 -184q0 -94 -68 -143.5t-186 -49.5h-218zM618 237h-75v-97h73q51 0 72.5 10.5t21.5 42.5
q0 27 -21 35.5t-71 8.5z" />
    <glyph glyph-name="uniF37A" unicode="&#xf37a;" horiz-adv-x="891" 
d="M561 365h77q238 0 238 -179q0 -94 -64 -140t-182 -46h-219v224h-208v-224h-150v560h150v-195h208v195h150v-195zM637 224h-76v-84h74q51 0 68.5 7.5t17.5 38.5q0 25 -17 31.5t-67 6.5z" />
    <glyph glyph-name="uniF37B" unicode="&#xf37b;" horiz-adv-x="630" 
d="M-1 420v140h516v-140h-186v-61q46 16 85 16q192 0 192 -196v-179h-150v161q0 27 -15 50.5t-47 23.5q-40 0 -65 -25v-210h-150v420h-180z" />
    <glyph glyph-name="uniF37C" unicode="&#xf37c;" horiz-adv-x="608" 
d="M53 0v560h150v-201l205 201h195l-251 -245l266 -315h-197l-183 214l-35 -33v-181h-150zM424 771l-132 -164l-100 70l123 176z" />
    <glyph glyph-name="uniF37E" unicode="&#xf37e;" horiz-adv-x="630" 
d="M155 24l64 120q6 -7 21 -7q29 0 40 33l-280 390h187l166 -237l120 237h158l-214 -427q-34 -68 -73.5 -100.5t-100.5 -32.5q-50 0 -88 24zM151 768h133q2 -53 52 -53q49 0 49 53h132q-1 -80 -53.5 -121.5t-127.5 -41.5q-79 0 -131.5 40.5t-53.5 122.5z" />
    <glyph glyph-name="uniF37F" unicode="&#xf37f;" horiz-adv-x="640" 
d="M53 0v560h150v-420h234v420h150v-560h-194v-105h-146v105h-194z" />
    <glyph glyph-name="uniF381" unicode="&#xf381;" horiz-adv-x="609" 
d="M0 375v140h92v45h150v-45h177v-140h-177v-32h99q131 0 192 -38.5t61 -132.5q0 -92 -66 -132t-194 -40h-242v375h-92zM339 203h-97v-63h95h15q28 0 39.5 0.5t25 3.5t18 9.5t4.5 18.5q0 22 -15 27t-60 4h-25z" />
    <glyph glyph-name="uniF389" unicode="&#xf389;" horiz-adv-x="664" 
d="M24 280q0 121 89 203.5t219 82.5t219 -81.5t89 -204.5t-89.5 -204.5t-218.5 -81.5t-218.5 81.5t-89.5 204.5zM332 139q98 0 137 72h-273q19 -35 55.5 -53.5t80.5 -18.5zM332 421q-43 0 -79.5 -18t-55.5 -52h269q-20 33 -56.5 51.5t-77.5 18.5z" />
    <glyph glyph-name="uniF38A" unicode="&#xf38a;" horiz-adv-x="654" 
d="M554 381l-183 -381h-103l-278 560h163l167 -340l103 221q28 61 73 94t94 33t91 -30l-55 -126q-10 6 -23 6q-31 -2 -49 -37z" />
    <glyph glyph-name="uniF393" unicode="&#xf393;" horiz-adv-x="506" 
d="M53 0v560h314v88h140v-228h-304v-420h-150z" />
    <glyph glyph-name="uniF3CF" unicode="&#xf3cf;" horiz-adv-x="955" 
d="M550 0h-114l-250 293v-293h-144v560h114l250 -294v294h144v-560zM574 378q0 69 45.5 111.5t120.5 42.5q76 0 121.5 -42.5t45.5 -111.5t-45.5 -112t-121.5 -43q-75 0 -120.5 43t-45.5 112zM704 378q0 -16 10 -25t26 -9q37 0 37 34q0 15 -10.5 23.5t-26.5 8.5
q-36 0 -36 -32zM588 72v125h306v-125h-306z" />
    <glyph glyph-name="uniF3D0" unicode="&#xf3d0;" horiz-adv-x="519" 
d="M153 768h133q2 -53 52 -53q49 0 49 53h132q-1 -80 -53.5 -121.5t-127.5 -41.5q-79 0 -131.5 40.5t-53.5 122.5z" />
    <glyph glyph-name="uniF3E4" unicode="&#xf3e4;" horiz-adv-x="0" 
d="M-174 771l-132 -164l-100 70l123 176z" />
    <glyph glyph-name="uniF400" unicode="&#xf400;" horiz-adv-x="0" 
d="M-134 751l-132 -164l-100 70l123 176z" />
    <glyph glyph-name="uniF401" unicode="&#xf401;" horiz-adv-x="0" 
d="M-171 846l-240 -113l-57 99l228 142z" />
    <glyph glyph-name="uniF406" unicode="&#xf406;" horiz-adv-x="575" 
d="M173 863l64 77q58 -60 143 -60q86 0 140 60l55 -78q-28 -47 -81.5 -79.5t-113.5 -32.5q-66 0 -122.5 34t-84.5 79z" />
    <glyph glyph-name="uniF407" unicode="&#xf407;" horiz-adv-x="527" 
d="M224 -157l54 65q28 -28 81 -28q29 0 29 13q0 17 -45 17h-6v90h75v-26q116 -7 116 -90q0 -94 -139 -94q-110 0 -165 53z" />
    <glyph glyph-name="uniF408" unicode="&#xf408;" horiz-adv-x="569" 
d="M385 945l184 -117l-58 -85l-128 66l-128 -66l-52 83l178 119h4z" />
    <glyph glyph-name="uniF409" unicode="&#xf409;" horiz-adv-x="460" 
d="M287 -109l121 78q52 -38 52 -94q0 -59 -31 -102.5t-73 -68.5l-69 50q32 34 32 75q0 26 -32 62z" />
    <glyph glyph-name="uniF40A" unicode="&#xf40a;" horiz-adv-x="216" 
d="M42 665l122 76q52 -42 52 -110q0 -57 -36 -105.5t-87 -79.5l-63 55q44 41 44 86q0 35 -32 78z" />
    <glyph glyph-name="uniF40B" unicode="&#xf40b;" horiz-adv-x="473" 
d="M310 828q0 31 23 51.5t59 20.5q35 0 58 -20.5t23 -51.5q0 -32 -23 -53t-58 -21q-38 0 -60 20.5t-22 53.5z" />
    <glyph glyph-name="uniF40C" unicode="&#xf40c;" horiz-adv-x="546" 
d="M231 849q0 59 43.5 88.5t111.5 29.5q71 0 115.5 -29.5t44.5 -88.5q0 -58 -45 -89.5t-115 -31.5q-67 0 -111 31.5t-44 89.5zM341 849q0 -41 47 -41q48 0 48 41q0 38 -48 38q-47 0 -47 -38z" />
    <glyph glyph-name="uniF40D" unicode="&#xf40d;" horiz-adv-x="556" 
d="M226 766l-46 94q23 28 57.5 45.5t67.5 17.5q31 0 70 -15t65 -15q50 0 78 30l38 -94q-41 -66 -126 -66q-24 0 -66.5 15t-71.5 15q-33 0 -66 -27z" />
    <glyph glyph-name="uniF40E" unicode="&#xf40e;" horiz-adv-x="469" 
d="M440 -70l45 -90q-13 -16 -47 -28t-73 -12q-63 0 -104 24t-41 71q0 44 40 74.5t94.5 42.5t114.5 11v-23q-41 0 -70 -17.5t-29 -36.5q0 -26 30 -26q19 0 40 10z" />
    <glyph glyph-name="uniF410" unicode="&#xf410;" horiz-adv-x="0" 
d="M-298 733l-240 113l69 128l228 -142z" />
    <glyph glyph-name="uniF416" unicode="&#xf416;" horiz-adv-x="410" 
d="M237 -109l121 78q52 -38 52 -94q0 -59 -31 -102.5t-73 -68.5l-69 50q32 34 32 75q0 26 -32 62z" />
    <glyph glyph-name="uniF418" unicode="&#xf418;" horiz-adv-x="216" 
d="M42 505l122 76q52 -42 52 -110q0 -57 -36 -105.5t-87 -79.5l-63 55q44 41 44 86q0 35 -32 78z" />
    <glyph glyph-name="uniF447" unicode="&#xf447;" horiz-adv-x="529" 
d="M124 -161l44 69q28 -28 81 -28q29 0 29 13q0 17 -45 17h-6v90h-38v420h-185v140h521v-140h-186v-420h-37v-26q106 -9 106 -90q0 -43 -38.5 -68.5t-112.5 -25.5q-79 0 -133 49z" />
    <glyph glyph-name="uniF44E" unicode="&#xf44e;" horiz-adv-x="654" 
d="M20 240q0 70 23 116h430q-33 70 -153 70q-110 0 -166 -64l-99 97q86 107 270 107q141 0 223 -76.5t82 -207.5q0 -128 -83.5 -208t-230.5 -80q-142 0 -219 74t-77 172zM475 216h-300q25 -82 144 -82q63 0 104 22t52 60z" />
    <glyph glyph-name="uniF452" unicode="&#xf452;" horiz-adv-x="783" 
d="M53 0v560h458v-140h-308v-88h288v-140h-288v-192h-150zM576 0v560h150v-560h-150z" />
    <glyph glyph-name="uniF453" unicode="&#xf453;" horiz-adv-x="1048" 
d="M53 0v560h458v-140h-308v-88h288v-140h-288v-192h-150zM578 0v560h150v-420h311v-140h-461z" />
    <glyph glyph-name="zero.tab" unicode="&#xf4e0;" horiz-adv-x="620" 
d="M30 350q0 160 72.5 258.5t206.5 98.5q132 0 206 -99t74 -258q0 -160 -73 -258.5t-205 -98.5q-135 0 -208 98t-73 259zM190 350q0 -101 33 -154t88 -53q118 0 118 207t-120 207q-55 0 -87 -53.5t-32 -153.5z" />
    <glyph glyph-name="one.tab" unicode="&#xf4e1;" horiz-adv-x="620" 
d="M61 0v145h207v371l-125 -57l-53 126l230 115h98v-555h136v-145h-493z" />
    <glyph glyph-name="two.tab" unicode="&#xf4e2;" horiz-adv-x="620" 
d="M155 445l-135 51q25 101 106 156t182 55q124 0 190 -64.5t66 -167.5q0 -94 -54 -163t-160 -137l-47 -30h268v-145h-541v113l83 58q155 108 188 135q102 86 103 155q0 46 -26 71t-76 25q-103 0 -147 -112z" />
    <glyph glyph-name="three.tab" unicode="&#xf4e3;" horiz-adv-x="620" 
d="M162 472l-124 58q32 86 99.5 132.5t184.5 46.5q111 0 178.5 -50t67.5 -137q0 -100 -91 -143q114 -41 114 -162q0 -101 -72 -163t-195 -62q-115 0 -187 41t-111 144l136 61q34 -101 146 -101q56 0 89.5 21.5t33.5 58.5q0 71 -113 71h-102v140h82q51 0 80.5 20t29.5 50
q0 66 -100 66q-60 0 -93 -24t-53 -68z" />
    <glyph glyph-name="four.tab" unicode="&#xf4e4;" horiz-adv-x="620" 
d="M363 0v122h-336v100l362 478h124v-443h87v-135h-87v-122h-150zM222 257h141v195z" />
    <glyph glyph-name="five.tab" unicode="&#xf4e5;" horiz-adv-x="620" 
d="M64 346l37 354h458v-145h-326l-13 -108q40 20 131 20q116 0 177 -63t61 -171q0 -111 -72.5 -176t-202.5 -65q-206 0 -294 179l140 62q17 -40 59.5 -65.5t90.5 -25.5q59 0 89 23.5t30 64.5q0 97 -121 97q-34 0 -59.5 -6t-38 -12.5t-41.5 -24.5z" />
    <glyph glyph-name="six.tab" unicode="&#xf4e6;" horiz-adv-x="620" 
d="M31 331q0 185 81.5 281.5t227.5 96.5q85 0 135.5 -24t92.5 -69l-86 -110q-34 30 -64 44t-78 14q-79 0 -116.5 -45.5t-37.5 -125.5q29 41 69.5 64.5t112.5 23.5q110 0 170.5 -62.5t60.5 -166.5q0 -115 -73.5 -188t-189.5 -73q-145 0 -225 88t-80 252zM210 250
q1 -46 30.5 -80t82.5 -34q54 0 85 29.5t31 77.5q0 46 -27.5 72t-79.5 26q-93 0 -122 -91z" />
    <glyph glyph-name="seven.tab" unicode="&#xf4e7;" horiz-adv-x="620" 
d="M35 555v145h550v-97l-303 -603h-161l280 555h-366z" />
    <glyph glyph-name="eight.tab" unicode="&#xf4e8;" horiz-adv-x="620" 
d="M297 424h28q36 0 62 19.5t26 54.5q0 70 -104 70q-102 0 -102 -69q0 -32 25 -53.5t65 -21.5zM323 294h-23q-53 0 -83.5 -23t-30.5 -57q0 -39 32.5 -60.5t91.5 -21.5q58 0 91 20.5t33 58.5q0 39 -29 61t-82 22zM311 -8q-132 0 -208.5 56t-76.5 154q0 51 28 97t73 66
q-34 16 -57 57.5t-23 82.5q0 93 69.5 148t193.5 55q127 0 195 -55t68 -148q0 -96 -79 -136q50 -18 75 -62.5t25 -100.5q0 -101 -77 -157.5t-206 -56.5z" />
    <glyph glyph-name="nine.tab" unicode="&#xf4e9;" horiz-adv-x="620" 
d="M605 369q0 -182 -86.5 -280t-222.5 -98q-163 0 -258 103l86 110q78 -68 172 -68q77 0 116 45t38 106q-28 -33 -63.5 -50.5t-104.5 -17.5q-119 0 -192 65t-73 171q0 112 78 183t206 71q140 0 222 -89t82 -251zM432 430q-2 55 -35 94.5t-86 39.5q-64 0 -99 -28.5t-35 -72.5
q0 -49 33.5 -76.5t88.5 -27.5q56 0 89.5 20t43.5 51z" />
    <glyph glyph-name="dollar.tab" unicode="&#xf4ec;" horiz-adv-x="620" 
d="M439 194q0 28 -29 47.5t-72 30t-94 27.5t-94 38t-72 63.5t-29 102.5q0 72 54 130t145 76v70h149v-70q124 -25 197 -122l-104 -100q-76 84 -176 84q-105 0 -105 -66q0 -25 29 -42t72 -26.5t94 -26.5t94 -38t72 -64t29 -102q0 -81 -56.5 -140t-145.5 -76v-78h-149v80
q-86 15 -146.5 59t-91.5 104l113 94q35 -56 89 -88t118 -32q55 0 82 18.5t27 46.5z" />
    <glyph glyph-name="Euro.tab" unicode="&#xf4ed;" horiz-adv-x="620" 
d="M1 371l50 124h65q38 98 118.5 155.5t194.5 57.5q120 0 188 -55l-54 -113q-59 37 -134 37q-93 0 -147 -82h271l-46 -124h-264v-42h249l-39 -123h-180q22 -39 65.5 -61.5t100.5 -22.5q25 0 60 10t60 28l41 -116q-25 -22 -70 -37t-94 -15q-245 0 -326 214h-106l47 123h39
q-1 5 -1 17q0 17 1 25h-89z" />
    <glyph glyph-name="cent.tab" unicode="&#xf4ee;" horiz-adv-x="620" 
d="M461 195l106 -63q-52 -102 -162 -131v-201h-155v201q-99 21 -154.5 89.5t-55.5 170.5q0 97 57 168t153 93v178h155v-178q117 -28 158 -121l-108 -70q-31 42 -70 57v-256q45 12 76 63zM190 261q0 -37 22.5 -71.5t57.5 -44.5v237q-80 -28 -80 -121z" />
    <glyph glyph-name="sterling.tab" unicode="&#xf4ef;" horiz-adv-x="620" 
d="M55 248v124h47q-27 62 -27 121q0 87 64.5 150.5t169.5 63.5q139 0 227 -98l-82 -116q-70 69 -147 69q-33 0 -55 -20.5t-22 -59.5q0 -12 3.5 -27t7 -24.5t11.5 -29t12 -29.5h166v-124h-141v-12q0 -45 -23 -74q23 -1 74.5 -18t76.5 -17q30 0 49.5 12t44.5 45l77 -98
q-66 -86 -168 -86q-45 0 -114.5 21t-106.5 21q-66 0 -120 -53l-69 107q52 51 106 66q22 30 22 71v15h-83z" />
    <glyph glyph-name="yen.tab" unicode="&#xf4fa;" horiz-adv-x="620" 
d="M82 301v126h70l-162 273h187l134 -247l136 247h183l-165 -273h72v-126h-151v-65h151v-126h-151v-110h-155v110h-149v126h149v65h-149z" />
    <glyph glyph-name="florin.tab" unicode="&#xf4fb;" horiz-adv-x="620" 
d="M403 465l-1 -1v-3h132v-135h-156l-57 -319q-17 -100 -60.5 -157.5t-131.5 -57.5q-82 0 -135 58l50 112q34 -35 75 -35q42 0 55 68l61 331h-123v135h147l4 26q34 222 221 222q83 0 133 -41l-53 -116q-35 22 -72 22q-38 0 -57 -24.5t-32 -84.5z" />
    <glyph glyph-name="uni20B4.tab" unicode="&#xf4fc;" horiz-adv-x="620" 
d="M40 387v120h336q6 8 6 23q0 34 -75 34q-97 0 -153 -37l-62 121q85 61 226 61q84 0 151.5 -43t67.5 -105q0 -35 -12 -54h56v-120h-138q-19 -15 -104 -54h242v-120h-339q-10 -18 -10 -29q0 -48 97 -48q102 0 171 52l66 -102q-28 -43 -102 -69t-142 -26q-111 0 -178 44.5
t-67 130.5q0 20 9 47h-46v120h127q38 17 74.5 32t50.5 22h-252z" />
    <glyph glyph-name="uni20BD.tab" unicode="&#xf4fd;" horiz-adv-x="620" 
d="M30 287v135h98v278q96 0 125 1q15 0 41.5 0.5t33.5 0.5q137 0 204 -55.5t67 -147.5q0 -95 -67.5 -153.5t-203.5 -58.5h-50v-42h160v-135h-160v-110h-150v110h-98v135h98v42h-98zM333 567h-55v-145h48q61 0 89.5 17t28.5 57q0 39 -27 55t-84 16z" />
    <glyph glyph-name="uniF66D" unicode="&#xf66d;" 
d="M-5 0l261 559h110l261 -559h-157l-42 85h-235l-43 -85h-155zM310 334l-66 -124h129zM145 707l66 75q47 -52 105 -52q68 0 110 50l51 -72q-65 -98 -167 -98q-61 0 -103 31t-62 66z" />
    <glyph glyph-name="uniF66E" unicode="&#xf66e;" 
d="M-5 0l261 559h110l261 -559h-157l-42 85h-235l-43 -85h-155zM310 334l-66 -124h129zM164 630v120h294v-120h-294z" />
    <glyph glyph-name="uniF66F" unicode="&#xf66f;" 
d="M596 -70l45 -90q-13 -16 -47 -28t-73 -12q-63 0 -104 24t-41 71q0 71 93 106l-41 84h-235l-43 -85h-155l261 559h110l261 -559h-42q-25 0 -42 -15.5t-17 -34.5q0 -14 8.5 -22t21.5 -8q19 0 40 10zM310 334l-66 -124h129z" />
    <glyph glyph-name="uniF671" unicode="&#xf671;" horiz-adv-x="594" 
d="M499 209l89 -96q-41 -60 -109.5 -91.5t-150.5 -31.5q-138 0 -221 80t-83 210q0 122 87 206t223 84q82 0 147 -30t98 -83l-103 -92q-22 29 -60 44.5t-70 15.5q-74 0 -120.5 -39t-46.5 -106q0 -64 46.5 -104.5t115.5 -40.5q99 0 158 74zM467 771l-132 -164l-100 70l123 176
z" />
    <glyph glyph-name="uniF672" unicode="&#xf672;" horiz-adv-x="594" 
d="M499 209l89 -96q-41 -60 -109.5 -91.5t-150.5 -31.5q-138 0 -221 80t-83 210q0 122 87 206t223 84q82 0 147 -30t98 -83l-103 -92q-22 29 -60 44.5t-70 15.5q-74 0 -120.5 -39t-46.5 -106q0 -64 46.5 -104.5t115.5 -40.5q99 0 158 74zM314 598l-165 136l70 88l98 -81
l100 79l67 -87l-166 -135h-4z" />
    <glyph glyph-name="uniF673" unicode="&#xf673;" horiz-adv-x="594" 
d="M499 209l89 -96q-41 -60 -109.5 -91.5t-150.5 -31.5q-138 0 -221 80t-83 210q0 122 87 206t223 84q82 0 147 -30t98 -83l-103 -92q-22 29 -60 44.5t-70 15.5q-74 0 -120.5 -39t-46.5 -106q0 -64 46.5 -104.5t115.5 -40.5q99 0 158 74zM312 816l165 -136l-70 -88l-98 81
l-100 -79l-67 87l166 135h4z" />
    <glyph glyph-name="uniF674" unicode="&#xf674;" horiz-adv-x="594" 
d="M499 209l89 -96q-41 -60 -109.5 -91.5t-150.5 -31.5q-138 0 -221 80t-83 210q0 122 87 206t223 84q82 0 147 -30t98 -83l-103 -92q-22 29 -60 44.5t-70 15.5q-74 0 -120.5 -39t-46.5 -106q0 -64 46.5 -104.5t115.5 -40.5q99 0 158 74zM240 698q0 31 23 51.5t59 20.5
q35 0 58 -20.5t23 -51.5q0 -32 -23 -53t-58 -21q-38 0 -60 20.5t-22 53.5z" />
    <glyph glyph-name="uniF675" unicode="&#xf675;" horiz-adv-x="615" 
d="M53 0v560h190q94 0 163.5 -21.5t108.5 -60t57.5 -86t18.5 -105.5q0 -128 -89.5 -207.5t-272.5 -79.5h-176zM242 420h-39v-280h40q193 0 193 147q0 66 -45 99.5t-149 33.5zM264 598l-165 136l70 88l98 -81l100 79l67 -87l-166 -135h-4z" />
    <glyph glyph-name="uniF676" unicode="&#xf676;" horiz-adv-x="673" 
d="M20 218v124h91v218h191q94 0 163 -21.5t108 -60t57.5 -86t18.5 -105.5q0 -128 -89.5 -207.5t-271.5 -79.5h-177v218h-91zM300 420h-39v-78h126v-124h-126v-78h40q193 0 193 147q0 66 -45 99.5t-149 33.5z" />
    <glyph glyph-name="uniF678" unicode="&#xf678;" horiz-adv-x="554" 
d="M53 0v560h453v-140h-303v-69h282v-135h-282v-76h310v-140h-460zM284 598l-165 136l70 88l98 -81l100 79l67 -87l-166 -135h-4z" />
    <glyph glyph-name="uniF679" unicode="&#xf679;" horiz-adv-x="554" 
d="M53 0v560h453v-140h-303v-69h282v-135h-282v-76h310v-140h-460zM210 698q0 31 23 51.5t59 20.5q35 0 58 -20.5t23 -51.5q0 -32 -23 -53t-58 -21q-38 0 -60 20.5t-22 53.5z" />
    <glyph glyph-name="uniF67A" unicode="&#xf67a;" horiz-adv-x="554" 
d="M53 0v560h453v-140h-303v-69h282v-135h-282v-76h310v-140h-460zM142 630v120h294v-120h-294z" />
    <glyph glyph-name="uniF67C" unicode="&#xf67c;" horiz-adv-x="554" 
d="M53 0v560h463v-140h-313v-69h292v-135h-292v-76h320v-140h-9q-23 -1 -38.5 -16.5t-15.5 -33.5q0 -14 8.5 -22t21.5 -8q19 0 40 10l45 -90q-13 -16 -47 -28t-73 -12q-63 0 -104 24t-41 71q0 71 90 105h-347z" />
    <glyph glyph-name="uniF67D" unicode="&#xf67d;" horiz-adv-x="616" 
d="M302 192v135h290v-235q-96 -102 -243 -102q-143 0 -234 80.5t-91 209.5q0 123 86 206.5t223 83.5q78 0 147 -30t99 -78l-105 -92q-50 55 -136 55q-74 0 -116.5 -38t-42.5 -107q0 -70 47 -107.5t124 -37.5q58 0 98 24v33h-146zM162 707l66 75q47 -52 105 -52q68 0 110 50
l51 -72q-65 -98 -167 -98q-61 0 -103 31t-62 66z" />
    <glyph glyph-name="uniF67E" unicode="&#xf67e;" horiz-adv-x="616" 
d="M302 192v135h290v-235q-96 -102 -243 -102q-143 0 -234 80.5t-91 209.5q0 123 86 206.5t223 83.5q78 0 147 -30t99 -78l-105 -92q-50 55 -136 55q-74 0 -116.5 -38t-42.5 -107q0 -70 47 -107.5t124 -37.5q58 0 98 24v33h-146zM332 816l165 -136l-70 -88l-98 81l-100 -79
l-67 87l166 135h4z" />
    <glyph glyph-name="uniF67F" unicode="&#xf67f;" horiz-adv-x="616" 
d="M302 192v135h290v-235q-96 -102 -243 -102q-143 0 -234 80.5t-91 209.5q0 123 86 206.5t223 83.5q78 0 147 -30t99 -78l-105 -92q-50 55 -136 55q-74 0 -116.5 -38t-42.5 -107q0 -70 47 -107.5t124 -37.5q58 0 98 24v33h-146zM247 -109l121 78q52 -38 52 -94
q0 -59 -31 -102.5t-73 -68.5l-69 50q32 34 32 75q0 26 -32 62z" />
    <glyph glyph-name="uniF680" unicode="&#xf680;" horiz-adv-x="616" 
d="M302 192v135h290v-235q-96 -102 -243 -102q-143 0 -234 80.5t-91 209.5q0 123 86 206.5t223 83.5q78 0 147 -30t99 -78l-105 -92q-50 55 -136 55q-74 0 -116.5 -38t-42.5 -107q0 -70 47 -107.5t124 -37.5q58 0 98 24v33h-146zM250 698q0 31 23 51.5t59 20.5
q35 0 58 -20.5t23 -51.5q0 -32 -23 -53t-58 -21q-38 0 -60 20.5t-22 53.5z" />
    <glyph glyph-name="uniF681" unicode="&#xf681;" horiz-adv-x="639" 
d="M0 396v115h53v49h150v-49h234v49h150v-49h52v-115h-52v-396h-150v211h-234v-211h-150v396h-53zM203 351h234v45h-234v-45z" />
    <glyph glyph-name="uniF682" unicode="&#xf682;" horiz-adv-x="640" 
d="M437 0v211h-234v-211h-150v560h150v-209h234v209h150v-560h-150zM323 816l165 -136l-70 -88l-98 81l-100 -79l-67 87l166 135h4z" />
    <glyph glyph-name="uniF685" unicode="&#xf685;" horiz-adv-x="262" 
d="M56 0v560h150v-560h-150zM-16 630v120h294v-120h-294z" />
    <glyph glyph-name="uniF686" unicode="&#xf686;" horiz-adv-x="262" 
d="M56 0v560h150v-560h-2q-25 0 -42 -15.5t-17 -34.5q0 -14 8.5 -22t21.5 -8q19 0 40 10l45 -90q-13 -16 -47 -28t-73 -12q-63 0 -104 24t-41 71q0 71 90 105h-29z" />
    <glyph glyph-name="uniF688" unicode="&#xf688;" horiz-adv-x="413" 
d="M366 560v-381q0 -91 -48.5 -140t-132.5 -49q-140 0 -195 110l109 84q10 -21 30.5 -37.5t41.5 -16.5q25 0 35 16.5t10 62.5v351h150zM282 816l165 -136l-70 -88l-98 81l-100 -79l-67 87l166 135h4z" />
    <glyph glyph-name="uniF689" unicode="&#xf689;" horiz-adv-x="608" 
d="M53 0v560h150v-201l205 201h195l-251 -245l266 -315h-197l-183 214l-35 -33v-181h-150zM197 -109l121 78q52 -38 52 -94q0 -59 -31 -102.5t-73 -68.5l-69 50q32 34 32 75q0 26 -32 62z" />
    <glyph glyph-name="uniF68A" unicode="&#xf68a;" horiz-adv-x="523" 
d="M53 0v560h150v-420h311v-140h-461zM377 771l-132 -164l-100 70l123 176z" />
    <glyph glyph-name="uniF68B" unicode="&#xf68b;" horiz-adv-x="523" 
d="M53 0v560h150v-420h311v-140h-461zM328 560h154q14 -22 14 -70q0 -57 -36 -105.5t-87 -79.5l-63 55q44 44 44 106q0 59 -26 94z" />
    <glyph glyph-name="uniF68C" unicode="&#xf68c;" horiz-adv-x="523" 
d="M53 0v560h150v-420h311v-140h-461zM197 -109l121 78q52 -38 52 -94q0 -59 -31 -102.5t-73 -68.5l-69 50q32 34 32 75q0 26 -32 62z" />
    <glyph glyph-name="uniF68D" unicode="&#xf68d;" horiz-adv-x="523" 
d="M53 0v560h150v-420h311v-140h-461zM291 301q0 33 26.5 59t67.5 26q38 0 65 -26.5t27 -58.5q0 -34 -27 -60.5t-65 -26.5q-41 0 -67.5 26t-26.5 61z" />
    <glyph glyph-name="uniF68E" unicode="&#xf68e;" horiz-adv-x="631" 
d="M578 0h-116l-263 304v-304h-146v560h115l264 -304v304h146v-560zM447 771l-132 -164l-100 70l123 176z" />
    <glyph glyph-name="uniF68F" unicode="&#xf68f;" horiz-adv-x="631" 
d="M578 0h-116l-263 304v-304h-146v560h115l264 -304v304h146v-560zM313 598l-165 136l70 88l98 -81l100 79l67 -87l-166 -135h-4z" />
    <glyph glyph-name="uniF690" unicode="&#xf690;" horiz-adv-x="631" 
d="M578 0h-116l-263 304v-304h-146v560h115l264 -304v304h146v-560zM227 -109l121 78q52 -38 52 -94q0 -59 -31 -102.5t-73 -68.5l-69 50q32 34 32 75q0 26 -32 62z" />
    <glyph glyph-name="uniF692" unicode="&#xf692;" horiz-adv-x="664" 
d="M24 280q0 121 89.5 205.5t218.5 84.5t218.5 -83t89.5 -207q0 -123 -89.5 -206.5t-218.5 -83.5t-218.5 83.5t-89.5 206.5zM179 280q0 -66 45 -105.5t108 -39.5q65 0 109 39t44 106q0 66 -46 105.5t-107 39.5q-63 0 -108 -39.5t-45 -105.5zM554 761l-142 -154l-76 57
l125 169zM378 777l-125 -170l-77 58l109 178z" />
    <glyph glyph-name="uniF693" unicode="&#xf693;" horiz-adv-x="664" 
d="M24 280q0 121 89.5 205.5t218.5 84.5t218.5 -83t89.5 -207q0 -123 -89.5 -206.5t-218.5 -83.5t-218.5 83.5t-89.5 206.5zM179 280q0 -66 45 -105.5t108 -39.5q65 0 109 39t44 106q0 66 -46 105.5t-107 39.5q-63 0 -108 -39.5t-45 -105.5zM185 630v120h294v-120h-294z" />
    <glyph glyph-name="uniF695" unicode="&#xf695;" horiz-adv-x="589" 
d="M203 0h-150v560h245q69 0 118.5 -15.5t76 -43.5t38 -60t11.5 -71q0 -52 -29 -97.5t-78 -68.5l158 -204h-181l-135 177h-74v-177zM295 420h-92v-103h97q87 0 87 53q0 25 -20 37.5t-72 12.5zM407 771l-132 -164l-100 70l123 176z" />
    <glyph glyph-name="uniF696" unicode="&#xf696;" horiz-adv-x="589" 
d="M203 0h-150v560h245q69 0 118.5 -15.5t76 -43.5t38 -60t11.5 -71q0 -52 -29 -97.5t-78 -68.5l158 -204h-181l-135 177h-74v-177zM295 420h-92v-103h97q87 0 87 53q0 25 -20 37.5t-72 12.5zM274 598l-165 136l70 88l98 -81l100 79l67 -87l-166 -135h-4z" />
    <glyph glyph-name="uniF697" unicode="&#xf697;" horiz-adv-x="589" 
d="M203 0h-150v560h245q69 0 118.5 -15.5t76 -43.5t38 -60t11.5 -71q0 -52 -29 -97.5t-78 -68.5l158 -204h-181l-135 177h-74v-177zM295 420h-92v-103h97q87 0 87 53q0 25 -20 37.5t-72 12.5zM197 -109l121 78q52 -38 52 -94q0 -59 -31 -102.5t-73 -68.5l-69 50q32 34 32 75
q0 26 -32 62z" />
    <glyph glyph-name="uniF698" unicode="&#xf698;" horiz-adv-x="537" 
d="M370 170q0 24 -35 35.5t-85 19t-100 20.5t-85 50t-35 98q0 77 68.5 127t175.5 50q79 0 145.5 -24.5t98.5 -68.5l-87 -98q-47 28 -84.5 39.5t-90.5 11.5q-32 0 -51.5 -10.5t-19.5 -28.5t25 -28.5t63 -14t82 -14t82 -25.5t63 -51t25 -88q0 -79 -66 -129.5t-173 -50.5
q-81 0 -158 28t-118 71l79 112q89 -71 221 -71q60 0 60 40zM407 771l-132 -164l-100 70l123 176z" />
    <glyph glyph-name="uniF699" unicode="&#xf699;" horiz-adv-x="514" 
d="M121 -161l44 69q28 -28 81 -28q29 0 29 13q0 17 -45 17h-6v88q-68 10 -127.5 42.5t-86.5 73.5l89 109q76 -89 195 -89q53 0 53 25q0 18 -33 31t-80 25t-94 30t-80 57t-33 95q0 70 65 119.5t169 49.5q158 0 238 -104l-101 -97q-56 61 -155 61q-61 0 -61 -28q0 -16 33 -28
t80 -24.5t94 -30.5t80 -55.5t33 -89.5q0 -75 -54 -122.5t-149 -52.5v-21q106 -9 106 -90q0 -43 -38.5 -68.5t-112.5 -25.5q-79 0 -133 49z" />
    <glyph glyph-name="uniF69A" unicode="&#xf69a;" horiz-adv-x="537" 
d="M370 170q0 24 -35 35.5t-85 19t-100 20.5t-85 50t-35 98q0 77 68.5 127t175.5 50q79 0 145.5 -24.5t98.5 -68.5l-87 -98q-47 28 -84.5 39.5t-90.5 11.5q-32 0 -51.5 -10.5t-19.5 -28.5t25 -28.5t63 -14t82 -14t82 -25.5t63 -51t25 -88q0 -79 -66 -129.5t-173 -50.5
q-81 0 -158 28t-118 71l79 112q89 -71 221 -71q60 0 60 40zM272 816l165 -136l-70 -88l-98 81l-100 -79l-67 87l166 135h4z" />
    <glyph glyph-name="uniF69B" unicode="&#xf69b;" horiz-adv-x="537" 
d="M370 170q0 24 -35 35.5t-85 19t-100 20.5t-85 50t-35 98q0 77 68.5 127t175.5 50q79 0 145.5 -24.5t98.5 -68.5l-87 -98q-47 28 -84.5 39.5t-90.5 11.5q-32 0 -51.5 -10.5t-19.5 -28.5t25 -28.5t63 -14t82 -14t82 -25.5t63 -51t25 -88q0 -79 -66 -129.5t-173 -50.5
q-81 0 -158 28t-118 71l79 112q89 -71 221 -71q60 0 60 40zM197 -109l121 78q52 -38 52 -94q0 -59 -31 -102.5t-73 -68.5l-69 50q32 34 32 75q0 26 -32 62z" />
    <glyph glyph-name="uniF69D" unicode="&#xf69d;" horiz-adv-x="529" 
d="M4 415v145h521v-145h-186v-415h-150v415h-185zM262 598l-165 136l70 88l98 -81l100 79l67 -87l-166 -135h-4z" />
    <glyph glyph-name="uniF69E" unicode="&#xf69e;" horiz-adv-x="529" 
d="M4 415v145h521v-145h-186v-415h-150v415h-185zM182 -109l121 78q52 -38 52 -94q0 -59 -31 -102.5t-73 -68.5l-69 50q32 34 32 75q0 26 -32 62z" />
    <glyph glyph-name="uniF69F" unicode="&#xf69f;" 
d="M573 560v-318q0 -64 -21.5 -113t-58.5 -77.5t-81 -42.5t-94 -14q-114 0 -191.5 65.5t-77.5 185.5v314h150v-297q0 -50 30 -89t89 -39q54 0 79.5 36t25.5 89v300h150zM145 707l66 75q47 -52 105 -52q68 0 110 50l51 -72q-65 -98 -167 -98q-61 0 -103 31t-62 66z" />
    <glyph glyph-name="uniF6A0" unicode="&#xf6a0;" 
d="M573 560v-318q0 -64 -21.5 -113t-58.5 -77.5t-81 -42.5t-94 -14q-114 0 -191.5 65.5t-77.5 185.5v314h150v-297q0 -50 30 -89t89 -39q54 0 79.5 36t25.5 89v300h150zM534 761l-142 -154l-76 57l125 169zM358 777l-125 -170l-77 58l109 178z" />
    <glyph glyph-name="uniF6A1" unicode="&#xf6a1;" 
d="M573 560v-318q0 -64 -21.5 -113t-58.5 -77.5t-81 -42.5t-94 -14q-114 0 -191.5 65.5t-77.5 185.5v314h150v-297q0 -50 30 -89t89 -39q54 0 79.5 36t25.5 89v300h150zM164 630v120h294v-120h-294z" />
    <glyph glyph-name="uniF6A2" unicode="&#xf6a2;" 
d="M573 560v-318q0 -92 -42.5 -150t-111.5 -81q-49 -35 -49 -65q0 -26 30 -26q19 0 40 10l45 -90q-13 -16 -47 -28t-73 -12q-63 0 -104 24t-41 71q0 58 80 101q-107 5 -179 70t-72 180v314h150v-297q0 -50 30 -89t89 -39q54 0 79.5 36t25.5 89v300h150z" />
    <glyph glyph-name="uniF6A3" unicode="&#xf6a3;" 
d="M573 560v-318q0 -64 -21.5 -113t-58.5 -77.5t-81 -42.5t-94 -14q-114 0 -191.5 65.5t-77.5 185.5v314h150v-297q0 -50 30 -89t89 -39q54 0 79.5 36t25.5 89v300h150zM173 731q0 54 39 91.5t98 37.5q60 0 99.5 -37.5t39.5 -91.5q0 -53 -39.5 -90t-99.5 -37q-59 0 -98 37
t-39 90zM268 733q0 -20 12 -32t32 -12q19 0 30.5 12t11.5 32q0 19 -11 30.5t-31 11.5t-32 -11.5t-12 -30.5z" />
    <glyph glyph-name="uniF6AB" unicode="&#xf6ab;" horiz-adv-x="541" 
d="M22 420v140h495v-99l-293 -321h300v-140h-516v99l291 321h-277zM407 771l-132 -164l-100 70l123 176z" />
    <glyph glyph-name="uniF6AC" unicode="&#xf6ac;" horiz-adv-x="541" 
d="M22 420v140h495v-99l-293 -321h300v-140h-516v99l291 321h-277zM189 698q0 31 23 51.5t59 20.5q35 0 58 -20.5t23 -51.5q0 -32 -23 -53t-58 -21q-38 0 -60 20.5t-22 53.5z" />
    <glyph glyph-name="uniF6AD" unicode="&#xf6ad;" horiz-adv-x="262" 
d="M56 0v560h150v-560h-150zM50 698q0 31 23 51.5t59 20.5q35 0 58 -20.5t23 -51.5q0 -32 -23 -53t-58 -21q-38 0 -60 20.5t-22 53.5z" />
    <glyph glyph-name="uniF6BA" unicode="&#xf6ba;" horiz-adv-x="424" 
d="M60 299v130h304v-130h-304z" />
    <glyph glyph-name="uniF6BB" unicode="&#xf6bb;" horiz-adv-x="616" 
d="M80 301v126h456v-126h-456z" />
    <glyph glyph-name="uniF6BC" unicode="&#xf6bc;" horiz-adv-x="796" 
d="M80 301v126h636v-126h-636z" />
    <glyph glyph-name="uniF6C3" unicode="&#xf6c3;" horiz-adv-x="380" 
d="M207 -109l121 78q52 -38 52 -94q0 -59 -31 -102.5t-73 -68.5l-69 50q32 34 32 75q0 26 -32 62z" />
    <glyph glyph-name="uniF6C9" unicode="&#xf6c9;" horiz-adv-x="597" 
d="M597 846l-240 -113l-57 99l228 142z" />
    <glyph glyph-name="uniF6CA" unicode="&#xf6ca;" horiz-adv-x="567" 
d="M385 743l-184 117l58 85l128 -76l128 76l52 -83l-178 -119h-4z" />
    <glyph glyph-name="uniF6CB" unicode="&#xf6cb;" horiz-adv-x="531" 
d="M115 831q0 33 24.5 54.5t60.5 21.5q32 0 57.5 -22t25.5 -54q0 -33 -25.5 -55t-57.5 -22q-36 0 -60.5 21.5t-24.5 55.5zM364 831q0 32 25.5 54t59.5 22q32 0 57 -21.5t25 -54.5t-25 -55t-57 -22q-35 0 -60 21.5t-25 55.5z" />
    <glyph glyph-name="uniF6CE" unicode="&#xf6ce;" horiz-adv-x="496" 
d="M440 733l-240 113l69 128l228 -142z" />
    <glyph glyph-name="uniF6CF" unicode="&#xf6cf;" horiz-adv-x="664" 
d="M665 841l-204 -113l-61 63l159 144zM445 870l-167 -142l-64 58l101 149z" />
    <glyph glyph-name="uniF6D0" unicode="&#xf6d0;" horiz-adv-x="534" 
d="M220 770v120h314v-120h-314z" />
    <glyph glyph-name="uniF6D1" unicode="&#xf6d1;" horiz-adv-x="592" 
d="M193 893h130q12 -51 60 -51q23 0 40.5 13t21.5 38h130q-4 -67 -62 -115.5t-124 -48.5q-87 0 -136 44.5t-60 119.5z" />
    <glyph glyph-name="uniF6D4" unicode="&#xf6d4;" horiz-adv-x="489" 
d="M123 738h133q2 -53 52 -53q49 0 49 53h132q-1 -80 -53.5 -121.5t-127.5 -41.5q-79 0 -131.5 40.5t-53.5 122.5z" />
    <glyph glyph-name="uniF6F4" unicode="&#xf6f4;" horiz-adv-x="502" 
d="M169 707l66 75q47 -52 105 -52q68 0 110 50l51 -72q-65 -98 -167 -98q-61 0 -103 31t-62 66z" />
    <glyph glyph-name="uniF6F5" unicode="&#xf6f5;" horiz-adv-x="494" 
d="M324 598l-165 136l70 88l98 -81l100 79l67 -87l-166 -135h-4z" />
    <glyph glyph-name="uniF6F6" unicode="&#xf6f6;" horiz-adv-x="498" 
d="M332 816l165 -136l-70 -88l-98 81l-100 -79l-67 87l166 135h4z" />
    <glyph glyph-name="uniF6F7" unicode="&#xf6f7;" horiz-adv-x="413" 
d="M250 698q0 31 23 51.5t59 20.5q35 0 58 -20.5t23 -51.5q0 -32 -23 -53t-58 -21q-38 0 -60 20.5t-22 53.5z" />
    <glyph glyph-name="uniF6F8" unicode="&#xf6f8;" horiz-adv-x="544" 
d="M544 761l-142 -154l-76 57l125 169zM368 777l-125 -170l-77 58l109 178z" />
    <glyph glyph-name="uniF6F9" unicode="&#xf6f9;" horiz-adv-x="535" 
d="M0 73v150l66 45v292h150v-189l149 102v-150l-149 -102v-81h311v-140h-461v118z" />
    <glyph glyph-name="uniF6FA" unicode="&#xf6fa;" horiz-adv-x="946" 
d="M445 0v18q-54 -24 -113 -24q-129 0 -218.5 81.5t-89.5 204.5q0 121 89 203.5t219 82.5q61 0 113 -23v17h463v-140h-313v-69h292v-135h-292v-76h320v-140h-470zM332 139q72 0 113 40v199q-45 43 -113 43q-63 0 -108 -37.5t-45 -103.5t45 -103.5t108 -37.5z" />
    <glyph glyph-name="uniF6FB" unicode="&#xf6fb;" horiz-adv-x="395" 
d="M400 -70l45 -90q-13 -16 -47 -28t-73 -12q-63 0 -104 24t-41 71q0 43 36 73t80 41.5t93 13.5v-23q-25 0 -42 -15.5t-17 -34.5q0 -14 8.5 -22t21.5 -8q19 0 40 10z" />
    <glyph glyph-name="uniF6FC" unicode="&#xf6fc;" horiz-adv-x="483" 
d="M207 731q0 54 39 91.5t98 37.5q60 0 99.5 -37.5t39.5 -91.5q0 -53 -39.5 -90t-99.5 -37q-59 0 -98 37t-39 90zM302 733q0 -20 12 -32t32 -12q19 0 30.5 12t11.5 32q0 19 -11 30.5t-31 11.5t-32 -11.5t-12 -30.5z" />
    <glyph glyph-name="uniF6FD" unicode="&#xf6fd;" horiz-adv-x="537" 
d="M370 170q0 24 -35 35.5t-85 19t-100 20.5t-85 50t-35 98q0 77 68.5 127t175.5 50q79 0 145.5 -24.5t98.5 -68.5l-87 -98q-47 28 -84.5 39.5t-90.5 11.5q-32 0 -51.5 -10.5t-19.5 -28.5t25 -28.5t63 -14t82 -14t82 -25.5t63 -51t25 -88q0 -79 -66 -129.5t-173 -50.5
q-81 0 -158 28t-118 71l79 112q89 -71 221 -71q60 0 60 40zM266 598l-165 136l70 88l98 -81l100 79l67 -87l-166 -135h-4z" />
    <glyph glyph-name="uniF6FE" unicode="&#xf6fe;" horiz-adv-x="520" 
d="M215 629l-60 67q55 78 132 78q24 0 61 -19.5t57 -19.5q36 0 66 27l49 -75q-60 -72 -127 -72q-22 0 -59 19.5t-60 19.5q-28 0 -59 -25z" />
    <glyph glyph-name="uniF6FF" unicode="&#xf6ff;" horiz-adv-x="541" 
d="M22 420v140h495v-99l-293 -321h300v-140h-516v99l291 321h-277zM268 598l-165 136l70 88l98 -81l100 79l67 -87l-166 -135h-4z" />
    <glyph glyph-name="uniF760" unicode="&#xf760;" horiz-adv-x="414" 
d="M328 607l-147 160l114 86l119 -177z" />
    <glyph glyph-name="uniF761" unicode="&#xf761;" 
d="M-5 0l261 559h110l261 -559h-157l-42 85h-235l-43 -85h-155zM310 334l-66 -124h129z" />
    <glyph glyph-name="uniF762" unicode="&#xf762;" horiz-adv-x="588" 
d="M53 0v560h285q204 0 204 -145q0 -62 -49 -116q68 -41 68 -129q0 -86 -63 -128t-168 -42h-277zM318 218h-115v-78h109q52 0 72 8.5t20 29.5q0 23 -18.5 31.5t-67.5 8.5zM310 420h-107v-67h118q65 0 65 27q0 21 -16 30.5t-60 9.5z" />
    <glyph glyph-name="uniF763" unicode="&#xf763;" horiz-adv-x="594" 
d="M499 209l89 -96q-41 -60 -109.5 -91.5t-150.5 -31.5q-138 0 -221 80t-83 210q0 122 87 206t223 84q82 0 147 -30t98 -83l-103 -92q-22 29 -60 44.5t-70 15.5q-74 0 -120.5 -39t-46.5 -106q0 -64 46.5 -104.5t115.5 -40.5q99 0 158 74z" />
    <glyph glyph-name="uniF764" unicode="&#xf764;" horiz-adv-x="615" 
d="M53 0v560h190q94 0 163.5 -21.5t108.5 -60t57.5 -86t18.5 -105.5q0 -128 -89.5 -207.5t-272.5 -79.5h-176zM242 420h-39v-280h40q193 0 193 147q0 66 -45 99.5t-149 33.5z" />
    <glyph glyph-name="uniF765" unicode="&#xf765;" horiz-adv-x="554" 
d="M53 0v560h453v-140h-303v-69h282v-135h-282v-76h310v-140h-460z" />
    <glyph glyph-name="uniF766" unicode="&#xf766;" horiz-adv-x="530" 
d="M53 0v560h458v-140h-308v-88h288v-140h-288v-192h-150z" />
    <glyph glyph-name="uniF767" unicode="&#xf767;" horiz-adv-x="616" 
d="M302 192v135h290v-235q-96 -102 -243 -102q-143 0 -234 80.5t-91 209.5q0 123 86 206.5t223 83.5q78 0 147 -30t99 -78l-105 -92q-50 55 -136 55q-74 0 -116.5 -38t-42.5 -107q0 -70 47 -107.5t124 -37.5q58 0 98 24v33h-146z" />
    <glyph glyph-name="uniF768" unicode="&#xf768;" horiz-adv-x="640" 
d="M437 0v211h-234v-211h-150v560h150v-209h234v209h150v-560h-150z" />
    <glyph glyph-name="uniF769" unicode="&#xf769;" horiz-adv-x="262" 
d="M56 0v560h150v-560h-150z" />
    <glyph glyph-name="uniF76A" unicode="&#xf76a;" horiz-adv-x="413" 
d="M366 560v-381q0 -91 -48.5 -140t-132.5 -49q-140 0 -195 110l109 84q10 -21 30.5 -37.5t41.5 -16.5q25 0 35 16.5t10 62.5v351h150z" />
    <glyph glyph-name="uniF76B" unicode="&#xf76b;" horiz-adv-x="608" 
d="M53 0v560h150v-201l205 201h195l-251 -245l266 -315h-197l-183 214l-35 -33v-181h-150z" />
    <glyph glyph-name="uniF76C" unicode="&#xf76c;" horiz-adv-x="523" 
d="M53 0v560h150v-420h311v-140h-461z" />
    <glyph glyph-name="uniF76D" unicode="&#xf76d;" horiz-adv-x="728" 
d="M53 0v560h127l188 -213l181 213h126v-560h-150v306l-138 -165h-40l-144 169v-310h-150z" />
    <glyph glyph-name="uniF76E" unicode="&#xf76e;" horiz-adv-x="631" 
d="M578 0h-116l-263 304v-304h-146v560h115l264 -304v304h146v-560z" />
    <glyph glyph-name="uniF76F" unicode="&#xf76f;" horiz-adv-x="664" 
d="M24 280q0 121 89.5 205.5t218.5 84.5t218.5 -83t89.5 -207q0 -123 -89.5 -206.5t-218.5 -83.5t-218.5 83.5t-89.5 206.5zM179 280q0 -66 45 -105.5t108 -39.5q65 0 109 39t44 106q0 66 -46 105.5t-107 39.5q-63 0 -108 -39.5t-45 -105.5z" />
    <glyph glyph-name="uniF770" unicode="&#xf770;" horiz-adv-x="586" 
d="M203 0h-150v560h253q73 0 125.5 -17.5t79.5 -48t39 -63.5t12 -72q0 -83 -62 -140.5t-193 -57.5h-104v-161zM310 420h-107v-119h102q102 0 102 59q0 60 -97 60z" />
    <glyph glyph-name="uniF771" unicode="&#xf771;" horiz-adv-x="664" 
d="M24 280q0 121 89.5 205.5t218.5 84.5t218.5 -83t89.5 -207q0 -112 -73 -185l48 -56l-105 -83l-52 58q-57 -24 -126 -24q-137 0 -222.5 82t-85.5 208zM179 280q0 -68 42.5 -106.5t110.5 -38.5q8 0 22 2.5t18 2.5l-42 44l94 80l46 -51q15 23 15 67q0 68 -42.5 106.5
t-110.5 38.5t-110.5 -38.5t-42.5 -106.5z" />
    <glyph glyph-name="uniF772" unicode="&#xf772;" horiz-adv-x="589" 
d="M203 0h-150v560h245q69 0 118.5 -15.5t76 -43.5t38 -60t11.5 -71q0 -52 -29 -97.5t-78 -68.5l158 -204h-181l-135 177h-74v-177zM295 420h-92v-103h97q87 0 87 53q0 25 -20 37.5t-72 12.5z" />
    <glyph glyph-name="uniF773" unicode="&#xf773;" horiz-adv-x="537" 
d="M370 170q0 24 -35 35.5t-85 19t-100 20.5t-85 50t-35 98q0 77 68.5 127t175.5 50q79 0 145.5 -24.5t98.5 -68.5l-87 -98q-47 28 -84.5 39.5t-90.5 11.5q-32 0 -51.5 -10.5t-19.5 -28.5t25 -28.5t63 -14t82 -14t82 -25.5t63 -51t25 -88q0 -79 -66 -129.5t-173 -50.5
q-81 0 -158 28t-118 71l79 112q89 -71 221 -71q60 0 60 40z" />
    <glyph glyph-name="uniF774" unicode="&#xf774;" horiz-adv-x="529" 
d="M4 415v145h521v-145h-186v-415h-150v415h-185z" />
    <glyph glyph-name="uniF775" unicode="&#xf775;" 
d="M573 560v-318q0 -64 -21.5 -113t-58.5 -77.5t-81 -42.5t-94 -14q-114 0 -191.5 65.5t-77.5 185.5v314h150v-297q0 -50 30 -89t89 -39q54 0 79.5 36t25.5 89v300h150z" />
    <glyph glyph-name="uniF776" unicode="&#xf776;" horiz-adv-x="626" 
d="M636 560l-265 -560h-103l-278 560h163l167 -340l155 340h161z" />
    <glyph glyph-name="uniF777" unicode="&#xf777;" horiz-adv-x="827" 
d="M828 560l-176 -560h-121l-115 291l-111 -291h-121l-185 560h154l98 -290l107 290h119l108 -287l94 287h149z" />
    <glyph glyph-name="uniF778" unicode="&#xf778;" horiz-adv-x="614" 
d="M611 560l-215 -276l222 -284h-184l-127 161l-128 -161h-183l223 284l-214 276h182l121 -152l121 152h182z" />
    <glyph glyph-name="uniF779" unicode="&#xf779;" horiz-adv-x="611" 
d="M621 560l-242 -361v-199h-150v199l-239 361h182l135 -203l135 203h179z" />
    <glyph glyph-name="uniF77A" unicode="&#xf77a;" horiz-adv-x="541" 
d="M22 420v140h495v-99l-293 -321h300v-140h-516v99l291 321h-277z" />
    <glyph glyph-name="uniF7A1" unicode="&#xf7a1;" horiz-adv-x="263" 
d="M59 0v401h146v-401h-146zM51 490q0 30 23 51t59 21q33 0 56 -21.5t23 -50.5q0 -26 -23.5 -48t-55.5 -22q-36 0 -59 22t-23 48z" />
    <glyph glyph-name="uniF7A8" unicode="&#xf7a8;" horiz-adv-x="508" 
d="M145 700q0 30 23 50t55 20q30 0 54.5 -20t24.5 -50q0 -32 -24 -52t-55 -20q-32 0 -55 19.5t-23 52.5zM349 700q0 30 24 50t57 20q32 0 55.5 -20t23.5 -50q0 -33 -23 -52.5t-56 -19.5q-34 0 -57.5 19.5t-23.5 52.5z" />
    <glyph glyph-name="uniF7AF" unicode="&#xf7af;" horiz-adv-x="454" 
d="M160 630v120h294v-120h-294z" />
    <glyph glyph-name="uniF7B4" unicode="&#xf7b4;" horiz-adv-x="487" 
d="M487 771l-132 -164l-100 70l123 176z" />
    <glyph glyph-name="uniF7B8" unicode="&#xf7b8;" horiz-adv-x="477" 
d="M194 -161l44 69q28 -28 81 -28q29 0 29 13q0 17 -45 17h-6v90h75v-26q106 -9 106 -90q0 -43 -38.5 -68.5t-112.5 -25.5q-79 0 -133 49z" />
    <glyph glyph-name="uniF7BF" unicode="&#xf7bf;" horiz-adv-x="436" 
d="M160 168q0 -28 42 -28q55 0 87 66l122 -58q-54 -154 -211 -154q-92 0 -143.5 41.5t-51.5 108.5q0 45 17 80t36 52.5t50 37.5q1 1 6 4t6.5 4.5t6.5 4.5t6.5 5t5 5.5t5.5 6.5t3.5 6.5t2.5 7.5t1 8q0 9 -0.5 15.5t-2 11.5t-1.5 8l137 2q9 -20 9 -40q0 -34 -14.5 -61.5
t-30.5 -41.5t-46 -34q-42 -29 -42 -58zM301 490q0 -26 -23 -48t-59 -22q-32 0 -55.5 22t-23.5 48q0 29 23 50.5t56 21.5q36 0 59 -21t23 -51z" />
    <glyph glyph-name="uniF7E0" unicode="&#xf7e0;" 
d="M-5 0l261 559h110l261 -559h-157l-42 85h-235l-43 -85h-155zM310 334l-66 -124h129zM323 607l-147 160l114 86l119 -177z" />
    <glyph glyph-name="uniF7E1" unicode="&#xf7e1;" 
d="M-5 0l261 559h110l261 -559h-157l-42 85h-235l-43 -85h-155zM310 334l-66 -124h129zM452 771l-132 -164l-100 70l123 176z" />
    <glyph glyph-name="uniF7E2" unicode="&#xf7e2;" 
d="M-5 0l261 559h110l261 -559h-157l-42 85h-235l-43 -85h-155zM310 334l-66 -124h129zM314 816l165 -136l-70 -88l-98 81l-100 -79l-67 87l166 135h4z" />
    <glyph glyph-name="uniF7E3" unicode="&#xf7e3;" 
d="M-5 0l261 559h110l261 -559h-157l-42 85h-235l-43 -85h-155zM310 334l-66 -124h129zM189 629l-60 67q55 78 132 78q24 0 61 -19.5t57 -19.5q36 0 66 27l49 -75q-60 -72 -127 -72q-22 0 -59 19.5t-60 19.5q-28 0 -59 -25z" />
    <glyph glyph-name="uniF7E4" unicode="&#xf7e4;" 
d="M-5 0l261 559h110l261 -559h-157l-42 85h-235l-43 -85h-155zM310 334l-66 -124h129zM129 700q0 30 23 50t55 20q30 0 54.5 -20t24.5 -50q0 -32 -24 -52t-55 -20q-32 0 -55 19.5t-23 52.5zM333 700q0 30 24 50t57 20q32 0 55.5 -20t23.5 -50q0 -33 -23 -52.5t-56 -19.5
q-34 0 -57.5 19.5t-23.5 52.5z" />
    <glyph glyph-name="uniF7E5" unicode="&#xf7e5;" 
d="M-5 0l261 559h110l261 -559h-157l-42 85h-235l-43 -85h-155zM310 334l-66 -124h129zM173 731q0 54 39 91.5t98 37.5q60 0 99.5 -37.5t39.5 -91.5q0 -53 -39.5 -90t-99.5 -37q-59 0 -98 37t-39 90zM268 733q0 -20 12 -32t32 -12q19 0 30.5 12t11.5 32q0 19 -11 30.5
t-31 11.5t-32 -11.5t-12 -30.5z" />
    <glyph glyph-name="uniF7E6" unicode="&#xf7e6;" horiz-adv-x="992" 
d="M491 0v85h-249l-78 -85h-164l452 560h501v-140h-312v-69h292v-135h-292v-76h320v-140h-470zM332 210h159v194z" />
    <glyph glyph-name="uniF7E7" unicode="&#xf7e7;" horiz-adv-x="594" 
d="M184 -161l44 69q28 -28 81 -28q29 0 29 13q0 17 -45 17h-6v86q-122 11 -192.5 87.5t-70.5 196.5q0 122 87 204t223 82q83 0 147.5 -28.5t97.5 -80.5l-103 -92q-22 28 -59.5 42t-70.5 14q-74 0 -120.5 -37t-46.5 -104q0 -63 46 -102t116 -39q102 0 158 70l89 -96
q-73 -107 -226 -118v-21q106 -9 106 -90q0 -43 -38.5 -68.5t-112.5 -25.5q-79 0 -133 49z" />
    <glyph glyph-name="uniF7E8" unicode="&#xf7e8;" horiz-adv-x="554" 
d="M53 0v560h453v-140h-303v-69h282v-135h-282v-76h310v-140h-460zM308 607l-147 160l114 86l119 -177z" />
    <glyph glyph-name="uniF7E9" unicode="&#xf7e9;" horiz-adv-x="554" 
d="M53 0v560h453v-140h-303v-69h282v-135h-282v-76h310v-140h-460zM427 771l-132 -164l-100 70l123 176z" />
    <glyph glyph-name="uniF7EA" unicode="&#xf7ea;" horiz-adv-x="554" 
d="M53 0v560h453v-140h-303v-69h282v-135h-282v-76h310v-140h-460zM292 816l165 -136l-70 -88l-98 81l-100 -79l-67 87l166 135h4z" />
    <glyph glyph-name="uniF7EB" unicode="&#xf7eb;" horiz-adv-x="554" 
d="M53 0v560h453v-140h-303v-69h282v-135h-282v-76h310v-140h-460zM95 700q0 30 23 50t55 20q30 0 54.5 -20t24.5 -50q0 -32 -24 -52t-55 -20q-32 0 -55 19.5t-23 52.5zM299 700q0 30 24 50t57 20q32 0 55.5 -20t23.5 -50q0 -33 -23 -52.5t-56 -19.5q-34 0 -57.5 19.5
t-23.5 52.5z" />
    <glyph glyph-name="uniF7EC" unicode="&#xf7ec;" horiz-adv-x="262" 
d="M56 0v560h150v-560h-150zM148 607l-147 160l114 86l119 -177z" />
    <glyph glyph-name="uniF7ED" unicode="&#xf7ed;" horiz-adv-x="262" 
d="M56 0v560h150v-560h-150zM277 771l-132 -164l-100 70l123 176z" />
    <glyph glyph-name="uniF7EE" unicode="&#xf7ee;" horiz-adv-x="262" 
d="M56 0v560h150v-560h-150zM134 816l165 -136l-70 -88l-98 81l-100 -79l-67 87l166 135h4z" />
    <glyph glyph-name="uniF7EF" unicode="&#xf7ef;" horiz-adv-x="262" 
d="M56 0v560h150v-560h-150zM-51 700q0 30 23 50t55 20q30 0 54.5 -20t24.5 -50q0 -32 -24 -52t-55 -20q-32 0 -55 19.5t-23 52.5zM153 700q0 30 24 50t57 20q32 0 55.5 -20t23.5 -50q0 -33 -23 -52.5t-56 -19.5q-34 0 -57.5 19.5t-23.5 52.5z" />
    <glyph glyph-name="uniF7F0" unicode="&#xf7f0;" horiz-adv-x="673" 
d="M20 218v124h91v218h191q94 0 163 -21.5t108 -60t57.5 -86t18.5 -105.5q0 -128 -89.5 -207.5t-271.5 -79.5h-177v218h-91zM300 420h-39v-78h126v-124h-126v-78h40q193 0 193 147q0 66 -45 99.5t-149 33.5z" />
    <glyph glyph-name="uniF7F1" unicode="&#xf7f1;" horiz-adv-x="631" 
d="M578 0h-116l-263 304v-304h-146v560h115l264 -304v304h146v-560zM183 629l-60 67q55 78 132 78q24 0 61 -19.5t57 -19.5q36 0 66 27l49 -75q-60 -72 -127 -72q-22 0 -59 19.5t-60 19.5q-28 0 -59 -25z" />
    <glyph glyph-name="uniF7F2" unicode="&#xf7f2;" horiz-adv-x="664" 
d="M24 280q0 121 89.5 205.5t218.5 84.5t218.5 -83t89.5 -207q0 -123 -89.5 -206.5t-218.5 -83.5t-218.5 83.5t-89.5 206.5zM179 280q0 -66 45 -105.5t108 -39.5q65 0 109 39t44 106q0 66 -46 105.5t-107 39.5q-63 0 -108 -39.5t-45 -105.5zM328 607l-147 160l114 86
l119 -177z" />
    <glyph glyph-name="uniF7F3" unicode="&#xf7f3;" horiz-adv-x="664" 
d="M24 280q0 121 89.5 205.5t218.5 84.5t218.5 -83t89.5 -207q0 -123 -89.5 -206.5t-218.5 -83.5t-218.5 83.5t-89.5 206.5zM179 280q0 -66 45 -105.5t108 -39.5q65 0 109 39t44 106q0 66 -46 105.5t-107 39.5q-63 0 -108 -39.5t-45 -105.5zM487 771l-132 -164l-100 70
l123 176z" />
    <glyph glyph-name="uniF7F4" unicode="&#xf7f4;" horiz-adv-x="664" 
d="M24 280q0 121 89.5 205.5t218.5 84.5t218.5 -83t89.5 -207q0 -123 -89.5 -206.5t-218.5 -83.5t-218.5 83.5t-89.5 206.5zM179 280q0 -66 45 -105.5t108 -39.5q65 0 109 39t44 106q0 66 -46 105.5t-107 39.5q-63 0 -108 -39.5t-45 -105.5zM335 816l165 -136l-70 -88
l-98 81l-100 -79l-67 87l166 135h4z" />
    <glyph glyph-name="uniF7F5" unicode="&#xf7f5;" horiz-adv-x="664" 
d="M24 280q0 121 89.5 205.5t218.5 84.5t218.5 -83t89.5 -207q0 -123 -89.5 -206.5t-218.5 -83.5t-218.5 83.5t-89.5 206.5zM179 280q0 -66 45 -105.5t108 -39.5q65 0 109 39t44 106q0 66 -46 105.5t-107 39.5q-63 0 -108 -39.5t-45 -105.5zM210 629l-60 67q55 78 132 78
q24 0 61 -19.5t57 -19.5q36 0 66 27l49 -75q-60 -72 -127 -72q-22 0 -59 19.5t-60 19.5q-28 0 -59 -25z" />
    <glyph glyph-name="uniF7F6" unicode="&#xf7f6;" horiz-adv-x="664" 
d="M24 280q0 121 89.5 205.5t218.5 84.5t218.5 -83t89.5 -207q0 -123 -89.5 -206.5t-218.5 -83.5t-218.5 83.5t-89.5 206.5zM179 280q0 -66 45 -105.5t108 -39.5q65 0 109 39t44 106q0 66 -46 105.5t-107 39.5q-63 0 -108 -39.5t-45 -105.5zM150 700q0 30 23 50t55 20
q30 0 54.5 -20t24.5 -50q0 -32 -24 -52t-55 -20q-32 0 -55 19.5t-23 52.5zM354 700q0 30 24 50t57 20q32 0 55.5 -20t23.5 -50q0 -33 -23 -52.5t-56 -19.5q-34 0 -57.5 19.5t-23.5 52.5z" />
    <glyph glyph-name="uniF7F8" unicode="&#xf7f8;" horiz-adv-x="664" 
d="M43 55l43 49q-62 76 -62 176q0 121 89 203.5t219 82.5q70 0 134 -27l46 52l105 -84l-42 -48q65 -76 65 -179q0 -123 -89.5 -204.5t-218.5 -81.5q-72 0 -136 28l-47 -54zM485 280q0 32 -13 60l-172 -198q15 -3 32 -3q65 0 109 37.5t44 103.5zM179 280q0 -30 11 -57
l171 195q-15 3 -29 3q-63 0 -108 -37.5t-45 -103.5z" />
    <glyph glyph-name="uniF7F9" unicode="&#xf7f9;" 
d="M573 560v-318q0 -64 -21.5 -113t-58.5 -77.5t-81 -42.5t-94 -14q-114 0 -191.5 65.5t-77.5 185.5v314h150v-297q0 -50 30 -89t89 -39q54 0 79.5 36t25.5 89v300h150zM308 607l-147 160l114 86l119 -177z" />
    <glyph glyph-name="uniF7FA" unicode="&#xf7fa;" 
d="M573 560v-318q0 -64 -21.5 -113t-58.5 -77.5t-81 -42.5t-94 -14q-114 0 -191.5 65.5t-77.5 185.5v314h150v-297q0 -50 30 -89t89 -39q54 0 79.5 36t25.5 89v300h150zM457 771l-132 -164l-100 70l123 176z" />
    <glyph glyph-name="uniF7FB" unicode="&#xf7fb;" 
d="M573 560v-318q0 -64 -21.5 -113t-58.5 -77.5t-81 -42.5t-94 -14q-114 0 -191.5 65.5t-77.5 185.5v314h150v-297q0 -50 30 -89t89 -39q54 0 79.5 36t25.5 89v300h150zM314 816l165 -136l-70 -88l-98 81l-100 -79l-67 87l166 135h4z" />
    <glyph glyph-name="uniF7FC" unicode="&#xf7fc;" 
d="M573 560v-318q0 -64 -21.5 -113t-58.5 -77.5t-81 -42.5t-94 -14q-114 0 -191.5 65.5t-77.5 185.5v314h150v-297q0 -50 30 -89t89 -39q54 0 79.5 36t25.5 89v300h150zM129 700q0 30 23 50t55 20q30 0 54.5 -20t24.5 -50q0 -32 -24 -52t-55 -20q-32 0 -55 19.5t-23 52.5z
M333 700q0 30 24 50t57 20q32 0 55.5 -20t23.5 -50q0 -33 -23 -52.5t-56 -19.5q-34 0 -57.5 19.5t-23.5 52.5z" />
    <glyph glyph-name="uniF7FD" unicode="&#xf7fd;" horiz-adv-x="611" 
d="M621 560l-242 -361v-199h-150v199l-239 361h182l135 -203l135 203h179zM437 771l-132 -164l-100 70l123 176z" />
    <glyph glyph-name="uniF7FE" unicode="&#xf7fe;" horiz-adv-x="566" 
d="M203 0h-150v560h150v-75h83q73 0 125.5 -17.5t79.5 -48t39 -63.5t12 -72q0 -83 -62 -140.5t-193 -57.5h-84v-86zM290 345h-87v-119h82q102 0 102 59q0 60 -97 60z" />
    <glyph glyph-name="uniF7FF" unicode="&#xf7ff;" horiz-adv-x="611" 
d="M621 560l-242 -361v-199h-150v199l-239 361h182l135 -203l135 203h179zM123 700q0 30 23 50t55 20q30 0 54.5 -20t24.5 -50q0 -32 -24 -52t-55 -20q-32 0 -55 19.5t-23 52.5zM327 700q0 30 24 50t57 20q32 0 55.5 -20t23.5 -50q0 -33 -23 -52.5t-56 -19.5
q-34 0 -57.5 19.5t-23.5 52.5z" />
    <glyph glyph-name="uniFE56" unicode="&#xfe56;" horiz-adv-x="436" 
d="M256 393q0 27 -42 27q-55 0 -87 -65l-122 58q54 153 212 153q91 0 142.5 -41.5t51.5 -108.5q0 -64 -27.5 -101.5t-75.5 -68.5q-1 -1 -7.5 -5t-9 -6t-8 -6t-7.5 -7t-5.5 -7.5t-4.5 -9.5t-1 -10q0 -3 4 -35l-137 -2q-9 20 -9 40q0 34 14.5 61t30.5 40.5t46 34.5
q42 29 42 59zM115 70q0 27 23 48.5t59 21.5q33 0 56 -21.5t23 -48.5q0 -28 -23 -50t-56 -22q-36 0 -59 21.5t-23 50.5z" />
    <glyph glyph-name="uniFE57" unicode="&#xfe57;" horiz-adv-x="263" 
d="M59 159v401h146v-401h-146zM51 70q0 27 23 48.5t59 21.5q32 0 55.5 -22t23.5 -48q0 -28 -23.5 -50t-55.5 -22q-36 0 -59 21.5t-23 50.5z" />
    <glyph glyph-name="uniFEFF" unicode="&#xfeff;" horiz-adv-x="0" 
 />
    <glyph glyph-name="nbspace" horiz-adv-x="236" 
 />
    <glyph glyph-name="caron.l" horiz-adv-x="222" 
d="M48 701h154q14 -22 14 -70q0 -57 -36 -105.5t-87 -79.5l-63 55q44 44 44 106q0 59 -26 94z" />
    <glyph glyph-name="caron.lsmall" horiz-adv-x="222" 
d="M48 560h154q14 -22 14 -70q0 -57 -36 -105.5t-87 -79.5l-63 55q44 44 44 106q0 59 -26 94z" />
    <glyph glyph-name="afii10024.ss01" horiz-adv-x="953" 
d="M554 276v-276h-155v276h-64l-164 -276h-176l214 360l-205 340h180l161 -279h54v279h155v-279h54l161 279h180l-205 -340l214 -360h-176l-164 276h-64z" />
    <glyph glyph-name="a.ss02" horiz-adv-x="591" 
d="M401 0v41q-17 -19 -51 -34t-80 -15q-110 0 -177.5 70t-67.5 197q0 119 72.5 195.5t177.5 76.5q86 0 126 -34v23h145v-520h-145zM301 127q30 0 59 17t41 44v159q-27 49 -95 49q-58 0 -94.5 -35.5t-36.5 -99.5q0 -62 35 -98t91 -36z" />
    <glyph glyph-name="uniF35A.ss01" horiz-adv-x="612" 
d="M53 0v560h150v-209h49l167 209h191l-224 -266l236 -294h-193l-164 211h-62v-211h-150z" />
    <glyph glyph-name="aacute.ss02" horiz-adv-x="591" 
d="M401 0v41q-17 -19 -51 -34t-80 -15q-110 0 -177.5 70t-67.5 197q0 119 72.5 195.5t177.5 76.5q86 0 126 -34v23h145v-520h-145zM301 127q30 0 59 17t41 44v159q-27 49 -95 49q-58 0 -94.5 -35.5t-36.5 -99.5q0 -62 35 -98t91 -36zM477 751l-132 -164l-100 70l123 176z
" />
    <glyph glyph-name="afii10028.ss01" horiz-adv-x="701" 
d="M65 0v700h155v-279h49l229 279h193l-281 -336l301 -364h-204l-228 276h-59v-276h-155z" />
    <glyph glyph-name="uniF356.ss01" horiz-adv-x="844" 
d="M497 211v-211h-150v211h-47l-131 -211h-168l180 287l-184 273h176l136 -209h38v209h150v-209h34l140 209h176l-189 -271l185 -289h-168l-135 211h-43z" />
    <glyph glyph-name="acircumflex.ss02" horiz-adv-x="591" 
d="M401 0v41q-17 -19 -51 -34t-80 -15q-110 0 -177.5 70t-67.5 197q0 119 72.5 195.5t177.5 76.5q86 0 126 -34v23h145v-520h-145zM301 127q30 0 59 17t41 44v159q-27 49 -95 49q-58 0 -94.5 -35.5t-36.5 -99.5q0 -62 35 -98t91 -36zM330 796l165 -136l-70 -88l-98 81
l-100 -79l-67 87l166 135h4z" />
    <glyph glyph-name="aogonek.ss02" 
d="M401 0v41l-10 -7q-10 -7 -14 -9.5t-15 -9t-19.5 -9.5t-20.5 -7t-25 -5.5t-27 -1.5q-110 0 -177.5 70t-67.5 197q0 119 72.5 195.5t177.5 76.5q86 0 126 -34v23h145v-520q-36 -4 -60 -20.5t-24 -33.5q0 -26 30 -26q19 0 40 10l45 -90q-13 -16 -47 -28t-73 -12
q-63 0 -104 24t-41 71q0 35 27.5 62.5t61.5 42.5zM301 127q30 0 59 17t41 44v159q-27 49 -95 49q-58 0 -94.5 -35.5t-36.5 -99.5q0 -62 35 -98t91 -36z" />
    <glyph glyph-name="adieresis.ss02" horiz-adv-x="591" 
d="M401 0v41q-17 -19 -51 -34t-80 -15q-110 0 -177.5 70t-67.5 197q0 119 72.5 195.5t177.5 76.5q86 0 126 -34v23h145v-520h-145zM301 127q30 0 59 17t41 44v159q-27 49 -95 49q-58 0 -94.5 -35.5t-36.5 -99.5q0 -62 35 -98t91 -36zM131 660q0 30 23 50t55 20
q30 0 54.5 -20t24.5 -50q0 -32 -24 -52t-55 -20q-32 0 -55 19.5t-23 52.5zM335 660q0 30 24 50t57 20q32 0 55.5 -20t23.5 -50q0 -33 -23 -52.5t-56 -19.5q-34 0 -57.5 19.5t-23.5 52.5z" />
    <glyph glyph-name="aring.ss02" horiz-adv-x="591" 
d="M401 0v41q-17 -19 -51 -34t-80 -15q-110 0 -177.5 70t-67.5 197q0 119 72.5 195.5t177.5 76.5q86 0 126 -34v23h145v-520h-145zM301 127q30 0 59 17t41 44v159q-27 49 -95 49q-58 0 -94.5 -35.5t-36.5 -99.5q0 -62 35 -98t91 -36zM177 701q0 54 39 91.5t98 37.5
q60 0 99.5 -37.5t39.5 -91.5q0 -53 -39.5 -90t-99.5 -37q-59 0 -98 37t-39 90zM272 703q0 -20 12 -32t32 -12q19 0 30.5 12t11.5 32q0 19 -11 30.5t-31 11.5t-32 -11.5t-12 -30.5z" />
    <glyph glyph-name="atilde.ss02" horiz-adv-x="591" 
d="M401 0v41q-17 -19 -51 -34t-80 -15q-110 0 -177.5 70t-67.5 197q0 119 72.5 195.5t177.5 76.5q86 0 126 -34v23h145v-520h-145zM301 127q30 0 59 17t41 44v159q-27 49 -95 49q-58 0 -94.5 -35.5t-36.5 -99.5q0 -62 35 -98t91 -36zM207 599l-60 67q55 78 132 78
q24 0 61 -19.5t57 -19.5q36 0 66 27l49 -75q-60 -72 -127 -72q-22 0 -59 19.5t-60 19.5q-28 0 -59 -25z" />
    <glyph glyph-name="kcommaaccent.ss01" horiz-adv-x="532" 
d="M45 0v730h145v-389h18l146 179h186l-203 -237l210 -283h-184l-147 206h-26v-206h-145zM177 -109l121 78q52 -38 52 -94q0 -59 -31 -102.5t-73 -68.5l-69 50q32 34 32 75q0 26 -32 62z" />
    <glyph glyph-name="afii10072.ss01" horiz-adv-x="785" 
d="M465 185v-185h-145v185h-32l-119 -185h-178l181 261l-182 259h176l130 -200h24v200h145v-200h22l132 200h176l-180 -256l179 -264h-178l-121 185h-30z" />
    <glyph glyph-name="K.ss01" horiz-adv-x="701" 
d="M65 0v700h155v-279h49l229 279h193l-281 -336l301 -364h-204l-228 276h-59v-276h-155z" />
    <glyph glyph-name="afii10065.var.accented.ss02" horiz-adv-x="591" 
d="M401 0v41q-17 -19 -51 -34t-80 -15q-110 0 -177.5 70t-67.5 197q0 119 72.5 195.5t177.5 76.5q86 0 126 -34v23h145v-520h-145zM301 127q30 0 59 17t41 44v159q-27 49 -95 49q-58 0 -94.5 -35.5t-36.5 -99.5q0 -62 35 -98t91 -36zM477 751l-132 -164l-100 70l123 176z
" />
    <glyph glyph-name="Kcommaaccent.ss01" horiz-adv-x="701" 
d="M65 0v700h155v-279h49l229 279h193l-281 -336l301 -364h-204l-228 276h-59v-276h-155zM247 -109l121 78q52 -38 52 -94q0 -59 -31 -102.5t-73 -68.5l-69 50q32 34 32 75q0 26 -32 62z" />
    <glyph glyph-name="uniF689.ss01" horiz-adv-x="612" 
d="M53 0v560h150v-209h49l167 209h191l-224 -266l236 -294h-193l-164 211h-62v-211h-150zM209 -109l121 78q52 -38 52 -94q0 -59 -31 -102.5t-73 -68.5l-69 50q32 34 32 75q0 26 -32 62z" />
    <glyph glyph-name="uniF76B.ss01" horiz-adv-x="612" 
d="M53 0v560h150v-209h49l167 209h191l-224 -266l236 -294h-193l-164 211h-62v-211h-150z" />
    <glyph glyph-name="afii10065.ss02" horiz-adv-x="591" 
d="M401 0v41q-17 -19 -51 -34t-80 -15q-110 0 -177.5 70t-67.5 197q0 119 72.5 195.5t177.5 76.5q86 0 126 -34v23h145v-520h-145zM301 127q30 0 59 17t41 44v159q-27 49 -95 49q-58 0 -94.5 -35.5t-36.5 -99.5q0 -62 35 -98t91 -36z" />
    <glyph glyph-name="afii10076.ss01" horiz-adv-x="557" 
d="M45 0v520h145v-200h30l166 200h176l-217 -251l222 -269h-184l-151 185h-42v-185h-145z" />
    <glyph glyph-name="afii10109.ss01" horiz-adv-x="557" 
d="M45 0v520h145v-200h30l166 200h176l-217 -251l222 -269h-184l-151 185h-42v-185h-145zM451 751l-132 -164l-100 70l123 176z" />
    <glyph glyph-name="afii10061.ss01" horiz-adv-x="701" 
d="M65 0v700h155v-279h49l229 279h193l-281 -336l301 -364h-204l-228 276h-59v-276h-155zM547 846l-240 -113l-57 99l228 142z" />
    <glyph glyph-name="uniF37C.ss01" horiz-adv-x="612" 
d="M53 0v560h150v-209h49l167 209h191l-224 -266l236 -294h-193l-164 211h-62v-211h-150zM458 771l-132 -164l-100 70l123 176z" />
    <glyph glyph-name="agrave.ss02" horiz-adv-x="591" 
d="M401 0v41q-17 -19 -51 -34t-80 -15q-110 0 -177.5 70t-67.5 197q0 119 72.5 195.5t177.5 76.5q86 0 126 -34v23h145v-520h-145zM301 127q30 0 59 17t41 44v159q-27 49 -95 49q-58 0 -94.5 -35.5t-36.5 -99.5q0 -62 35 -98t91 -36zM318 587l-147 160l114 86l119 -177z" />
    <glyph glyph-name="amacron.ss02" horiz-adv-x="591" 
d="M401 0v41q-17 -19 -51 -34t-80 -15q-110 0 -177.5 70t-67.5 197q0 119 72.5 195.5t177.5 76.5q86 0 126 -34v23h145v-520h-145zM301 127q30 0 59 17t41 44v159q-27 49 -95 49q-58 0 -94.5 -35.5t-36.5 -99.5q0 -62 35 -98t91 -36zM168 610v120h294v-120h-294z" />
    <glyph glyph-name="k.ss01" horiz-adv-x="532" 
d="M45 0v730h145v-389h18l146 179h186l-203 -237l210 -283h-184l-147 206h-26v-206h-145z" />
    <glyph glyph-name="abreve.ss02" horiz-adv-x="591" 
d="M401 0v41q-17 -19 -51 -34t-80 -15q-110 0 -177.5 70t-67.5 197q0 119 72.5 195.5t177.5 76.5q86 0 126 -34v23h145v-520h-145zM301 127q30 0 59 17t41 44v159q-27 49 -95 49q-58 0 -94.5 -35.5t-36.5 -99.5q0 -62 35 -98t91 -36zM163 707l66 75q47 -52 105 -52
q68 0 110 50l51 -72q-65 -98 -167 -98q-61 0 -103 31t-62 66z" />
    </font>
</defs>
</svg>
