<?xml version="1.0" standalone="no"?>
<!DOCTYPE svg PUBLIC "-//W3C//DTD SVG 1.1//EN" "http://www.w3.org/Graphics/SVG/1.1/DTD/svg11.dtd" >
<svg xmlns="http://www.w3.org/2000/svg" xmlns:xlink="http://www.w3.org/1999/xlink" version="1.1">
<metadata>
Created by FontForge 20161013 at Wed Nov 12 19:06:29 2014
 By ,,,
Copyright (c) 2014 ParaType, Inc., ParaType Ltd. All rights reserved.
</metadata>
<defs>
<font id="Stem-Regular" horiz-adv-x="600" >
  <font-face 
    font-family="Stem"
    font-weight="400"
    font-stretch="normal"
    units-per-em="1000"
    panose-1="2 11 5 3 2 2 3 2 2 4"
    ascent="778"
    descent="-222"
    x-height="520"
    cap-height="700"
    bbox="-505 -262 1257 933"
    underline-thickness="50"
    underline-position="-200"
    unicode-range="U+0020-FEFF"
  />
<missing-glyph horiz-adv-x="300" 
 />
    <glyph glyph-name="uniF350.var.accented" unicode="&#xf350;`" horiz-adv-x="590" 
d="M0 0l261 561h68l261 -561h-92l-62 131h-285l-61 -131h-90zM293 436l-109 -230h219zM424 767l-121 -152l-56 39l113 161z" />
    <glyph glyph-name="uniF355.var.accented" unicode="&#xf355;`" horiz-adv-x="536" 
d="M62 0v560h425v-81h-337v-154h314v-81h-314v-163h345v-81h-433zM408 767l-121 -152l-56 39l113 161z" />
    <glyph glyph-name="uniF358.var.accented" unicode="&#xf358;`" horiz-adv-x="632" 
d="M135 0h-73v560h87v-415l347 415h74v-560h-87v413zM432 767l-121 -152l-56 39l113 161z" />
    <glyph glyph-name="uniF35E.var.accented" unicode="&#xf35e;`" horiz-adv-x="666" 
d="M30 280q0 121 87.5 204t215.5 83q127 0 215 -81.5t88 -205.5q0 -123 -88 -205t-215 -82t-215 81.5t-88 205.5zM121 280q0 -88 62 -145.5t150 -57.5q90 0 151 57t61 146t-62.5 146t-149.5 57q-88 0 -150 -57t-62 -146zM462 767l-121 -152l-56 39l113 161z" />
    <glyph glyph-name="uniF363.var.accented" unicode="&#xf363;`" horiz-adv-x="590" 
d="M164 15l37 72q10 -6 24 -6q31 0 55 49l6 12l-286 418h106l225 -327l169 327h90l-221 -431q-33 -66 -67 -97.5t-79 -31.5q-38 0 -59 15zM426 767l-121 -152l-56 39l113 161z" />
    <glyph glyph-name="uniF36B.var.accented" unicode="&#xf36b;`" horiz-adv-x="729" 
d="M579 0v560h88v-560h-88zM269 276h-120v-195h118q78 0 116.5 24t38.5 78q0 93 -153 93zM149 560v-202h123q119 0 180 -46.5t61 -128.5q0 -90 -65 -136.5t-184 -46.5h-202v560h87zM462 767l-121 -152l-56 39l113 161z" />
    <glyph glyph-name="uniF36D.var.accented" unicode="&#xf36d;`" horiz-adv-x="593" 
d="M171 245v81h301q-11 75 -67.5 119t-146.5 44q-50 0 -102 -22.5t-85 -62.5l-59 56q42 52 110 81t141 29q138 0 219 -78t81 -210q0 -128 -82 -210t-225 -82q-70 0 -137 28t-110 86l60 49q30 -38 83 -60t108 -22q89 0 147 48.5t66 125.5h-302zM386 767l-121 -152l-56 39
l113 161z" />
    <glyph glyph-name="uniF36E.var.accented" unicode="&#xf36e;`" horiz-adv-x="845" 
d="M62 0v560h87v-237h88q15 106 94.5 175t193.5 69q131 0 210.5 -77.5t79.5 -209.5q0 -124 -82.5 -205.5t-207.5 -81.5q-119 0 -197.5 69.5t-91.5 184.5h-87v-247h-87zM324 280q0 -89 57 -146t144 -57q90 0 144.5 56t54.5 147q0 95 -55 149t-144 54q-88 0 -144.5 -56
t-56.5 -147zM544 767l-121 -152l-56 39l113 161z" />
    <glyph glyph-name="uniF36F.var.accented" unicode="&#xf36f;`" horiz-adv-x="583" 
d="M434 0v201h-149l-176 -201h-105l190 216q-71 15 -110.5 57.5t-39.5 103.5q0 81 61 132t177 51h239v-560h-87zM262 282h172v197h-160q-139 0 -139 -101q0 -38 34 -65t93 -31zM428 767l-121 -152l-56 39l113 161z" />
    <glyph glyph-name="uniF371.var.accented" unicode="&#xf371;`" horiz-adv-x="546" 
d="M107 697q0 20 14.5 33.5t34.5 13.5t36 -13.5t16 -33.5q0 -22 -16 -35.5t-36 -13.5t-34.5 13.5t-14.5 35.5zM373 697q0 20 15.5 33.5t37.5 13.5q19 0 34.5 -13.5t15.5 -33.5q0 -22 -15 -35.5t-35 -13.5q-22 0 -37.5 13.5t-15.5 35.5zM381 778l-109 -155l-44 21l81 163z
M62 0v560h435v-81h-347v-154h324v-81h-324v-163h355v-81h-443z" />
    <glyph glyph-name="afii10017.var.accented" unicode="&#x410;`" horiz-adv-x="688" 
d="M1 0l307 702h72l307 -702h-95l-78 177h-343l-77 -177h-93zM342 575l-137 -318h275zM514 852l-200 -97l-31 56l193 115z" />
    <glyph glyph-name="afii10022.var.accented" unicode="&#x415;`" horiz-adv-x="637" 
d="M74 0v700h504v-85h-413v-218h385v-83h-385v-229h422v-85h-513zM494 852l-200 -97l-31 56l193 115z" />
    <glyph glyph-name="afii10026.var.accented" unicode="&#x418;`" horiz-adv-x="742" 
d="M151 0h-77v700h91v-542l424 542h78v-700h-91v542zM528 852l-200 -97l-31 56l193 115z" />
    <glyph glyph-name="afii10032.var.accented" unicode="&#x41e;`" horiz-adv-x="783" 
d="M36 350q0 152 103 255.5t253 103.5q149 0 252 -102t103 -257q0 -153 -103 -256t-252 -103q-150 0 -253 102t-103 257zM131 350q0 -117 76.5 -194.5t184.5 -77.5q111 0 185.5 77t74.5 195t-76.5 195t-183.5 77q-109 0 -185 -77t-76 -195zM539 852l-200 -97l-31 56l193 115
z" />
    <glyph glyph-name="afii10037.var.accented" unicode="&#x423;`" horiz-adv-x="677" 
d="M174 28l45 67q15 -11 32 -11q40 0 83 90l-339 526h109l277 -433l207 433h94l-262 -540q-39 -82 -78.5 -121t-93.5 -39q-46 0 -74 28zM504 852l-200 -97l-31 56l193 115z" />
    <glyph glyph-name="afii10045.var.accented" unicode="&#x42b;`" horiz-adv-x="852" 
d="M687 0v700h91v-700h-91zM316 355h-151v-270h148q193 0 193 141q0 129 -190 129zM165 700v-260h154q139 0 210.5 -56.5t71.5 -157.5q0 -110 -76.5 -168t-215.5 -58h-235v700h91zM582 852l-200 -97l-31 56l193 115z" />
    <glyph glyph-name="afii10047.var.accented" unicode="&#x42d;`" horiz-adv-x="696" 
d="M201 315v85h364q-12 103 -81.5 163.5t-182.5 60.5q-60 0 -122.5 -29t-101.5 -78l-61 58q48 64 127.5 99t163.5 35q163 0 257.5 -96t94.5 -260q0 -160 -96 -261t-264 -101q-82 0 -159 33t-126 101l62 52q35 -48 98 -74.5t130 -26.5q111 0 182 66t80 173h-365zM464 852
l-200 -97l-31 56l193 115z" />
    <glyph glyph-name="afii10048.var.accented" unicode="&#x42e;`" horiz-adv-x="991" 
d="M74 0v700h91v-303h114q17 135 109.5 223.5t227.5 88.5q150 0 244.5 -101t94.5 -258q0 -155 -96 -257t-243 -102q-141 0 -232.5 90t-105.5 235h-113v-316h-91zM370 350q0 -119 70 -196t176 -77q111 0 177.5 76t66.5 197q0 120 -68 196.5t-176 76.5q-107 0 -176.5 -76.5
t-69.5 -196.5zM737 852l-200 -97l-31 56l193 115z" />
    <glyph glyph-name="afii10049.var.accented" unicode="&#x42f;`" horiz-adv-x="676" 
d="M511 0v259h-188l-213 -259h-110l227 274q-84 17 -132 71t-48 135q0 96 70.5 158t205.5 62h279v-700h-91zM297 344h214v271h-197q-88 0 -130 -37t-42 -100q0 -54 41.5 -91.5t113.5 -42.5zM525 852l-200 -97l-31 56l193 115z" />
    <glyph glyph-name="afii10023.var.accented" unicode="&#x401;`" horiz-adv-x="641" 
d="M123 813q0 21 15.5 34.5t39.5 13.5q20 0 36 -14t16 -34q0 -22 -16 -35.5t-36 -13.5q-25 0 -40 13t-15 36zM435 813q0 21 16 34.5t39 13.5q21 0 36.5 -13.5t15.5 -34.5q0 -22 -15.5 -35.5t-36.5 -13.5q-23 0 -39 13t-16 36zM424 900l-104 -148l-50 19l77 160zM74 0v700
h508v-85h-417v-218h389v-83h-389v-229h426v-85h-517z" />
    <glyph glyph-name="afii10065.var.accented" unicode="&#x430;`" horiz-adv-x="534" 
d="M101 395l-43 63q36 34 93 54t115 20q104 0 158.5 -55t54.5 -156v-321h-84v77q-25 -36 -72 -60t-110 -24q-85 0 -137 43.5t-52 115.5q0 82 66 121.5t183 39.5q73 0 122 -15q0 76 -31 115.5t-108 39.5q-78 0 -155 -58zM233 69q59 0 102.5 32t59.5 70v53q-43 15 -111 15
q-171 0 -171 -84q0 -40 33 -63t87 -23zM400 759l-122 -151l-56 39l114 160z" />
    <glyph glyph-name="afii10070.var.accented" unicode="&#x435;`" horiz-adv-x="569" 
d="M463 149l54 -50q-72 -108 -208 -108q-125 0 -201 73.5t-76 196.5q0 119 69.5 195t195.5 76q104 0 172 -65t68 -171q0 -34 -5 -63h-410q4 -77 56 -120t134 -43q46 0 86.5 22t64.5 57zM291 455q-71 0 -115.5 -40t-54.5 -106h327q-4 69 -45.5 107.5t-111.5 38.5zM431 759
l-122 -151l-56 39l114 160z" />
    <glyph glyph-name="afii10074.var.accented" unicode="&#x438;`" 
d="M138 0h-77v520h84v-390l316 390h78v-520h-84v389zM438 759l-122 -151l-56 39l114 160z" />
    <glyph glyph-name="afii10080.var.accented" unicode="&#x43e;`" horiz-adv-x="616" 
d="M32 261q0 119 76.5 195t198.5 76q123 0 200 -76t77 -195q0 -118 -77.5 -194t-199.5 -76q-121 0 -198 76t-77 194zM121 261q0 -83 52 -137t134 -54q83 0 135.5 53t52.5 138t-53.5 138.5t-134.5 53.5t-133.5 -53t-52.5 -139zM443 759l-122 -151l-56 39l114 160z" />
    <glyph glyph-name="afii10085.var.accented" unicode="&#x443;`" horiz-adv-x="521" 
d="M73 -198l33 73q12 -5 22 -5q29 0 52 24t49 86l16 39l-252 501h99l195 -395l147 395h92l-198 -512q-51 -126 -95.5 -172t-101.5 -46q-33 0 -58 12zM406 759l-122 -151l-56 39l114 160z" />
    <glyph glyph-name="afii10093.var.accented" unicode="&#x44b;`" horiz-adv-x="690" 
d="M61 0v520h84v-162h112q115 0 164.5 -49t49.5 -129q0 -79 -53 -129.5t-169 -50.5h-188zM248 278h-103v-198h102q72 0 103.5 25t31.5 74q0 99 -134 99zM545 0v520h85v-520h-85zM453 759l-122 -151l-56 39l114 160z" />
    <glyph glyph-name="afii10095.var.accented" unicode="&#x44d;`" horiz-adv-x="543" 
d="M162 228v76h258q-10 74 -57.5 111.5t-122.5 37.5q-112 0 -168 -83l-64 45q83 117 234 117q124 0 196.5 -73t72.5 -198q0 -119 -72 -194.5t-197 -75.5q-166 0 -233 108l63 47q53 -76 163 -76q79 0 129.5 44t57.5 114h-260zM378 759l-122 -151l-56 39l114 160z" />
    <glyph glyph-name="afii10096.var.accented" unicode="&#x44e;`" horiz-adv-x="811" 
d="M61 0v520h84v-213h104q15 101 86.5 163t176.5 62q118 0 192.5 -76t74.5 -195q0 -118 -75 -194t-192 -76q-109 0 -181 65t-83 171h-103v-227h-84zM335 261q0 -84 50.5 -136t127.5 -52q78 0 127.5 51.5t49.5 136.5q0 84 -49.5 136.5t-127.5 52.5q-76 0 -127 -53t-51 -136z
M539 759l-122 -151l-56 39l114 160z" />
    <glyph glyph-name="afii10097.var.accented" unicode="&#x44f;`" horiz-adv-x="538" 
d="M268 520h209v-520h-84v184h-127l-154 -184h-102l166 197q-60 11 -96.5 53.5t-36.5 102.5q0 74 54 120.5t171 46.5zM132 351q0 -38 33.5 -62.5t90.5 -24.5h137v176h-135q-126 0 -126 -89zM441 759l-122 -151l-56 39l114 160z" />
    <glyph glyph-name="afii10071.var.accented" unicode="&#x451;`" horiz-adv-x="569" 
d="M110 682q0 20 15 33.5t35 13.5t35.5 -13.5t15.5 -33.5q0 -22 -15.5 -35.5t-35.5 -13.5t-35 13.5t-15 35.5zM377 682q0 21 15 34t37 13q20 0 35.5 -13.5t15.5 -33.5q0 -22 -15.5 -35.5t-35.5 -13.5q-22 0 -37 13.5t-15 35.5zM385 763l-109 -155l-45 21l82 163zM463 149
l54 -50q-72 -108 -208 -108q-125 0 -201 73.5t-76 196.5q0 119 69.5 195t195.5 76q104 0 172 -65t68 -171q0 -34 -5 -63h-410q4 -77 56 -120t134 -43q46 0 86.5 22t64.5 57zM291 455q-71 0 -115.5 -40t-54.5 -106h327q-4 69 -45.5 107.5t-111.5 38.5z" />
    <glyph glyph-name="fi" unicode="fi" horiz-adv-x="561" 
d="M2 440v80h96v24q0 101 50.5 147.5t123.5 46.5q48 0 73 -18l-31 -72q-13 10 -38 10q-94 0 -94 -121v-17h154v-80h-154v-440h-84v440h-96zM405 0v520h84v-520h-84zM394 679q0 21 15.5 35t38.5 14q21 0 36.5 -14t15.5 -35q0 -22 -15.5 -37t-36.5 -15q-23 0 -38.5 15
t-15.5 37z" />
    <glyph glyph-name="fl" unicode="fl" horiz-adv-x="503" 
d="M350 0v625q-26 33 -74 33q-94 0 -94 -121v-17h104v-80h-104v-440h-84v440h-96v80h96v24q0 101 50.5 147.5t123.5 46.5q57 0 99 -32l63 27v-733h-84z" />
    <glyph glyph-name=".notdef" horiz-adv-x="300" 
 />
    <glyph glyph-name=".null" horiz-adv-x="0" 
 />
    <glyph glyph-name="nonmarkingreturn" horiz-adv-x="333" 
 />
    <glyph glyph-name="space" unicode=" " horiz-adv-x="300" 
 />
    <glyph glyph-name="exclam" unicode="!" horiz-adv-x="310" 
d="M111 193v507h88v-507h-88zM92 57q0 21 17.5 38.5t44.5 17.5q25 0 42.5 -17.5t17.5 -38.5q0 -24 -17 -41.5t-43 -17.5q-27 0 -44.5 17.5t-17.5 41.5z" />
    <glyph glyph-name="quotedbl" unicode="&#x22;" horiz-adv-x="422" 
d="M85 471v229h87v-229h-87zM250 471v229h87v-229h-87z" />
    <glyph glyph-name="numbersign" unicode="#" horiz-adv-x="697" 
d="M304 11l69 187h-164l-78 -211l-74 24l70 187h-87v75h115l58 154h-173v75h200q32 83 79 211l73 -24l-70 -187h164l78 211l74 -23l-71 -188h91v-75h-118l-58 -154h176v-75h-203l-78 -211zM295 427l-58 -154h164l57 154h-163z" />
    <glyph glyph-name="dollar" unicode="$" horiz-adv-x="594" 
d="M474 186q0 35 -24 59t-62 37.5t-84 25t-92 26t-84 35t-62 58t-24 90.5q0 74 61 127.5t163 62.5v79h84v-80q139 -14 206 -99l-59 -59q-75 75 -198 75q-61 0 -112 -25.5t-51 -78.5q0 -40 32 -66.5t80 -38.5t104 -28.5t104 -35t80 -58.5t32 -99q0 -81 -61 -136t-157 -64v-89
h-84v90q-77 10 -142 46.5t-97 85.5l59 64q37 -48 99 -80.5t138 -32.5q63 0 107 29.5t44 79.5z" />
    <glyph glyph-name="percent" unicode="%" horiz-adv-x="880" 
d="M151 23l517 699l63 -46l-514 -691zM43 532q0 75 52 123t131 48q78 0 130 -48t52 -123q0 -74 -52 -122t-130 -48q-79 0 -131 48t-52 122zM127 532q0 -43 29.5 -71t69.5 -28q41 0 69.5 27.5t28.5 71.5t-29 71.5t-69 27.5q-41 0 -70 -27.5t-29 -71.5zM472 167q0 75 52 122.5
t131 47.5q78 0 130 -47.5t52 -122.5q0 -74 -52 -122.5t-130 -48.5q-79 0 -131 48t-52 123zM556 167q0 -43 29.5 -71t69.5 -28q41 0 69.5 27.5t28.5 71.5t-29 71.5t-69 27.5q-41 0 -70 -27.5t-29 -71.5z" />
    <glyph glyph-name="ampersand" unicode="&#x26;" horiz-adv-x="783" 
d="M768 0h-119q-14 10 -28 22t-23 20.5t-24.5 23t-22.5 21.5q-37 -43 -97 -69.5t-129 -26.5q-118 0 -191.5 56t-73.5 143q0 40 17 75t48 63.5t60 49t68 44.5q4 2 6.5 3.5t5.5 3.5q-67 85 -67 155q0 55 40 90t107 35q72 0 110.5 -34t38.5 -93q0 -86 -118 -168
q46 -72 174 -208q32 50 52 120t20 142h86q0 -86 -26.5 -175t-73.5 -150q65 -71 160 -143zM329 72q45 0 90.5 20t70.5 52q-97 106 -183 220q-6 -4 -26.5 -17.5t-26.5 -18t-22.5 -16t-22.5 -17.5t-18 -17t-16 -18.5t-10.5 -18.5t-8.5 -22t-2 -23q0 -51 47.5 -87.5t127.5 -36.5
zM287 572q0 -9 2.5 -19t4.5 -16.5t8.5 -17.5t9 -14.5t12 -16.5t10.5 -15q72 52 72 101q0 27 -15.5 44t-44.5 17q-27 0 -43 -16t-16 -47z" />
    <glyph glyph-name="quotesingle" unicode="'" horiz-adv-x="257" 
d="M85 471v229h87v-229h-87z" />
    <glyph glyph-name="parenleft" unicode="(" horiz-adv-x="316" 
d="M306 -146l-57 -58q-111 96 -162 219t-51 244q0 120 50.5 241.5t163.5 222.5l55 -58q-183 -171 -183 -406q0 -112 48.5 -216.5t135.5 -188.5z" />
    <glyph glyph-name="parenright" unicode=")" horiz-adv-x="315" 
d="M67 -203l-57 55q90 79 136.5 188.5t46.5 218.5q0 236 -183 405l56 59q113 -101 163 -222.5t50 -241.5q0 -121 -50.5 -244t-161.5 -218z" />
    <glyph glyph-name="asterisk" unicode="*" horiz-adv-x="501" 
d="M296 700l-6 -136l129 47l25 -82l-131 -37l85 -108l-72 -52l-75 111l-76 -113l-73 53l86 110l-132 37l26 82l131 -47l-5 135h88z" />
    <glyph glyph-name="plus" unicode="+" horiz-adv-x="594" 
d="M68 322v76h189v190h79v-190h191v-76h-191v-192h-79v192h-189z" />
    <glyph glyph-name="comma" unicode="," horiz-adv-x="219" 
d="M110 0q-28 -3 -46.5 11.5t-18.5 41.5q0 26 16 41.5t45 15.5q33 0 53 -22t20 -64q0 -75 -36.5 -115t-91.5 -53l-21 47q33 9 59.5 37t20.5 60z" />
    <glyph glyph-name="hyphen" unicode="-" horiz-adv-x="409" 
d="M76 237v77h256v-77h-256z" />
    <glyph glyph-name="period" unicode="." horiz-adv-x="222" 
d="M50 57q0 21 17.5 38.5t44.5 17.5q25 0 42.5 -17.5t17.5 -38.5q0 -24 -17 -41.5t-43 -17.5q-27 0 -44.5 17.5t-17.5 41.5z" />
    <glyph glyph-name="slash" unicode="/" horiz-adv-x="338" 
d="M-34 -177l332 890l74 -24l-332 -894z" />
    <glyph glyph-name="zero" unicode="0" horiz-adv-x="680" 
d="M43 350q0 162 75.5 260t221.5 98q149 0 223.5 -94t74.5 -264q0 -163 -74.5 -260.5t-221.5 -97.5q-141 0 -220 99t-79 259zM135 350q0 -128 55 -200.5t152 -72.5q204 0 204 273t-206 273q-104 0 -154.5 -71.5t-50.5 -201.5z" />
    <glyph glyph-name="one" unicode="1" horiz-adv-x="395" 
d="M3 589l240 115h57v-704h-86v597l-179 -83z" />
    <glyph glyph-name="two" unicode="2" horiz-adv-x="612" 
d="M123 469l-73 26q19 93 87.5 153t180.5 60q108 0 170 -57.5t62 -152.5q0 -50 -19 -98t-46 -84.5t-68 -73.5t-74.5 -60.5t-76.5 -50.5l-77 -48h387v-83h-545v68l152 101q40 26 57 37.5t53 37.5t53.5 42.5t43 43.5t37.5 49.5t21.5 51.5t9.5 58q0 68 -40.5 100t-105.5 32
q-81 0 -128 -45t-61 -107z" />
    <glyph glyph-name="three" unicode="3" horiz-adv-x="617" 
d="M112 496l-75 34q28 81 99 130t180 49q104 0 170 -48t66 -128q0 -61 -31.5 -104t-91.5 -60q58 -4 98.5 -46.5t40.5 -120.5q0 -99 -72 -155t-184 -56q-115 0 -191.5 51t-102.5 137l81 35q64 -137 219 -137q73 0 115.5 32.5t42.5 91.5q0 116 -180 116h-78v83h62q82 0 131 33
t49 83q0 52 -40 80t-108 28q-80 0 -129.5 -36.5t-70.5 -91.5z" />
    <glyph glyph-name="four" unicode="4" horiz-adv-x="672" 
d="M439 0v143h-428v58l438 499h77v-476h130v-81h-130v-143h-87zM131 224h308v336z" />
    <glyph glyph-name="five" unicode="5" horiz-adv-x="629" 
d="M73 341l41 359h440v-85h-363l-26 -188q53 39 159 39q123 0 192.5 -65.5t69.5 -168.5q0 -104 -77.5 -172.5t-193.5 -68.5q-98 0 -174.5 44.5t-110.5 126.5l80 34q22 -50 75.5 -85t129.5 -35q86 0 132.5 44t46.5 109q0 70 -52.5 111.5t-141.5 41.5q-96 0 -155 -60z" />
    <glyph glyph-name="six" unicode="6" horiz-adv-x="665" 
d="M43 331q0 181 89 279.5t222 98.5q88 0 153.5 -37t94.5 -100l-68 -46q-61 97 -184 97q-93 0 -156 -72.5t-62 -199.5q29 55 92 86t138 31q122 0 193 -64.5t71 -169.5q0 -107 -79.5 -175t-197.5 -68q-142 0 -224 88.5t-82 251.5zM143 246q14 -74 68 -121.5t137 -47.5
q81 0 133.5 42.5t52.5 110.5q0 74 -48.5 113t-128.5 39q-89 0 -146.5 -42t-67.5 -94z" />
    <glyph glyph-name="seven" unicode="7" horiz-adv-x="571" 
d="M20 615v85h531v-57l-348 -643h-95l336 615h-424z" />
    <glyph glyph-name="eight" unicode="8" horiz-adv-x="667" 
d="M319 399h31q67 0 112.5 32t45.5 82q0 113 -176 113q-84 0 -128.5 -29.5t-44.5 -83.5q0 -49 45 -81.5t115 -32.5zM348 320h-25q-81 0 -134 -35t-53 -87q0 -57 51 -90.5t146 -33.5q97 0 147.5 32.5t50.5 90.5t-50.5 90.5t-132.5 32.5zM334 -9q-134 0 -212 52.5t-78 145.5
q0 61 37 106.5t101 66.5q-58 19 -86.5 61.5t-28.5 95.5q0 87 70 138.5t196 51.5q127 0 197 -51.5t70 -138.5q0 -101 -111 -152q133 -41 133 -174q0 -95 -77 -148.5t-211 -53.5z" />
    <glyph glyph-name="nine" unicode="9" horiz-adv-x="667" 
d="M625 363q0 -179 -85 -275.5t-228 -96.5q-87 0 -152.5 34t-99.5 90l72 50q30 -42 81.5 -65t110.5 -23q97 0 158 77.5t53 191.5q-25 -57 -84.5 -94.5t-142.5 -37.5q-117 0 -192.5 66.5t-75.5 173.5q0 117 81 186t215 69q135 0 212 -90.5t77 -255.5zM520 457
q-11 70 -59.5 118t-134.5 48q-90 0 -142 -44t-52 -122q0 -74 52 -115.5t140 -41.5q80 0 132.5 48t63.5 109z" />
    <glyph glyph-name="colon" unicode=":" horiz-adv-x="322" 
d="M100 57q0 21 17.5 38.5t44.5 17.5q25 0 42.5 -17.5t17.5 -38.5q0 -24 -17 -41.5t-43 -17.5q-27 0 -44.5 17.5t-17.5 41.5zM100 467q0 21 17.5 38.5t44.5 17.5q25 0 42.5 -17.5t17.5 -38.5q0 -24 -17 -41.5t-43 -17.5q-27 0 -44.5 17.5t-17.5 41.5z" />
    <glyph glyph-name="semicolon" unicode=";" horiz-adv-x="319" 
d="M98 467q0 21 17.5 38.5t44.5 17.5q25 0 42.5 -17.5t17.5 -38.5q0 -24 -17 -41.5t-43 -17.5q-27 0 -44.5 17.5t-17.5 41.5zM160 0q-28 -3 -46.5 11.5t-18.5 41.5q0 26 16 41.5t45 15.5q33 0 53 -22t20 -64q0 -75 -36.5 -115t-91.5 -53l-21 47q33 9 59.5 37t20.5 60z" />
    <glyph glyph-name="less" unicode="&#x3c;" horiz-adv-x="570" 
d="M481 70l-436 274v35l436 272v-92l-319 -198l319 -199v-92z" />
    <glyph glyph-name="equal" unicode="=" horiz-adv-x="583" 
d="M68 412v74h448v-74h-448zM68 233v74h448v-74h-448z" />
    <glyph glyph-name="greater" unicode="&#x3e;" horiz-adv-x="570" 
d="M526 344l-437 -274v92l320 199l-320 198v92l437 -272v-35z" />
    <glyph glyph-name="question" unicode="?" horiz-adv-x="605" 
d="M473 518q0 46 -42.5 75t-111.5 29q-71 0 -124 -34.5t-67 -97.5l-78 22q8 81 80.5 139t190.5 58q113 0 178.5 -51t65.5 -132q0 -54 -25 -96.5t-61 -67.5t-72 -46t-61 -44t-25 -49q0 -12 4 -31l-81 -1q-8 29 -6 55q2 37 27.5 66t59.5 49t67.5 40t57 49.5t23.5 67.5zM221 57
q0 21 17.5 38.5t44.5 17.5q25 0 42.5 -17.5t17.5 -38.5q0 -24 -17 -41.5t-43 -17.5q-27 0 -44.5 17.5t-17.5 41.5z" />
    <glyph glyph-name="at" unicode="@" horiz-adv-x="990" 
d="M618 0v40q-51 -49 -136 -49q-100 0 -162.5 65.5t-62.5 172.5q0 102 73.5 171.5t183.5 69.5t189 -55v-336q71 4 108.5 56t37.5 139q0 140 -96 225.5t-249 85.5q-155 0 -259 -100t-104 -254q0 -151 103 -253t260 -102q64 0 121 16l7 -77q-61 -16 -128 -16
q-197 0 -320.5 123.5t-123.5 308.5t125.5 308.5t318.5 123.5q189 0 307.5 -107.5t118.5 -279.5q0 -111 -63.5 -193.5t-179.5 -82.5h-69zM496 68q35 0 69.5 19t52.5 45v233q-49 28 -105 28q-72 0 -120 -48t-48 -119q0 -72 41.5 -115t109.5 -43z" />
    <glyph glyph-name="A" unicode="A" horiz-adv-x="688" 
d="M1 0l307 702h72l307 -702h-95l-78 177h-343l-77 -177h-93zM342 575l-137 -318h275z" />
    <glyph glyph-name="B" unicode="B" horiz-adv-x="673" 
d="M74 0v700h283q134 0 190.5 -46t56.5 -128q0 -117 -99 -160q58 -12 91 -55t33 -111q0 -103 -73 -151.5t-204 -48.5h-278zM361 316h-196v-231h186q95 0 139.5 29t44.5 91q0 111 -174 111zM349 615h-184v-216h199q67 0 107 28.5t40 79.5q0 56 -36.5 82t-125.5 26z" />
    <glyph glyph-name="C" unicode="C" horiz-adv-x="688" 
d="M617 172l52 -58q-40 -56 -113.5 -89.5t-158.5 -33.5q-165 0 -263 97.5t-98 261.5q0 154 97.5 256.5t256.5 102.5q90 0 160.5 -32.5t108.5 -83.5l-59 -57q-86 86 -208 86q-121 0 -191 -75t-70 -197q0 -123 75 -197.5t197 -74.5q130 0 214 94z" />
    <glyph glyph-name="D" unicode="D" horiz-adv-x="712" 
d="M74 0v700h216q103 0 179.5 -27t120.5 -75t65 -107.5t21 -130.5q0 -159 -100 -259.5t-296 -100.5h-206zM288 615h-123v-530h121q150 0 223 74.5t73 200.5q0 118 -70 186.5t-224 68.5z" />
    <glyph glyph-name="E" unicode="E" horiz-adv-x="637" 
d="M74 0v700h504v-85h-413v-218h385v-83h-385v-229h422v-85h-513z" />
    <glyph glyph-name="F" unicode="F" horiz-adv-x="601" 
d="M74 0v700h503v-85h-411v-240h383v-85h-383v-290h-92z" />
    <glyph glyph-name="G" unicode="G" horiz-adv-x="710" 
d="M394 275v83h280v-261q-46 -49 -119.5 -77.5t-150.5 -28.5q-161 0 -264.5 98.5t-103.5 260.5q0 151 102.5 255t254.5 104q179 0 264 -106l-57 -59q-71 78 -201 78q-120 0 -194 -75t-74 -197q0 -125 76.5 -198.5t198.5 -73.5q108 0 181 60v137h-193z" />
    <glyph glyph-name="H" unicode="H" horiz-adv-x="747" 
d="M582 0v313h-417v-313h-91v700h91v-302h417v302h91v-700h-91z" />
    <glyph glyph-name="I" unicode="I" horiz-adv-x="239" 
d="M74 0v700h91v-700h-91z" />
    <glyph glyph-name="J" unicode="J" horiz-adv-x="477" 
d="M413 700v-488q0 -105 -56.5 -163t-151.5 -58q-77 0 -130 37.5t-79 89.5l68 52q22 -41 57.5 -68t76.5 -26q62 1 93 35.5t31 116.5v472h91z" />
    <glyph glyph-name="K" unicode="K" horiz-adv-x="661" 
d="M74 0v700h91v-338l354 338h119l-330 -317l354 -383h-120l-302 323l-75 -72v-251h-91z" />
    <glyph glyph-name="L" unicode="L" horiz-adv-x="590" 
d="M74 0v700h91v-615h415v-85h-506z" />
    <glyph glyph-name="M" unicode="M" horiz-adv-x="837" 
d="M74 0v700h84l266 -352l257 352h82v-700h-91v543l-239 -322h-22l-246 322v-543h-91z" />
    <glyph glyph-name="N" unicode="N" horiz-adv-x="736" 
d="M662 0h-71l-429 534v-534h-88v700h72l428 -536v536h88v-700z" />
    <glyph glyph-name="O" unicode="O" horiz-adv-x="783" 
d="M36 350q0 152 103 255.5t253 103.5q149 0 252 -102t103 -257q0 -153 -103 -256t-252 -103q-150 0 -253 102t-103 257zM131 350q0 -117 76.5 -194.5t184.5 -77.5q111 0 185.5 77t74.5 195t-76.5 195t-183.5 77q-109 0 -185 -77t-76 -195z" />
    <glyph glyph-name="P" unicode="P" horiz-adv-x="663" 
d="M165 0h-91v700h272q287 0 287 -220q0 -95 -69.5 -158.5t-218.5 -63.5h-180v-258zM350 615h-185v-273h178q99 0 147.5 37t48.5 102q0 134 -189 134z" />
    <glyph glyph-name="Q" unicode="Q" horiz-adv-x="783" 
d="M36 350q0 152 103 255.5t253 103.5q149 0 252 -102t103 -257q0 -149 -111 -262l70 -84l-62 -52l-72 87q-85 -48 -180 -48q-153 0 -254.5 101.5t-101.5 257.5zM131 350q0 -118 75 -195t186 -77q67 0 125 34l-60 72l58 51l64 -77q73 76 73 192q0 118 -75 195t-185 77
q-111 0 -186 -76.5t-75 -195.5z" />
    <glyph glyph-name="R" unicode="R" horiz-adv-x="678" 
d="M165 0h-91v700h268q271 0 271 -210q0 -74 -47 -128t-124 -70l224 -292h-111l-208 274h-182v-274zM339 615h-174v-256h180q80 0 127.5 35.5t47.5 95.5q0 125 -181 125z" />
    <glyph glyph-name="S" unicode="S" horiz-adv-x="613" 
d="M480 186q0 35 -24 59t-62 37.5t-84 25t-92 26t-84 35t-62 58t-24 90.5q0 81 71.5 136.5t187.5 55.5q176 0 255 -102l-59 -59q-75 75 -198 75q-61 0 -112 -25.5t-51 -78.5q0 -40 32 -66.5t80 -38.5t104 -28.5t104 -35t80 -58.5t32 -99q0 -89 -72 -145.5t-182 -56.5
q-90 0 -169.5 39.5t-117.5 95.5l59 64q37 -48 99 -80.5t138 -32.5q63 0 107 29.5t44 79.5z" />
    <glyph glyph-name="T" unicode="T" horiz-adv-x="583" 
d="M3 615v85h578v-85h-244v-615h-91v615h-243z" />
    <glyph glyph-name="U" unicode="U" horiz-adv-x="730" 
d="M660 700v-404q0 -151 -84 -227.5t-202 -76.5q-130 0 -217 81t-87 229v398h91v-385q0 -112 60.5 -174.5t152.5 -62.5q95 0 145 62t50 170v390h91z" />
    <glyph glyph-name="V" unicode="V" horiz-adv-x="714" 
d="M718 700l-320 -700h-66l-336 700h98l273 -572l256 572h95z" />
    <glyph glyph-name="W" unicode="W" horiz-adv-x="964" 
d="M962 700l-208 -700h-78l-190 544l-187 -544h-78l-218 700h95l167 -540l183 540h77l188 -539l159 539h90z" />
    <glyph glyph-name="X" unicode="X" horiz-adv-x="660" 
d="M639 700l-253 -344l261 -356h-109l-208 283l-208 -283h-109l262 356l-251 344h108l199 -271l198 271h110z" />
    <glyph glyph-name="Y" unicode="Y" horiz-adv-x="632" 
d="M642 700l-282 -435v-265h-91v265l-279 435h111l216 -339l219 339h106z" />
    <glyph glyph-name="Z" unicode="Z" horiz-adv-x="631" 
d="M31 615v85h570v-61l-459 -554h469v-85h-598v61l457 554h-439z" />
    <glyph glyph-name="bracketleft" unicode="[" horiz-adv-x="324" 
d="M60 -191v901h256v-83h-167v-735h167v-83h-256z" />
    <glyph glyph-name="backslash" unicode="\" horiz-adv-x="338" 
d="M40 713l332 -890l-74 -28l-332 894z" />
    <glyph glyph-name="bracketright" unicode="]" horiz-adv-x="324" 
d="M264 710v-901h-257v83h168v735h-168v83h257z" />
    <glyph glyph-name="asciicircum" unicode="^" horiz-adv-x="499" 
d="M35 429l188 279h54l187 -279h-96l-118 180l-119 -180h-96z" />
    <glyph glyph-name="underscore" unicode="_" horiz-adv-x="311" 
d="M0 -191v79h311v-79h-311z" />
    <glyph glyph-name="grave" unicode="`" horiz-adv-x="370" 
d="M320 608l-128 149l66 50l112 -159z" />
    <glyph glyph-name="a" unicode="a" horiz-adv-x="534" 
d="M101 395l-43 63q36 34 93 54t115 20q104 0 158.5 -55t54.5 -156v-321h-84v77q-25 -36 -72 -60t-110 -24q-85 0 -137 43.5t-52 115.5q0 82 66 121.5t183 39.5q73 0 122 -15q0 76 -31 115.5t-108 39.5q-78 0 -155 -58zM233 69q59 0 102.5 32t59.5 70v53q-43 15 -111 15
q-171 0 -171 -84q0 -40 33 -63t87 -23z" />
    <glyph glyph-name="b" unicode="b" horiz-adv-x="592" 
d="M61 95v635h84v-273q65 75 172 75q113 0 178 -72.5t65 -190.5q0 -128 -73 -203t-196 -75q-68 0 -132.5 29.5t-97.5 74.5zM304 453q-51 0 -93.5 -28.5t-65.5 -71.5v-218q26 -30 68 -47.5t84 -17.5q76 0 125 52t49 142q0 88 -46 138.5t-121 50.5z" />
    <glyph glyph-name="c" unicode="c" horiz-adv-x="532" 
d="M464 150l60 -43q-29 -55 -89 -85.5t-125 -30.5q-125 0 -201.5 73.5t-76.5 196.5q0 117 76 194t197 77q70 0 127.5 -29t83.5 -77l-65 -44q-52 71 -144 71q-81 0 -133.5 -54t-52.5 -138q0 -86 54.5 -138.5t142.5 -52.5q93 0 146 80z" />
    <glyph glyph-name="d" unicode="d" horiz-adv-x="595" 
d="M450 0v62q-17 -27 -60 -49t-102 -22q-115 0 -185.5 72t-70.5 196q0 120 76 196.5t187 76.5q104 0 155 -51v249h84v-730h-84zM300 71q53 0 92.5 31t57.5 68v210q-50 73 -145 73q-77 0 -130.5 -53t-53.5 -139q0 -87 50 -138.5t129 -51.5z" />
    <glyph glyph-name="e" unicode="e" horiz-adv-x="569" 
d="M463 149l54 -50q-72 -108 -208 -108q-125 0 -201 73.5t-76 196.5q0 119 69.5 195t195.5 76q104 0 172 -65t68 -171q0 -34 -5 -63h-410q4 -77 56 -120t134 -43q46 0 86.5 22t64.5 57zM291 455q-71 0 -115.5 -40t-54.5 -106h327q-4 69 -45.5 107.5t-111.5 38.5z" />
    <glyph glyph-name="f" unicode="f" horiz-adv-x="339" 
d="M2 440v80h96v24q0 101 50.5 147.5t123.5 46.5q40 0 74.5 -16.5t53.5 -44.5l-50 -52q-26 33 -74 33q-94 0 -94 -121v-17h161v-80h-161v-440h-84v440h-96z" />
    <glyph glyph-name="g" unicode="g" horiz-adv-x="593" 
d="M533 520v-480q0 -126 -63.5 -187.5t-169.5 -61.5q-85 0 -147.5 34t-84.5 92l75 33q17 -34 55.5 -56.5t96.5 -22.5q75 0 114 40.5t39 113.5v31q-29 -34 -62.5 -49.5t-94.5 -15.5q-118 0 -188.5 72.5t-70.5 197.5q0 123 74.5 196.5t185.5 73.5q55 0 95.5 -16.5t60.5 -40.5
v46h85zM305 70q53 0 91 29t52 70v209q-19 33 -56.5 53.5t-87.5 20.5q-78 0 -130.5 -51t-52.5 -142q0 -88 49.5 -138.5t134.5 -50.5z" />
    <glyph glyph-name="h" unicode="h" horiz-adv-x="588" 
d="M61 0v730h84v-278q60 79 169 79q219 0 219 -236v-295h-84v287q0 84 -37 124.5t-114 40.5q-52 0 -92 -30t-61 -78v-344h-84z" />
    <glyph glyph-name="i" unicode="i" horiz-adv-x="228" 
d="M72 0v520h84v-520h-84zM61 689q0 21 15.5 35t38.5 14q21 0 36.5 -14t15.5 -35q0 -22 -15.5 -37t-36.5 -15q-23 0 -38.5 15t-15.5 37z" />
    <glyph glyph-name="j" unicode="j" horiz-adv-x="229" 
d="M159 520v-548q0 -82 -41 -131.5t-121 -49.5q-50 0 -89 21t-58 61l72 40q21 -42 71 -42q82 0 82 111v538h84zM63 690q0 21 15.5 34.5t38.5 13.5q22 0 36.5 -13.5t14.5 -34.5q0 -23 -14 -37.5t-37 -14.5t-38.5 14.5t-15.5 37.5z" />
    <glyph glyph-name="k" unicode="k" horiz-adv-x="524" 
d="M61 0v730h84v-441l252 231h113l-250 -231l267 -289h-111l-230 242l-41 -34v-208h-84z" />
    <glyph glyph-name="l" unicode="l" horiz-adv-x="222" 
d="M69 0v730h84v-730h-84z" />
    <glyph glyph-name="m" unicode="m" horiz-adv-x="869" 
d="M815 345v-345h-84v319q0 133 -108 133q-98 0 -143 -95v-357h-84v346q0 47 -29 76.5t-79 29.5t-88 -32t-55 -73v-347h-84v520h84v-70q23 36 65.5 58.5t93.5 22.5q111 0 153 -81q61 81 171 81q87 0 137 -45t50 -141z" />
    <glyph glyph-name="n" unicode="n" horiz-adv-x="589" 
d="M61 0v520h84v-68q25 38 72.5 58.5t105.5 20.5q211 0 211 -235v-296h-84v286q0 86 -37.5 126t-114.5 40q-48 0 -90 -29t-63 -76v-347h-84z" />
    <glyph glyph-name="o" unicode="o" horiz-adv-x="616" 
d="M32 261q0 119 76.5 195t198.5 76q123 0 200 -76t77 -195q0 -118 -77.5 -194t-199.5 -76q-121 0 -198 76t-77 194zM121 261q0 -83 52 -137t134 -54q83 0 135.5 53t52.5 138t-53.5 138.5t-134.5 53.5t-133.5 -53t-52.5 -139z" />
    <glyph glyph-name="p" unicode="p" horiz-adv-x="594" 
d="M61 -200v720h84v-65q52 77 168 77q114 0 181.5 -73t67.5 -190q0 -120 -72.5 -199t-186.5 -79q-105 0 -158 53v-244h-84zM304 453q-57 0 -99 -32t-60 -76v-194q45 -81 151 -81q77 0 127 54t50 139q0 87 -45.5 138.5t-123.5 51.5z" />
    <glyph glyph-name="q" unicode="q" horiz-adv-x="593" 
d="M448 -200v249q-53 -58 -157 -58q-117 0 -188 73.5t-71 196.5q0 117 79.5 193.5t194.5 76.5q99 0 142 -45v34h85v-720h-85zM301 70q50 0 89 24.5t58 64.5v229q-44 64 -142 64q-77 0 -131 -55.5t-54 -137.5q0 -86 50.5 -137.5t129.5 -51.5z" />
    <glyph glyph-name="r" unicode="r" horiz-adv-x="354" 
d="M61 0v520h84v-40q13 26 43 38.5t64 12.5q69 0 106 -47l-53 -58q-19 26 -62 26q-34 0 -61.5 -25t-36.5 -65v-362h-84z" />
    <glyph glyph-name="s" unicode="s" horiz-adv-x="497" 
d="M380 142q0 33 -34 53t-82.5 30.5t-97.5 24.5t-83 47t-34 86q0 69 59.5 109t156.5 40q65 0 115.5 -25t78.5 -65l-59 -55q-49 66 -150 66q-45 0 -78.5 -17t-33.5 -49q0 -30 34 -47t82.5 -28t97 -26t82.5 -51t34 -92q0 -76 -56.5 -114t-151.5 -38q-80 0 -143.5 33.5
t-91.5 89.5l67 47q23 -41 72.5 -66t109.5 -25q106 0 106 72z" />
    <glyph glyph-name="t" unicode="t" horiz-adv-x="420" 
d="M6 440v80h108v133h84v-133h179v-80h-179v-229q0 -76 21 -107t69 -31q47 0 94 37l38 -62q-50 -55 -147 -55q-77 0 -118 50t-41 146v251h-108z" />
    <glyph glyph-name="u" unicode="u" horiz-adv-x="581" 
d="M521 523v-523h-84v74q-60 -83 -169 -83q-108 0 -161 56t-53 175v301h84v-289q0 -164 137 -164q54 0 96 29.5t66 83.5v340h84z" />
    <glyph glyph-name="v" unicode="v" horiz-adv-x="512" 
d="M525 520l-233 -520h-62l-243 520h97l179 -389l172 389h90z" />
    <glyph glyph-name="w" unicode="w" horiz-adv-x="761" 
d="M767 520l-169 -520h-68l-146 390l-148 -390h-66l-176 520h90l125 -380l142 380h66l145 -383l119 383h86z" />
    <glyph glyph-name="x" unicode="x" horiz-adv-x="535" 
d="M522 520l-199 -251l209 -269h-105l-161 209l-163 -209h-100l208 268l-197 252h105l150 -191l151 191h102z" />
    <glyph glyph-name="y" unicode="y" horiz-adv-x="521" 
d="M73 -198l33 73q12 -5 22 -5q29 0 52 24t49 86l16 39l-252 501h99l195 -395l147 395h92l-198 -512q-51 -126 -95.5 -172t-101.5 -46q-33 0 -58 12z" />
    <glyph glyph-name="z" unicode="z" horiz-adv-x="496" 
d="M36 441v79h440v-55l-329 -386h323v-79h-450v56l329 385h-313z" />
    <glyph glyph-name="braceleft" unicode="{" horiz-adv-x="330" 
d="M102 -54v185q0 91 -86 91v75q40 0 63 20t23 73v177q0 74 33 108.5t109 34.5h70v-77h-53q-39 0 -56 -22t-17 -66v-176q0 -42 -17 -71t-49 -37q66 -14 66 -109v-182q0 -48 17 -66t59 -18h50v-77h-77q-67 0 -101 33t-34 104z" />
    <glyph glyph-name="bar" unicode="|" horiz-adv-x="318" 
d="M116 0v700h86v-700h-86z" />
    <glyph glyph-name="braceright" unicode="}" horiz-adv-x="330" 
d="M228 131v-185q0 -71 -34 -104t-101 -33h-77v77h50q42 0 59 18t17 66v182q0 95 66 109q-32 8 -49 37t-17 71v176q0 44 -17 66t-56 22h-53v77h70q76 0 109 -34.5t33 -108.5v-177q0 -53 23 -73t63 -20v-75q-86 0 -86 -91z" />
    <glyph glyph-name="asciitilde" unicode="~" horiz-adv-x="578" 
d="M83 300l-43 57q86 84 167 72q33 -5 96.5 -36t98.5 -31q54 0 99 53l37 -59q-63 -68 -133 -68q-46 0 -114 35t-105 35q-50 0 -103 -58z" />
    <glyph glyph-name="uni00A0" unicode="&#xa0;" horiz-adv-x="300" 
 />
    <glyph glyph-name="exclamdown" unicode="&#xa1;" horiz-adv-x="310" 
d="M111 -182v507h88v-507h-88zM92 461q0 24 17.5 41.5t44.5 17.5q26 0 43 -17.5t17 -41.5q0 -21 -17.5 -38.5t-42.5 -17.5q-27 0 -44.5 17.5t-17.5 38.5z" />
    <glyph glyph-name="cent" unicode="&#xa2;" horiz-adv-x="532" 
d="M464 150l60 -43q-25 -48 -75.5 -78t-108.5 -36v-193h-88v196q-101 16 -160.5 86.5t-59.5 178.5q0 103 60 176.5t160 89.5v173h88v-170q59 -7 106 -34.5t70 -69.5l-65 -44q-46 62 -118 69v-381q81 7 131 80zM121 261q0 -70 37 -119t101 -65v370q-62 -15 -100 -65.5
t-38 -120.5z" />
    <glyph glyph-name="sterling" unicode="&#xa3;" horiz-adv-x="592" 
d="M71 271v71h68q-4 9 -15 34t-16 39t-10 39t-5 52q0 82 60 142t157 60q128 0 202 -83l-48 -66q-64 64 -154 64q-51 0 -88 -34t-37 -88q0 -26 7.5 -51t21.5 -57.5t20 -50.5h170v-71h-155q2 -18 2 -29q0 -74 -35 -121q32 0 97.5 -23t100.5 -23q33 0 54.5 11.5t50.5 42.5
l43 -63q-63 -69 -148 -69q-40 0 -112.5 24.5t-112.5 24.5q-61 0 -118 -54l-39 64q42 42 88 57q42 55 42 124q0 17 -3 34h-88z" />
    <glyph glyph-name="currency" unicode="&#xa4;" horiz-adv-x="611" 
d="M73 347q0 77 42 137l-87 88l54 55l89 -89q57 42 135 42q79 0 135 -42l94 93l55 -54l-94 -94q43 -62 43 -136q0 -76 -42 -135l89 -90l-54 -55l-90 90q-60 -43 -136 -43q-78 0 -137 43l-94 -94l-53 54l93 95q-42 59 -42 135zM157 347q0 -65 41.5 -110t107.5 -45
q67 0 108 45t41 110q0 66 -41.5 110.5t-107.5 44.5q-67 0 -108 -44.5t-41 -110.5z" />
    <glyph glyph-name="yen" unicode="&#xa5;" horiz-adv-x="645" 
d="M97 304v74h126l-227 322h111l216 -309l219 309h106l-230 -322h128v-74h-180v-106h180v-74h-180v-124h-91v124h-178v74h178v106h-178z" />
    <glyph glyph-name="brokenbar" unicode="&#xa6;" horiz-adv-x="318" 
d="M202 420h-86v280h86v-280zM116 280h86v-280h-86v280z" />
    <glyph glyph-name="section" unicode="&#xa7;" horiz-adv-x="514" 
d="M56 254q0 61 32 106.5t81 62.5q-65 45 -65 125q0 68 46.5 110t118.5 42q93 0 150 -75l-57 -52q-40 44 -89 44q-34 0 -57.5 -22.5t-23.5 -54.5q0 -61 83 -98q82 -6 132.5 -58.5t50.5 -129.5q0 -60 -32.5 -106t-82.5 -65q29 -18 47.5 -50t18.5 -68q0 -70 -44.5 -113
t-120.5 -43q-94 0 -149 72l54 61q40 -50 95 -50q33 0 56 22.5t23 55.5q0 62 -85 95q-84 7 -133 59t-49 130zM142 254q0 -49 34 -82t81 -33q49 0 82 33t33 82t-33.5 82t-81.5 33t-81.5 -33.5t-33.5 -81.5z" />
    <glyph glyph-name="dieresis" unicode="&#xa8;" horiz-adv-x="468" 
d="M135 682q0 20 15 33.5t35 13.5t35.5 -13.5t15.5 -33.5q0 -22 -15.5 -35.5t-35.5 -13.5t-35 13.5t-15 35.5zM364 682q0 20 15.5 33.5t37.5 13.5q20 0 35.5 -13.5t15.5 -33.5q0 -22 -15.5 -35.5t-35.5 -13.5q-22 0 -37.5 13.5t-15.5 35.5z" />
    <glyph glyph-name="copyright" unicode="&#xa9;" horiz-adv-x="990" 
d="M63 227q0 180 124 304t308 124t307.5 -122.5t123.5 -305.5q0 -182 -123.5 -305t-307.5 -123q-186 0 -309 121.5t-123 306.5zM142 227q0 -149 101 -251.5t252 -102.5q152 0 252 102t100 252q0 152 -99 253t-253 101q-150 0 -251.5 -103t-101.5 -251zM644 131l45 -55
q-29 -39 -79 -62t-102 -23q-110 0 -178.5 66t-68.5 174q0 101 67.5 170t166.5 69q119 0 185 -72l-50 -55q-52 50 -124 50q-18 0 -40 -5q-53 -12 -83.5 -55t-30.5 -100q0 -23 4 -42q10 -57 54 -90t102 -33q78 0 132 63z" />
    <glyph glyph-name="ordfeminine" unicode="&#xaa;" horiz-adv-x="446" 
d="M100 536l-29 57q59 41 153 43q76 0 116 -35t40 -99v-202h-75v43q-38 -49 -122 -49q-61 0 -98 28t-37 73q0 52 46 79t126 27q53 0 85 -9q0 40 -21 58.5t-71 18.5q-54 0 -113 -33zM204 360q36 0 62.5 16.5t38.5 36.5v22q-47 11 -91 11q-39 0 -63 -11.5t-24 -33.5
q0 -41 77 -41z" />
    <glyph glyph-name="guillemotleft" unicode="&#xab;" horiz-adv-x="531" 
d="M226 38l-182 214v6l183 210l57 -51l-140 -163l140 -163zM419 38l-182 214v6l184 210l57 -51l-141 -163l140 -163z" />
    <glyph glyph-name="logicalnot" unicode="&#xac;" horiz-adv-x="564" 
d="M49 322v75h466v-200h-72v125h-394z" />
    <glyph glyph-name="uni00AD" unicode="&#xad;" horiz-adv-x="409" 
d="M76 237v77h256v-77h-256z" />
    <glyph glyph-name="registered" unicode="&#xae;" horiz-adv-x="577" 
d="M45 490q0 99 71.5 169.5t173.5 70.5q100 0 171 -70.5t71 -169.5q0 -100 -71 -170.5t-171 -70.5q-102 0 -173.5 70.5t-71.5 170.5zM88 489q0 -83 58.5 -140.5t142.5 -57.5q82 0 141 59.5t59 138.5q0 82 -59.5 140t-140.5 58q-83 0 -142 -58.5t-59 -139.5zM246 350h-61v285
h98q116 0 116 -90q0 -29 -16 -51t-42 -31l76 -113h-71l-61 94h-39v-94zM333 539q0 24 -12.5 33.5t-38.5 9.5h-36v-84h39q19 0 33.5 11.5t14.5 29.5z" />
    <glyph glyph-name="macron" unicode="&#xaf;" horiz-adv-x="448" 
d="M179 638v74h269v-74h-269z" />
    <glyph glyph-name="degree" unicode="&#xb0;" horiz-adv-x="404" 
d="M45 559q0 65 46 109.5t111 44.5q66 0 111.5 -43.5t45.5 -108.5q0 -64 -46 -109.5t-111 -45.5t-111 44.5t-46 108.5zM124 560q0 -33 23 -55t55 -22q31 0 54.5 22.5t23.5 54.5t-23.5 54t-54.5 22q-32 0 -55 -22t-23 -54z" />
    <glyph glyph-name="plusminus" unicode="&#xb1;" horiz-adv-x="568" 
d="M60 398v74h186v190h75v-190h188v-74h-188v-124h-75v124h-186zM60 155v74h449v-74h-449z" />
    <glyph glyph-name="twosuperior" unicode="&#xb2;" horiz-adv-x="417" 
d="M97 585l-58 33q20 48 67 77.5t105 29.5q70 0 111 -33t41 -89q0 -106 -136 -192l-62 -40h216v-71h-340v62l99 64q68 45 106 83.5t38 78.5q0 66 -77 66q-72 0 -110 -69z" />
    <glyph glyph-name="threesuperior" unicode="&#xb3;" horiz-adv-x="426" 
d="M100 599l-55 39q52 87 174 87q70 0 111 -28t41 -77q0 -70 -67 -97q79 -20 79 -102q0 -59 -49 -92.5t-122 -33.5q-57 0 -106.5 25.5t-72.5 72.5l60 38q13 -29 46 -47t73 -18q91 0 91 58q0 57 -90 57h-55v64h44q42 0 66 15.5t24 43.5q0 50 -75 50q-42 0 -69 -13t-48 -42z
" />
    <glyph glyph-name="acute" unicode="&#xb4;" horiz-adv-x="441" 
d="M425 759l-122 -151l-56 39l114 160z" />
    <glyph glyph-name="mu" unicode="&#xb5;" horiz-adv-x="587" 
d="M526 520v-520h-84v60q-62 -69 -175 -69q-78 0 -122 43v-234h-84v720h84v-286q0 -84 33.5 -124t106.5 -40q45 0 89 22.5t68 53.5v374h84z" />
    <glyph glyph-name="mu" unicode="&#x3bc;" horiz-adv-x="587" 
d="M526 520v-520h-84v60q-62 -69 -175 -69q-78 0 -122 43v-234h-84v720h84v-286q0 -84 33.5 -124t106.5 -40q45 0 89 22.5t68 53.5v374h84z" />
    <glyph glyph-name="paragraph" unicode="&#xb6;" horiz-adv-x="441" 
d="M41 475q0 105 58.5 165t158.5 60h153v-76h-89v-598q0 -49 -5 -83t-20 -69t-48.5 -53.5t-84.5 -18.5q-73 0 -118 45l38 65q35 -28 76 -28q44 0 60 33t16 108v228q-85 6 -140 65t-55 157z" />
    <glyph glyph-name="periodcentered" unicode="&#xb7;" horiz-adv-x="236" 
d="M58 299q0 19 15.5 34t39.5 15q22 0 37.5 -15t15.5 -34q0 -21 -15.5 -37t-37.5 -16q-24 0 -39.5 15.5t-15.5 37.5z" />
    <glyph glyph-name="cedilla" unicode="&#xb8;" horiz-adv-x="430" 
d="M200 -170l25 49q39 -22 77 -22q49 0 49 28q0 29 -55 29h-18v86h52v-37q50 -2 75 -24t25 -58q0 -37 -31.5 -61t-93.5 -24q-60 0 -105 34z" />
    <glyph glyph-name="onesuperior" unicode="&#xb9;" horiz-adv-x="302" 
d="M10 653l162 70h58v-423h-78v337l-115 -49z" />
    <glyph glyph-name="ordmasculine" unicode="&#xba;" horiz-adv-x="462" 
d="M53 465q0 76 49.5 123.5t127.5 47.5q79 0 129 -47.5t50 -123.5q0 -75 -50 -123t-129 -48q-77 0 -127 48t-50 123zM132 465q0 -43 29 -70.5t69 -27.5q43 0 71.5 27t28.5 71t-29 71t-71 27q-41 0 -69.5 -27t-28.5 -71z" />
    <glyph glyph-name="guillemotright" unicode="&#xbb;" horiz-adv-x="531" 
d="M478 252l-182 -214l-58 53l140 163l-140 163l57 51l183 -210v-6zM285 252l-182 -214l-59 53l141 163l-141 163l57 51l184 -210v-6z" />
    <glyph glyph-name="onequarter" unicode="&#xbc;" horiz-adv-x="875" 
d="M101 38l548 674l60 -48l-546 -677zM33 653l162 70h58v-423h-78v337l-115 -49zM684 0v87h-265v55l271 278h69v-264h84v-69h-84v-87h-75zM516 156h168v167z" />
    <glyph glyph-name="onehalf" unicode="&#xbd;" horiz-adv-x="913" 
d="M101 38l548 674l60 -48l-546 -677zM33 653l162 70h58v-423h-78v337l-115 -49zM577 285l-58 33q20 48 67 77.5t105 29.5q70 0 111 -33t41 -89q0 -106 -136 -192l-62 -40h216v-71h-340v62l99 64q68 45 106 83.5t38 78.5q0 66 -77 66q-72 0 -110 -69z" />
    <glyph glyph-name="threequarters" unicode="&#xbe;" horiz-adv-x="947" 
d="M173 38l548 674l60 -48l-546 -677zM755 0v87h-265v55l271 278h69v-264h84v-69h-84v-87h-75zM587 156h168v167zM100 599l-55 39q52 87 174 87q70 0 111 -28t41 -77q0 -70 -67 -97q79 -20 79 -102q0 -59 -49 -92.5t-122 -33.5q-57 0 -106.5 25.5t-72.5 72.5l60 38
q13 -29 46 -47t73 -18q91 0 91 58q0 57 -90 57h-55v64h44q42 0 66 15.5t24 43.5q0 50 -75 50q-42 0 -69 -13t-48 -42z" />
    <glyph glyph-name="questiondown" unicode="&#xbf;" horiz-adv-x="605" 
d="M132 0q0 -46 42.5 -75t111.5 -29q71 0 124 34.5t67 97.5l78 -22q-8 -81 -80.5 -139t-190.5 -58q-113 0 -178.5 51t-65.5 132q0 54 25 96.5t61 67.5t72 46t61 44t25 49q0 12 -4 31l81 1q8 -29 6 -55q-2 -37 -27.5 -66t-59.5 -49t-67.5 -40t-57 -49.5t-23.5 -67.5zM384 461
q0 -21 -17.5 -38.5t-44.5 -17.5q-25 0 -42.5 17.5t-17.5 38.5q0 24 17 41.5t43 17.5q27 0 44.5 -17.5t17.5 -41.5z" />
    <glyph glyph-name="Agrave" unicode="&#xc0;" horiz-adv-x="688" 
d="M1 0l307 702h72l307 -702h-95l-78 177h-343l-77 -177h-93zM342 575l-137 -318h275zM382 755l-201 97l38 74l193 -115z" />
    <glyph glyph-name="Aacute" unicode="&#xc1;" horiz-adv-x="688" 
d="M1 0l307 702h72l307 -702h-95l-78 177h-343l-77 -177h-93zM342 575l-137 -318h275zM528 852l-200 -97l-31 56l193 115z" />
    <glyph glyph-name="Acircumflex" unicode="&#xc2;" horiz-adv-x="688" 
d="M1 0l307 702h72l307 -702h-95l-78 177h-343l-77 -177h-93zM342 575l-137 -318h275zM342 915l182 -107l-36 -53l-148 79l-147 -79l-31 53l176 107h4z" />
    <glyph glyph-name="Atilde" unicode="&#xc3;" horiz-adv-x="688" 
d="M1 0l307 702h72l307 -702h-95l-78 177h-343l-77 -177h-93zM342 575l-137 -318h275zM192 791l-28 52q22 22 52.5 36t54.5 14q31 0 79.5 -21.5t74.5 -21.5q43 0 74 33l26 -51q-20 -28 -50.5 -42t-59.5 -14q-27 0 -77.5 21t-79.5 21q-33 0 -66 -27z" />
    <glyph glyph-name="Adieresis" unicode="&#xc4;" horiz-adv-x="688" 
d="M1 0l307 702h72l307 -702h-95l-78 177h-343l-77 -177h-93zM342 575l-137 -318h275zM172 825q0 22 16 35.5t40 13.5q20 0 36 -14t16 -35t-16 -34.5t-36 -13.5q-25 0 -40.5 13t-15.5 35zM409 825q0 21 16 35t38 14q21 0 36.5 -13.5t15.5 -35.5t-15.5 -35t-36.5 -13
q-23 0 -38.5 13t-15.5 35z" />
    <glyph glyph-name="Aring" unicode="&#xc5;" horiz-adv-x="688" 
d="M1 0l307 702h72l307 -702h-95l-78 177h-343l-77 -177h-93zM342 575l-137 -318h275zM222 829q0 47 35.5 73.5t85.5 26.5q52 0 88 -26t36 -74q0 -47 -34.5 -75.5t-89.5 -28.5q-54 0 -87.5 28t-33.5 76zM287 829q0 -22 15.5 -35.5t41.5 -13.5q28 0 42.5 13.5t14.5 35.5
q0 20 -15.5 32.5t-41.5 12.5t-41.5 -12.5t-15.5 -32.5z" />
    <glyph glyph-name="AE" unicode="&#xc6;" horiz-adv-x="1114" 
d="M547 0v177h-316l-133 -177h-98l513 700h542v-85h-417v-218h389v-83h-389v-229h426v-85h-517zM287 257h260v352z" />
    <glyph glyph-name="Ccedilla" unicode="&#xc7;" horiz-adv-x="688" 
d="M274 -169l29 48q37 -22 77 -22q48 0 48 28q0 29 -54 29h-19v79q-148 13 -233.5 108.5t-85.5 248.5q0 154 97.5 256.5t256.5 102.5q90 0 160.5 -32.5t108.5 -83.5l-59 -57q-86 86 -208 86q-121 0 -191 -75t-70 -197q0 -123 75 -197.5t197 -74.5q130 0 214 94l52 -58
q-39 -54 -109.5 -87.5t-151.5 -35.5v-28q103 -4 103 -82q0 -37 -29.5 -61t-90.5 -24q-73 0 -117 35z" />
    <glyph glyph-name="Egrave" unicode="&#xc8;" horiz-adv-x="637" 
d="M74 0v700h504v-85h-413v-218h385v-83h-385v-229h422v-85h-513zM372 755l-201 97l38 74l193 -115z" />
    <glyph glyph-name="Eacute" unicode="&#xc9;" horiz-adv-x="637" 
d="M74 0v700h504v-85h-413v-218h385v-83h-385v-229h422v-85h-513zM494 852l-200 -97l-31 56l193 115z" />
    <glyph glyph-name="Ecircumflex" unicode="&#xca;" horiz-adv-x="637" 
d="M74 0v700h504v-85h-413v-218h385v-83h-385v-229h422v-85h-513zM335 915l182 -107l-36 -53l-148 79l-147 -79l-31 53l176 107h4z" />
    <glyph glyph-name="Edieresis" unicode="&#xcb;" horiz-adv-x="637" 
d="M74 0v700h504v-85h-413v-218h385v-83h-385v-229h422v-85h-513zM159 825q0 22 16 35.5t40 13.5q20 0 36 -14t16 -35t-16 -34.5t-36 -13.5q-25 0 -40.5 13t-15.5 35zM396 825q0 21 16 35t38 14q21 0 36.5 -13.5t15.5 -35.5t-15.5 -35t-36.5 -13q-23 0 -38.5 13t-15.5 35z
" />
    <glyph glyph-name="Igrave" unicode="&#xcc;" horiz-adv-x="239" 
d="M74 0v700h91v-700h-91zM146 755l-201 97l38 74l193 -115z" />
    <glyph glyph-name="Iacute" unicode="&#xcd;" horiz-adv-x="239" 
d="M74 0v700h91v-700h-91zM299 852l-200 -97l-31 56l193 115z" />
    <glyph glyph-name="Icircumflex" unicode="&#xce;" horiz-adv-x="239" 
d="M74 0v700h91v-700h-91zM118 915l182 -107l-36 -53l-148 79l-147 -79l-31 53l176 107h4z" />
    <glyph glyph-name="Idieresis" unicode="&#xcf;" horiz-adv-x="239" 
d="M74 0v700h91v-700h-91zM-53 825q0 22 16 35.5t40 13.5q20 0 36 -14t16 -35t-16 -34.5t-36 -13.5q-25 0 -40.5 13t-15.5 35zM184 825q0 21 16 35t38 14q21 0 36.5 -13.5t15.5 -35.5t-15.5 -35t-36.5 -13q-23 0 -38.5 13t-15.5 35z" />
    <glyph glyph-name="Eth" unicode="&#xd0;" horiz-adv-x="770" 
d="M11 309v77h121v314h216q103 0 179.5 -27t120.5 -75t65 -107.5t21 -130.5q0 -159 -100 -259.5t-297 -100.5h-205v309h-121zM346 615h-123v-229h189v-77h-189v-224h120q150 0 223 74.5t73 200.5q0 118 -70 186.5t-223 68.5z" />
    <glyph glyph-name="Ntilde" unicode="&#xd1;" horiz-adv-x="736" 
d="M662 0h-71l-429 534v-534h-88v700h72l428 -536v536h88v-700zM216 791l-28 52q22 22 52.5 36t54.5 14q31 0 79.5 -21.5t74.5 -21.5q43 0 74 33l26 -51q-20 -28 -50.5 -42t-59.5 -14q-27 0 -77.5 21t-79.5 21q-33 0 -66 -27z" />
    <glyph glyph-name="Ograve" unicode="&#xd2;" horiz-adv-x="783" 
d="M36 350q0 152 103 255.5t253 103.5q149 0 252 -102t103 -257q0 -153 -103 -256t-252 -103q-150 0 -253 102t-103 257zM131 350q0 -117 76.5 -194.5t184.5 -77.5q111 0 185.5 77t74.5 195t-76.5 195t-183.5 77q-109 0 -185 -77t-76 -195zM432 755l-201 97l38 74l193 -115z
" />
    <glyph glyph-name="Oacute" unicode="&#xd3;" horiz-adv-x="783" 
d="M36 350q0 152 103 255.5t253 103.5q149 0 252 -102t103 -257q0 -153 -103 -256t-252 -103q-150 0 -253 102t-103 257zM131 350q0 -117 76.5 -194.5t184.5 -77.5q111 0 185.5 77t74.5 195t-76.5 195t-183.5 77q-109 0 -185 -77t-76 -195zM562 852l-200 -97l-31 56l193 115
z" />
    <glyph glyph-name="Ocircumflex" unicode="&#xd4;" horiz-adv-x="783" 
d="M36 350q0 152 103 255.5t253 103.5q149 0 252 -102t103 -257q0 -153 -103 -256t-252 -103q-150 0 -253 102t-103 257zM131 350q0 -117 76.5 -194.5t184.5 -77.5q111 0 185.5 77t74.5 195t-76.5 195t-183.5 77q-109 0 -185 -77t-76 -195zM390 915l182 -107l-36 -53
l-148 79l-147 -79l-31 53l176 107h4z" />
    <glyph glyph-name="Otilde" unicode="&#xd5;" horiz-adv-x="783" 
d="M36 350q0 152 103 255.5t253 103.5q149 0 252 -102t103 -257q0 -153 -103 -256t-252 -103q-150 0 -253 102t-103 257zM131 350q0 -117 76.5 -194.5t184.5 -77.5q111 0 185.5 77t74.5 195t-76.5 195t-183.5 77q-109 0 -185 -77t-76 -195zM239 791l-28 52q22 22 52.5 36
t54.5 14q31 0 79.5 -21.5t74.5 -21.5q43 0 74 33l26 -51q-20 -28 -50.5 -42t-59.5 -14q-27 0 -77.5 21t-79.5 21q-33 0 -66 -27z" />
    <glyph glyph-name="Odieresis" unicode="&#xd6;" horiz-adv-x="783" 
d="M36 350q0 152 103 255.5t253 103.5q149 0 252 -102t103 -257q0 -153 -103 -256t-252 -103q-150 0 -253 102t-103 257zM131 350q0 -117 76.5 -194.5t184.5 -77.5q111 0 185.5 77t74.5 195t-76.5 195t-183.5 77q-109 0 -185 -77t-76 -195zM219 825q0 22 16 35.5t40 13.5
q20 0 36 -14t16 -35t-16 -34.5t-36 -13.5q-25 0 -40.5 13t-15.5 35zM456 825q0 21 16 35t38 14q21 0 36.5 -13.5t15.5 -35.5t-15.5 -35t-36.5 -13q-23 0 -38.5 13t-15.5 35z" />
    <glyph glyph-name="multiply" unicode="&#xd7;" horiz-adv-x="594" 
d="M105 493l54 55l135 -135l135 135l54 -55l-135 -134l135 -135l-54 -55l-135 136l-135 -136l-54 55l136 135z" />
    <glyph glyph-name="Oslash" unicode="&#xd8;" horiz-adv-x="783" 
d="M85 36l50 61q-99 104 -99 253q0 152 103 255.5t253 103.5q108 0 194 -56l47 57l60 -48l-47 -58q101 -103 101 -254q0 -153 -103 -256t-252 -103q-107 0 -195 55l-50 -61zM652 350q0 105 -65 181l-333 -414q62 -39 138 -39q111 0 185.5 77t74.5 195zM131 350
q0 -104 63 -180l335 412q-62 40 -137 40q-109 0 -185 -77t-76 -195z" />
    <glyph glyph-name="Ugrave" unicode="&#xd9;" horiz-adv-x="730" 
d="M660 700v-404q0 -151 -84 -227.5t-202 -76.5q-130 0 -217 81t-87 229v398h91v-385q0 -112 60.5 -174.5t152.5 -62.5q95 0 145 62t50 170v390h91zM408 755l-201 97l38 74l193 -115z" />
    <glyph glyph-name="Uacute" unicode="&#xda;" horiz-adv-x="730" 
d="M660 700v-404q0 -151 -84 -227.5t-202 -76.5q-130 0 -217 81t-87 229v398h91v-385q0 -112 60.5 -174.5t152.5 -62.5q95 0 145 62t50 170v390h91zM538 852l-200 -97l-31 56l193 115z" />
    <glyph glyph-name="Ucircumflex" unicode="&#xdb;" horiz-adv-x="730" 
d="M660 700v-404q0 -151 -84 -227.5t-202 -76.5q-130 0 -217 81t-87 229v398h91v-385q0 -112 60.5 -174.5t152.5 -62.5q95 0 145 62t50 170v390h91zM363 915l182 -107l-36 -53l-148 79l-147 -79l-31 53l176 107h4z" />
    <glyph glyph-name="Udieresis" unicode="&#xdc;" horiz-adv-x="730" 
d="M660 700v-404q0 -151 -84 -227.5t-202 -76.5q-130 0 -217 81t-87 229v398h91v-385q0 -112 60.5 -174.5t152.5 -62.5q95 0 145 62t50 170v390h91zM193 825q0 22 16 35.5t40 13.5q20 0 36 -14t16 -35t-16 -34.5t-36 -13.5q-25 0 -40.5 13t-15.5 35zM430 825q0 21 16 35
t38 14q21 0 36.5 -13.5t15.5 -35.5t-15.5 -35t-36.5 -13q-23 0 -38.5 13t-15.5 35z" />
    <glyph glyph-name="Yacute" unicode="&#xdd;" horiz-adv-x="632" 
d="M642 700l-282 -435v-265h-91v265l-279 435h111l216 -339l219 339h106zM493 852l-200 -97l-31 56l193 115z" />
    <glyph glyph-name="Thorn" unicode="&#xde;" horiz-adv-x="654" 
d="M165 0h-91v700h91v-113h166q287 0 287 -220q0 -95 -69.5 -158.5t-218.5 -63.5h-165v-145zM335 503h-170v-273h163q99 -1 147 36t48 102q0 135 -188 135z" />
    <glyph glyph-name="germandbls" unicode="&#xdf;" horiz-adv-x="556" 
d="M277 738q103 0 156.5 -54t53.5 -150q0 -51 -26 -94.5t-72 -64.5q67 -15 100 -61t33 -115q0 -100 -56.5 -154.5t-164.5 -54.5q-72 0 -114 22l23 79q40 -19 91 -19q61 0 97 33.5t36 93.5q0 121 -160 121h-51v82h34q67 0 104.5 38.5t37.5 91.5q0 59 -33.5 92.5t-91.5 33.5
q-60 0 -94.5 -39t-34.5 -145v-474h-84v484q0 136 60.5 195t155.5 59z" />
    <glyph glyph-name="agrave" unicode="&#xe0;" horiz-adv-x="534" 
d="M101 395l-43 63q36 34 93 54t115 20q104 0 158.5 -55t54.5 -156v-321h-84v77q-25 -36 -72 -60t-110 -24q-85 0 -137 43.5t-52 115.5q0 82 66 121.5t183 39.5q73 0 122 -15q0 76 -31 115.5t-108 39.5q-78 0 -155 -58zM233 69q59 0 102.5 32t59.5 70v53q-43 15 -111 15
q-171 0 -171 -84q0 -40 33 -63t87 -23zM270 608l-128 149l66 50l112 -159z" />
    <glyph glyph-name="aacute" unicode="&#xe1;" horiz-adv-x="534" 
d="M101 395l-43 63q36 34 93 54t115 20q104 0 158.5 -55t54.5 -156v-321h-84v77q-25 -36 -72 -60t-110 -24q-85 0 -137 43.5t-52 115.5q0 82 66 121.5t183 39.5q73 0 122 -15q0 76 -31 115.5t-108 39.5q-78 0 -155 -58zM233 69q59 0 102.5 32t59.5 70v53q-43 15 -111 15
q-171 0 -171 -84q0 -40 33 -63t87 -23zM393 759l-122 -151l-56 39l114 160z" />
    <glyph glyph-name="acircumflex" unicode="&#xe2;" horiz-adv-x="534" 
d="M101 395l-43 63q36 34 93 54t115 20q104 0 158.5 -55t54.5 -156v-321h-84v77q-25 -36 -72 -60t-110 -24q-85 0 -137 43.5t-52 115.5q0 82 66 121.5t183 39.5q73 0 122 -15q0 76 -31 115.5t-108 39.5q-78 0 -155 -58zM233 69q59 0 102.5 32t59.5 70v53q-43 15 -111 15
q-171 0 -171 -84q0 -40 33 -63t87 -23zM268 785l149 -127l-44 -53l-106 93l-111 -90l-39 51l147 126h4z" />
    <glyph glyph-name="atilde" unicode="&#xe3;" horiz-adv-x="534" 
d="M101 395l-43 63q36 34 93 54t115 20q104 0 158.5 -55t54.5 -156v-321h-84v77q-25 -36 -72 -60t-110 -24q-85 0 -137 43.5t-52 115.5q0 82 66 121.5t183 39.5q73 0 122 -15q0 76 -31 115.5t-108 39.5q-78 0 -155 -58zM233 69q59 0 102.5 32t59.5 70v53q-43 15 -111 15
q-171 0 -171 -84q0 -40 33 -63t87 -23zM139 624l-38 41q58 63 113 63q24 0 62.5 -23.5t58.5 -23.5q35 0 67 33l31 -43q-48 -61 -105 -61q-28 0 -64.5 23.5t-54.5 23.5q-30 0 -70 -33z" />
    <glyph glyph-name="adieresis" unicode="&#xe4;" horiz-adv-x="534" 
d="M101 395l-43 63q36 34 93 54t115 20q104 0 158.5 -55t54.5 -156v-321h-84v77q-25 -36 -72 -60t-110 -24q-85 0 -137 43.5t-52 115.5q0 82 66 121.5t183 39.5q73 0 122 -15q0 76 -31 115.5t-108 39.5q-78 0 -155 -58zM233 69q59 0 102.5 32t59.5 70v53q-43 15 -111 15
q-171 0 -171 -84q0 -40 33 -63t87 -23zM95 682q0 20 15 33.5t35 13.5t35.5 -13.5t15.5 -33.5q0 -22 -15.5 -35.5t-35.5 -13.5t-35 13.5t-15 35.5zM324 682q0 20 15.5 33.5t37.5 13.5q20 0 35.5 -13.5t15.5 -33.5q0 -22 -15.5 -35.5t-35.5 -13.5q-22 0 -37.5 13.5t-15.5 35.5
z" />
    <glyph glyph-name="aring" unicode="&#xe5;" horiz-adv-x="534" 
d="M101 395l-43 63q36 34 93 54t115 20q104 0 158.5 -55t54.5 -156v-321h-84v77q-25 -36 -72 -60t-110 -24q-85 0 -137 43.5t-52 115.5q0 82 66 121.5t183 39.5q73 0 122 -15q0 76 -31 115.5t-108 39.5q-78 0 -155 -58zM233 69q59 0 102.5 32t59.5 70v53q-43 15 -111 15
q-171 0 -171 -84q0 -40 33 -63t87 -23zM158 701q0 44 31.5 75t77.5 31t78 -31t32 -75t-32 -74.5t-78 -30.5t-77.5 30.5t-31.5 74.5zM219 702q0 -22 13.5 -36t35.5 -14q21 0 34.5 13.5t13.5 36.5t-13 36t-35 13t-35.5 -13.5t-13.5 -35.5z" />
    <glyph glyph-name="ae" unicode="&#xe6;" horiz-adv-x="930" 
d="M824 149l54 -50q-72 -108 -208 -108q-158 0 -232 110q-76 -108 -218 -108q-89 0 -142.5 44t-53.5 115q0 82 66 121.5t183 39.5q73 0 122 -15q0 76 -31 115.5t-108 39.5q-78 0 -155 -58l-43 63q36 34 93 54t115 20q132 0 185 -90q71 90 207 90q104 0 172 -65t68 -171
q0 -34 -5 -63h-410q4 -77 56 -120t134 -43q46 0 86.5 22t64.5 57zM233 69q62 0 103.5 31.5t58.5 70.5v53q-43 15 -111 15q-171 0 -171 -84q0 -40 33 -63t87 -23zM652 455q-71 0 -115.5 -40t-54.5 -106h327q-4 69 -45.5 107.5t-111.5 38.5z" />
    <glyph glyph-name="ccedilla" unicode="&#xe7;" horiz-adv-x="532" 
d="M190 -170l25 49q39 -22 77 -22q49 0 49 28q0 29 -55 29h-18v80q-108 12 -172 83.5t-64 183.5q0 117 76 194t197 77q70 0 127.5 -29t83.5 -77l-65 -44q-52 71 -144 71q-81 0 -133.5 -54t-52.5 -138q0 -86 54.5 -138.5t142.5 -52.5q93 0 146 80l60 -43q-28 -53 -84.5 -83.5
t-119.5 -32.5v-28q50 -2 75 -24t25 -58q0 -37 -31.5 -61t-93.5 -24q-60 0 -105 34z" />
    <glyph glyph-name="egrave" unicode="&#xe8;" horiz-adv-x="569" 
d="M463 149l54 -50q-72 -108 -208 -108q-125 0 -201 73.5t-76 196.5q0 119 69.5 195t195.5 76q104 0 172 -65t68 -171q0 -34 -5 -63h-410q4 -77 56 -120t134 -43q46 0 86.5 22t64.5 57zM291 455q-71 0 -115.5 -40t-54.5 -106h327q-4 69 -45.5 107.5t-111.5 38.5zM303 608
l-128 149l66 50l112 -159z" />
    <glyph glyph-name="eacute" unicode="&#xe9;" horiz-adv-x="569" 
d="M463 149l54 -50q-72 -108 -208 -108q-125 0 -201 73.5t-76 196.5q0 119 69.5 195t195.5 76q104 0 172 -65t68 -171q0 -34 -5 -63h-410q4 -77 56 -120t134 -43q46 0 86.5 22t64.5 57zM291 455q-71 0 -115.5 -40t-54.5 -106h327q-4 69 -45.5 107.5t-111.5 38.5zM410 759
l-122 -151l-56 39l114 160z" />
    <glyph glyph-name="ecircumflex" unicode="&#xea;" horiz-adv-x="569" 
d="M463 149l54 -50q-72 -108 -208 -108q-125 0 -201 73.5t-76 196.5q0 119 69.5 195t195.5 76q104 0 172 -65t68 -171q0 -34 -5 -63h-410q4 -77 56 -120t134 -43q46 0 86.5 22t64.5 57zM291 455q-71 0 -115.5 -40t-54.5 -106h327q-4 69 -45.5 107.5t-111.5 38.5zM302 785
l149 -127l-44 -53l-106 93l-111 -90l-39 51l147 126h4z" />
    <glyph glyph-name="edieresis" unicode="&#xeb;" horiz-adv-x="569" 
d="M463 149l54 -50q-72 -108 -208 -108q-125 0 -201 73.5t-76 196.5q0 119 69.5 195t195.5 76q104 0 172 -65t68 -171q0 -34 -5 -63h-410q4 -77 56 -120t134 -43q46 0 86.5 22t64.5 57zM291 455q-71 0 -115.5 -40t-54.5 -106h327q-4 69 -45.5 107.5t-111.5 38.5zM118 682
q0 20 15 33.5t35 13.5t35.5 -13.5t15.5 -33.5q0 -22 -15.5 -35.5t-35.5 -13.5t-35 13.5t-15 35.5zM347 682q0 20 15.5 33.5t37.5 13.5q20 0 35.5 -13.5t15.5 -33.5q0 -22 -15.5 -35.5t-35.5 -13.5q-22 0 -37.5 13.5t-15.5 35.5z" />
    <glyph glyph-name="igrave" unicode="&#xec;" horiz-adv-x="244" 
d="M80 0v520h84v-520h-84zM135 608l-128 149l66 50l112 -159z" />
    <glyph glyph-name="iacute" unicode="&#xed;" horiz-adv-x="244" 
d="M80 0v520h84v-520h-84zM238 759l-122 -151l-56 39l114 160z" />
    <glyph glyph-name="icircumflex" unicode="&#xee;" horiz-adv-x="244" 
d="M80 0v520h84v-520h-84zM123 785l149 -127l-44 -53l-106 93l-111 -90l-39 51l147 126h4z" />
    <glyph glyph-name="idieresis" unicode="&#xef;" horiz-adv-x="244" 
d="M80 0v520h84v-520h-84zM-44 682q0 20 15 33.5t35 13.5t35.5 -13.5t15.5 -33.5q0 -22 -15.5 -35.5t-35.5 -13.5t-35 13.5t-15 35.5zM185 682q0 20 15.5 33.5t37.5 13.5q20 0 35.5 -13.5t15.5 -33.5q0 -22 -15.5 -35.5t-35.5 -13.5q-22 0 -37.5 13.5t-15.5 35.5z" />
    <glyph glyph-name="eth" unicode="&#xf0;" horiz-adv-x="616" 
d="M301 785l62 -25l-26 -59q121 -51 184 -154t63 -251q0 -142 -76 -223.5t-201 -81.5q-121 0 -198 76t-77 194t76 189.5t199 71.5q109 0 164 -59q-47 115 -164 170l-31 -70l-64 26l31 68q-45 12 -95 15l18 72q55 -6 107 -20zM120 261q0 -83 52.5 -137t134.5 -54q89 0 139 56
t50 159q0 54 -13 83q-24 36 -69 57t-98 21q-88 0 -142 -49.5t-54 -135.5z" />
    <glyph glyph-name="ntilde" unicode="&#xf1;" horiz-adv-x="589" 
d="M61 0v520h84v-68q25 38 72.5 58.5t105.5 20.5q211 0 211 -235v-296h-84v286q0 86 -37.5 126t-114.5 40q-48 0 -90 -29t-63 -76v-347h-84zM166 624l-38 41q58 63 113 63q24 0 62.5 -23.5t58.5 -23.5q36 0 67 33l31 -43q-48 -61 -105 -61q-28 0 -64.5 23.5t-54.5 23.5
q-30 0 -70 -33z" />
    <glyph glyph-name="ograve" unicode="&#xf2;" horiz-adv-x="616" 
d="M32 261q0 119 76.5 195t198.5 76q123 0 200 -76t77 -195q0 -118 -77.5 -194t-199.5 -76q-121 0 -198 76t-77 194zM121 261q0 -83 52 -137t134 -54q83 0 135.5 53t52.5 138t-53.5 138.5t-134.5 53.5t-133.5 -53t-52.5 -139zM319 608l-128 149l66 50l112 -159z" />
    <glyph glyph-name="oacute" unicode="&#xf3;" horiz-adv-x="616" 
d="M32 261q0 119 76.5 195t198.5 76q123 0 200 -76t77 -195q0 -118 -77.5 -194t-199.5 -76q-121 0 -198 76t-77 194zM121 261q0 -83 52 -137t134 -54q83 0 135.5 53t52.5 138t-53.5 138.5t-134.5 53.5t-133.5 -53t-52.5 -139zM421 759l-122 -151l-56 39l114 160z" />
    <glyph glyph-name="ocircumflex" unicode="&#xf4;" horiz-adv-x="616" 
d="M32 261q0 119 76.5 195t198.5 76q123 0 200 -76t77 -195q0 -118 -77.5 -194t-199.5 -76q-121 0 -198 76t-77 194zM121 261q0 -83 52 -137t134 -54q83 0 135.5 53t52.5 138t-53.5 138.5t-134.5 53.5t-133.5 -53t-52.5 -139zM309 785l149 -127l-44 -53l-106 93l-111 -90
l-39 51l147 126h4z" />
    <glyph glyph-name="otilde" unicode="&#xf5;" horiz-adv-x="616" 
d="M32 261q0 119 76.5 195t198.5 76q123 0 200 -76t77 -195q0 -118 -77.5 -194t-199.5 -76q-121 0 -198 76t-77 194zM121 261q0 -83 52 -137t134 -54q83 0 135.5 53t52.5 138t-53.5 138.5t-134.5 53.5t-133.5 -53t-52.5 -139zM179 624l-38 41q58 63 113 63q24 0 62.5 -23.5
t58.5 -23.5q35 0 67 33l31 -43q-48 -61 -105 -61q-28 0 -64.5 23.5t-54.5 23.5q-30 0 -70 -33z" />
    <glyph glyph-name="odieresis" unicode="&#xf6;" horiz-adv-x="616" 
d="M32 261q0 119 76.5 195t198.5 76q123 0 200 -76t77 -195q0 -118 -77.5 -194t-199.5 -76q-121 0 -198 76t-77 194zM121 261q0 -83 52 -137t134 -54q83 0 135.5 53t52.5 138t-53.5 138.5t-134.5 53.5t-133.5 -53t-52.5 -139zM141 682q0 20 15 33.5t35 13.5t35.5 -13.5
t15.5 -33.5q0 -22 -15.5 -35.5t-35.5 -13.5t-35 13.5t-15 35.5zM370 682q0 20 15.5 33.5t37.5 13.5q20 0 35.5 -13.5t15.5 -33.5q0 -22 -15.5 -35.5t-35.5 -13.5q-22 0 -37.5 13.5t-15.5 35.5z" />
    <glyph glyph-name="divide" unicode="&#xf7;" horiz-adv-x="576" 
d="M237 561q0 18 14.5 32t37.5 14q21 0 35.5 -14.5t14.5 -31.5q0 -20 -14.5 -34.5t-35.5 -14.5q-23 0 -37.5 14.5t-14.5 34.5zM237 159q0 19 14.5 33t37.5 14q21 0 35.5 -14t14.5 -33q0 -20 -14.5 -34.5t-35.5 -14.5q-23 0 -37.5 14.5t-14.5 34.5zM56 322v75h464v-75h-464z
" />
    <glyph glyph-name="oslash" unicode="&#xf8;" horiz-adv-x="616" 
d="M32 261q0 119 76.5 195t198.5 76q76 0 142 -34l58 71l60 -49l-56 -69q73 -76 73 -190q0 -118 -77.5 -194t-199.5 -76q-77 0 -140 33l-54 -66l-63 51l53 64q-71 76 -71 188zM495 261q0 72 -39 122l-236 -293q38 -20 87 -20q83 0 135.5 53t52.5 138zM121 261q0 -71 37 -120
l238 292q-40 20 -89 20q-81 0 -133.5 -53t-52.5 -139z" />
    <glyph glyph-name="ugrave" unicode="&#xf9;" horiz-adv-x="581" 
d="M521 523v-523h-84v74q-60 -83 -169 -83q-108 0 -161 56t-53 175v301h84v-289q0 -164 137 -164q54 0 96 29.5t66 83.5v340h84zM310 608l-128 149l66 50l112 -159z" />
    <glyph glyph-name="uacute" unicode="&#xfa;" horiz-adv-x="581" 
d="M521 523v-523h-84v74q-60 -83 -169 -83q-108 0 -161 56t-53 175v301h84v-289q0 -164 137 -164q54 0 96 29.5t66 83.5v340h84zM400 759l-122 -151l-56 39l114 160z" />
    <glyph glyph-name="ucircumflex" unicode="&#xfb;" horiz-adv-x="581" 
d="M521 523v-523h-84v74q-60 -83 -169 -83q-108 0 -161 56t-53 175v301h84v-289q0 -164 137 -164q54 0 96 29.5t66 83.5v340h84zM291 785l149 -127l-44 -53l-106 93l-111 -90l-39 51l147 126h4z" />
    <glyph glyph-name="udieresis" unicode="&#xfc;" horiz-adv-x="581" 
d="M521 523v-523h-84v74q-60 -83 -169 -83q-108 0 -161 56t-53 175v301h84v-289q0 -164 137 -164q54 0 96 29.5t66 83.5v340h84zM118 682q0 20 15 33.5t35 13.5t35.5 -13.5t15.5 -33.5q0 -22 -15.5 -35.5t-35.5 -13.5t-35 13.5t-15 35.5zM347 682q0 20 15.5 33.5t37.5 13.5
q20 0 35.5 -13.5t15.5 -33.5q0 -22 -15.5 -35.5t-35.5 -13.5q-22 0 -37.5 13.5t-15.5 35.5z" />
    <glyph glyph-name="yacute" unicode="&#xfd;" horiz-adv-x="521" 
d="M73 -198l33 73q12 -5 22 -5q29 0 52 24t49 86l16 39l-252 501h99l195 -395l147 395h92l-198 -512q-51 -126 -95.5 -172t-101.5 -46q-33 0 -58 12zM380 759l-122 -151l-56 39l114 160z" />
    <glyph glyph-name="thorn" unicode="&#xfe;" horiz-adv-x="594" 
d="M61 -200v930h84v-275q52 77 168 77q114 0 181.5 -73t67.5 -190q0 -120 -72.5 -199t-186.5 -79q-51 0 -94 15.5t-64 42.5v-249h-84zM304 453q-57 0 -99 -32t-60 -76v-194q45 -81 151 -81q77 0 127 54t50 139q0 87 -45.5 138.5t-123.5 51.5z" />
    <glyph glyph-name="ydieresis" unicode="&#xff;" horiz-adv-x="521" 
d="M73 -198l33 73q12 -5 22 -5q29 0 52 24t49 86l16 39l-252 501h99l195 -395l147 395h92l-198 -512q-51 -126 -95.5 -172t-101.5 -46q-33 0 -58 12zM94 682q0 20 15 33.5t35 13.5t35.5 -13.5t15.5 -33.5q0 -22 -15.5 -35.5t-35.5 -13.5t-35 13.5t-15 35.5zM323 682
q0 20 15.5 33.5t37.5 13.5q20 0 35.5 -13.5t15.5 -33.5q0 -22 -15.5 -35.5t-35.5 -13.5q-22 0 -37.5 13.5t-15.5 35.5z" />
    <glyph glyph-name="Amacron" unicode="&#x100;" horiz-adv-x="688" 
d="M1 0l307 702h72l307 -702h-95l-78 177h-343l-77 -177h-93zM342 575l-137 -318h275zM193 789v73h301v-73h-301z" />
    <glyph glyph-name="amacron" unicode="&#x101;" horiz-adv-x="534" 
d="M101 395l-43 63q36 34 93 54t115 20q104 0 158.5 -55t54.5 -156v-321h-84v77q-25 -36 -72 -60t-110 -24q-85 0 -137 43.5t-52 115.5q0 82 66 121.5t183 39.5q73 0 122 -15q0 76 -31 115.5t-108 39.5q-78 0 -155 -58zM233 69q59 0 102.5 32t59.5 70v53q-43 15 -111 15
q-171 0 -171 -84q0 -40 33 -63t87 -23zM133 638v74h269v-74h-269z" />
    <glyph glyph-name="Abreve" unicode="&#x102;" horiz-adv-x="688" 
d="M1 0l307 702h72l307 -702h-95l-78 177h-343l-77 -177h-93zM342 575l-137 -318h275zM163 867l41 43q53 -63 143 -63q88 0 140 63l36 -41q-25 -42 -73 -70t-103 -28q-65 0 -111.5 28t-72.5 68z" />
    <glyph glyph-name="abreve" unicode="&#x103;" horiz-adv-x="534" 
d="M101 395l-43 63q36 34 93 54t115 20q104 0 158.5 -55t54.5 -156v-321h-84v77q-25 -36 -72 -60t-110 -24q-85 0 -137 43.5t-52 115.5q0 82 66 121.5t183 39.5q73 0 122 -15q0 76 -31 115.5t-108 39.5q-78 0 -155 -58zM233 69q59 0 102.5 32t59.5 70v53q-43 15 -111 15
q-171 0 -171 -84q0 -40 33 -63t87 -23zM104 727l38 41q18 -21 50.5 -39t67.5 -18q76 0 119 56l30 -40q-61 -92 -152 -92q-52 0 -92 30t-61 62z" />
    <glyph glyph-name="Aogonek" unicode="&#x104;" horiz-adv-x="688" 
d="M659 -122l18 -57q-30 -21 -85 -21q-50 -1 -85.5 22t-35.5 70q0 43 32 73.5t84 44.5l-73 167h-343l-77 -177h-93l307 702h72l307 -702h-27q-41 -2 -75 -27.5t-34 -56.5q0 -48 56 -48q28 0 52 10zM342 575l-137 -318h275z" />
    <glyph glyph-name="aogonek" unicode="&#x105;" horiz-adv-x="534" 
d="M464 -119l25 -58q-33 -23 -83 -23q-48 0 -82.5 25t-34.5 73q0 40 30 68.5t76 43.5v67q-25 -36 -72 -60t-110 -24q-85 0 -137 43.5t-52 115.5q0 82 66 121.5t183 39.5q73 0 122 -15q0 76 -31 115.5t-108 39.5q-78 0 -155 -58l-43 63q36 34 93 54t115 20q104 0 158.5 -55
t54.5 -156v-321h-7q-34 -1 -65 -25t-31 -56q0 -21 12.5 -34.5t30.5 -13.5q24 0 45 10zM233 69q59 0 102.5 32t59.5 70v53q-43 15 -111 15q-171 0 -171 -84q0 -40 33 -63t87 -23z" />
    <glyph glyph-name="Cacute" unicode="&#x106;" horiz-adv-x="688" 
d="M617 172l52 -58q-40 -56 -113.5 -89.5t-158.5 -33.5q-165 0 -263 97.5t-98 261.5q0 154 97.5 256.5t256.5 102.5q90 0 160.5 -32.5t108.5 -83.5l-59 -57q-86 86 -208 86q-121 0 -191 -75t-70 -197q0 -123 75 -197.5t197 -74.5q130 0 214 94zM544 852l-200 -97l-31 56
l193 115z" />
    <glyph glyph-name="cacute" unicode="&#x107;" horiz-adv-x="532" 
d="M464 150l60 -43q-29 -55 -89 -85.5t-125 -30.5q-125 0 -201.5 73.5t-76.5 196.5q0 117 76 194t197 77q70 0 127.5 -29t83.5 -77l-65 -44q-52 71 -144 71q-81 0 -133.5 -54t-52.5 -138q0 -86 54.5 -138.5t142.5 -52.5q93 0 146 80zM426 759l-122 -151l-56 39l114 160z" />
    <glyph glyph-name="Ccircumflex" unicode="&#x108;" horiz-adv-x="688" 
d="M617 172l52 -58q-40 -56 -113.5 -89.5t-158.5 -33.5q-165 0 -263 97.5t-98 261.5q0 154 97.5 256.5t256.5 102.5q90 0 160.5 -32.5t108.5 -83.5l-59 -57q-86 86 -208 86q-121 0 -191 -75t-70 -197q0 -123 75 -197.5t197 -74.5q130 0 214 94zM378 915l182 -107l-36 -53
l-148 79l-147 -79l-31 53l176 107h4z" />
    <glyph glyph-name="ccircumflex" unicode="&#x109;" horiz-adv-x="532" 
d="M464 150l60 -43q-29 -55 -89 -85.5t-125 -30.5q-125 0 -201.5 73.5t-76.5 196.5q0 117 76 194t197 77q70 0 127.5 -29t83.5 -77l-65 -44q-52 71 -144 71q-81 0 -133.5 -54t-52.5 -138q0 -86 54.5 -138.5t142.5 -52.5q93 0 146 80zM297 785l149 -127l-44 -53l-106 93
l-111 -90l-39 51l147 126h4z" />
    <glyph glyph-name="Cdotaccent" unicode="&#x10a;" horiz-adv-x="688" 
d="M617 172l52 -58q-40 -56 -113.5 -89.5t-158.5 -33.5q-165 0 -263 97.5t-98 261.5q0 154 97.5 256.5t256.5 102.5q90 0 160.5 -32.5t108.5 -83.5l-59 -57q-86 86 -208 86q-121 0 -191 -75t-70 -197q0 -123 75 -197.5t197 -74.5q130 0 214 94zM326 827q0 21 15.5 34.5
t37.5 13.5t37.5 -13.5t15.5 -34.5q0 -23 -15.5 -37.5t-37.5 -14.5q-23 0 -38 14.5t-15 37.5z" />
    <glyph glyph-name="cdotaccent" unicode="&#x10b;" horiz-adv-x="532" 
d="M464 150l60 -43q-29 -55 -89 -85.5t-125 -30.5q-125 0 -201.5 73.5t-76.5 196.5q0 117 76 194t197 77q70 0 127.5 -29t83.5 -77l-65 -44q-52 71 -144 71q-81 0 -133.5 -54t-52.5 -138q0 -86 54.5 -138.5t142.5 -52.5q93 0 146 80zM243 682q0 21 15.5 35t38.5 14
q21 0 36.5 -14t15.5 -35q0 -22 -15.5 -37t-36.5 -15q-23 0 -38.5 15t-15.5 37z" />
    <glyph glyph-name="Ccaron" unicode="&#x10c;" horiz-adv-x="688" 
d="M617 172l52 -58q-40 -56 -113.5 -89.5t-158.5 -33.5q-165 0 -263 97.5t-98 261.5q0 154 97.5 256.5t256.5 102.5q90 0 160.5 -32.5t108.5 -83.5l-59 -57q-86 86 -208 86q-121 0 -191 -75t-70 -197q0 -123 75 -197.5t197 -74.5q130 0 214 94zM375 756l-183 106l37 53
l148 -83l147 83l30 -52l-175 -107h-4z" />
    <glyph glyph-name="ccaron" unicode="&#x10d;" horiz-adv-x="532" 
d="M464 150l60 -43q-29 -55 -89 -85.5t-125 -30.5q-125 0 -201.5 73.5t-76.5 196.5q0 117 76 194t197 77q70 0 127.5 -29t83.5 -77l-65 -44q-52 71 -144 71q-81 0 -133.5 -54t-52.5 -138q0 -86 54.5 -138.5t142.5 -52.5q93 0 146 80zM301 619l-149 126l44 53l107 -93l110 90
l39 -51l-147 -125h-4z" />
    <glyph glyph-name="Dcaron" unicode="&#x10e;" horiz-adv-x="712" 
d="M74 0v700h216q103 0 179.5 -27t120.5 -75t65 -107.5t21 -130.5q0 -159 -100 -259.5t-296 -100.5h-206zM288 615h-123v-530h121q150 0 223 74.5t73 200.5q0 118 -70 186.5t-224 68.5zM299 756l-183 106l37 53l148 -83l147 83l30 -52l-175 -107h-4z" />
    <glyph glyph-name="dcaron" unicode="&#x10f;" horiz-adv-x="617" 
d="M450 0v62q-17 -27 -60 -49t-102 -22q-115 0 -185.5 72t-70.5 196q0 120 76 196.5t187 76.5q104 0 155 -51v249h84v-730h-84zM300 71q53 0 92.5 31t57.5 68v210q-50 73 -145 73q-77 0 -130.5 -53t-53.5 -139q0 -87 50 -138.5t129 -51.5zM608 730h87q12 -23 12 -64
q0 -47 -28.5 -88t-66.5 -64l-37 35q23 18 37.5 48.5t14.5 56.5q0 49 -19 76z" />
    <glyph glyph-name="Dcroat" unicode="&#x110;" horiz-adv-x="770" 
d="M11 309v77h121v314h216q103 0 179.5 -27t120.5 -75t65 -107.5t21 -130.5q0 -159 -100 -259.5t-297 -100.5h-205v309h-121zM346 615h-123v-229h189v-77h-189v-224h120q150 0 223 74.5t73 200.5q0 118 -70 186.5t-223 68.5z" />
    <glyph glyph-name="dcroat" unicode="&#x111;" horiz-adv-x="595" 
d="M338 581v77h112v72h84v-72h60v-77h-60v-581h-84v62q-17 -27 -60 -49t-102 -22q-115 0 -185.5 72t-70.5 196q0 120 76 196.5t187 76.5q104 0 155 -51v100h-112zM300 71q53 0 92.5 31t57.5 68v210q-50 73 -145 73q-77 0 -130.5 -53t-53.5 -139q0 -87 50 -138.5t129 -51.5z
" />
    <glyph glyph-name="Emacron" unicode="&#x112;" horiz-adv-x="637" 
d="M74 0v700h504v-85h-413v-218h385v-83h-385v-229h422v-85h-513zM176 789v73h301v-73h-301z" />
    <glyph glyph-name="emacron" unicode="&#x113;" horiz-adv-x="569" 
d="M463 149l54 -50q-72 -108 -208 -108q-125 0 -201 73.5t-76 196.5q0 119 69.5 195t195.5 76q104 0 172 -65t68 -171q0 -34 -5 -63h-410q4 -77 56 -120t134 -43q46 0 86.5 22t64.5 57zM291 455q-71 0 -115.5 -40t-54.5 -106h327q-4 69 -45.5 107.5t-111.5 38.5zM157 638v74
h269v-74h-269z" />
    <glyph glyph-name="Edotaccent" unicode="&#x116;" horiz-adv-x="637" 
d="M74 0v700h504v-85h-413v-218h385v-83h-385v-229h422v-85h-513zM276 827q0 21 15.5 34.5t37.5 13.5t37.5 -13.5t15.5 -34.5q0 -23 -15.5 -37.5t-37.5 -14.5q-23 0 -38 14.5t-15 37.5z" />
    <glyph glyph-name="edotaccent" unicode="&#x117;" horiz-adv-x="569" 
d="M463 149l54 -50q-72 -108 -208 -108q-125 0 -201 73.5t-76 196.5q0 119 69.5 195t195.5 76q104 0 172 -65t68 -171q0 -34 -5 -63h-410q4 -77 56 -120t134 -43q46 0 86.5 22t64.5 57zM291 455q-71 0 -115.5 -40t-54.5 -106h327q-4 69 -45.5 107.5t-111.5 38.5zM241 682
q0 21 15.5 35t38.5 14q21 0 36.5 -14t15.5 -35q0 -22 -15.5 -37t-36.5 -15q-23 0 -38.5 15t-15.5 37z" />
    <glyph glyph-name="Eogonek" unicode="&#x118;" horiz-adv-x="641" 
d="M74 0v700h508v-85h-417v-218h389v-83h-389v-229h426v-85h-5q-42 1 -80 -25t-38 -59q0 -48 56 -48q28 0 52 10l18 -57q-30 -21 -85 -21q-50 -1 -85.5 22t-35.5 70q0 73 86 108h-400z" />
    <glyph glyph-name="eogonek" unicode="&#x119;" horiz-adv-x="569" 
d="M463 149l54 -50q-37 -54 -92 -82q-78 -60 -78 -98q0 -21 12.5 -34.5t30.5 -13.5q24 0 45 10l25 -58q-33 -23 -83 -23q-47 0 -82 23.5t-35 65.5q0 57 74 103q-4 0 -12.5 -0.5t-12.5 -0.5q-125 0 -201 73.5t-76 196.5q0 119 69.5 195t195.5 76q104 0 172 -65t68 -171
q0 -34 -5 -63h-410q4 -77 56 -120t134 -43q46 0 86.5 22t64.5 57zM291 455q-71 0 -115.5 -40t-54.5 -106h327q-4 69 -45.5 107.5t-111.5 38.5z" />
    <glyph glyph-name="Ecaron" unicode="&#x11a;" horiz-adv-x="637" 
d="M74 0v700h504v-85h-413v-218h385v-83h-385v-229h422v-85h-513zM335 756l-183 106l37 53l148 -83l147 83l30 -52l-175 -107h-4z" />
    <glyph glyph-name="ecaron" unicode="&#x11b;" horiz-adv-x="569" 
d="M463 149l54 -50q-72 -108 -208 -108q-125 0 -201 73.5t-76 196.5q0 119 69.5 195t195.5 76q104 0 172 -65t68 -171q0 -34 -5 -63h-410q4 -77 56 -120t134 -43q46 0 86.5 22t64.5 57zM291 455q-71 0 -115.5 -40t-54.5 -106h327q-4 69 -45.5 107.5t-111.5 38.5zM284 619
l-149 126l44 53l107 -93l110 90l39 -51l-147 -125h-4z" />
    <glyph glyph-name="Gcircumflex" unicode="&#x11c;" horiz-adv-x="710" 
d="M394 275v83h280v-261q-46 -49 -119.5 -77.5t-150.5 -28.5q-161 0 -264.5 98.5t-103.5 260.5q0 151 102.5 255t254.5 104q179 0 264 -106l-57 -59q-71 78 -201 78q-120 0 -194 -75t-74 -197q0 -125 76.5 -198.5t198.5 -73.5q108 0 181 60v137h-193zM378 915l182 -107
l-36 -53l-148 79l-147 -79l-31 53l176 107h4z" />
    <glyph glyph-name="gcircumflex" unicode="&#x11d;" horiz-adv-x="593" 
d="M533 520v-480q0 -126 -63.5 -187.5t-169.5 -61.5q-85 0 -147.5 34t-84.5 92l75 33q17 -34 55.5 -56.5t96.5 -22.5q75 0 114 40.5t39 113.5v31q-29 -34 -62.5 -49.5t-94.5 -15.5q-118 0 -188.5 72.5t-70.5 197.5q0 123 74.5 196.5t185.5 73.5q55 0 95.5 -16.5t60.5 -40.5
v46h85zM305 70q53 0 91 29t52 70v209q-19 33 -56.5 53.5t-87.5 20.5q-78 0 -130.5 -51t-52.5 -142q0 -88 49.5 -138.5t134.5 -50.5zM301 785l149 -127l-44 -53l-106 93l-111 -90l-39 51l147 126h4z" />
    <glyph glyph-name="Gbreve" unicode="&#x11e;" horiz-adv-x="710" 
d="M394 275v83h280v-261q-46 -49 -119.5 -77.5t-150.5 -28.5q-161 0 -264.5 98.5t-103.5 260.5q0 151 102.5 255t254.5 104q179 0 264 -106l-57 -59q-71 78 -201 78q-120 0 -194 -75t-74 -197q0 -125 76.5 -198.5t198.5 -73.5q108 0 181 60v137h-193zM204 867l41 43
q53 -63 143 -63q88 0 140 63l36 -41q-25 -42 -73 -70t-103 -28q-65 0 -111.5 28t-72.5 68z" />
    <glyph glyph-name="gbreve" unicode="&#x11f;" horiz-adv-x="593" 
d="M533 520v-480q0 -126 -63.5 -187.5t-169.5 -61.5q-85 0 -147.5 34t-84.5 92l75 33q17 -34 55.5 -56.5t96.5 -22.5q75 0 114 40.5t39 113.5v31q-29 -34 -62.5 -49.5t-94.5 -15.5q-118 0 -188.5 72.5t-70.5 197.5q0 123 74.5 196.5t185.5 73.5q55 0 95.5 -16.5t60.5 -40.5
v46h85zM305 70q53 0 91 29t52 70v209q-19 33 -56.5 53.5t-87.5 20.5q-78 0 -130.5 -51t-52.5 -142q0 -88 49.5 -138.5t134.5 -50.5zM144 727l38 41q18 -21 50.5 -39t67.5 -18q76 0 119 56l30 -40q-61 -92 -152 -92q-52 0 -92 30t-61 62z" />
    <glyph glyph-name="Gdotaccent" unicode="&#x120;" horiz-adv-x="710" 
d="M394 275v83h280v-261q-46 -49 -119.5 -77.5t-150.5 -28.5q-161 0 -264.5 98.5t-103.5 260.5q0 151 102.5 255t254.5 104q179 0 264 -106l-57 -59q-71 78 -201 78q-120 0 -194 -75t-74 -197q0 -125 76.5 -198.5t198.5 -73.5q108 0 181 60v137h-193zM332 827
q0 21 15.5 34.5t37.5 13.5t37.5 -13.5t15.5 -34.5q0 -23 -15.5 -37.5t-37.5 -14.5q-23 0 -38 14.5t-15 37.5z" />
    <glyph glyph-name="gdotaccent" unicode="&#x121;" horiz-adv-x="593" 
d="M533 520v-480q0 -126 -63.5 -187.5t-169.5 -61.5q-85 0 -147.5 34t-84.5 92l75 33q17 -34 55.5 -56.5t96.5 -22.5q75 0 114 40.5t39 113.5v31q-29 -34 -62.5 -49.5t-94.5 -15.5q-118 0 -188.5 72.5t-70.5 197.5q0 123 74.5 196.5t185.5 73.5q55 0 95.5 -16.5t60.5 -40.5
v46h85zM305 70q53 0 91 29t52 70v209q-19 33 -56.5 53.5t-87.5 20.5q-78 0 -130.5 -51t-52.5 -142q0 -88 49.5 -138.5t134.5 -50.5zM253 682q0 21 15.5 35t38.5 14q21 0 36.5 -14t15.5 -35q0 -22 -15.5 -37t-36.5 -15q-23 0 -38.5 15t-15.5 37z" />
    <glyph glyph-name="Gcommaaccent" unicode="&#x122;" horiz-adv-x="710" 
d="M394 275v83h280v-261q-46 -49 -119.5 -77.5t-150.5 -28.5q-161 0 -264.5 98.5t-103.5 260.5q0 151 102.5 255t254.5 104q179 0 264 -106l-57 -59q-71 78 -201 78q-120 0 -194 -75t-74 -197q0 -125 76.5 -198.5t198.5 -73.5q108 0 181 60v137h-193zM360 -91l70 46
q40 -34 40 -79q0 -46 -25 -82.5t-56 -55.5l-40 33q39 37 39 81q0 29 -28 57z" />
    <glyph glyph-name="gcommaaccent" unicode="&#x123;" horiz-adv-x="593" 
d="M356 635l-70 -47q-39 35 -39 80q0 46 24.5 82t56.5 55l39 -33q-39 -39 -39 -81q0 -28 28 -56zM533 520v-480q0 -126 -63.5 -187.5t-169.5 -61.5q-85 0 -147.5 34t-84.5 92l75 33q17 -34 55.5 -56.5t96.5 -22.5q75 0 114 40.5t39 113.5v31q-29 -34 -62.5 -49.5
t-94.5 -15.5q-118 0 -188.5 72.5t-70.5 197.5q0 123 74.5 196.5t185.5 73.5q55 0 95.5 -16.5t60.5 -40.5v46h85zM305 70q53 0 91 29t52 70v209q-19 33 -56.5 53.5t-87.5 20.5q-78 0 -130.5 -51t-52.5 -142q0 -88 49.5 -138.5t134.5 -50.5z" />
    <glyph glyph-name="Hcircumflex" unicode="&#x124;" horiz-adv-x="747" 
d="M582 0v313h-417v-313h-91v700h91v-302h417v302h91v-700h-91zM372 915l182 -107l-36 -53l-148 79l-147 -79l-31 53l176 107h4z" />
    <glyph glyph-name="hcircumflex" unicode="&#x125;" horiz-adv-x="588" 
d="M61 0v730h84v-278q60 79 169 79q219 0 219 -236v-295h-84v287q0 84 -37 124.5t-114 40.5q-52 0 -92 -30t-61 -78v-344h-84zM112 895l182 -107l-36 -53l-148 79l-147 -79l-31 53l176 107h4z" />
    <glyph glyph-name="Hbar" unicode="&#x126;" horiz-adv-x="747" 
d="M0 515v74h74v111h91v-111h417v111h91v-111h74v-74h-74v-515h-91v313h-417v-313h-91v515h-74zM165 398h417v117h-417v-117z" />
    <glyph glyph-name="hbar" unicode="&#x127;" horiz-adv-x="588" 
d="M0 581v77h61v72h84v-72h111v-77h-111v-129q60 79 169 79q219 0 219 -236v-295h-84v287q0 84 -37 124.5t-114 40.5q-52 0 -92 -30t-61 -78v-344h-84v581h-61z" />
    <glyph glyph-name="Imacron" unicode="&#x12a;" horiz-adv-x="239" 
d="M74 0v700h91v-700h-91zM-32 789v73h301v-73h-301z" />
    <glyph glyph-name="imacron" unicode="&#x12b;" horiz-adv-x="244" 
d="M80 0v520h84v-520h-84zM-12 638v74h269v-74h-269z" />
    <glyph glyph-name="Iogonek" unicode="&#x12e;" horiz-adv-x="256" 
d="M160 -122l18 -57q-30 -21 -85 -21q-50 -1 -85.5 22t-35.5 70q0 41 30 71t81 45v692h91v-700h-4q-42 1 -80 -25t-38 -59q0 -48 56 -48q28 0 52 10z" />
    <glyph glyph-name="iogonek" unicode="&#x12f;" horiz-adv-x="244" 
d="M150 -119l25 -58q-33 -23 -83 -23q-48 0 -82.5 25t-34.5 73q0 39 29.5 67.5t75.5 43.5v511h84v-520h-6q-34 -1 -65 -25t-31 -56q0 -21 12.5 -34.5t30.5 -13.5q24 0 45 10zM69 679q0 21 15.5 35t38.5 14q21 0 36.5 -14t15.5 -35q0 -22 -15.5 -37t-36.5 -15q-23 0 -38.5 15
t-15.5 37z" />
    <glyph glyph-name="Idotaccent" unicode="&#x130;" horiz-adv-x="239" 
d="M74 0v700h91v-700h-91zM67 827q0 21 15.5 34.5t37.5 13.5t37.5 -13.5t15.5 -34.5q0 -23 -15.5 -37.5t-37.5 -14.5q-23 0 -38 14.5t-15 37.5z" />
    <glyph glyph-name="dotlessi" unicode="&#x131;" horiz-adv-x="244" 
d="M80 0v520h84v-520h-84z" />
    <glyph glyph-name="Jcircumflex" unicode="&#x134;" horiz-adv-x="477" 
d="M413 700v-488q0 -105 -56.5 -163t-151.5 -58q-77 0 -130 37.5t-79 89.5l68 52q22 -41 57.5 -68t76.5 -26q62 1 93 35.5t31 116.5v472h91zM358 915l182 -107l-36 -53l-148 79l-147 -79l-31 53l176 107h4z" />
    <glyph glyph-name="jcircumflex" unicode="&#x135;" horiz-adv-x="245" 
d="M167 520v-524q0 -205 -162 -205q-50 0 -89 21t-58 61l70 38q10 -13 16.5 -20t21.5 -13.5t35 -6.5q82 0 82 128v521h84zM124 785l149 -127l-44 -53l-106 93l-111 -90l-39 51l147 126h4z" />
    <glyph glyph-name="Kcommaaccent" unicode="&#x136;" horiz-adv-x="661" 
d="M74 0v700h91v-338l354 338h119l-330 -317l354 -383h-120l-302 323l-75 -72v-251h-91zM266 -91l70 46q40 -34 40 -79q0 -46 -25 -82.5t-56 -55.5l-40 33q39 37 39 81q0 29 -28 57z" />
    <glyph glyph-name="kcommaaccent" unicode="&#x137;" horiz-adv-x="524" 
d="M61 0v730h84v-441l252 231h113l-250 -231l267 -289h-111l-230 242l-41 -34v-208h-84zM200 -91l70 46q40 -34 40 -79q0 -46 -25 -82.5t-57 -55.5l-39 33q39 39 39 81q0 29 -28 57z" />
    <glyph glyph-name="Lacute" unicode="&#x139;" horiz-adv-x="590" 
d="M74 0v700h91v-615h415v-85h-506zM458 852l-200 -97l-31 56l193 115z" />
    <glyph glyph-name="lacute" unicode="&#x13a;" horiz-adv-x="222" 
d="M69 0v730h84v-730h-84zM298 859l-200 -97l-31 56l193 115z" />
    <glyph glyph-name="Lcommaaccent" unicode="&#x13b;" horiz-adv-x="590" 
d="M74 0v700h91v-615h415v-85h-506zM271 -91l70 46q40 -34 40 -79q0 -46 -25 -82.5t-56 -55.5l-40 33q39 37 39 81q0 29 -28 57z" />
    <glyph glyph-name="lcommaaccent" unicode="&#x13c;" horiz-adv-x="222" 
d="M69 0v730h84v-730h-84zM62 -91l70 46q40 -34 40 -79q0 -46 -25 -82.5t-57 -55.5l-39 33q39 39 39 81q0 29 -28 57z" />
    <glyph glyph-name="Lcaron" unicode="&#x13d;" horiz-adv-x="590" 
d="M74 0v700h91v-615h415v-85h-506zM384 700h87q12 -23 12 -64q0 -47 -28.5 -88t-66.5 -64l-37 35q23 18 37.5 48.5t14.5 56.5q0 49 -19 76z" />
    <glyph glyph-name="lcaron" unicode="&#x13e;" horiz-adv-x="238" 
d="M69 0v730h84v-730h-84zM223 730h87q12 -23 12 -64q0 -47 -28.5 -88t-66.5 -64l-37 35q23 18 37.5 48.5t14.5 56.5q0 49 -19 76z" />
    <glyph glyph-name="Ldot" unicode="&#x13f;" horiz-adv-x="590" 
d="M74 0v700h91v-615h415v-85h-506zM355 381q0 19 15.5 34t39.5 15q22 0 37.5 -15t15.5 -34q0 -21 -15.5 -37t-37.5 -16q-24 0 -39.5 15.5t-15.5 37.5z" />
    <glyph glyph-name="ldot" unicode="&#x140;" horiz-adv-x="297" 
d="M69 0v730h84v-730h-84zM206 359q0 19 15.5 34t39.5 15q22 0 37.5 -15t15.5 -34q0 -21 -15.5 -37t-37.5 -16q-24 0 -39.5 15.5t-15.5 37.5z" />
    <glyph glyph-name="Lslash" unicode="&#x141;" horiz-adv-x="598" 
d="M0 144v94l82 60v402h91v-335l203 149v-94l-203 -149v-186h415v-85h-506v204z" />
    <glyph glyph-name="lslash" unicode="&#x142;" horiz-adv-x="289" 
d="M0 191v93l100 73v373h84v-311l105 78v-94l-105 -77v-326h-84v264z" />
    <glyph glyph-name="Nacute" unicode="&#x143;" horiz-adv-x="736" 
d="M662 0h-71l-429 534v-534h-88v700h72l428 -536v536h88v-700zM547 852l-200 -97l-31 56l193 115z" />
    <glyph glyph-name="nacute" unicode="&#x144;" horiz-adv-x="589" 
d="M61 0v520h84v-68q25 38 72.5 58.5t105.5 20.5q211 0 211 -235v-296h-84v286q0 86 -37.5 126t-114.5 40q-48 0 -90 -29t-63 -76v-347h-84zM416 759l-122 -151l-56 39l114 160z" />
    <glyph glyph-name="Ncommaaccent" unicode="&#x145;" horiz-adv-x="736" 
d="M662 0h-71l-429 534v-534h-88v700h72l428 -536v536h88v-700zM327 -91l70 46q40 -34 40 -79q0 -46 -25 -82.5t-56 -55.5l-40 33q39 37 39 81q0 29 -28 57z" />
    <glyph glyph-name="ncommaaccent" unicode="&#x146;" horiz-adv-x="589" 
d="M61 0v520h84v-68q25 38 72.5 58.5t105.5 20.5q211 0 211 -235v-296h-84v286q0 86 -37.5 126t-114.5 40q-48 0 -90 -29t-63 -76v-347h-84zM235 -91l70 46q40 -34 40 -79q0 -46 -25 -82.5t-57 -55.5l-39 33q39 39 39 81q0 29 -28 57z" />
    <glyph glyph-name="Ncaron" unicode="&#x147;" horiz-adv-x="736" 
d="M662 0h-71l-429 534v-534h-88v700h72l428 -536v536h88v-700zM370 756l-183 106l37 53l148 -83l147 83l30 -52l-175 -107h-4z" />
    <glyph glyph-name="ncaron" unicode="&#x148;" horiz-adv-x="589" 
d="M61 0v520h84v-68q25 38 72.5 58.5t105.5 20.5q211 0 211 -235v-296h-84v286q0 86 -37.5 126t-114.5 40q-48 0 -90 -29t-63 -76v-347h-84zM293 619l-149 126l44 53l107 -93l110 90l39 -51l-147 -125h-4z" />
    <glyph glyph-name="Omacron" unicode="&#x14c;" horiz-adv-x="783" 
d="M36 350q0 152 103 255.5t253 103.5q149 0 252 -102t103 -257q0 -153 -103 -256t-252 -103q-150 0 -253 102t-103 257zM131 350q0 -117 76.5 -194.5t184.5 -77.5q111 0 185.5 77t74.5 195t-76.5 195t-183.5 77q-109 0 -185 -77t-76 -195zM241 789v73h301v-73h-301z" />
    <glyph glyph-name="omacron" unicode="&#x14d;" horiz-adv-x="616" 
d="M32 261q0 119 76.5 195t198.5 76q123 0 200 -76t77 -195q0 -118 -77.5 -194t-199.5 -76q-121 0 -198 76t-77 194zM121 261q0 -83 52 -137t134 -54q83 0 135.5 53t52.5 138t-53.5 138.5t-134.5 53.5t-133.5 -53t-52.5 -139zM174 638v74h269v-74h-269z" />
    <glyph glyph-name="Ohungarumlaut" unicode="&#x150;" horiz-adv-x="783" 
d="M36 350q0 152 103 255.5t253 103.5q149 0 252 -102t103 -257q0 -153 -103 -256t-252 -103q-150 0 -253 102t-103 257zM131 350q0 -117 76.5 -194.5t184.5 -77.5q111 0 185.5 77t74.5 195t-76.5 195t-183.5 77q-109 0 -185 -77t-76 -195zM641 848l-172 -99l-34 43l155 116
zM453 859l-159 -110l-34 41l132 118z" />
    <glyph glyph-name="ohungarumlaut" unicode="&#x151;" horiz-adv-x="616" 
d="M32 261q0 119 76.5 195t198.5 76q123 0 200 -76t77 -195q0 -118 -77.5 -194t-199.5 -76q-121 0 -198 76t-77 194zM121 261q0 -83 52 -137t134 -54q83 0 135.5 53t52.5 138t-53.5 138.5t-134.5 53.5t-133.5 -53t-52.5 -139zM517 768l-135 -160l-47 34l123 170zM363 774
l-128 -166l-48 34l118 174z" />
    <glyph glyph-name="OE" unicode="&#x152;" horiz-adv-x="1180" 
d="M614 0v78q-95 -87 -222 -87q-150 0 -253 102t-103 257q0 152 103 255.5t253 103.5q132 0 222 -84v75h508v-85h-417v-218h389v-83h-389v-229h426v-85h-517zM392 78q71 0 129 33t93 91v293q-36 59 -94.5 93t-127.5 34q-109 0 -185 -77t-76 -195q0 -117 76.5 -194.5
t184.5 -77.5z" />
    <glyph glyph-name="oe" unicode="&#x153;" horiz-adv-x="970" 
d="M864 149l55 -50q-74 -108 -209 -108q-129 0 -203 76q-78 -76 -200 -76q-121 0 -198 76t-77 194q0 119 76.5 195t198.5 76q121 0 198 -74q71 74 193 74q105 0 172.5 -64.5t67.5 -171.5q0 -32 -4 -63h-411q4 -77 56 -120t134 -43q46 0 86.5 22t64.5 57zM311 70
q100 0 150 61q-28 55 -28 130q0 72 25 128q-54 64 -151 64q-81 0 -133.5 -53t-52.5 -139q0 -84 53 -137.5t137 -53.5zM692 455q-71 0 -115.5 -40t-54.5 -106h328q-4 69 -46 107.5t-112 38.5z" />
    <glyph glyph-name="Racute" unicode="&#x154;" horiz-adv-x="678" 
d="M165 0h-91v700h268q271 0 271 -210q0 -74 -47 -128t-124 -70l224 -292h-111l-208 274h-182v-274zM339 615h-174v-256h180q80 0 127.5 35.5t47.5 95.5q0 125 -181 125zM468 852l-200 -97l-31 56l193 115z" />
    <glyph glyph-name="racute" unicode="&#x155;" horiz-adv-x="354" 
d="M61 0v520h84v-40q13 26 43 38.5t64 12.5q69 0 106 -47l-53 -58q-19 26 -62 26q-34 0 -61.5 -25t-36.5 -65v-362h-84zM311 759l-122 -151l-56 39l114 160z" />
    <glyph glyph-name="Rcommaaccent" unicode="&#x156;" horiz-adv-x="678" 
d="M165 0h-91v700h268q271 0 271 -210q0 -74 -47 -128t-124 -70l224 -292h-111l-208 274h-182v-274zM339 615h-174v-256h180q80 0 127.5 35.5t47.5 95.5q0 125 -181 125zM284 -91l70 46q40 -34 40 -79q0 -46 -25 -82.5t-56 -55.5l-40 33q39 37 39 81q0 29 -28 57z" />
    <glyph glyph-name="rcommaaccent" unicode="&#x157;" horiz-adv-x="354" 
d="M61 0v520h84v-40q13 26 43 38.5t64 12.5q69 0 106 -47l-53 -58q-19 26 -62 26q-34 0 -61.5 -25t-36.5 -65v-362h-84zM82 -91l70 46q40 -34 40 -79q0 -46 -25 -82.5t-57 -55.5l-39 33q39 39 39 81q0 29 -28 57z" />
    <glyph glyph-name="Rcaron" unicode="&#x158;" horiz-adv-x="678" 
d="M165 0h-91v700h268q271 0 271 -210q0 -74 -47 -128t-124 -70l224 -292h-111l-208 274h-182v-274zM339 615h-174v-256h180q80 0 127.5 35.5t47.5 95.5q0 125 -181 125zM309 756l-183 106l37 53l148 -83l147 83l30 -52l-175 -107h-4z" />
    <glyph glyph-name="rcaron" unicode="&#x159;" horiz-adv-x="354" 
d="M61 0v520h84v-40q13 26 43 38.5t64 12.5q69 0 106 -47l-53 -58q-19 26 -62 26q-34 0 -61.5 -25t-36.5 -65v-362h-84zM195 619l-149 126l44 53l107 -93l110 90l39 -51l-147 -125h-4z" />
    <glyph glyph-name="Sacute" unicode="&#x15a;" horiz-adv-x="613" 
d="M480 186q0 35 -24 59t-62 37.5t-84 25t-92 26t-84 35t-62 58t-24 90.5q0 81 71.5 136.5t187.5 55.5q176 0 255 -102l-59 -59q-75 75 -198 75q-61 0 -112 -25.5t-51 -78.5q0 -40 32 -66.5t80 -38.5t104 -28.5t104 -35t80 -58.5t32 -99q0 -89 -72 -145.5t-182 -56.5
q-90 0 -169.5 39.5t-117.5 95.5l59 64q37 -48 99 -80.5t138 -32.5q63 0 107 29.5t44 79.5zM483 852l-200 -97l-31 56l193 115z" />
    <glyph glyph-name="sacute" unicode="&#x15b;" horiz-adv-x="497" 
d="M380 142q0 33 -34 53t-82.5 30.5t-97.5 24.5t-83 47t-34 86q0 69 59.5 109t156.5 40q65 0 115.5 -25t78.5 -65l-59 -55q-49 66 -150 66q-45 0 -78.5 -17t-33.5 -49q0 -30 34 -47t82.5 -28t97 -26t82.5 -51t34 -92q0 -76 -56.5 -114t-151.5 -38q-80 0 -143.5 33.5
t-91.5 89.5l67 47q23 -41 72.5 -66t109.5 -25q106 0 106 72zM374 759l-122 -151l-56 39l114 160z" />
    <glyph glyph-name="Scircumflex" unicode="&#x15c;" horiz-adv-x="613" 
d="M480 186q0 35 -24 59t-62 37.5t-84 25t-92 26t-84 35t-62 58t-24 90.5q0 81 71.5 136.5t187.5 55.5q176 0 255 -102l-59 -59q-75 75 -198 75q-61 0 -112 -25.5t-51 -78.5q0 -40 32 -66.5t80 -38.5t104 -28.5t104 -35t80 -58.5t32 -99q0 -89 -72 -145.5t-182 -56.5
q-90 0 -169.5 39.5t-117.5 95.5l59 64q37 -48 99 -80.5t138 -32.5q63 0 107 29.5t44 79.5zM308 915l182 -107l-36 -53l-148 79l-147 -79l-31 53l176 107h4z" />
    <glyph glyph-name="scircumflex" unicode="&#x15d;" horiz-adv-x="497" 
d="M380 142q0 33 -34 53t-82.5 30.5t-97.5 24.5t-83 47t-34 86q0 69 59.5 109t156.5 40q65 0 115.5 -25t78.5 -65l-59 -55q-49 66 -150 66q-45 0 -78.5 -17t-33.5 -49q0 -30 34 -47t82.5 -28t97 -26t82.5 -51t34 -92q0 -76 -56.5 -114t-151.5 -38q-80 0 -143.5 33.5
t-91.5 89.5l67 47q23 -41 72.5 -66t109.5 -25q106 0 106 72zM253 785l149 -127l-44 -53l-106 93l-111 -90l-39 51l147 126h4z" />
    <glyph glyph-name="Scedilla" unicode="&#x15e;" horiz-adv-x="613" 
d="M194 -169l29 48q37 -22 77 -22q48 0 48 28q0 29 -54 29h-19v80q-78 10 -144 46.5t-98 85.5l59 64q37 -48 99 -80.5t138 -32.5q63 0 107 29.5t44 79.5q0 35 -24 59t-62 37.5t-84 25t-92 26t-84 35t-62 58t-24 90.5q0 81 71.5 136.5t187.5 55.5q176 0 255 -102l-59 -59
q-75 75 -198 75q-61 0 -112 -25.5t-51 -78.5q0 -40 32 -66.5t80 -38.5t104 -28.5t104 -35t80 -58.5t32 -99q0 -88 -69.5 -144t-176.5 -58v-28q103 -4 103 -82q0 -37 -29.5 -61t-90.5 -24q-73 0 -117 35z" />
    <glyph glyph-name="scedilla" unicode="&#x15f;" horiz-adv-x="497" 
d="M143 -170l25 49q39 -22 77 -22q49 0 49 28q0 29 -55 29h-18v79q-67 7 -119.5 39.5t-76.5 81.5l67 47q23 -41 71.5 -66t102.5 -25q45 0 79.5 17.5t34.5 54.5q0 28 -34.5 47t-83.5 32t-98.5 29.5t-84 50t-34.5 82.5q0 70 55 109.5t151 39.5q64 0 120.5 -25.5t83.5 -64.5
l-59 -55q-21 29 -64.5 47.5t-91.5 18.5q-106 0 -106 -66q0 -27 34.5 -45t83.5 -31t98 -30.5t83.5 -52t34.5 -85.5q0 -72 -55 -110.5t-140 -40.5v-29q50 -2 75 -24t25 -58q0 -37 -31.5 -61t-93.5 -24q-60 0 -105 34z" />
    <glyph glyph-name="Scaron" unicode="&#x160;" horiz-adv-x="613" 
d="M480 186q0 35 -24 59t-62 37.5t-84 25t-92 26t-84 35t-62 58t-24 90.5q0 81 71.5 136.5t187.5 55.5q176 0 255 -102l-59 -59q-75 75 -198 75q-61 0 -112 -25.5t-51 -78.5q0 -40 32 -66.5t80 -38.5t104 -28.5t104 -35t80 -58.5t32 -99q0 -89 -72 -145.5t-182 -56.5
q-90 0 -169.5 39.5t-117.5 95.5l59 64q37 -48 99 -80.5t138 -32.5q63 0 107 29.5t44 79.5zM308 756l-183 106l37 53l148 -83l147 83l30 -52l-175 -107h-4z" />
    <glyph glyph-name="scaron" unicode="&#x161;" horiz-adv-x="497" 
d="M380 142q0 33 -34 53t-82.5 30.5t-97.5 24.5t-83 47t-34 86q0 69 59.5 109t156.5 40q65 0 115.5 -25t78.5 -65l-59 -55q-49 66 -150 66q-45 0 -78.5 -17t-33.5 -49q0 -30 34 -47t82.5 -28t97 -26t82.5 -51t34 -92q0 -76 -56.5 -114t-151.5 -38q-80 0 -143.5 33.5
t-91.5 89.5l67 47q23 -41 72.5 -66t109.5 -25q106 0 106 72zM247 619l-149 126l44 53l107 -93l110 90l39 -51l-147 -125h-4z" />
    <glyph glyph-name="Tcedilla" unicode="&#x162;" horiz-adv-x="583" 
d="M3 615v85h578v-85h-244v-615h-19v-37q50 -2 74.5 -24t24.5 -58q0 -37 -29.5 -61t-91.5 -24q-72 0 -117 35l30 48q37 -22 76 -22q49 0 49 28q0 29 -55 29h-15v86h-18v615h-243z" />
    <glyph glyph-name="tcedilla" unicode="&#x163;" horiz-adv-x="410" 
d="M143 -170l25 49q39 -22 77 -22q49 0 49 28q0 29 -55 29h-18v84q-117 25 -117 191v251h-98v80h98v113h84v-113h179v-80h-179v-229q0 -76 21 -107t69 -31q46 0 80 44l52 -49q-20 -31 -57 -51.5t-80 -22.5v-31q50 -2 75 -24t25 -58q0 -37 -31.5 -61t-93.5 -24q-60 0 -105 34
z" />
    <glyph glyph-name="Tcaron" unicode="&#x164;" horiz-adv-x="583" 
d="M3 615v85h578v-85h-244v-615h-91v615h-243zM293 756l-183 106l37 53l148 -83l147 83l30 -52l-175 -107h-4z" />
    <glyph glyph-name="tcaron" unicode="&#x165;" horiz-adv-x="406" 
d="M6 440v80h98v113h84v-422q0 -76 21 -107t69 -31q46 0 80 44l52 -49q-21 -32 -60.5 -53.5t-86.5 -21.5q-77 0 -118 50t-41 146v251h-98zM277 719h87q12 -22 12 -64q0 -47 -28.5 -88t-66.5 -64l-37 35q23 18 37.5 48.5t14.5 56.5q0 49 -19 76z" />
    <glyph glyph-name="Umacron" unicode="&#x16a;" horiz-adv-x="730" 
d="M660 700v-404q0 -151 -84 -227.5t-202 -76.5q-130 0 -217 81t-87 229v398h91v-385q0 -112 60.5 -174.5t152.5 -62.5q95 0 145 62t50 170v390h91zM214 789v73h301v-73h-301z" />
    <glyph glyph-name="umacron" unicode="&#x16b;" horiz-adv-x="581" 
d="M521 523v-523h-84v74q-60 -83 -169 -83q-108 0 -161 56t-53 175v301h84v-289q0 -164 137 -164q54 0 96 29.5t66 83.5v340h84zM157 638v74h269v-74h-269z" />
    <glyph glyph-name="Ubreve" unicode="&#x16c;" horiz-adv-x="730" 
d="M660 700v-404q0 -151 -84 -227.5t-202 -76.5q-130 0 -217 81t-87 229v398h91v-385q0 -112 60.5 -174.5t152.5 -62.5q95 0 145 62t50 170v390h91zM184 867l41 43q53 -63 143 -63q88 0 140 63l36 -41q-25 -42 -73 -70t-103 -28q-65 0 -111.5 28t-72.5 68z" />
    <glyph glyph-name="ubreve" unicode="&#x16d;" horiz-adv-x="581" 
d="M521 523v-523h-84v74q-60 -83 -169 -83q-108 0 -161 56t-53 175v301h84v-289q0 -164 137 -164q54 0 96 29.5t66 83.5v340h84zM132 727l38 41q18 -21 50.5 -39t67.5 -18q76 0 119 56l30 -40q-61 -92 -152 -92q-52 0 -92 30t-61 62z" />
    <glyph glyph-name="Uring" unicode="&#x16e;" horiz-adv-x="730" 
d="M660 700v-404q0 -151 -84 -227.5t-202 -76.5q-130 0 -217 81t-87 229v398h91v-385q0 -112 60.5 -174.5t152.5 -62.5q95 0 145 62t50 170v390h91zM243 829q0 47 35.5 73.5t85.5 26.5q52 0 88 -26t36 -74q0 -47 -34.5 -75.5t-89.5 -28.5q-54 0 -87.5 28t-33.5 76zM308 829
q0 -22 15.5 -35.5t41.5 -13.5q28 0 42.5 13.5t14.5 35.5q0 20 -15.5 32.5t-41.5 12.5t-41.5 -12.5t-15.5 -32.5z" />
    <glyph glyph-name="uring" unicode="&#x16f;" horiz-adv-x="581" 
d="M521 523v-523h-84v74q-60 -83 -169 -83q-108 0 -161 56t-53 175v301h84v-289q0 -164 137 -164q54 0 96 29.5t66 83.5v340h84zM181 701q0 44 31.5 75t77.5 31t78 -31t32 -75t-32 -74.5t-78 -30.5t-77.5 30.5t-31.5 74.5zM242 702q0 -22 13.5 -36t35.5 -14q21 0 34.5 13.5
t13.5 36.5t-13 36t-35 13t-35.5 -13.5t-13.5 -35.5z" />
    <glyph glyph-name="Uhungarumlaut" unicode="&#x170;" horiz-adv-x="730" 
d="M660 700v-404q0 -151 -84 -227.5t-202 -76.5q-130 0 -217 81t-87 229v398h91v-385q0 -112 60.5 -174.5t152.5 -62.5q95 0 145 62t50 170v390h91zM613 848l-172 -99l-34 43l155 116zM425 859l-159 -110l-34 41l132 118z" />
    <glyph glyph-name="uhungarumlaut" unicode="&#x171;" horiz-adv-x="581" 
d="M521 523v-523h-84v74q-60 -83 -169 -83q-108 0 -161 56t-53 175v301h84v-289q0 -164 137 -164q54 0 96 29.5t66 83.5v340h84zM496 768l-135 -160l-47 34l123 170zM342 774l-128 -166l-48 34l118 174z" />
    <glyph glyph-name="Uogonek" unicode="&#x172;" horiz-adv-x="730" 
d="M660 700v-404q0 -137 -69.5 -212.5t-173.5 -88.5q-48 -31 -48 -74q0 -53 56 -53q27 0 51 10l19 -57q-30 -21 -85 -21q-50 -1 -86 22t-36 70q0 57 67 101q-123 6 -204 86.5t-81 222.5v398h91v-385q0 -112 60.5 -174.5t152.5 -62.5q95 0 145 62t50 170v390h91z" />
    <glyph glyph-name="uogonek" unicode="&#x173;" horiz-adv-x="581" 
d="M506 -119l25 -58q-33 -23 -83 -23q-48 0 -82.5 25t-34.5 73q0 40 30 68.5t76 43.5v64q-60 -83 -169 -83q-108 0 -161 56t-53 175v301h84v-289q0 -164 137 -164q54 0 96 29.5t66 83.5v340h84v-523h-7q-34 -1 -65 -25t-31 -56q0 -21 12.5 -34.5t30.5 -13.5q24 0 45 10z" />
    <glyph glyph-name="Ydieresis" unicode="&#x178;" horiz-adv-x="632" 
d="M642 700l-282 -435v-265h-91v265l-279 435h111l216 -339l219 339h106zM144 825q0 22 16 35.5t40 13.5q20 0 36 -14t16 -35t-16 -34.5t-36 -13.5q-25 0 -40.5 13t-15.5 35zM381 825q0 21 16 35t38 14q21 0 36.5 -13.5t15.5 -35.5t-15.5 -35t-36.5 -13q-23 0 -38.5 13
t-15.5 35z" />
    <glyph glyph-name="Zacute" unicode="&#x179;" horiz-adv-x="631" 
d="M31 615v85h570v-61l-459 -554h469v-85h-598v61l457 554h-439zM483 852l-200 -97l-31 56l193 115z" />
    <glyph glyph-name="zacute" unicode="&#x17a;" horiz-adv-x="496" 
d="M36 441v79h440v-55l-329 -386h323v-79h-450v56l329 385h-313zM367 759l-122 -151l-56 39l114 160z" />
    <glyph glyph-name="Zdotaccent" unicode="&#x17b;" horiz-adv-x="631" 
d="M31 615v85h570v-61l-459 -554h469v-85h-598v61l457 554h-439zM263 827q0 21 15.5 34.5t37.5 13.5t37.5 -13.5t15.5 -34.5q0 -23 -15.5 -37.5t-37.5 -14.5q-23 0 -38 14.5t-15 37.5z" />
    <glyph glyph-name="zdotaccent" unicode="&#x17c;" horiz-adv-x="496" 
d="M36 441v79h440v-55l-329 -386h323v-79h-450v56l329 385h-313zM195 682q0 21 15.5 35t38.5 14q21 0 36.5 -14t15.5 -35q0 -22 -15.5 -37t-36.5 -15q-23 0 -38.5 15t-15.5 37z" />
    <glyph glyph-name="Zcaron" unicode="&#x17d;" horiz-adv-x="631" 
d="M31 615v85h570v-61l-459 -554h469v-85h-598v61l457 554h-439zM317 756l-183 106l37 53l148 -83l147 83l30 -52l-175 -107h-4z" />
    <glyph glyph-name="zcaron" unicode="&#x17e;" horiz-adv-x="496" 
d="M36 441v79h440v-55l-329 -386h323v-79h-450v56l329 385h-313zM247 619l-149 126l44 53l107 -93l110 90l39 -51l-147 -125h-4z" />
    <glyph glyph-name="uni018F" unicode="&#x18f;" horiz-adv-x="756" 
d="M29 317q0 43 10 83h587q-13 103 -82.5 163.5t-182.5 60.5q-60 0 -122.5 -29t-101.5 -78l-61 58q48 64 128 99t164 35q162 0 257 -96t95 -260q0 -160 -95 -261t-258 -101q-85 0 -152.5 31t-106.5 80t-59 104.5t-20 110.5zM626 315h-508q3 -103 70 -171t184 -68
q107 0 178.5 66.5t75.5 172.5z" />
    <glyph glyph-name="florin" unicode="&#x192;" horiz-adv-x="570" 
d="M344 496q-6 -28 -8 -42h154v-79h-168l-65 -362q-8 -49 -17.5 -81.5t-28.5 -68t-51.5 -53.5t-78.5 -18q-67 0 -108 39l28 66q31 -26 70 -26q41 0 63.5 27t32.5 83l71 394h-145v79h159l9 56q16 92 58.5 145.5t130.5 53.5q74 0 122 -38l-31 -68q-35 27 -83 27
q-49 0 -74 -30.5t-40 -103.5z" />
    <glyph glyph-name="uni01DD" unicode="&#x1dd;" horiz-adv-x="569" 
d="M106 374l-54 50q80 108 231 108q109 0 181.5 -74.5t72.5 -195.5q0 -119 -69.5 -195t-195.5 -76q-104 0 -172 67t-68 174q0 33 5 62h411q-4 75 -52.5 117t-115.5 42q-120 0 -174 -79zM278 68q71 0 117.5 42.5t52.5 107.5h-327q4 -67 46 -108.5t111 -41.5z" />
    <glyph glyph-name="Scommaaccent" unicode="&#x218;" horiz-adv-x="613" 
d="M480 186q0 35 -24 59t-62 37.5t-84 25t-92 26t-84 35t-62 58t-24 90.5q0 81 71.5 136.5t187.5 55.5q176 0 255 -102l-59 -59q-75 75 -198 75q-61 0 -112 -25.5t-51 -78.5q0 -40 32 -66.5t80 -38.5t104 -28.5t104 -35t80 -58.5t32 -99q0 -89 -72 -145.5t-182 -56.5
q-90 0 -169.5 39.5t-117.5 95.5l59 64q37 -48 99 -80.5t138 -32.5q63 0 107 29.5t44 79.5zM257 -91l70 46q40 -34 40 -79q0 -46 -25 -82.5t-56 -55.5l-40 33q39 37 39 81q0 29 -28 57z" />
    <glyph glyph-name="scommaaccent" unicode="&#x219;" horiz-adv-x="497" 
d="M380 142q0 33 -34 53t-82.5 30.5t-97.5 24.5t-83 47t-34 86q0 69 59.5 109t156.5 40q65 0 115.5 -25t78.5 -65l-59 -55q-49 66 -150 66q-45 0 -78.5 -17t-33.5 -49q0 -30 34 -47t82.5 -28t97 -26t82.5 -51t34 -92q0 -76 -56.5 -114t-151.5 -38q-80 0 -143.5 33.5
t-91.5 89.5l67 47q23 -41 72.5 -66t109.5 -25q106 0 106 72zM200 -91l70 46q40 -34 40 -79q0 -46 -25 -82.5t-57 -55.5l-39 33q39 39 39 81q0 29 -28 57z" />
    <glyph glyph-name="Tcommaaccent" unicode="&#x21a;" horiz-adv-x="583" 
d="M3 615v85h578v-85h-244v-615h-91v615h-243zM242 -91l70 46q40 -34 40 -79q0 -46 -25 -82.5t-56 -55.5l-40 33q39 37 39 81q0 29 -28 57z" />
    <glyph glyph-name="tcommaaccent" unicode="&#x21b;" horiz-adv-x="420" 
d="M6 440v80h108v133h84v-133h179v-80h-179v-229q0 -76 21 -107t69 -31q47 0 94 37l38 -62q-50 -55 -147 -55q-77 0 -118 50t-41 146v251h-108zM192 -91l70 46q40 -34 40 -79q0 -46 -25 -82.5t-57 -55.5l-39 33q39 39 39 81q0 29 -28 57z" />
    <glyph glyph-name="uni0237" unicode="&#x237;" horiz-adv-x="245" 
d="M167 520v-524q0 -205 -162 -205q-50 0 -89 21t-58 61l70 38q10 -13 16.5 -20t21.5 -13.5t35 -6.5q82 0 82 128v521h84z" />
    <glyph glyph-name="uni0259" unicode="&#x259;" horiz-adv-x="569" 
d="M106 374l-54 50q80 108 231 108q109 0 181.5 -74.5t72.5 -195.5q0 -119 -69.5 -195t-195.5 -76q-104 0 -172 67t-68 174q0 33 5 62h411q-4 75 -52.5 117t-115.5 42q-120 0 -174 -79zM278 68q71 0 117.5 42.5t52.5 107.5h-327q4 -67 46 -108.5t111 -41.5z" />
    <glyph glyph-name="afii57929" unicode="&#x2bc;" horiz-adv-x="182" 
d="M73 688l71 45q38 -35 38 -91q0 -87 -95 -146l-37 35q50 37 50 88q0 37 -27 69z" />
    <glyph glyph-name="circumflex" unicode="&#x2c6;" horiz-adv-x="455" 
d="M306 785l149 -127l-44 -53l-106 93l-111 -90l-39 51l147 126h4z" />
    <glyph glyph-name="caron" unicode="&#x2c7;" horiz-adv-x="452" 
d="M301 619l-149 126l44 53l107 -93l110 90l39 -51l-147 -125h-4z" />
    <glyph glyph-name="breve" unicode="&#x2d8;" horiz-adv-x="453" 
d="M148 727l38 41q18 -21 50.5 -39t67.5 -18q76 0 119 56l30 -40q-61 -92 -152 -92q-52 0 -92 30t-61 62z" />
    <glyph glyph-name="dotaccent" unicode="&#x2d9;" horiz-adv-x="250" 
d="M69 682q0 21 15.5 35t38.5 14q21 0 36.5 -14t15.5 -35q0 -22 -15.5 -37t-36.5 -15q-23 0 -38.5 15t-15.5 37z" />
    <glyph glyph-name="ring" unicode="&#x2da;" horiz-adv-x="418" 
d="M199 701q0 44 31.5 75t77.5 31t78 -31t32 -75t-32 -74.5t-78 -30.5t-77.5 30.5t-31.5 74.5zM260 702q0 -22 13.5 -36t35.5 -14q21 0 34.5 13.5t13.5 36.5t-13 36t-35 13t-35.5 -13.5t-13.5 -35.5z" />
    <glyph glyph-name="ogonek" unicode="&#x2db;" horiz-adv-x="374" 
d="M349 -119l25 -58q-33 -23 -83 -23q-48 0 -82.5 25t-34.5 73q0 57 59.5 91t126.5 34v-23q-34 0 -66.5 -24.5t-32.5 -56.5q0 -21 12.5 -34.5t30.5 -13.5q24 0 45 10z" />
    <glyph glyph-name="tilde" unicode="&#x2dc;" horiz-adv-x="462" 
d="M168 624l-38 41q58 63 113 63q24 0 62.5 -23.5t58.5 -23.5q36 0 67 33l31 -43q-48 -61 -105 -61q-28 0 -64.5 23.5t-54.5 23.5q-30 0 -70 -33z" />
    <glyph glyph-name="hungarumlaut" unicode="&#x2dd;" horiz-adv-x="531" 
d="M531 768l-135 -160l-47 34l123 170zM377 774l-128 -166l-48 34l118 174z" />
    <glyph glyph-name="gravecomb" unicode="&#x300;" horiz-adv-x="0" 
d="M-281 608l-128 149l66 50l112 -159z" />
    <glyph glyph-name="acutecomb" unicode="&#x301;" horiz-adv-x="0" 
d="M-181 759l-122 -151l-56 39l114 160z" />
    <glyph glyph-name="uni0394" unicode="&#x394;" horiz-adv-x="720" 
d="M25 0l303 708h57l310 -708h-670zM356 558l-203 -479h412z" />
    <glyph glyph-name="uni0394" unicode="&#x2206;" horiz-adv-x="720" 
d="M25 0l303 708h57l310 -708h-670zM356 558l-203 -479h412z" />
    <glyph glyph-name="uni03A9" unicode="&#x3a9;" horiz-adv-x="813" 
d="M76 0v86h128q-55 22 -99 98t-44 181q0 151 99 247.5t247 96.5q150 0 248 -96.5t98 -247.5q0 -106 -45.5 -178t-106.5 -101h136v-86h-285v86q83 24 145 98t62 175q0 109 -72.5 186.5t-179.5 77.5q-109 0 -180.5 -75.5t-71.5 -189.5q0 -103 62.5 -179.5t142.5 -92.5v-86
h-284z" />
    <glyph glyph-name="uni03A9" unicode="&#x2126;" horiz-adv-x="813" 
d="M76 0v86h128q-55 22 -99 98t-44 181q0 151 99 247.5t247 96.5q150 0 248 -96.5t98 -247.5q0 -106 -45.5 -178t-106.5 -101h136v-86h-285v86q83 24 145 98t62 175q0 109 -72.5 186.5t-179.5 77.5q-109 0 -180.5 -75.5t-71.5 -189.5q0 -103 62.5 -179.5t142.5 -92.5v-86
h-284z" />
    <glyph glyph-name="pi" unicode="&#x3c0;" horiz-adv-x="688" 
d="M45 441v79h602v-79h-112v-291q0 -42 12 -60t41 -18q28 0 66 25l18 -68q-47 -36 -105 -36q-116 0 -116 140v308h-206v-66q0 -152 -24 -236t-68 -114t-122 -30l-5 81q34 0 56 10t41 39t28 86.5t9 147.5l1 82h-116z" />
    <glyph glyph-name="afii10023" unicode="&#x401;" horiz-adv-x="637" 
d="M74 0v700h504v-85h-413v-218h385v-83h-385v-229h422v-85h-513zM155 825q0 22 16 35.5t40 13.5q20 0 36 -14t16 -35t-16 -34.5t-36 -13.5q-25 0 -40.5 13t-15.5 35zM392 825q0 21 16 35t38 14q21 0 36.5 -13.5t15.5 -35.5t-15.5 -35t-36.5 -13q-23 0 -38.5 13t-15.5 35z
" />
    <glyph glyph-name="afii10051" unicode="&#x402;" horiz-adv-x="742" 
d="M614 204q0 70 -33.5 108t-101.5 39q-42 1 -82 -20t-62 -56v-275h-91v615h-241v85h576v-85h-244v-239q24 25 67.5 42.5t95.5 17.5q92 0 149.5 -54.5t57.5 -168.5q0 -113 -50.5 -167.5t-129.5 -54.5q-78 0 -112 54l54 58q22 -27 55 -27q43 0 67.5 32t24.5 96z" />
    <glyph glyph-name="afii10052" unicode="&#x403;" horiz-adv-x="572" 
d="M74 0v700h498v-85h-407v-615h-91zM487 852l-200 -97l-31 56l193 115z" />
    <glyph glyph-name="afii10053" unicode="&#x404;" horiz-adv-x="684" 
d="M479 399v-85h-351q11 -115 87 -176.5t189 -61.5q60 0 112 27.5t81 74.5l68 -40q-33 -71 -108 -109t-150 -38q-168 0 -269.5 98t-101.5 261q0 158 100 258.5t263 100.5q73 0 145.5 -30.5t109.5 -89.5l-67 -51q-28 41 -81 63.5t-113 22.5q-104 0 -176 -61.5t-87 -163.5h349
z" />
    <glyph glyph-name="afii10054" unicode="&#x405;" horiz-adv-x="613" 
d="M480 186q0 35 -24 59t-62 37.5t-84 25t-92 26t-84 35t-62 58t-24 90.5q0 81 71.5 136.5t187.5 55.5q176 0 255 -102l-59 -59q-75 75 -198 75q-61 0 -112 -25.5t-51 -78.5q0 -40 32 -66.5t80 -38.5t104 -28.5t104 -35t80 -58.5t32 -99q0 -89 -72 -145.5t-182 -56.5
q-90 0 -169.5 39.5t-117.5 95.5l59 64q37 -48 99 -80.5t138 -32.5q63 0 107 29.5t44 79.5z" />
    <glyph glyph-name="afii10055" unicode="&#x406;" horiz-adv-x="239" 
d="M74 0v700h91v-700h-91z" />
    <glyph glyph-name="afii10056" unicode="&#x407;" horiz-adv-x="256" 
d="M-1 804q0 20 14.5 33t35.5 13q20 0 35 -13t15 -33t-15 -33.5t-35 -13.5q-21 0 -35.5 13t-14.5 34zM157 804q0 20 15 33t36 13q20 0 34.5 -13t14.5 -33t-14.5 -33.5t-34.5 -13.5q-21 0 -36 13t-15 34zM83 0v700h91v-700h-91z" />
    <glyph glyph-name="afii10057" unicode="&#x408;" horiz-adv-x="477" 
d="M413 700v-488q0 -105 -56.5 -163t-151.5 -58q-77 0 -130 37.5t-79 89.5l68 52q22 -41 57.5 -68t76.5 -26q62 1 93 35.5t31 116.5v472h91z" />
    <glyph glyph-name="afii10058" unicode="&#x409;" horiz-adv-x="1041" 
d="M746 354h-131v-269h124q180 0 180 141q0 128 -173 128zM615 700v-260h133q135 0 200.5 -56t65.5 -158q0 -110 -73.5 -168t-203.5 -58h-213v615h-287v-43q0 -140 -11.5 -245t-30 -166.5t-45.5 -99t-53.5 -50.5t-59.5 -13q-14 0 -42 2v88q25 -4 44.5 2.5t40.5 35.5t34.5 82
t22.5 149t9 229v114h469z" />
    <glyph glyph-name="afii10059" unicode="&#x40a;" horiz-adv-x="1047" 
d="M624 421h134q262 0 262 -205q0 -109 -71.5 -162.5t-202.5 -53.5h-213v336h-368v-336h-91v700h91v-279h368v279h91v-279zM756 336h-132v-251h124q89 0 133 30.5t44 99.5q0 63 -41.5 92t-127.5 29z" />
    <glyph glyph-name="afii10060" unicode="&#x40b;" horiz-adv-x="732" 
d="M3 615v85h576v-85h-244v-236q69 57 155 57q96 0 151 -56t55 -174v-206h-91v192q0 159 -132 159q-37 0 -76 -20t-62 -52v-279h-91v615h-241z" />
    <glyph glyph-name="afii10061" unicode="&#x40c;" horiz-adv-x="661" 
d="M74 0v700h91v-338l354 338h119l-330 -317l354 -383h-120l-302 323l-75 -72v-251h-91zM482 852l-200 -97l-31 56l193 115z" />
    <glyph glyph-name="afii10062" unicode="&#x40e;" horiz-adv-x="677" 
d="M174 28l45 67q15 -11 32 -11q40 0 83 90l-339 526h109l277 -433l207 433h94l-262 -540q-39 -82 -78.5 -121t-93.5 -39q-46 0 -74 28zM151 896h85q27 -62 103 -62q38 0 65 16t35 46h86q-7 -59 -59.5 -97.5t-124.5 -38.5q-78 0 -127.5 37.5t-62.5 98.5z" />
    <glyph glyph-name="afii10145" unicode="&#x40f;" horiz-adv-x="723" 
d="M74 0v700h91v-615h392v615h91v-700h-244v-150h-87v150h-243z" />
    <glyph glyph-name="afii10017" unicode="&#x410;" horiz-adv-x="688" 
d="M1 0l307 702h72l307 -702h-95l-78 177h-343l-77 -177h-93zM342 575l-137 -318h275z" />
    <glyph glyph-name="afii10018" unicode="&#x411;" horiz-adv-x="660" 
d="M574 700v-85h-409v-201h208q124 0 188.5 -51.5t64.5 -148.5q0 -108 -73 -161t-207 -53h-272v700h500zM359 329h-194v-244h188q179 0 179 128q0 116 -173 116z" />
    <glyph glyph-name="afii10019" unicode="&#x412;" horiz-adv-x="673" 
d="M74 0v700h283q134 0 190.5 -46t56.5 -128q0 -117 -99 -160q58 -12 91 -55t33 -111q0 -103 -73 -151.5t-204 -48.5h-278zM361 316h-196v-231h186q95 0 139.5 29t44.5 91q0 111 -174 111zM349 615h-184v-216h199q67 0 107 28.5t40 79.5q0 56 -36.5 82t-125.5 26z" />
    <glyph glyph-name="afii10020" unicode="&#x413;" horiz-adv-x="572" 
d="M74 0v700h498v-85h-407v-615h-91z" />
    <glyph glyph-name="afii10021" unicode="&#x414;" horiz-adv-x="738" 
d="M0 -128v213h74q33 52 63 183t30 347v85h473v-615h88v-213h-87v128h-554v-128h-87zM254 615v-65q0 -128 -24.5 -264t-57.5 -201h377v530h-295z" />
    <glyph glyph-name="afii10022" unicode="&#x415;" horiz-adv-x="637" 
d="M74 0v700h504v-85h-413v-218h385v-83h-385v-229h422v-85h-513z" />
    <glyph glyph-name="afii10024" unicode="&#x416;" horiz-adv-x="929" 
d="M308 381l-300 319h111l300 -315v315h91v-316l300 316h112l-303 -319l309 -381h-109l-269 331l-40 -39v-292h-91v293l-44 41l-268 -334h-105z" />
    <glyph glyph-name="afii10025" unicode="&#x417;" horiz-adv-x="646" 
d="M326 -10q-108 0 -190 39t-123 105l68 50q87 -109 244 -109q82 0 134 36.5t52 94.5q0 50 -48.5 79.5t-130.5 29.5h-123v85h117q67 0 113.5 31.5t46.5 80.5q0 57 -50.5 85t-126.5 28q-130 0 -209 -102l-69 49q99 138 289 138q113 0 185.5 -52t72.5 -144q0 -48 -29.5 -86.5
t-78.5 -62.5q64 -16 98.5 -60.5t34.5 -98.5q0 -99 -79 -157.5t-198 -58.5z" />
    <glyph glyph-name="afii10026" unicode="&#x418;" horiz-adv-x="742" 
d="M151 0h-77v700h91v-542l424 542h78v-700h-91v542z" />
    <glyph glyph-name="afii10027" unicode="&#x419;" horiz-adv-x="742" 
d="M151 0h-77v700h91v-542l424 542h78v-700h-91v542zM184 896h85q27 -62 103 -62q38 0 65 16t35 46h86q-7 -59 -59.5 -97.5t-124.5 -38.5q-78 0 -127.5 37.5t-62.5 98.5z" />
    <glyph glyph-name="afii10028" unicode="&#x41a;" horiz-adv-x="661" 
d="M74 0v700h91v-338l354 338h119l-330 -317l354 -383h-120l-302 323l-75 -72v-251h-91z" />
    <glyph glyph-name="afii10029" unicode="&#x41b;" horiz-adv-x="704" 
d="M539 0v615h-302v-43q0 -140 -11.5 -245t-30 -166.5t-45.5 -99t-53.5 -50.5t-59.5 -13q-14 0 -42 2v88q25 -4 44.5 2.5t40.5 35.5t34.5 82t22.5 149t9 229v114h484v-700h-91z" />
    <glyph glyph-name="afii10030" unicode="&#x41c;" horiz-adv-x="837" 
d="M74 0v700h84l266 -352l257 352h82v-700h-91v543l-239 -322h-22l-246 322v-543h-91z" />
    <glyph glyph-name="afii10031" unicode="&#x41d;" horiz-adv-x="747" 
d="M582 0v313h-417v-313h-91v700h91v-302h417v302h91v-700h-91z" />
    <glyph glyph-name="afii10032" unicode="&#x41e;" horiz-adv-x="783" 
d="M36 350q0 152 103 255.5t253 103.5q149 0 252 -102t103 -257q0 -153 -103 -256t-252 -103q-150 0 -253 102t-103 257zM131 350q0 -117 76.5 -194.5t184.5 -77.5q111 0 185.5 77t74.5 195t-76.5 195t-183.5 77q-109 0 -185 -77t-76 -195z" />
    <glyph glyph-name="afii10033" unicode="&#x41f;" horiz-adv-x="743" 
d="M578 0v615h-413v-615h-91v700h595v-700h-91z" />
    <glyph glyph-name="afii10034" unicode="&#x420;" horiz-adv-x="663" 
d="M165 0h-91v700h272q287 0 287 -220q0 -95 -69.5 -158.5t-218.5 -63.5h-180v-258zM350 615h-185v-273h178q99 0 147.5 37t48.5 102q0 134 -189 134z" />
    <glyph glyph-name="afii10035" unicode="&#x421;" horiz-adv-x="688" 
d="M617 172l52 -58q-40 -56 -113.5 -89.5t-158.5 -33.5q-165 0 -263 97.5t-98 261.5q0 154 97.5 256.5t256.5 102.5q90 0 160.5 -32.5t108.5 -83.5l-59 -57q-86 86 -208 86q-121 0 -191 -75t-70 -197q0 -123 75 -197.5t197 -74.5q130 0 214 94z" />
    <glyph glyph-name="afii10036" unicode="&#x422;" horiz-adv-x="583" 
d="M3 615v85h578v-85h-244v-615h-91v615h-243z" />
    <glyph glyph-name="afii10037" unicode="&#x423;" horiz-adv-x="677" 
d="M174 28l45 67q15 -11 32 -11q40 0 83 90l-339 526h109l277 -433l207 433h94l-262 -540q-39 -82 -78.5 -121t-93.5 -39q-46 0 -74 28z" />
    <glyph glyph-name="afii10038" unicode="&#x424;" horiz-adv-x="855" 
d="M382 -15v85h-5q-162 0 -255.5 78.5t-93.5 211.5q0 139 96.5 214.5t257.5 75.5v65h91v-65q153 0 253.5 -75t100.5 -215q0 -133 -94 -211.5t-255 -78.5h-5v-85h-91zM475 566h-2v-412h5q120 0 187.5 53.5t67.5 152.5q0 98 -65.5 152t-192.5 54zM122 360q0 -94 67 -150
t189 -56h4v412q-118 0 -189 -52t-71 -154z" />
    <glyph glyph-name="afii10039" unicode="&#x425;" horiz-adv-x="660" 
d="M639 700l-253 -344l261 -356h-109l-208 283l-208 -283h-109l262 356l-251 344h108l199 -271l198 271h110z" />
    <glyph glyph-name="afii10040" unicode="&#x426;" horiz-adv-x="745" 
d="M74 0v700h91v-615h390v615h91v-615h89v-213h-87v128h-574z" />
    <glyph glyph-name="afii10041" unicode="&#x427;" horiz-adv-x="685" 
d="M611 700v-700h-91v298q-32 -20 -89 -35t-112 -15q-121 0 -197 57t-76 173v222h91v-178q0 -189 198 -189q92 0 185 53v314h91z" />
    <glyph glyph-name="afii10042" unicode="&#x428;" horiz-adv-x="941" 
d="M74 0v700h91v-615h260v615h91v-615h260v615h91v-700h-793z" />
    <glyph glyph-name="afii10043" unicode="&#x429;" horiz-adv-x="965" 
d="M74 0v700h91v-615h260v615h91v-615h260v615h91v-615h88v-213h-87v128h-794z" />
    <glyph glyph-name="afii10044" unicode="&#x42a;" horiz-adv-x="748" 
d="M0 615v85h258v-260h181q140 0 211.5 -55t71.5 -159q0 -112 -76.5 -169t-216.5 -57h-262v615h-167zM437 355h-179v-270h175q194 0 194 141q0 64 -49 96.5t-141 32.5z" />
    <glyph glyph-name="afii10045" unicode="&#x42b;" horiz-adv-x="852" 
d="M687 0v700h91v-700h-91zM316 355h-151v-270h148q193 0 193 141q0 129 -190 129zM165 700v-260h154q139 0 210.5 -56.5t71.5 -157.5q0 -110 -76.5 -168t-215.5 -58h-235v700h91z" />
    <glyph glyph-name="afii10046" unicode="&#x42c;" horiz-adv-x="656" 
d="M345 355h-180v-270h177q193 0 193 141q0 129 -190 129zM165 700v-260h183q140 0 211 -55.5t71 -158.5q0 -110 -76 -168t-215 -58h-265v700h91z" />
    <glyph glyph-name="afii10047" unicode="&#x42d;" horiz-adv-x="696" 
d="M201 315v85h364q-12 103 -81.5 163.5t-182.5 60.5q-60 0 -122.5 -29t-101.5 -78l-61 58q48 64 127.5 99t163.5 35q163 0 257.5 -96t94.5 -260q0 -160 -96 -261t-264 -101q-82 0 -159 33t-126 101l62 52q35 -48 98 -74.5t130 -26.5q111 0 182 66t80 173h-365z" />
    <glyph glyph-name="afii10048" unicode="&#x42e;" horiz-adv-x="991" 
d="M74 0v700h91v-303h114q17 135 109.5 223.5t227.5 88.5q150 0 244.5 -101t94.5 -258q0 -155 -96 -257t-243 -102q-141 0 -232.5 90t-105.5 235h-113v-316h-91zM370 350q0 -119 70 -196t176 -77q111 0 177.5 76t66.5 197q0 120 -68 196.5t-176 76.5q-107 0 -176.5 -76.5
t-69.5 -196.5z" />
    <glyph glyph-name="afii10049" unicode="&#x42f;" horiz-adv-x="676" 
d="M511 0v259h-188l-213 -259h-110l227 274q-84 17 -132 71t-48 135q0 96 70.5 158t205.5 62h279v-700h-91zM297 344h214v271h-197q-88 0 -130 -37t-42 -100q0 -54 41.5 -91.5t113.5 -42.5z" />
    <glyph glyph-name="afii10065" unicode="&#x430;" horiz-adv-x="534" 
d="M101 395l-43 63q36 34 93 54t115 20q104 0 158.5 -55t54.5 -156v-321h-84v77q-25 -36 -72 -60t-110 -24q-85 0 -137 43.5t-52 115.5q0 82 66 121.5t183 39.5q73 0 122 -15q0 76 -31 115.5t-108 39.5q-78 0 -155 -58zM233 69q59 0 102.5 32t59.5 70v53q-43 15 -111 15
q-171 0 -171 -84q0 -40 33 -63t87 -23z" />
    <glyph glyph-name="afii10066" unicode="&#x431;" horiz-adv-x="604" 
d="M505 743l15 -77q-43 -17 -140 -27.5t-135 -28.5q-113 -55 -130 -208l4 -1q65 102 209 102q110 0 177 -65.5t67 -181.5q0 -113 -74 -189.5t-190 -76.5q-127 0 -200.5 81.5t-73.5 230.5q0 150 38.5 240.5t136.5 140.5q52 26 156 37t140 23zM123 287v-7q0 -96 51.5 -153
t132.5 -57q79 0 127.5 51.5t48.5 129.5q0 79 -45 125.5t-128 46.5q-72 0 -121.5 -40t-65.5 -96z" />
    <glyph glyph-name="afii10067" unicode="&#x432;" horiz-adv-x="540" 
d="M61 0v520h216q109 0 161 -30.5t52 -102.5t-67 -113q84 -25 84 -125q0 -73 -55.5 -111t-158.5 -38h-232zM294 227h-149v-149h139q134 0 134 75q0 74 -124 74zM274 442h-129v-139h158q46 0 72 18.5t26 53.5q0 40 -32 53.5t-95 13.5z" />
    <glyph glyph-name="afii10068" unicode="&#x433;" horiz-adv-x="442" 
d="M61 0v520h379v-79h-295v-441h-84z" />
    <glyph glyph-name="afii10069" unicode="&#x434;" horiz-adv-x="604" 
d="M4 -126v206h58q40 61 56.5 152.5t16.5 239.5v48h382v-440h75v-206h-80v126h-428v-126h-80zM214 440v-36q0 -200 -62 -324h281v360h-219z" />
    <glyph glyph-name="afii10070" unicode="&#x435;" horiz-adv-x="569" 
d="M463 149l54 -50q-72 -108 -208 -108q-125 0 -201 73.5t-76 196.5q0 119 69.5 195t195.5 76q104 0 172 -65t68 -171q0 -34 -5 -63h-410q4 -77 56 -120t134 -43q46 0 86.5 22t64.5 57zM291 455q-71 0 -115.5 -40t-54.5 -106h327q-4 69 -45.5 107.5t-111.5 38.5z" />
    <glyph glyph-name="afii10072" unicode="&#x436;" horiz-adv-x="734" 
d="M226 280l-221 240h107l211 -227v227h84v-227l214 227h104l-223 -238l232 -282h-104l-189 231l-34 -32v-199h-84v198l-36 29l-185 -227h-102z" />
    <glyph glyph-name="afii10073" unicode="&#x437;" horiz-adv-x="514" 
d="M249 -10q-161 0 -235 119l66 46q22 -40 67 -63.5t103 -23.5q62 0 102 24t40 66q0 69 -104 69h-122v76h116q38 0 64.5 20.5t26.5 54.5q0 37 -35.5 57t-91.5 20q-95 0 -154 -73l-62 41q26 45 84 77.5t140 32.5q98 0 153 -38.5t55 -103.5q0 -74 -62 -112q45 -22 63 -50
t18 -69q0 -79 -65 -124.5t-167 -45.5z" />
    <glyph glyph-name="afii10074" unicode="&#x438;" 
d="M138 0h-77v520h84v-390l316 390h78v-520h-84v389z" />
    <glyph glyph-name="afii10075" unicode="&#x439;" 
d="M138 0h-77v520h84v-390l316 390h78v-520h-84v389zM141 744h79q1 -37 24 -59.5t65 -22.5q40 0 63 22.5t23 59.5h79q-1 -68 -48 -108.5t-117 -40.5q-75 0 -121 40t-47 109z" />
    <glyph glyph-name="afii10076" unicode="&#x43a;" horiz-adv-x="526" 
d="M61 0v520h84v-233l263 233h113l-269 -239l282 -281h-112l-234 229l-43 -40v-189h-84z" />
    <glyph glyph-name="afii10077" unicode="&#x43b;" horiz-adv-x="574" 
d="M429 0v440h-220v-24q0 -126 -14.5 -212.5t-43 -131.5t-64.5 -61.5t-85 -10.5v80q23 0 39 5t33 24.5t27.5 54.5t17 98t6.5 151v107h388v-520h-84z" />
    <glyph glyph-name="afii10078" unicode="&#x43c;" horiz-adv-x="650" 
d="M61 0v520h77l192 -254l187 254h72v-520h-84v372l-176 -240l-184 240v-372h-84z" />
    <glyph glyph-name="afii10079" unicode="&#x43d;" horiz-adv-x="590" 
d="M445 0v225h-300v-225h-84v520h84v-216h300v216h84v-520h-84z" />
    <glyph glyph-name="afii10080" unicode="&#x43e;" horiz-adv-x="616" 
d="M32 261q0 119 76.5 195t198.5 76q123 0 200 -76t77 -195q0 -118 -77.5 -194t-199.5 -76q-121 0 -198 76t-77 194zM121 261q0 -83 52 -137t134 -54q83 0 135.5 53t52.5 138t-53.5 138.5t-134.5 53.5t-133.5 -53t-52.5 -139z" />
    <glyph glyph-name="afii10081" unicode="&#x43f;" horiz-adv-x="584" 
d="M439 0v441h-294v-441h-84v520h462v-520h-84z" />
    <glyph glyph-name="afii10082" unicode="&#x440;" horiz-adv-x="594" 
d="M61 -200v720h84v-65q52 77 168 77q114 0 181.5 -73t67.5 -190q0 -120 -72.5 -199t-186.5 -79q-105 0 -158 53v-244h-84zM304 453q-57 0 -99 -32t-60 -76v-194q45 -81 151 -81q77 0 127 54t50 139q0 87 -45.5 138.5t-123.5 51.5z" />
    <glyph glyph-name="afii10083" unicode="&#x441;" horiz-adv-x="532" 
d="M464 150l60 -43q-29 -55 -89 -85.5t-125 -30.5q-125 0 -201.5 73.5t-76.5 196.5q0 117 76 194t197 77q70 0 127.5 -29t83.5 -77l-65 -44q-52 71 -144 71q-81 0 -133.5 -54t-52.5 -138q0 -86 54.5 -138.5t142.5 -52.5q93 0 146 80z" />
    <glyph glyph-name="afii10084" unicode="&#x442;" horiz-adv-x="486" 
d="M1 441v79h484v-79h-201v-441h-84v441h-199z" />
    <glyph glyph-name="afii10085" unicode="&#x443;" horiz-adv-x="521" 
d="M73 -198l33 73q12 -5 22 -5q29 0 52 24t49 86l16 39l-252 501h99l195 -395l147 395h92l-198 -512q-51 -126 -95.5 -172t-101.5 -46q-33 0 -58 12z" />
    <glyph glyph-name="afii10086" unicode="&#x444;" horiz-adv-x="715" 
d="M315 -200v190h-6q-130 0 -204.5 75t-74.5 194q0 112 75 191t203 79h7v201h84v-201h8q125 0 201.5 -76.5t76.5 -193.5q0 -119 -74.5 -194t-205.5 -75h-6v-190h-84zM119 259q0 -87 49 -138t141 -51h6v379h-7q-91 0 -140 -52.5t-49 -137.5zM405 449h-6v-379h6
q94 0 142.5 50.5t48.5 138.5q0 83 -50 136.5t-141 53.5z" />
    <glyph glyph-name="afii10087" unicode="&#x445;" horiz-adv-x="535" 
d="M522 520l-199 -251l209 -269h-105l-161 209l-163 -209h-100l208 268l-197 252h105l150 -191l151 191h102z" />
    <glyph glyph-name="afii10088" unicode="&#x446;" horiz-adv-x="605" 
d="M61 0v520h84v-440h291v440h84v-440h73v-206h-79v126h-453z" />
    <glyph glyph-name="afii10089" unicode="&#x447;" horiz-adv-x="543" 
d="M482 520v-520h-84v219q-57 -57 -159 -57q-205 0 -205 207v151h84v-128q0 -79 33.5 -114.5t102.5 -35.5q45 0 84.5 21t59.5 50v207h84z" />
    <glyph glyph-name="afii10090" unicode="&#x448;" horiz-adv-x="748" 
d="M61 0v520h84v-440h187v440h84v-440h187v440h84v-520h-626z" />
    <glyph glyph-name="afii10091" unicode="&#x449;" horiz-adv-x="772" 
d="M61 0v520h84v-440h187v440h84v-440h187v440h84v-440h73v-206h-78v126h-621z" />
    <glyph glyph-name="afii10092" unicode="&#x44a;" horiz-adv-x="592" 
d="M2 440v80h220v-161h132q213 0 213 -179q0 -79 -52 -129.5t-167 -50.5h-210v440h-136zM345 279h-123v-199h122q72 0 103.5 25t31.5 74q0 100 -134 100z" />
    <glyph glyph-name="afii10093" unicode="&#x44b;" horiz-adv-x="690" 
d="M61 0v520h84v-162h112q115 0 164.5 -49t49.5 -129q0 -79 -53 -129.5t-169 -50.5h-188zM248 278h-103v-198h102q72 0 103.5 25t31.5 74q0 99 -134 99zM545 0v520h85v-520h-85z" />
    <glyph glyph-name="afii10094" unicode="&#x44c;" horiz-adv-x="516" 
d="M61 0v520h84v-162h134q213 0 213 -178q0 -79 -52.5 -129.5t-168.5 -50.5h-210zM268 278h-123v-198h123q72 0 103.5 25t31.5 74q0 99 -135 99z" />
    <glyph glyph-name="afii10095" unicode="&#x44d;" horiz-adv-x="543" 
d="M162 228v76h258q-10 74 -57.5 111.5t-122.5 37.5q-112 0 -168 -83l-64 45q83 117 234 117q124 0 196.5 -73t72.5 -198q0 -119 -72 -194.5t-197 -75.5q-166 0 -233 108l63 47q53 -76 163 -76q79 0 129.5 44t57.5 114h-260z" />
    <glyph glyph-name="afii10096" unicode="&#x44e;" horiz-adv-x="811" 
d="M61 0v520h84v-213h104q15 101 86.5 163t176.5 62q118 0 192.5 -76t74.5 -195q0 -118 -75 -194t-192 -76q-109 0 -181 65t-83 171h-103v-227h-84zM335 261q0 -84 50.5 -136t127.5 -52q78 0 127.5 51.5t49.5 136.5q0 84 -49.5 136.5t-127.5 52.5q-76 0 -127 -53t-51 -136z
" />
    <glyph glyph-name="afii10097" unicode="&#x44f;" horiz-adv-x="538" 
d="M268 520h209v-520h-84v184h-127l-154 -184h-102l166 197q-60 11 -96.5 53.5t-36.5 102.5q0 74 54 120.5t171 46.5zM132 351q0 -38 33.5 -62.5t90.5 -24.5h137v176h-135q-126 0 -126 -89z" />
    <glyph glyph-name="afii10071" unicode="&#x451;" horiz-adv-x="569" 
d="M463 149l54 -50q-72 -108 -208 -108q-125 0 -201 73.5t-76 196.5q0 119 69.5 195t195.5 76q104 0 172 -65t68 -171q0 -34 -5 -63h-410q4 -77 56 -120t134 -43q46 0 86.5 22t64.5 57zM291 455q-71 0 -115.5 -40t-54.5 -106h327q-4 69 -45.5 107.5t-111.5 38.5zM129 682
q0 20 15 33.5t35 13.5t35.5 -13.5t15.5 -33.5q0 -22 -15.5 -35.5t-35.5 -13.5t-35 13.5t-15 35.5zM358 682q0 20 15.5 33.5t37.5 13.5q20 0 35.5 -13.5t15.5 -33.5q0 -22 -15.5 -35.5t-35.5 -13.5q-22 0 -37.5 13.5t-15.5 35.5z" />
    <glyph glyph-name="afii10099" unicode="&#x452;" horiz-adv-x="649" 
d="M0 520v78h136v132h85v-132h221v-78h-221v-182q66 75 171 75q221 0 221 -239q0 -258 -227 -379l-47 62q187 100 187 302q0 174 -152 174q-45 0 -90.5 -31t-62.5 -71v-231h-85v520h-136z" />
    <glyph glyph-name="afii10100" unicode="&#x453;" horiz-adv-x="442" 
d="M61 0v520h379v-79h-295v-441h-84zM385 759l-122 -151l-56 39l114 160z" />
    <glyph glyph-name="afii10101" unicode="&#x454;" horiz-adv-x="542" 
d="M369 304v-76h-248q9 -77 61 -117.5t130 -40.5q94 0 143 71l65 -38q-33 -55 -90 -83.5t-127 -28.5q-120 0 -195.5 75.5t-75.5 194.5q0 124 76.5 197.5t201.5 73.5q64 0 120 -24.5t88 -74.5l-63 -46q-48 66 -146 66q-74 0 -124.5 -38.5t-61.5 -110.5h246z" />
    <glyph glyph-name="afii10102" unicode="&#x455;" horiz-adv-x="497" 
d="M380 142q0 33 -34 53t-82.5 30.5t-97.5 24.5t-83 47t-34 86q0 69 59.5 109t156.5 40q65 0 115.5 -25t78.5 -65l-59 -55q-49 66 -150 66q-45 0 -78.5 -17t-33.5 -49q0 -30 34 -47t82.5 -28t97 -26t82.5 -51t34 -92q0 -76 -56.5 -114t-151.5 -38q-80 0 -143.5 33.5
t-91.5 89.5l67 47q23 -41 72.5 -66t109.5 -25q106 0 106 72z" />
    <glyph glyph-name="afii10103" unicode="&#x456;" horiz-adv-x="228" 
d="M72 0v520h84v-520h-84zM61 689q0 21 15.5 35t38.5 14q21 0 36.5 -14t15.5 -35q0 -22 -15.5 -37t-36.5 -15q-23 0 -38.5 15t-15.5 37z" />
    <glyph glyph-name="afii10104" unicode="&#x457;" horiz-adv-x="257" 
d="M86 0v520h84v-520h-84zM4 680q0 21 14 35t34 14q18 0 32 -14t14 -35q0 -23 -14 -37t-32 -14q-20 0 -34 14.5t-14 36.5zM161 680q0 22 14 35.5t33 13.5t32.5 -13.5t13.5 -35.5q0 -23 -13.5 -37t-32.5 -14t-33 14.5t-14 36.5z" />
    <glyph glyph-name="afii10105" unicode="&#x458;" horiz-adv-x="229" 
d="M159 520v-548q0 -82 -41 -131.5t-121 -49.5q-50 0 -89 21t-58 61l72 40q21 -42 71 -42q82 0 82 111v538h84zM63 690q0 21 15.5 34.5t38.5 13.5q22 0 36.5 -13.5t14.5 -34.5q0 -23 -14 -37.5t-37 -14.5t-38.5 14.5t-15.5 37.5z" />
    <glyph glyph-name="afii10106" unicode="&#x459;" horiz-adv-x="828" 
d="M429 440h-220v-24q0 -126 -14.5 -212.5t-43 -131.5t-64.5 -61.5t-85 -10.5v80q23 0 39 5t33 24.5t27.5 54.5t17 98t6.5 151v107h388v-166h76q213 0 213 -176q0 -78 -52 -128t-167 -50h-154v440zM581 274h-68v-194h70q71 0 100.5 24.5t29.5 72.5q0 49 -31 73t-101 24z" />
    <glyph glyph-name="afii10107" unicode="&#x45a;" horiz-adv-x="843" 
d="M61 0v520h84v-197h299v197h84v-197h76q117 0 165 -41t48 -119q0 -163 -221 -163h-152v243h-299v-243h-84zM595 244h-67v-164h66q73 0 103.5 20t30.5 62q0 44 -30.5 63t-102.5 19z" />
    <glyph glyph-name="afii10108" unicode="&#x45b;" horiz-adv-x="648" 
d="M0 520v78h137v132h84v-132h221v-78h-221v-183q60 72 173 72q216 0 216 -236v-173h-84v164q0 83 -35.5 124t-116.5 41q-48 0 -91 -27t-62 -74v-228h-84v520h-137z" />
    <glyph glyph-name="afii10109" unicode="&#x45c;" horiz-adv-x="526" 
d="M61 0v520h84v-233l263 233h113l-269 -239l282 -281h-112l-234 229l-43 -40v-189h-84zM395 759l-122 -151l-56 39l114 160z" />
    <glyph glyph-name="afii10110" unicode="&#x45e;" horiz-adv-x="521" 
d="M73 -198l33 73q12 -5 22 -5q29 0 52 24t49 86l16 39l-252 501h99l195 -395l147 395h92l-198 -512q-51 -126 -95.5 -172t-101.5 -46q-33 0 -58 12zM103 744h79q1 -37 24 -59.5t65 -22.5q40 0 63 22.5t23 59.5h79q-1 -68 -48 -108.5t-117 -40.5q-75 0 -121 40t-47 109z" />
    <glyph glyph-name="afii10193" unicode="&#x45f;" horiz-adv-x="581" 
d="M61 0v520h84v-440h291v440h84v-520h-190v-146h-79v146h-190z" />
    <glyph glyph-name="afii10146" unicode="&#x462;" horiz-adv-x="718" 
d="M1 517l-1 85h136v98h91v-98h237v-85h-237v-92h182q282 0 282 -206q0 -110 -75.5 -164.5t-215.5 -54.5h-264v517h-135zM407 340h-180v-255h177q96 0 144 32t48 102q0 121 -189 121z" />
    <glyph glyph-name="afii10194" unicode="&#x463;" horiz-adv-x="578" 
d="M388 445h-181v-102h133q213 0 213 -170q0 -76 -52.5 -124.5t-168.5 -48.5h-209v445h-121v75h121v210h84v-210h181v-75zM329 262h-122v-182h122q73 0 104 23t31 69t-32 68t-103 22z" />
    <glyph glyph-name="afii10147" unicode="&#x472;" horiz-adv-x="783" 
d="M36 350q0 152 103 255.5t253 103.5q149 0 252 -102t103 -257q0 -153 -103 -256t-252 -103q-150 0 -253 102t-103 257zM392 78q101 0 172.5 64.5t84.5 167.5h-516q13 -102 86.5 -167t172.5 -65zM392 622q-98 0 -170.5 -63.5t-87.5 -163.5h514q-15 100 -87.5 163.5
t-168.5 63.5z" />
    <glyph glyph-name="afii10195" unicode="&#x473;" horiz-adv-x="616" 
d="M32 261q0 119 76.5 195t198.5 76q123 0 200 -76t77 -195q0 -118 -77.5 -194t-199.5 -76q-121 0 -198 76t-77 194zM307 70q74 0 124 43t61 114h-369q11 -70 61 -113.5t123 -43.5zM307 453q-71 0 -120.5 -41t-62.5 -110h367q-13 69 -63 110t-121 41z" />
    <glyph glyph-name="afii10148" unicode="&#x474;" horiz-adv-x="769" 
d="M641 531l-243 -531h-66l-336 700h98l273 -572l200 447q60 132 152 132q39 0 74 -25l-38 -71q-11 11 -31 11q-22 0 -41.5 -21.5t-41.5 -69.5z" />
    <glyph glyph-name="afii10196" unicode="&#x475;" horiz-adv-x="566" 
d="M450 353l-158 -353h-62l-243 520h97l179 -389l122 275q52 119 132 118q46 -2 76 -32l-40 -63q-11 12 -30 12q-34 0 -73 -88z" />
    <glyph glyph-name="afii10050" unicode="&#x490;" horiz-adv-x="572" 
d="M74 0v700h412v126h86v-211h-407v-615h-91z" />
    <glyph glyph-name="afii10098" unicode="&#x491;" horiz-adv-x="442" 
d="M61 0v520h299v105h80v-185h-295v-440h-84z" />
    <glyph glyph-name="uni1E9E" unicode="&#x1e9e;" horiz-adv-x="656" 
d="M335 708q98 0 157.5 -40.5t83.5 -105.5l-151 -173q188 -17 188 -190q-1 -97 -63 -153t-170 -56q-71 0 -121 26l29 81q42 -20 93 -20q63 0 101.5 31.5t38.5 90.5q0 116 -164 116h-38v69l151 175q-43 64 -138 64q-168 0 -168 -182v-441h-91v459q0 69 21.5 119t59 77.5
t82.5 40t99 12.5z" />
    <glyph glyph-name="uni2010" unicode="&#x2010;" horiz-adv-x="409" 
d="M76 237v77h256v-77h-256z" />
    <glyph glyph-name="uni2011" unicode="&#x2011;" horiz-adv-x="409" 
d="M76 237v77h256v-77h-256z" />
    <glyph glyph-name="figuredash" unicode="&#x2012;" 
d="M89 321v74h421v-74h-421z" />
    <glyph glyph-name="endash" unicode="&#x2013;" 
d="M89 237v74h421v-74h-421z" />
    <glyph glyph-name="emdash" unicode="&#x2014;" horiz-adv-x="795" 
d="M89 237v74h618v-74h-618z" />
    <glyph glyph-name="quoteleft" unicode="&#x2018;" horiz-adv-x="243" 
d="M170 540l-71 -44q-38 42 -38 87q0 95 94 149l38 -35q-48 -34 -48 -93q0 -33 25 -64z" />
    <glyph glyph-name="quoteright" unicode="&#x2019;" horiz-adv-x="243" 
d="M73 688l71 45q37 -41 37 -87q0 -95 -94 -150l-37 35q47 35 47 94q0 35 -24 63z" />
    <glyph glyph-name="quotesinglbase" unicode="&#x201a;" horiz-adv-x="243" 
d="M73 56l71 44q37 -41 37 -87q0 -96 -94 -149l-37 35q47 33 47 94q0 35 -24 63z" />
    <glyph glyph-name="quotedblleft" unicode="&#x201c;" horiz-adv-x="399" 
d="M170 540l-71 -44q-38 42 -38 87q0 95 94 149l38 -35q-48 -34 -48 -93q0 -33 25 -64zM326 540l-71 -44q-38 42 -38 87q0 95 94 149l38 -35q-48 -34 -48 -93q0 -33 25 -64z" />
    <glyph glyph-name="quotedblright" unicode="&#x201d;" horiz-adv-x="399" 
d="M229 688l71 45q37 -41 37 -87q0 -95 -94 -150l-37 35q47 35 47 94q0 35 -24 63zM73 688l71 45q37 -41 37 -87q0 -95 -94 -150l-37 35q47 35 47 94q0 35 -24 63z" />
    <glyph glyph-name="quotedblbase" unicode="&#x201e;" horiz-adv-x="399" 
d="M229 56l71 44q37 -41 37 -87q0 -96 -94 -149l-37 35q47 33 47 94q0 35 -24 63zM73 56l71 44q37 -41 37 -87q0 -96 -94 -149l-37 35q47 33 47 94q0 35 -24 63z" />
    <glyph glyph-name="dagger" unicode="&#x2020;" horiz-adv-x="441" 
d="M33 396v82h145v222h86v-222h145v-82h-145v-492h-86v492h-145z" />
    <glyph glyph-name="daggerdbl" unicode="&#x2021;" horiz-adv-x="446" 
d="M36 403v78h145v219h83v-219h145v-78h-145v-173h145v-78h-145v-248h-83v248h-145v78h145v173h-145z" />
    <glyph glyph-name="bullet" unicode="&#x2022;" horiz-adv-x="281" 
d="M44 361q0 29 21.5 49.5t52.5 20.5q29 0 50.5 -20.5t21.5 -49.5q0 -28 -21.5 -49t-50.5 -21q-31 0 -52.5 20.5t-21.5 49.5z" />
    <glyph glyph-name="ellipsis" unicode="&#x2026;" horiz-adv-x="815" 
d="M639 50q0 19 16 34.5t40 15.5q22 0 37.5 -15.5t15.5 -34.5q0 -21 -15.5 -36.5t-37.5 -15.5q-25 0 -40.5 15.5t-15.5 36.5zM353 50q0 19 16 34.5t40 15.5q22 0 37.5 -15.5t15.5 -34.5q0 -21 -15.5 -36.5t-37.5 -15.5q-25 0 -40.5 15.5t-15.5 36.5zM67 50q0 19 16 34.5
t40 15.5q22 0 37.5 -15.5t15.5 -34.5q0 -21 -15.5 -36.5t-37.5 -15.5q-25 0 -40.5 15.5t-15.5 36.5z" />
    <glyph glyph-name="perthousand" unicode="&#x2030;" horiz-adv-x="1300" 
d="M43 532q0 75 52 123t131 48q78 0 130 -48t52 -123q0 -74 -52 -122t-130 -48q-79 0 -131 48t-52 122zM127 532q0 -43 29.5 -71t69.5 -28q41 0 69.5 27.5t28.5 71.5t-29 71.5t-69 27.5q-41 0 -70 -27.5t-29 -71.5zM154 24l518 693l58 -42l-517 -692zM472 167q0 75 52 122.5
t131 47.5q78 0 130 -47.5t52 -122.5q0 -74 -52 -122.5t-130 -48.5q-79 0 -131 48t-52 123zM556 167q0 -43 29.5 -71t69.5 -28q41 0 69.5 27.5t28.5 71.5t-29 71.5t-69 27.5q-41 0 -70 -27.5t-29 -71.5zM892 167q0 75 52 122.5t130 47.5q79 0 131 -47.5t52 -122.5t-52 -123
t-131 -48q-78 0 -130 48.5t-52 122.5zM976 167q0 -44 29 -71.5t69 -27.5q42 0 70.5 27.5t28.5 71.5t-29 71.5t-70 27.5q-40 0 -69 -27.5t-29 -71.5z" />
    <glyph glyph-name="guilsinglleft" unicode="&#x2039;" horiz-adv-x="337" 
d="M226 38l-182 214v6l183 210l57 -51l-140 -163l140 -163z" />
    <glyph glyph-name="guilsinglright" unicode="&#x203a;" horiz-adv-x="337" 
d="M285 252l-182 -214l-59 53l141 163l-141 163l57 51l184 -210v-6z" />
    <glyph glyph-name="fraction" unicode="&#x2044;" horiz-adv-x="308" 
d="M-150 38l548 674l60 -48l-546 -677z" />
    <glyph glyph-name="uni2070" unicode="&#x2070;" horiz-adv-x="481" 
d="M46 510q0 95 52.5 155t141.5 60t142 -60t53 -155t-52 -155t-142 -60q-89 0 -142 60.5t-53 154.5zM125 510q0 -64 33 -103t83 -39q53 0 84 36.5t31 105.5q0 68 -31.5 105t-84.5 37t-84 -37t-31 -105z" />
    <glyph glyph-name="uni2074" unicode="&#x2074;" horiz-adv-x="457" 
d="M278 300v87h-265v55l271 278h69v-264h84v-69h-84v-87h-75zM110 456h168v167z" />
    <glyph glyph-name="uni2075" unicode="&#x2075;" horiz-adv-x="414" 
d="M64 485l26 235h273v-71h-210l-15 -87q26 7 64 7q77 0 123 -37.5t46 -97.5q0 -62 -49.5 -100.5t-119.5 -38.5q-119 0 -169 78l55 46q15 -23 44.5 -38t63.5 -15q45 0 70.5 18.5t25.5 48.5q0 33 -31 51.5t-83 18.5t-114 -18z" />
    <glyph glyph-name="uni2076" unicode="&#x2076;" horiz-adv-x="463" 
d="M46 499q0 109 59 167.5t152 58.5q91 0 139 -41l-32 -56q-46 28 -109 28q-56 0 -94 -34t-38 -93q52 52 133 52q83 0 127 -38.5t44 -102.5t-53 -104.5t-127 -40.5q-91 0 -146 53.5t-55 150.5zM133 457q4 -38 33.5 -64.5t79.5 -26.5q44 0 73 19.5t29 54.5q0 37 -28.5 55.5
t-77.5 18.5q-42 0 -70.5 -17t-38.5 -40z" />
    <glyph glyph-name="uni2077" unicode="&#x2077;" horiz-adv-x="377" 
d="M20 647v73h337v-56l-209 -364h-87l203 347h-244z" />
    <glyph glyph-name="uni2078" unicode="&#x2078;" horiz-adv-x="471" 
d="M226 547h20q32 0 56 15.5t24 41.5q0 52 -92 52q-89 0 -89 -52q0 -27 23.5 -42t57.5 -15zM245 484h-17q-42 0 -70.5 -17t-28.5 -45q0 -27 28.5 -42.5t77.5 -15.5q107 0 107 58q0 30 -27.5 46t-69.5 16zM236 295q-80 0 -133 32t-53 86q0 36 22.5 64t57.5 40q-64 27 -64 94
q0 51 47.5 82.5t121.5 31.5q75 0 122.5 -31.5t47.5 -82.5q0 -60 -65 -91q81 -21 81 -104q0 -56 -53 -88.5t-132 -32.5z" />
    <glyph glyph-name="uni2079" unicode="&#x2079;" horiz-adv-x="463" 
d="M417 521q0 -109 -59 -167.5t-152 -58.5q-91 0 -139 41l32 56q46 -28 109 -28q56 0 94 34t38 93q-52 -52 -133 -52q-83 0 -127 38.5t-44 102.5t53 104.5t127 40.5q91 0 146 -53.5t55 -150.5zM330 563q-4 38 -33.5 64.5t-79.5 26.5q-44 0 -73 -19.5t-29 -54.5
q0 -37 28.5 -55.5t77.5 -18.5q42 0 70.5 17t38.5 40z" />
    <glyph glyph-name="uni207A" unicode="&#x207a;" horiz-adv-x="435" 
d="M56 480v71h123v121h75v-121h124v-71h-124v-122h-75v122h-123z" />
    <glyph glyph-name="uni207B" unicode="&#x207b;" horiz-adv-x="417" 
d="M56 481v71h305v-71h-305z" />
    <glyph glyph-name="uni207C" unicode="&#x207c;" horiz-adv-x="411" 
d="M56 547v68h298v-68h-298zM56 417v68h298v-68h-298z" />
    <glyph glyph-name="uni207D" unicode="&#x207d;" horiz-adv-x="258" 
d="M242 239l-47 -45q-78 58 -113.5 131.5t-35.5 146.5q0 163 150 278l43 -48q-114 -90 -114 -230q0 -130 117 -233z" />
    <glyph glyph-name="uni207E" unicode="&#x207e;" horiz-adv-x="259" 
d="M64 194l-46 48q116 89 116 230q0 137 -115 232l45 46q149 -116 149 -278q0 -73 -35.5 -146.5t-113.5 -131.5z" />
    <glyph glyph-name="uni2080" unicode="&#x2080;" horiz-adv-x="481" 
d="M46 110q0 95 52.5 155t141.5 60t142 -60t53 -155t-52 -155t-142 -60q-89 0 -142 60.5t-53 154.5zM125 110q0 -64 33 -103t83 -39q53 0 84 36.5t31 105.5q0 68 -31.5 105t-84.5 37t-84 -37t-31 -105z" />
    <glyph glyph-name="uni2081" unicode="&#x2081;" horiz-adv-x="302" 
d="M10 253l162 70h58v-423h-78v337l-115 -49z" />
    <glyph glyph-name="uni2082" unicode="&#x2082;" horiz-adv-x="417" 
d="M97 185l-58 33q20 48 67 77.5t105 29.5q70 0 111 -33t41 -89q0 -106 -136 -192l-62 -40h216v-71h-340v62l99 64q68 45 106 83.5t38 78.5q0 66 -77 66q-72 0 -110 -69z" />
    <glyph glyph-name="uni2083" unicode="&#x2083;" horiz-adv-x="426" 
d="M100 199l-55 39q52 87 174 87q70 0 111 -28t41 -77q0 -70 -67 -97q79 -20 79 -102q0 -59 -49 -92.5t-122 -33.5q-57 0 -106.5 25.5t-72.5 72.5l60 38q13 -29 46 -47t73 -18q91 0 91 58q0 57 -90 57h-55v64h44q42 0 66 15.5t24 43.5q0 50 -75 50q-42 0 -69 -13t-48 -42z
" />
    <glyph glyph-name="uni2084" unicode="&#x2084;" horiz-adv-x="457" 
d="M278 -100v87h-265v55l271 278h69v-264h84v-69h-84v-87h-75zM110 56h168v167z" />
    <glyph glyph-name="uni2085" unicode="&#x2085;" horiz-adv-x="414" 
d="M64 85l26 235h273v-71h-210l-15 -87q26 7 64 7q77 0 123 -37.5t46 -97.5q0 -62 -49.5 -100.5t-119.5 -38.5q-119 0 -169 78l55 46q15 -23 44.5 -38t63.5 -15q45 0 70.5 18.5t25.5 48.5q0 33 -31 51.5t-83 18.5t-114 -18z" />
    <glyph glyph-name="uni2086" unicode="&#x2086;" horiz-adv-x="463" 
d="M46 99q0 109 59 167.5t152 58.5q91 0 139 -41l-32 -56q-46 28 -109 28q-56 0 -94 -34t-38 -93q52 52 133 52q83 0 127 -38.5t44 -102.5t-53 -104.5t-127 -40.5q-91 0 -146 53.5t-55 150.5zM133 57q4 -38 33.5 -64.5t79.5 -26.5q44 0 73 19.5t29 54.5q0 37 -28.5 55.5
t-77.5 18.5q-42 0 -70.5 -17t-38.5 -40z" />
    <glyph glyph-name="uni2087" unicode="&#x2087;" horiz-adv-x="377" 
d="M20 247v73h337v-56l-209 -364h-87l203 347h-244z" />
    <glyph glyph-name="uni2088" unicode="&#x2088;" horiz-adv-x="471" 
d="M226 147h20q32 0 56 15.5t24 41.5q0 52 -92 52q-89 0 -89 -52q0 -27 23.5 -42t57.5 -15zM245 84h-17q-42 0 -70.5 -17t-28.5 -45q0 -27 28.5 -42.5t77.5 -15.5q107 0 107 58q0 30 -27.5 46t-69.5 16zM236 -105q-80 0 -133 32t-53 86q0 36 22.5 64t57.5 40q-64 27 -64 94
q0 51 47.5 82.5t121.5 31.5q75 0 122.5 -31.5t47.5 -82.5q0 -60 -65 -91q81 -21 81 -104q0 -56 -53 -88.5t-132 -32.5z" />
    <glyph glyph-name="uni2089" unicode="&#x2089;" horiz-adv-x="463" 
d="M417 121q0 -109 -59 -167.5t-152 -58.5q-91 0 -139 41l32 56q46 -28 109 -28q56 0 94 34t38 93q-52 -52 -133 -52q-83 0 -127 38.5t-44 102.5t53 104.5t127 40.5q91 0 146 -53.5t55 -150.5zM330 163q-4 38 -33.5 64.5t-79.5 26.5q-44 0 -73 -19.5t-29 -54.5
q0 -37 28.5 -55.5t77.5 -18.5q42 0 70.5 17t38.5 40z" />
    <glyph glyph-name="uni208A" unicode="&#x208a;" horiz-adv-x="435" 
d="M56 80v71h123v121h75v-121h124v-71h-124v-122h-75v122h-123z" />
    <glyph glyph-name="uni208B" unicode="&#x208b;" horiz-adv-x="417" 
d="M56 81v71h305v-71h-305z" />
    <glyph glyph-name="uni208C" unicode="&#x208c;" horiz-adv-x="411" 
d="M56 147v68h298v-68h-298zM56 17v68h298v-68h-298z" />
    <glyph glyph-name="uni208D" unicode="&#x208d;" horiz-adv-x="258" 
d="M242 -161l-47 -45q-78 58 -113.5 131.5t-35.5 146.5q0 163 150 278l43 -48q-114 -90 -114 -230q0 -130 117 -233z" />
    <glyph glyph-name="uni208E" unicode="&#x208e;" horiz-adv-x="259" 
d="M64 -206l-46 48q116 89 116 230q0 137 -115 232l45 46q149 -116 149 -278q0 -73 -35.5 -146.5t-113.5 -131.5z" />
    <glyph glyph-name="Euro" unicode="&#x20ac;" horiz-adv-x="628" 
d="M19 399l30 75h72q32 106 117.5 170.5t205.5 64.5q95 0 158 -39l-32 -70q-53 30 -126 30q-79 0 -139 -42t-88 -114h321l-28 -75h-314q-3 -24 -3 -56q0 -19 2 -31h291l-24 -75h-251q25 -77 90.5 -122t153.5 -45q70 0 114 28l21 -73q-19 -14 -59.5 -24t-78.5 -10
q-128 0 -216.5 65t-120.5 181h-94l28 75h54q-2 14 -2 32q0 33 4 55h-86z" />
    <glyph glyph-name="uni20B4" unicode="&#x20b4;" 
d="M60 406v73h317q25 30 25 67q0 34 -27 56t-73 22q-93 0 -149 -50l-40 68q69 67 194 67q81 0 135.5 -42t54.5 -106q0 -48 -27 -82h71v-73h-119q-19 -18 -45.5 -35t-55.5 -33t-41 -24h261v-73h-320q-35 -41 -35 -73q0 -45 37 -68.5t92 -23.5q107 0 163 69l42 -59
q-29 -45 -88 -70t-124 -25q-91 0 -151 43.5t-60 122.5q0 44 29 84h-66v73h115q34 24 86.5 54.5t63.5 37.5h-265z" />
    <glyph glyph-name="uni20BD" unicode="&#x20bd;" horiz-adv-x="603" 
d="M24 301v81h107v318q68 0 99 1q17 0 45.5 0.5t36.5 0.5q136 0 196.5 -54t60.5 -143q0 -90 -64.5 -147t-192.5 -57h-93v-84h174v-81h-174v-136h-88v136h-107v81h107v84h-107zM317 621l-98 -1v-238h91q167 0 167 120q0 119 -160 119z" />
    <glyph glyph-name="afii61352" unicode="&#x2116;" horiz-adv-x="1152" 
d="M660 0h-70l-412 539v-539h-85v700h69l413 -543v543h85v-700zM726 489q0 76 50 123.5t128 47.5q79 0 129 -47.5t50 -123.5q0 -75 -50 -123t-129 -48q-77 0 -127.5 48t-50.5 123zM805 489q0 -44 29 -71t70 -27q43 0 71.5 27t28.5 71t-29 71.5t-71 27.5q-41 0 -70 -27.5
t-29 -71.5zM754 183v78h301v-78h-301z" />
    <glyph glyph-name="trademark" unicode="&#x2122;" horiz-adv-x="831" 
d="M375 367v333h70l128 -148l123 148h70v-333h-84v208l-110 -132h-2l-111 133v-209h-84zM12 625v75h323v-75h-113v-258h-83v258h-127z" />
    <glyph glyph-name="partialdiff" unicode="&#x2202;" horiz-adv-x="585" 
d="M29 230q0 132 77 211t189 79q57 0 100 -28t61 -71q-2 108 -68.5 163t-189.5 48l13 77q162 2 245 -77t83 -256q0 -167 -73 -276t-201 -109q-103 0 -169.5 67t-66.5 172zM120 232q0 -78 43.5 -119.5t103.5 -41.5q73 0 121.5 64t55.5 157q-13 62 -52 105t-99 43
q-73 0 -123 -59.5t-50 -148.5z" />
    <glyph glyph-name="product" unicode="&#x220f;" horiz-adv-x="879" 
d="M679 -200v815h-479v-815h-91v900h661v-900h-91z" />
    <glyph glyph-name="summation" unicode="&#x2211;" horiz-adv-x="631" 
d="M337 250l-297 388v62h551v-85h-424l277 -365l-283 -365h430v-85h-551v62z" />
    <glyph glyph-name="minus" unicode="&#x2212;" horiz-adv-x="576" 
d="M56 322v75h464v-75h-464z" />
    <glyph glyph-name="uni2215" unicode="&#x2215;" horiz-adv-x="308" 
d="M-150 38l548 674l60 -48l-546 -677z" />
    <glyph glyph-name="radical" unicode="&#x221a;" horiz-adv-x="596" 
d="M2 382v79h163l156 -317l121 556h281v-75h-213l-144 -631h-60l-198 388h-106z" />
    <glyph glyph-name="infinity" unicode="&#x221e;" horiz-adv-x="717" 
d="M525 187q-51 0 -90 24.5t-77 68.5q-57 -73 -124 -88q-71 -17 -132 28t-61 121q0 64 45.5 110.5t116.5 46.5q46 0 81.5 -24.5t72.5 -68.5q59 74 130 87q77 17 133 -27t56 -127q0 -59 -40.5 -105t-110.5 -46zM516 423q-34 0 -58.5 -20t-52.5 -58q32 -41 58.5 -62.5
t57.5 -21.5q34 0 53.5 24t19.5 53q0 36 -20.5 60.5t-57.5 24.5zM204 261q32 0 56 20t51 58q-31 41 -55.5 62.5t-50.5 21.5q-36 0 -59 -24t-23 -58q0 -36 25.5 -58t55.5 -22z" />
    <glyph glyph-name="integral" unicode="&#x222b;" horiz-adv-x="339" 
d="M98 544q0 101 50.5 147.5t123.5 46.5q40 0 74.5 -16.5t53.5 -44.5l-50 -52q-26 33 -74 33q-94 0 -94 -121v-549q0 -102 -50.5 -148t-123.5 -46q-40 0 -74.5 16.5t-53.5 44.5l50 52q27 -34 74 -34q94 0 94 122v549z" />
    <glyph glyph-name="approxequal" unicode="&#x2248;" horiz-adv-x="581" 
d="M83 391l-35 56q61 67 132 67q40 0 110 -32.5t111 -32.5q50 0 99 47l34 -55q-64 -63 -130 -63q-43 0 -112 32t-105 32q-50 0 -104 -51zM83 211l-35 57q63 67 132 67q41 0 113 -32.5t108 -32.5q52 0 99 47l34 -56q-65 -62 -130 -62q-43 0 -112 31.5t-105 31.5
q-50 0 -104 -51z" />
    <glyph glyph-name="notequal" unicode="&#x2260;" horiz-adv-x="576" 
d="M60 412v74h230l85 227l73 -24l-76 -203h144v-74h-171l-40 -105h211v-74h-237l-93 -248l-73 28l83 220h-136v74h162l39 105h-201z" />
    <glyph glyph-name="lessequal" unicode="&#x2264;" horiz-adv-x="538" 
d="M52 255v85l408 -254v-88zM460 180l-408 257v35l408 254v-92l-290 -179l290 -182v-93z" />
    <glyph glyph-name="greaterequal" unicode="&#x2265;" horiz-adv-x="538" 
d="M460 340v-85l-408 -257v88zM460 437l-408 -257v93l290 182l-290 179v92l408 -254v-35z" />
    <glyph glyph-name="lozenge" unicode="&#x25ca;" horiz-adv-x="473" 
d="M200 -5l-167 256l168 269h72l167 -258l-168 -267h-72zM121 252l115 -179l116 189l-116 177z" />
    <glyph glyph-name="uniF350" unicode="&#xf350;" horiz-adv-x="590" 
d="M0 0l261 561h68l261 -561h-92l-62 131h-285l-61 -131h-90zM293 436l-109 -230h219z" />
    <glyph glyph-name="uniF351" unicode="&#xf351;" horiz-adv-x="562" 
d="M491 560v-81h-342v-141h171q105 0 159.5 -42.5t54.5 -121.5q0 -174 -239 -174h-233v560h429zM305 256h-156v-175h151q143 0 143 92q0 83 -138 83z" />
    <glyph glyph-name="uniF352" unicode="&#xf352;" horiz-adv-x="573" 
d="M62 0v560h245q113 0 161 -36.5t48 -103.5q0 -89 -80 -126q48 -12 74.5 -45.5t26.5 -86.5q0 -162 -235 -162h-240zM307 246h-158v-165h150q77 0 112.5 21t35.5 65q0 79 -140 79zM297 479h-148v-153h160q54 0 85.5 20t31.5 55q0 40 -29 59t-100 19z" />
    <glyph glyph-name="uniF353" unicode="&#xf353;" horiz-adv-x="489" 
d="M62 0v560h427v-81h-340v-479h-87z" />
    <glyph glyph-name="uniF354" unicode="&#xf354;" horiz-adv-x="629" 
d="M0 -110v191h63q17 27 32.5 67t31 129t15.5 195v88h404v-479h75v-191h-84v110h-453v-110h-84zM227 479v-28q0 -117 -19 -218t-52 -152h303v398h-232z" />
    <glyph glyph-name="uniF355" unicode="&#xf355;" horiz-adv-x="536" 
d="M62 0v560h425v-81h-337v-154h314v-81h-314v-163h345v-81h-433z" />
    <glyph glyph-name="uniF356" unicode="&#xf356;" horiz-adv-x="796" 
d="M255 305l-250 255h106l243 -241v241h87v-242l243 242h107l-252 -255l256 -305h-104l-219 257l-31 -28v-229h-87v230l-33 28l-216 -258h-104z" />
    <glyph glyph-name="uniF357" unicode="&#xf357;" horiz-adv-x="550" 
d="M279 -11q-192 0 -270 121l66 47q73 -86 202 -86q71 0 111 27t40 69q0 36 -38.5 57t-108.5 21h-103v82h97q57 0 94.5 22t37.5 58q0 39 -40.5 60.5t-103.5 21.5q-106 0 -171 -78l-67 46q85 114 247 114q106 0 164.5 -42.5t58.5 -118.5q0 -87 -84 -118q53 -8 79 -43t26 -81
q0 -82 -66 -130.5t-171 -48.5z" />
    <glyph glyph-name="uniF358" unicode="&#xf358;" horiz-adv-x="632" 
d="M135 0h-73v560h87v-415l347 415h74v-560h-87v413z" />
    <glyph glyph-name="uniF359" unicode="&#xf359;" horiz-adv-x="632" 
d="M135 0h-73v560h87v-415l347 415h74v-560h-87v413zM152 755h79q1 -37 24.5 -59.5t64.5 -22.5q40 0 63 22.5t24 59.5h78q-1 -68 -48 -108.5t-117 -40.5q-75 0 -121 40t-47 109z" />
    <glyph glyph-name="uniF35A" unicode="&#xf35a;" horiz-adv-x="569" 
d="M62 0v560h87v-256l288 256h115l-277 -252l296 -308h-118l-250 255l-54 -48v-207h-87z" />
    <glyph glyph-name="uniF35B" unicode="&#xf35b;" horiz-adv-x="606" 
d="M457 0v479h-235v-81q0 -112 -17.5 -194.5t-46.5 -125t-60 -62t-65 -19.5q-6 0 -18 1.5t-15 1.5v84q19 -2 35.5 3t36 26t32.5 58t22 105.5t9 161.5v122h409v-560h-87z" />
    <glyph glyph-name="uniF35C" unicode="&#xf35c;" horiz-adv-x="714" 
d="M62 0v560h78l222 -268l213 268h77v-560h-87v415l-194 -245h-22l-200 244v-414h-87z" />
    <glyph glyph-name="uniF35D" unicode="&#xf35d;" horiz-adv-x="636" 
d="M487 0v243h-338v-243h-87v560h87v-235h338v235h87v-560h-87z" />
    <glyph glyph-name="uniF35E" unicode="&#xf35e;" horiz-adv-x="666" 
d="M30 280q0 121 87.5 204t215.5 83q127 0 215 -81.5t88 -205.5q0 -123 -88 -205t-215 -82t-215 81.5t-88 205.5zM121 280q0 -88 62 -145.5t150 -57.5q90 0 151 57t61 146t-62.5 146t-149.5 57q-88 0 -150 -57t-62 -146z" />
    <glyph glyph-name="uniF35F" unicode="&#xf35f;" horiz-adv-x="632" 
d="M484 0v478h-335v-478h-87v560h509v-560h-87z" />
    <glyph glyph-name="uniF360" unicode="&#xf360;" horiz-adv-x="557" 
d="M149 0h-87v560h220q245 0 245 -181q0 -77 -59.5 -129t-186.5 -52h-132v-198zM286 479h-137v-200h130q157 0 157 101q0 99 -150 99z" />
    <glyph glyph-name="uniF361" unicode="&#xf361;" horiz-adv-x="587" 
d="M521 151l51 -56q-36 -48 -99 -76.5t-136 -28.5q-140 0 -223.5 79.5t-83.5 210.5q0 124 83.5 207t218.5 83q77 0 138 -28t93 -71l-57 -54q-71 69 -171 69q-98 0 -156 -57t-58 -149t61.5 -149t160.5 -57q110 0 178 77z" />
    <glyph glyph-name="uniF362" unicode="&#xf362;" horiz-adv-x="503" 
d="M3 478v82h496v-82h-205v-478h-87v478h-204z" />
    <glyph glyph-name="uniF363" unicode="&#xf363;" horiz-adv-x="590" 
d="M164 15l37 72q10 -6 24 -6q31 0 55 49l6 12l-286 418h106l225 -327l169 327h90l-221 -431q-33 -66 -67 -97.5t-79 -31.5q-38 0 -59 15z" />
    <glyph glyph-name="uniF364" unicode="&#xf364;" horiz-adv-x="717" 
d="M314 -12v67h-4q-127 0 -207 64t-80 169q0 109 82.5 170t208.5 63v51h88l1 -51q120 0 205.5 -61t85.5 -172q0 -105 -81 -169t-207 -64h-4v-67h-88zM403 439h-1q0 -302 1 -302h3q87 0 142 39t55 112q0 71 -53 111t-147 40zM113 288q0 -66 54.5 -108.5t143.5 -42.5h3l-1 302
q-86 0 -143 -38t-57 -113z" />
    <glyph glyph-name="uniF365" unicode="&#xf365;" horiz-adv-x="568" 
d="M552 560l-215 -275l222 -285h-105l-170 215l-170 -215h-105l223 285l-214 275h104l163 -205l162 205h105z" />
    <glyph glyph-name="uniF366" unicode="&#xf366;" horiz-adv-x="634" 
d="M62 0v560h87v-479h315v479h87v-479h74v-191h-84v110h-479z" />
    <glyph glyph-name="uniF367" unicode="&#xf367;" horiz-adv-x="586" 
d="M524 560v-560h-87v231q-70 -38 -163 -38q-104 0 -170 46t-66 140v181h87v-134q0 -81 39 -116t125 -35q80 0 148 40v245h87z" />
    <glyph glyph-name="uniF368" unicode="&#xf368;" horiz-adv-x="785" 
d="M62 0v560h87v-479h200v479h87v-479h200v479h87v-560h-661z" />
    <glyph glyph-name="uniF369" unicode="&#xf369;" horiz-adv-x="805" 
d="M62 0v560h87v-479h198v479h87v-479h202v479h87v-479h74v-191h-84v110h-651z" />
    <glyph glyph-name="uniF36A" unicode="&#xf36a;" horiz-adv-x="636" 
d="M0 479v81h228v-202h145q242 0 242 -175q0 -91 -65 -137t-186 -46h-223v479h-141zM371 276h-143v-195h140q156 0 156 102q0 93 -153 93z" />
    <glyph glyph-name="uniF36B" unicode="&#xf36b;" horiz-adv-x="729" 
d="M579 0v560h88v-560h-88zM269 276h-120v-195h118q78 0 116.5 24t38.5 78q0 93 -153 93zM149 560v-202h123q119 0 180 -46.5t61 -128.5q0 -90 -65 -136.5t-184 -46.5h-202v560h87z" />
    <glyph glyph-name="uniF36C" unicode="&#xf36c;" horiz-adv-x="559" 
d="M294 276h-145v-195h143q155 0 155 102q0 93 -153 93zM149 560v-202h147q242 0 242 -175q0 -90 -65 -136.5t-184 -46.5h-227v560h87z" />
    <glyph glyph-name="uniF36D" unicode="&#xf36d;" horiz-adv-x="593" 
d="M171 245v81h301q-11 75 -67.5 119t-146.5 44q-50 0 -102 -22.5t-85 -62.5l-59 56q42 52 110 81t141 29q138 0 219 -78t81 -210q0 -128 -82 -210t-225 -82q-70 0 -137 28t-110 86l60 49q30 -38 83 -60t108 -22q89 0 147 48.5t66 125.5h-302z" />
    <glyph glyph-name="uniF36E" unicode="&#xf36e;" horiz-adv-x="845" 
d="M62 0v560h87v-237h88q15 106 94.5 175t193.5 69q131 0 210.5 -77.5t79.5 -209.5q0 -124 -82.5 -205.5t-207.5 -81.5q-119 0 -197.5 69.5t-91.5 184.5h-87v-247h-87zM324 280q0 -89 57 -146t144 -57q90 0 144.5 56t54.5 147q0 95 -55 149t-144 54q-88 0 -144.5 -56
t-56.5 -147z" />
    <glyph glyph-name="uniF36F" unicode="&#xf36f;" horiz-adv-x="583" 
d="M434 0v201h-149l-176 -201h-105l190 216q-71 15 -110.5 57.5t-39.5 103.5q0 81 61 132t177 51h239v-560h-87zM262 282h172v197h-160q-139 0 -139 -101q0 -38 34 -65t93 -31z" />
    <glyph glyph-name="uniF371" unicode="&#xf371;" horiz-adv-x="536" 
d="M126 650q0 19 14.5 32t37.5 13q18 0 33 -13t15 -32q0 -20 -15 -32.5t-33 -12.5q-23 0 -37.5 12t-14.5 33zM329 650q0 19 14.5 32t35.5 13q20 0 34.5 -12.5t14.5 -32.5t-14.5 -32.5t-34.5 -12.5q-21 0 -35.5 12.5t-14.5 32.5zM62 0v560h425v-81h-337v-154h314v-81h-314
v-163h345v-81h-433z" />
    <glyph glyph-name="uniF372" unicode="&#xf372;" horiz-adv-x="634" 
d="M517 163q0 108 -109 110q-35 0 -67.5 -15.5t-49.5 -41.5v-216h-87v479h-202v81h493v-81h-204v-168q45 43 134 43q79 0 129 -44t50 -136t-45 -136.5t-112 -44.5t-99 45l50 57q19 -21 47 -21q33 0 52.5 23t19.5 66z" />
    <glyph glyph-name="uniF373" unicode="&#xf373;" horiz-adv-x="489" 
d="M62 0v560h427v-81h-340v-479h-87zM403 767l-121 -152l-56 39l113 161z" />
    <glyph glyph-name="uniF374" unicode="&#xf374;" horiz-adv-x="583" 
d="M409 326v-81h-291q10 -83 72 -127t152 -44q51 0 93.5 22.5t67.5 58.5l65 -37q-28 -60 -92.5 -92.5t-129.5 -32.5q-143 0 -229.5 78.5t-86.5 208.5q0 126 85 206.5t224 80.5q62 0 125 -25t94 -74l-64 -48q-23 31 -66.5 48.5t-93.5 17.5q-83 0 -141.5 -43.5t-72.5 -116.5
h289z" />
    <glyph glyph-name="uniF375" unicode="&#xf375;" horiz-adv-x="520" 
d="M399 151q0 34 -37 54.5t-90 32.5t-106 27.5t-90 51.5t-37 93q0 66 61.5 111.5t160.5 45.5q151 0 220 -86l-57 -56q-64 60 -169 60q-48 0 -86.5 -18.5t-38.5 -54.5q0 -28 26.5 -47.5t66.5 -29t87 -23t87 -28.5t66.5 -48t26.5 -79q0 -73 -60 -118.5t-157 -45.5
q-77 0 -146 32t-101 78l55 63q75 -91 203 -91q48 0 81.5 20.5t33.5 55.5z" />
    <glyph glyph-name="uniF376" unicode="&#xf376;" horiz-adv-x="225" 
d="M69 0v560h87v-560h-87z" />
    <glyph glyph-name="uniF377" unicode="&#xf377;" horiz-adv-x="225" 
d="M-5 644q0 18 14 30t34 12q18 0 32 -12t14 -30q0 -19 -13.5 -31.5t-32.5 -12.5q-20 0 -34 12.5t-14 31.5zM134 644q0 18 14 30t34 12q19 0 32.5 -12t13.5 -30q0 -19 -13.5 -31.5t-32.5 -12.5q-20 0 -34 12.5t-14 31.5zM69 0v560h87v-560h-87z" />
    <glyph glyph-name="uniF378" unicode="&#xf378;" horiz-adv-x="413" 
d="M353 560v-388q0 -85 -48 -132t-129 -47q-67 0 -112.5 30t-67.5 73l65 49q42 -71 108 -71q50 1 73.5 26.5t23.5 87.5v372h87z" />
    <glyph glyph-name="uniF379" unicode="&#xf379;" horiz-adv-x="889" 
d="M637 275h-107v-194h102q145 0 145 102q0 92 -140 92zM530 560v-204h109q229 0 229 -173q0 -89 -63.5 -136t-174.5 -47h-187v479h-221v-81q0 -112 -17.5 -194.5t-46.5 -125t-60 -62t-65 -19.5q-6 0 -18 1.5t-15 1.5v84q19 -2 35.5 3t36 26t32.5 58t22 105.5t9 161.5v122
h395z" />
    <glyph glyph-name="uniF37A" unicode="&#xf37a;" horiz-adv-x="890" 
d="M535 342h108q225 0 225 -167q0 -88 -61 -131.5t-173 -43.5h-186v260h-299v-260h-87v560h87v-218h299v218h87v-218zM641 260h-106v-179h101q72 0 107.5 21.5t35.5 72.5q0 45 -33.5 65t-104.5 20z" />
    <glyph glyph-name="uniF37B" unicode="&#xf37b;" horiz-adv-x="624" 
d="M2 479v81h493v-81h-204v-165q58 40 125 40q83 0 130 -45.5t47 -140.5v-168h-87v155q0 117 -105 117q-30 0 -60.5 -14t-49.5 -37v-221h-87v479h-202z" />
    <glyph glyph-name="uniF37C" unicode="&#xf37c;" horiz-adv-x="569" 
d="M62 0v560h87v-256l288 256h115l-277 -252l296 -308h-118l-250 255l-54 -48v-207h-87zM402 767l-121 -152l-56 39l113 161z" />
    <glyph glyph-name="uniF37E" unicode="&#xf37e;" horiz-adv-x="590" 
d="M164 15l37 72q10 -6 24 -6q31 0 55 49l6 12l-286 418h106l225 -327l169 327h90l-221 -431q-33 -66 -67 -97.5t-79 -31.5q-38 0 -59 15zM143 755h79q1 -37 24.5 -59.5t64.5 -22.5q40 0 63 22.5t24 59.5h78q-1 -68 -48 -108.5t-117 -40.5q-75 0 -121 40t-47 109z" />
    <glyph glyph-name="uniF37F" unicode="&#xf37f;" horiz-adv-x="618" 
d="M62 0v560h87v-479h320v479h87v-560h-206v-117h-84v117h-204z" />
    <glyph glyph-name="uniF381" unicode="&#xf381;" horiz-adv-x="609" 
d="M1 406l-1 82h112v72h87v-72h199v-82h-199v-66h148q241 0 241 -165q0 -175 -249 -175h-227v406h-111zM345 259h-146v-178h144q78 0 116 22t38 72q0 45 -37.5 64.5t-114.5 19.5z" />
    <glyph glyph-name="uniF389" unicode="&#xf389;" horiz-adv-x="666" 
d="M30 280q0 121 87.5 204t215.5 83q127 0 215 -81.5t88 -205.5q0 -123 -88 -205t-215 -82t-215 81.5t-88 205.5zM333 77q79 0 137 45t71 119h-417q14 -73 73 -118.5t136 -45.5zM333 483q-77 0 -135 -44t-73 -116h415q-15 72 -73 116t-134 44z" />
    <glyph glyph-name="uniF38A" unicode="&#xf38a;" horiz-adv-x="655" 
d="M546 416l-203 -416h-62l-285 560h94l224 -436l161 332q51 110 134 110q35 0 66 -22l-35 -69q-9 8 -26 8q-34 0 -68 -67z" />
    <glyph glyph-name="uniF393" unicode="&#xf393;" horiz-adv-x="490" 
d="M62 0v560h345v98h82v-180h-340v-478h-87z" />
    <glyph glyph-name="uniF3CF" unicode="&#xf3cf;" horiz-adv-x="976" 
d="M560 0h-67l-337 406v-406h-82v560h67l337 -408v408h82v-560zM612 389q0 62 42.5 101t110.5 39t111 -39t43 -101t-43 -101t-111 -39q-67 0 -110 39t-43 101zM687 389q0 -31 23 -51t55 -20q34 0 56 19.5t22 51.5q0 31 -23 50.5t-55 19.5t-55 -19.5t-23 -50.5zM634 133v73
h263v-73h-263z" />
    <glyph glyph-name="uniF3D0" unicode="&#xf3d0;" horiz-adv-x="485" 
d="M152 755h79q1 -37 24.5 -59.5t64.5 -22.5q40 0 63 22.5t24 59.5h78q-1 -68 -48 -108.5t-117 -40.5q-75 0 -121 40t-47 109z" />
    <glyph glyph-name="uniF3E4" unicode="&#xf3e4;" horiz-adv-x="0" 
d="M-181 767l-121 -152l-56 39l113 161z" />
    <glyph glyph-name="uniF400" unicode="&#xf400;" horiz-adv-x="0" 
d="M-181 759l-122 -151l-56 39l114 160z" />
    <glyph glyph-name="uniF401" unicode="&#xf401;" horiz-adv-x="0" 
d="M-234 852l-200 -97l-31 56l193 115z" />
    <glyph glyph-name="uniF406" unicode="&#xf406;" horiz-adv-x="550" 
d="M190 867l41 43q53 -63 143 -63q88 0 140 63l36 -41q-25 -42 -73 -70t-103 -28q-65 0 -111.5 28t-72.5 68z" />
    <glyph glyph-name="uniF407" unicode="&#xf407;" horiz-adv-x="515" 
d="M278 -169l29 48q37 -22 77 -22q48 0 48 28q0 29 -54 29h-19v86h53v-37q103 -4 103 -82q0 -37 -29.5 -61t-90.5 -24q-73 0 -117 35z" />
    <glyph glyph-name="uniF408" unicode="&#xf408;" horiz-adv-x="496" 
d="M325 915l182 -107l-36 -53l-148 79l-147 -79l-31 53l176 107h4z" />
    <glyph glyph-name="uniF409" unicode="&#xf409;" horiz-adv-x="440" 
d="M330 -91l70 46q40 -34 40 -79q0 -46 -25 -82.5t-56 -55.5l-40 33q39 37 39 81q0 29 -28 57z" />
    <glyph glyph-name="uniF40A" unicode="&#xf40a;" horiz-adv-x="182" 
d="M73 688l71 45q38 -35 38 -91q0 -87 -95 -146l-37 35q50 37 50 88q0 37 -27 69z" />
    <glyph glyph-name="uniF40B" unicode="&#xf40b;" horiz-adv-x="429" 
d="M323 827q0 21 15.5 34.5t37.5 13.5t37.5 -13.5t15.5 -34.5q0 -23 -15.5 -37.5t-37.5 -14.5q-23 0 -38 14.5t-15 37.5z" />
    <glyph glyph-name="uniF40C" unicode="&#xf40c;" horiz-adv-x="501" 
d="M256 829q0 47 35.5 73.5t85.5 26.5q52 0 88 -26t36 -74q0 -47 -34.5 -75.5t-89.5 -28.5q-54 0 -87.5 28t-33.5 76zM321 829q0 -22 15.5 -35.5t41.5 -13.5q28 0 42.5 13.5t14.5 35.5q0 20 -15.5 32.5t-41.5 12.5t-41.5 -12.5t-15.5 -32.5z" />
    <glyph glyph-name="uniF40D" unicode="&#xf40d;" horiz-adv-x="559" 
d="M226 791l-28 52q22 22 52.5 36t54.5 14q31 0 79.5 -21.5t74.5 -21.5q43 0 74 33l26 -51q-20 -28 -50.5 -42t-59.5 -14q-27 0 -77.5 21t-79.5 21q-33 0 -66 -27z" />
    <glyph glyph-name="uniF40E" unicode="&#xf40e;" horiz-adv-x="456" 
d="M446 -122l18 -57q-30 -21 -85 -21q-50 -1 -85.5 22t-35.5 70q0 58 57.5 93t140.5 37v-22q-42 1 -80 -25t-38 -59q0 -48 56 -48q28 0 52 10z" />
    <glyph glyph-name="uniF410" unicode="&#xf410;" horiz-adv-x="0" 
d="M-304 755l-201 97l38 74l193 -115z" />
    <glyph glyph-name="uniF416" unicode="&#xf416;" horiz-adv-x="390" 
d="M280 -91l70 46q40 -34 40 -79q0 -46 -25 -82.5t-56 -55.5l-40 33q39 37 39 81q0 29 -28 57z" />
    <glyph glyph-name="uniF418" unicode="&#xf418;" horiz-adv-x="182" 
d="M73 528l71 45q38 -35 38 -91q0 -87 -95 -146l-37 35q50 37 50 88q0 37 -27 69z" />
    <glyph glyph-name="uniF447" unicode="&#xf447;" horiz-adv-x="503" 
d="M148 -170l25 49q39 -22 77 -22q48 0 48 28q0 29 -54 29h-19v86h-18v478h-204v82h496v-82h-205v-478h-16v-37q50 -2 75 -24t25 -58q0 -37 -32 -61t-93 -24q-60 0 -105 34z" />
    <glyph glyph-name="uniF44E" unicode="&#xf44e;" horiz-adv-x="644" 
d="M23 251q0 37 11 75h489q-11 74 -67 117t-147 43q-50 0 -102 -21.5t-85 -60.5l-59 56q41 51 109.5 79t141.5 28q139 0 219.5 -77t80.5 -208q0 -127 -81 -208t-221 -81q-72 0 -129.5 24t-91 63t-51 83t-17.5 88zM524 245h-415q6 -75 59.5 -123t147.5 -48q88 0 146 47.5
t62 123.5z" />
    <glyph glyph-name="uniF452" unicode="&#xf452;" horiz-adv-x="732" 
d="M62 0v560h431v-81h-344v-174h321v-81h-321v-224h-87zM576 0v560h87v-560h-87z" />
    <glyph glyph-name="uniF453" unicode="&#xf453;" horiz-adv-x="1014" 
d="M62 0v560h431v-81h-344v-174h321v-81h-321v-224h-87zM571 0v560h87v-478h347v-82h-434z" />
    <glyph glyph-name="zero.tab" unicode="&#xf4e0;" 
d="M32 350q0 162 67.5 260t199.5 98q134 0 201 -94t67 -264q0 -163 -67 -260.5t-199 -97.5q-127 0 -198 99t-71 259zM124 350q0 -127 47 -200t130 -73q174 0 174 273t-176 273q-175 0 -175 -273z" />
    <glyph glyph-name="one.tab" unicode="&#xf4e1;" 
d="M72 0v83h213v514l-179 -83l-32 75l240 115h57v-621h152v-83h-451z" />
    <glyph glyph-name="two.tab" unicode="&#xf4e2;" 
d="M123 469l-73 26q19 94 85.5 153.5t177.5 59.5q108 0 167.5 -57.5t59.5 -152.5q0 -50 -17.5 -98t-43.5 -84.5t-65 -73t-73 -61t-75 -50.5l-77 -48h377v-83h-525v68l142 101q124 88 162 123q103 95 103 197q0 69 -38.5 100.5t-102.5 31.5q-81 0 -125 -44.5t-59 -107.5z" />
    <glyph glyph-name="three.tab" unicode="&#xf4e3;" 
d="M122 496l-75 34q63 179 269 179q104 0 170 -48t66 -128q0 -61 -31.5 -104t-91.5 -60q58 -4 98.5 -46.5t40.5 -120.5q0 -99 -72 -155t-184 -56q-114 0 -185.5 50.5t-98.5 137.5l81 35q30 -65 76 -101t133 -36q73 0 115.5 32.5t42.5 91.5q0 116 -180 116h-78v83h62
q82 0 131 33t49 83q0 52 -40 80t-108 28q-140 0 -190 -128z" />
    <glyph glyph-name="four.tab" unicode="&#xf4e4;" 
d="M395 0v143h-378v58l388 499h77v-476h110v-81h-110v-143h-87zM137 224h258v336z" />
    <glyph glyph-name="five.tab" unicode="&#xf4e5;" 
d="M73 341l41 359h440v-85h-363l-26 -188q53 39 159 39q123 0 192.5 -65.5t69.5 -168.5q0 -104 -77.5 -172.5t-193.5 -68.5q-98 0 -174.5 44.5t-110.5 126.5l80 34q22 -50 75.5 -85t129.5 -35q86 0 132.5 44t46.5 109q0 70 -52.5 111.5t-141.5 41.5q-96 0 -155 -60z" />
    <glyph glyph-name="six.tab" unicode="&#xf4e6;" 
d="M38 331q0 182 81 280t210 98q165 0 228 -137l-68 -46q-31 49 -67.5 73t-96.5 24q-91 0 -145 -71t-53 -201q63 117 210 117q120 0 182 -63t62 -171t-72.5 -175.5t-184.5 -67.5q-132 0 -209 89t-77 251zM138 246q33 -169 185 -169q79 0 122.5 41.5t43.5 111.5
q0 152 -157 152q-87 0 -135 -40.5t-59 -95.5z" />
    <glyph glyph-name="seven.tab" unicode="&#xf4e7;" 
d="M33 615v85h531v-57l-348 -643h-95l336 615h-424z" />
    <glyph glyph-name="eight.tab" unicode="&#xf4e8;" 
d="M286 399h31q56 0 97 32t41 82q0 113 -156 113q-153 0 -153 -113q0 -49 39.5 -81.5t100.5 -32.5zM315 320h-25q-79 0 -123 -34t-44 -88q0 -57 45.5 -90.5t131.5 -33.5t132 32.5t46 90.5q0 59 -41.5 91t-121.5 32zM301 -9q-125 0 -197.5 52.5t-72.5 145.5q0 62 33 107
t95 66q-53 20 -79 62t-26 95q0 86 66 138t180 52q118 0 182.5 -51.5t64.5 -138.5q0 -105 -101 -152q68 -21 95.5 -64t27.5 -110q0 -95 -73 -148.5t-195 -53.5z" />
    <glyph glyph-name="nine.tab" unicode="&#xf4e9;" 
d="M574 363q0 -182 -76 -277t-217 -95q-76 0 -137 34.5t-95 89.5l72 50q64 -88 172 -88q95 0 148.5 80t45.5 197q-62 -140 -210 -140q-107 0 -177.5 66.5t-70.5 173.5q0 117 75.5 186t200.5 69q123 0 196 -91t73 -255zM472 459q-11 70 -55 117t-122 47q-174 0 -174 -166
q0 -74 47 -115.5t125 -41.5q79 0 123.5 47t55.5 112z" />
    <glyph glyph-name="dollar.tab" unicode="&#xf4ec;" 
d="M474 186q0 35 -24 59t-62 37.5t-84 25t-92 26t-84 35t-62 58t-24 90.5q0 74 61 127.5t163 62.5v79h84v-80q139 -14 206 -99l-59 -59q-75 75 -198 75q-61 0 -112 -25.5t-51 -78.5q0 -40 32 -66.5t80 -38.5t104 -28.5t104 -35t80 -58.5t32 -99q0 -81 -61 -136t-157 -64v-89
h-84v90q-77 10 -142 46.5t-97 85.5l59 64q37 -48 99 -80.5t138 -32.5q63 0 107 29.5t44 79.5z" />
    <glyph glyph-name="Euro.tab" unicode="&#xf4ed;" 
d="M12 399l30 75h72q32 106 117.5 170.5t205.5 64.5q95 0 158 -39l-32 -70q-53 30 -126 30q-79 0 -139 -42t-88 -114h321l-28 -75h-314q-3 -24 -3 -56q0 -19 2 -31h291l-24 -75h-251q25 -77 90.5 -122t153.5 -45q70 0 114 28l21 -73q-19 -14 -59.5 -24t-78.5 -10
q-128 0 -216.5 65t-120.5 181h-94l28 75h54q-2 14 -2 32q0 33 4 55h-86z" />
    <glyph glyph-name="cent.tab" unicode="&#xf4ee;" 
d="M483 150l60 -43q-25 -48 -75.5 -78t-108.5 -36v-193h-88v196q-101 16 -160.5 86.5t-59.5 178.5q0 103 60 176.5t160 89.5v173h88v-170q59 -7 106 -34.5t70 -69.5l-65 -44q-46 62 -118 69v-381q81 7 131 80zM140 261q0 -70 37 -119t101 -65v370q-62 -15 -100 -65.5
t-38 -120.5z" />
    <glyph glyph-name="sterling.tab" unicode="&#xf4ef;" 
d="M71 271v71h68q-4 9 -15 34t-16 39t-10 39t-5 52q0 82 60 142t157 60q128 0 202 -83l-48 -66q-64 64 -154 64q-51 0 -88 -34t-37 -88q0 -26 7.5 -51t21.5 -57.5t20 -50.5h170v-71h-155q2 -18 2 -29q0 -74 -35 -121q32 0 97.5 -23t100.5 -23q33 0 54.5 11.5t50.5 42.5
l43 -63q-63 -69 -148 -69q-40 0 -112.5 24.5t-112.5 24.5q-61 0 -118 -54l-39 64q42 42 88 57q42 55 42 124q0 17 -3 34h-88z" />
    <glyph glyph-name="yen.tab" unicode="&#xf4fa;" 
d="M75 304v74h126l-197 322h111l186 -309l189 309h106l-200 -322h128v-74h-180v-106h180v-74h-180v-124h-91v124h-178v74h178v106h-178z" />
    <glyph glyph-name="florin.tab" unicode="&#xf4fb;" 
d="M375 496q-6 -28 -8 -42h154v-79h-168l-65 -362q-8 -49 -17.5 -81.5t-28.5 -68t-51.5 -53.5t-78.5 -18q-67 0 -108 39l28 66q31 -26 70 -26q41 0 63.5 27t32.5 83l71 394h-145v79h159l9 56q16 92 58.5 145.5t130.5 53.5q75 0 122 -38l-31 -68q-35 27 -83 27
q-49 0 -74 -30.5t-40 -103.5z" />
    <glyph glyph-name="uni20B4.tab" unicode="&#xf4fc;" 
d="M60 406v73h317q25 30 25 67q0 34 -27 56t-73 22q-93 0 -149 -50l-40 68q69 67 194 67q81 0 135.5 -42t54.5 -106q0 -48 -27 -82h71v-73h-119q-19 -18 -45.5 -35t-55.5 -33t-41 -24h261v-73h-320q-35 -41 -35 -73q0 -45 37 -68.5t92 -23.5q107 0 163 69l42 -59
q-29 -45 -88 -70t-124 -25q-91 0 -151 43.5t-60 122.5q0 44 29 84h-66v73h115q34 24 86.5 54.5t63.5 37.5h-265z" />
    <glyph glyph-name="uni20BD.tab" unicode="&#xf4fd;" 
d="M24 301v81h107v318q68 0 99 1q17 0 45.5 0.5t36.5 0.5q136 0 196.5 -54t60.5 -143q0 -90 -64.5 -147t-192.5 -57h-93v-84h174v-81h-174v-136h-88v136h-107v81h107v84h-107zM317 621l-98 -1v-238h91q167 0 167 120q0 119 -160 119z" />
    <glyph glyph-name="uniF66D" unicode="&#xf66d;" horiz-adv-x="590" 
d="M0 0l261 561h68l261 -561h-92l-62 131h-285l-61 -131h-90zM293 436l-109 -230h219zM143 727l37 41q19 -22 51.5 -39.5t66.5 -17.5q76 0 119 56l31 -40q-61 -92 -152 -92q-53 0 -93.5 30.5t-59.5 61.5z" />
    <glyph glyph-name="uniF66E" unicode="&#xf66e;" horiz-adv-x="590" 
d="M0 0l261 561h68l261 -561h-92l-62 131h-285l-61 -131h-90zM293 436l-109 -230h219zM160 646v73h269v-73h-269z" />
    <glyph glyph-name="uniF66F" unicode="&#xf66f;" horiz-adv-x="590" 
d="M571 -119l25 -58q-33 -23 -84 -23q-48 0 -82 25t-34 73q0 39 27.5 67.5t70.5 43.5l-58 122h-285l-61 -131h-90l261 561h68l261 -561h-23q-28 0 -56 -24t-28 -56q0 -21 12 -35t31 -14q24 0 45 10zM293 436l-109 -230h219z" />
    <glyph glyph-name="uniF671" unicode="&#xf671;" horiz-adv-x="587" 
d="M521 151l51 -56q-36 -48 -99 -76.5t-136 -28.5q-140 0 -223.5 79.5t-83.5 210.5q0 124 83.5 207t218.5 83q77 0 138 -28t93 -71l-57 -54q-71 69 -171 69q-98 0 -156 -57t-58 -149t61.5 -149t160.5 -57q110 0 178 77zM442 767l-121 -152l-56 39l113 161z" />
    <glyph glyph-name="uniF672" unicode="&#xf672;" horiz-adv-x="587" 
d="M521 151l51 -56q-36 -48 -99 -76.5t-136 -28.5q-140 0 -223.5 79.5t-83.5 210.5q0 124 83.5 207t218.5 83q77 0 138 -28t93 -71l-57 -54q-71 69 -171 69q-98 0 -156 -57t-58 -149t61.5 -149t160.5 -57q110 0 178 77zM315 619l-149 126l44 53l106 -93l111 90l39 -51
l-147 -125h-4z" />
    <glyph glyph-name="uniF673" unicode="&#xf673;" horiz-adv-x="587" 
d="M521 151l51 -56q-36 -48 -99 -76.5t-136 -28.5q-140 0 -223.5 79.5t-83.5 210.5q0 124 83.5 207t218.5 83q77 0 138 -28t93 -71l-57 -54q-71 69 -171 69q-98 0 -156 -57t-58 -149t61.5 -149t160.5 -57q110 0 178 77zM317 792l148 -126l-44 -53l-106 93l-111 -91l-39 52
l148 125h4z" />
    <glyph glyph-name="uniF674" unicode="&#xf674;" horiz-adv-x="587" 
d="M521 151l51 -56q-36 -48 -99 -76.5t-136 -28.5q-140 0 -223.5 79.5t-83.5 210.5q0 124 83.5 207t218.5 83q77 0 138 -28t93 -71l-57 -54q-71 69 -171 69q-98 0 -156 -57t-58 -149t61.5 -149t160.5 -57q110 0 178 77zM265 697q0 21 15.5 34.5t38.5 13.5q22 0 37 -13.5
t15 -34.5q0 -23 -15 -37.5t-37 -14.5q-23 0 -38.5 14.5t-15.5 37.5z" />
    <glyph glyph-name="uniF675" unicode="&#xf675;" horiz-adv-x="607" 
d="M62 0v560h184q172 0 251.5 -76t79.5 -196q0 -128 -85.5 -208t-254.5 -80h-175zM245 479h-96v-398h94q124 0 183.5 55.5t59.5 151.5q0 88 -57.5 139.5t-183.5 51.5zM265 619l-149 126l44 53l106 -93l111 90l39 -51l-147 -125h-4z" />
    <glyph glyph-name="uniF676" unicode="&#xf676;" horiz-adv-x="658" 
d="M11 242v73h101v245h185q172 0 251.5 -76t79.5 -196q0 -128 -86 -208t-255 -80h-175v242h-101zM295 479h-96v-164h157v-73h-157v-161h94q124 0 184 55.5t60 151.5q0 89 -57.5 140t-184.5 51z" />
    <glyph glyph-name="uniF678" unicode="&#xf678;" horiz-adv-x="536" 
d="M62 0v560h425v-81h-337v-154h314v-81h-314v-163h345v-81h-433zM279 619l-149 126l44 53l106 -93l111 90l39 -51l-147 -125h-4z" />
    <glyph glyph-name="uniF679" unicode="&#xf679;" horiz-adv-x="536" 
d="M62 0v560h425v-81h-337v-154h314v-81h-314v-163h345v-81h-433zM229 697q0 21 15.5 34.5t38.5 13.5q22 0 37 -13.5t15 -34.5q0 -23 -15 -37.5t-37 -14.5q-23 0 -38.5 14.5t-15.5 37.5z" />
    <glyph glyph-name="uniF67A" unicode="&#xf67a;" horiz-adv-x="536" 
d="M62 0v560h425v-81h-337v-154h314v-81h-314v-163h345v-81h-433zM152 646v73h269v-73h-269z" />
    <glyph glyph-name="uniF67C" unicode="&#xf67c;" horiz-adv-x="546" 
d="M62 0v560h435v-81h-347v-154h324v-81h-324v-163h355v-81h-5q-28 0 -56 -24t-28 -56q0 -21 12 -35t31 -14q24 0 45 10l25 -58q-33 -23 -84 -23q-48 0 -82 25t-34 73q0 66 77 102h-344z" />
    <glyph glyph-name="uniF67D" unicode="&#xf67d;" horiz-adv-x="606" 
d="M331 215v79h245v-214q-88 -90 -231 -90q-138 0 -226.5 80.5t-88.5 209.5q0 122 87 206t217 84q152 0 228 -92l-57 -55q-58 63 -166 63q-98 0 -158 -57t-60 -149q0 -95 62.5 -150.5t162.5 -55.5q86 0 147 45v96h-162zM158 727l37 41q19 -22 51.5 -39.5t66.5 -17.5
q76 0 119 56l31 -40q-61 -92 -152 -92q-53 0 -93.5 30.5t-59.5 61.5z" />
    <glyph glyph-name="uniF67E" unicode="&#xf67e;" horiz-adv-x="606" 
d="M331 215v79h245v-214q-88 -90 -231 -90q-138 0 -226.5 80.5t-88.5 209.5q0 122 87 206t217 84q152 0 228 -92l-57 -55q-58 63 -166 63q-98 0 -158 -57t-60 -149q0 -95 62.5 -150.5t162.5 -55.5q86 0 147 45v96h-162zM324 792l148 -126l-44 -53l-106 93l-111 -91l-39 52
l148 125h4z" />
    <glyph glyph-name="uniF67F" unicode="&#xf67f;" horiz-adv-x="606" 
d="M331 215v79h245v-214q-88 -90 -231 -90q-138 0 -226.5 80.5t-88.5 209.5q0 122 87 206t217 84q152 0 228 -92l-57 -55q-58 63 -166 63q-98 0 -158 -57t-60 -149q0 -95 62.5 -150.5t162.5 -55.5q86 0 147 45v96h-162zM290 -91l70 46q40 -34 40 -79q0 -46 -25 -82.5
t-56 -55.5l-40 33q39 37 39 81q0 29 -28 57z" />
    <glyph glyph-name="uniF680" unicode="&#xf680;" horiz-adv-x="606" 
d="M331 215v79h245v-214q-88 -90 -231 -90q-138 0 -226.5 80.5t-88.5 209.5q0 122 87 206t217 84q152 0 228 -92l-57 -55q-58 63 -166 63q-98 0 -158 -57t-60 -149q0 -95 62.5 -150.5t162.5 -55.5q86 0 147 45v96h-162zM275 697q0 21 15.5 34.5t38.5 13.5q22 0 37 -13.5
t15 -34.5q0 -23 -15 -37.5t-37 -14.5q-23 0 -38.5 14.5t-15.5 37.5z" />
    <glyph glyph-name="uniF681" unicode="&#xf681;" horiz-adv-x="636" 
d="M0 409v69h62v82h87v-82h338v82h87v-82h62v-69h-62v-409h-87v243h-338v-243h-87v409h-62zM149 325h338v84h-338v-84z" />
    <glyph glyph-name="uniF682" unicode="&#xf682;" horiz-adv-x="636" 
d="M487 0v243h-338v-243h-87v560h87v-235h338v235h87v-560h-87zM320 792l148 -126l-44 -53l-106 93l-111 -91l-39 52l148 125h4z" />
    <glyph glyph-name="uniF685" unicode="&#xf685;" horiz-adv-x="225" 
d="M69 0v560h87v-560h-87zM-22 646v73h269v-73h-269z" />
    <glyph glyph-name="uniF686" unicode="&#xf686;" horiz-adv-x="225" 
d="M156 -119l25 -58q-33 -23 -84 -23q-48 0 -82 25t-34 73q0 71 88 107v555h87v-560h-4q-28 0 -56 -24t-28 -56q0 -21 12 -35t31 -14q24 0 45 10z" />
    <glyph glyph-name="uniF688" unicode="&#xf688;" horiz-adv-x="413" 
d="M353 560v-388q0 -85 -48 -132t-129 -47q-67 0 -112.5 30t-67.5 73l65 49q42 -71 108 -71q50 1 73.5 26.5t23.5 87.5v372h87zM299 792l148 -126l-44 -53l-106 93l-111 -91l-39 52l148 125h4z" />
    <glyph glyph-name="uniF689" unicode="&#xf689;" horiz-adv-x="569" 
d="M62 0v560h87v-256l288 256h115l-277 -252l296 -308h-118l-250 255l-54 -48v-207h-87zM221 -91l70 46q40 -34 40 -79q0 -46 -25 -82.5t-56 -55.5l-40 33q39 37 39 81q0 29 -28 57z" />
    <glyph glyph-name="uniF68A" unicode="&#xf68a;" horiz-adv-x="505" 
d="M62 0v560h87v-478h347v-82h-434zM308 767l-121 -152l-56 39l113 161z" />
    <glyph glyph-name="uniF68B" unicode="&#xf68b;" horiz-adv-x="505" 
d="M62 0v560h87v-478h347v-82h-434zM331 560h87q12 -22 12 -64q0 -47 -28.5 -88t-66.5 -65l-37 35q24 19 38 49.5t14 56.5q0 49 -19 76z" />
    <glyph glyph-name="uniF68C" unicode="&#xf68c;" horiz-adv-x="505" 
d="M62 0v560h87v-478h347v-82h-434zM227 -91l70 46q40 -34 40 -79q0 -46 -25 -82.5t-56 -55.5l-40 33q39 37 39 81q0 29 -28 57z" />
    <glyph glyph-name="uniF68D" unicode="&#xf68d;" horiz-adv-x="505" 
d="M62 0v560h87v-478h347v-82h-434zM302 308q0 21 17.5 38.5t44.5 17.5q25 0 42.5 -17.5t17.5 -38.5q0 -24 -17 -41.5t-43 -17.5q-27 0 -44.5 17.5t-17.5 41.5z" />
    <glyph glyph-name="uniF68E" unicode="&#xf68e;" horiz-adv-x="627" 
d="M565 0h-68l-351 407v-407h-84v560h68l351 -409v409h84v-560zM435 767l-121 -152l-56 39l113 161z" />
    <glyph glyph-name="uniF68F" unicode="&#xf68f;" horiz-adv-x="627" 
d="M565 0h-68l-351 407v-407h-84v560h68l351 -409v409h84v-560zM313 619l-149 126l44 53l106 -93l111 90l39 -51l-147 -125h-4z" />
    <glyph glyph-name="uniF690" unicode="&#xf690;" horiz-adv-x="627" 
d="M565 0h-68l-351 407v-407h-84v560h68l351 -409v409h84v-560zM264 -91l70 46q40 -34 40 -79q0 -46 -25 -82.5t-56 -55.5l-40 33q39 37 39 81q0 29 -28 57z" />
    <glyph glyph-name="uniF692" unicode="&#xf692;" horiz-adv-x="666" 
d="M30 280q0 121 87.5 204t215.5 83q127 0 215 -81.5t88 -205.5q0 -123 -88 -205t-215 -82t-215 81.5t-88 205.5zM121 280q0 -88 62 -145.5t150 -57.5q90 0 151 57t61 146t-62.5 146t-149.5 57q-88 0 -150 -57t-62 -146zM535 775l-135 -160l-47 35l123 170zM381 781
l-128 -166l-48 35l118 173z" />
    <glyph glyph-name="uniF693" unicode="&#xf693;" horiz-adv-x="666" 
d="M30 280q0 121 87.5 204t215.5 83q127 0 215 -81.5t88 -205.5q0 -123 -88 -205t-215 -82t-215 81.5t-88 205.5zM121 280q0 -88 62 -145.5t150 -57.5q90 0 151 57t61 146t-62.5 146t-149.5 57q-88 0 -150 -57t-62 -146zM198 646v73h269v-73h-269z" />
    <glyph glyph-name="uniF695" unicode="&#xf695;" horiz-adv-x="578" 
d="M149 0h-87v560h230q232 0 232 -172q0 -58 -38.5 -101.5t-102.5 -58.5l187 -228h-106l-172 212h-143v-212zM289 479h-140v-186h145q65 0 102 25.5t37 69.5q0 91 -144 91zM382 767l-121 -152l-56 39l113 161z" />
    <glyph glyph-name="uniF696" unicode="&#xf696;" horiz-adv-x="578" 
d="M149 0h-87v560h230q232 0 232 -172q0 -58 -38.5 -101.5t-102.5 -58.5l187 -228h-106l-172 212h-143v-212zM289 479h-140v-186h145q65 0 102 25.5t37 69.5q0 91 -144 91zM262 619l-149 126l44 53l106 -93l111 90l39 -51l-147 -125h-4z" />
    <glyph glyph-name="uniF697" unicode="&#xf697;" horiz-adv-x="578" 
d="M149 0h-87v560h230q232 0 232 -172q0 -58 -38.5 -101.5t-102.5 -58.5l187 -228h-106l-172 212h-143v-212zM289 479h-140v-186h145q65 0 102 25.5t37 69.5q0 91 -144 91zM227 -91l70 46q40 -34 40 -79q0 -46 -25 -82.5t-56 -55.5l-40 33q39 37 39 81q0 29 -28 57z" />
    <glyph glyph-name="uniF698" unicode="&#xf698;" horiz-adv-x="520" 
d="M399 151q0 34 -37 54.5t-90 32.5t-106 27.5t-90 51.5t-37 93q0 66 61.5 111.5t160.5 45.5q151 0 220 -86l-57 -56q-64 60 -169 60q-48 0 -86.5 -18.5t-38.5 -54.5q0 -28 26.5 -47.5t66.5 -29t87 -23t87 -28.5t66.5 -48t26.5 -79q0 -73 -60 -118.5t-157 -45.5
q-77 0 -146 32t-101 78l55 63q75 -91 203 -91q48 0 81.5 20.5t33.5 55.5zM378 767l-121 -152l-56 39l113 161z" />
    <glyph glyph-name="uniF699" unicode="&#xf699;" horiz-adv-x="520" 
d="M159 -170l25 49q39 -22 77 -22q48 0 48 28q0 29 -54 29h-19v81q-68 7 -125 37.5t-85 70.5l55 63q75 -91 203 -91q48 0 81.5 20.5t33.5 55.5q0 34 -37 54.5t-90 32.5t-106 27.5t-90 51.5t-37 93q0 66 61.5 111.5t160.5 45.5q151 0 220 -86l-57 -56q-64 60 -169 60
q-48 0 -86.5 -18.5t-38.5 -54.5q0 -28 26.5 -47.5t66.5 -29t87 -23t87 -28.5t66.5 -48t26.5 -79q0 -70 -55.5 -114.5t-145.5 -48.5v-31q50 -2 75 -24t25 -58q0 -37 -32 -61t-93 -24q-60 0 -105 34z" />
    <glyph glyph-name="uniF69A" unicode="&#xf69a;" horiz-adv-x="520" 
d="M399 151q0 34 -37 54.5t-90 32.5t-106 27.5t-90 51.5t-37 93q0 66 61.5 111.5t160.5 45.5q151 0 220 -86l-57 -56q-64 60 -169 60q-48 0 -86.5 -18.5t-38.5 -54.5q0 -28 26.5 -47.5t66.5 -29t87 -23t87 -28.5t66.5 -48t26.5 -79q0 -73 -60 -118.5t-157 -45.5
q-77 0 -146 32t-101 78l55 63q75 -91 203 -91q48 0 81.5 20.5t33.5 55.5zM261 792l148 -126l-44 -53l-106 93l-111 -91l-39 52l148 125h4z" />
    <glyph glyph-name="uniF69B" unicode="&#xf69b;" horiz-adv-x="520" 
d="M399 151q0 34 -37 54.5t-90 32.5t-106 27.5t-90 51.5t-37 93q0 66 61.5 111.5t160.5 45.5q151 0 220 -86l-57 -56q-64 60 -169 60q-48 0 -86.5 -18.5t-38.5 -54.5q0 -28 26.5 -47.5t66.5 -29t87 -23t87 -28.5t66.5 -48t26.5 -79q0 -73 -60 -118.5t-157 -45.5
q-77 0 -146 32t-101 78l55 63q75 -91 203 -91q48 0 81.5 20.5t33.5 55.5zM211 -91l70 46q40 -34 40 -79q0 -46 -25 -82.5t-56 -55.5l-40 33q39 37 39 81q0 29 -28 57z" />
    <glyph glyph-name="uniF69D" unicode="&#xf69d;" horiz-adv-x="503" 
d="M3 478v82h496v-82h-205v-478h-87v478h-204zM250 619l-149 126l44 53l106 -93l111 90l39 -51l-147 -125h-4z" />
    <glyph glyph-name="uniF69E" unicode="&#xf69e;" horiz-adv-x="503" 
d="M3 478v82h496v-82h-205v-478h-87v478h-204zM203 -91l70 46q40 -34 40 -79q0 -46 -25 -82.5t-56 -55.5l-40 33q39 37 39 81q0 29 -28 57z" />
    <glyph glyph-name="uniF69F" unicode="&#xf69f;" horiz-adv-x="614" 
d="M559 560v-322q0 -63 -21 -111t-56 -76.5t-77.5 -42.5t-89.5 -14q-111 0 -185.5 65t-74.5 183v318h87v-306q0 -81 49 -129.5t124 -48.5q77 0 117 47t40 127v310h87zM155 727l37 41q19 -22 51.5 -39.5t66.5 -17.5q76 0 119 56l31 -40q-61 -92 -152 -92q-53 0 -93.5 30.5
t-59.5 61.5z" />
    <glyph glyph-name="uniF6A0" unicode="&#xf6a0;" horiz-adv-x="614" 
d="M559 560v-322q0 -63 -21 -111t-56 -76.5t-77.5 -42.5t-89.5 -14q-111 0 -185.5 65t-74.5 183v318h87v-306q0 -81 49 -129.5t124 -48.5q77 0 117 47t40 127v310h87zM508 775l-135 -160l-47 35l123 170zM354 781l-128 -166l-48 35l118 173z" />
    <glyph glyph-name="uniF6A1" unicode="&#xf6a1;" horiz-adv-x="614" 
d="M559 560v-322q0 -63 -21 -111t-56 -76.5t-77.5 -42.5t-89.5 -14q-111 0 -185.5 65t-74.5 183v318h87v-306q0 -81 49 -129.5t124 -48.5q77 0 117 47t40 127v310h87zM173 646v73h269v-73h-269z" />
    <glyph glyph-name="uniF6A2" unicode="&#xf6a2;" horiz-adv-x="614" 
d="M559 560v-322q0 -88 -39 -144.5t-103 -81.5q-72 -45 -72 -93q0 -21 12 -34.5t31 -13.5q24 0 45 10l25 -58q-33 -23 -84 -23q-48 0 -82 25t-34 73q0 55 69 96h-12q-111 0 -185.5 65t-74.5 183v318h87v-306q0 -81 49 -129.5t124 -48.5q77 0 117 47t40 127v310h87z" />
    <glyph glyph-name="uniF6A3" unicode="&#xf6a3;" horiz-adv-x="614" 
d="M559 560v-322q0 -63 -21 -111t-56 -76.5t-77.5 -42.5t-89.5 -14q-111 0 -185.5 65t-74.5 183v318h87v-306q0 -81 49 -129.5t124 -48.5q77 0 117 47t40 127v310h87zM199 712q0 44 31 75t77 31t78 -31t32 -75t-32 -74.5t-78 -30.5t-77 30.5t-31 74.5zM259 713
q0 -21 13.5 -35t35.5 -14t35.5 13t13.5 36t-13.5 36t-35.5 13t-35.5 -13.5t-13.5 -35.5z" />
    <glyph glyph-name="uniF6AB" unicode="&#xf6ab;" horiz-adv-x="537" 
d="M26 479v81h486v-59l-372 -420h380v-81h-509v59l370 420h-355zM382 767l-121 -152l-56 39l113 161z" />
    <glyph glyph-name="uniF6AC" unicode="&#xf6ac;" horiz-adv-x="537" 
d="M26 479v81h486v-59l-372 -420h380v-81h-509v59l370 420h-355zM215 697q0 21 15.5 34.5t38.5 13.5q22 0 37 -13.5t15 -34.5q0 -23 -15 -37.5t-37 -14.5q-23 0 -38.5 14.5t-15.5 37.5z" />
    <glyph glyph-name="uniF6AD" unicode="&#xf6ad;" horiz-adv-x="225" 
d="M69 0v560h87v-560h-87zM59 697q0 21 15.5 34.5t38.5 13.5q22 0 37 -13.5t15 -34.5q0 -23 -15 -37.5t-37 -14.5q-23 0 -38.5 14.5t-15.5 37.5z" />
    <glyph glyph-name="uniF6BA" unicode="&#xf6ba;" horiz-adv-x="409" 
d="M76 319v77h256v-77h-256z" />
    <glyph glyph-name="uniF6BB" unicode="&#xf6bb;" 
d="M89 321v74h421v-74h-421z" />
    <glyph glyph-name="uniF6BC" unicode="&#xf6bc;" horiz-adv-x="795" 
d="M89 321v74h618v-74h-618z" />
    <glyph glyph-name="uniF6C3" unicode="&#xf6c3;" horiz-adv-x="353" 
d="M244 -91l70 46q40 -34 40 -79q0 -46 -25 -82.5t-57 -55.5l-39 33q39 39 39 81q0 29 -28 57z" />
    <glyph glyph-name="uniF6C9" unicode="&#xf6c9;" horiz-adv-x="549" 
d="M548 852l-200 -97l-31 56l193 115z" />
    <glyph glyph-name="uniF6CA" unicode="&#xf6ca;" horiz-adv-x="495" 
d="M322 756l-183 106l37 53l148 -83l147 83l30 -52l-175 -107h-4z" />
    <glyph glyph-name="uniF6CB" unicode="&#xf6cb;" horiz-adv-x="497" 
d="M155 825q0 22 16 35.5t40 13.5q20 0 36 -14t16 -35t-16 -34.5t-36 -13.5q-25 0 -40.5 13t-15.5 35zM392 825q0 21 16 35t38 14q21 0 36.5 -13.5t15.5 -35.5t-15.5 -35t-36.5 -13q-23 0 -38.5 13t-15.5 35z" />
    <glyph glyph-name="uniF6CE" unicode="&#xf6ce;" horiz-adv-x="448" 
d="M418 755l-201 97l38 74l193 -115z" />
    <glyph glyph-name="uniF6CF" unicode="&#xf6cf;" horiz-adv-x="624" 
d="M623 848l-172 -99l-34 43l155 116zM435 859l-159 -110l-34 41l132 118z" />
    <glyph glyph-name="uniF6D0" unicode="&#xf6d0;" horiz-adv-x="521" 
d="M220 789v73h301v-73h-301z" />
    <glyph glyph-name="uniF6D1" unicode="&#xf6d1;" horiz-adv-x="557" 
d="M184 896h85q27 -62 103 -62q38 0 65 16t35 46h86q-7 -59 -59.5 -97.5t-124.5 -38.5q-78 0 -127.5 37.5t-62.5 98.5z" />
    <glyph glyph-name="uniF6D4" unicode="&#xf6d4;" horiz-adv-x="474" 
d="M141 744h79q1 -37 24 -59.5t65 -22.5q40 0 63 22.5t23 59.5h79q-1 -68 -48 -108.5t-117 -40.5q-75 0 -121 40t-47 109z" />
    <glyph glyph-name="uniF6F4" unicode="&#xf6f4;" horiz-adv-x="490" 
d="M185 727l37 41q19 -22 51.5 -39.5t66.5 -17.5q76 0 119 56l31 -40q-61 -92 -152 -92q-53 0 -93.5 30.5t-59.5 61.5z" />
    <glyph glyph-name="uniF6F5" unicode="&#xf6f5;" horiz-adv-x="476" 
d="M325 619l-149 126l44 53l106 -93l111 90l39 -51l-147 -125h-4z" />
    <glyph glyph-name="uniF6F6" unicode="&#xf6f6;" horiz-adv-x="466" 
d="M318 792l148 -126l-44 -53l-106 93l-111 -91l-39 52l148 125h4z" />
    <glyph glyph-name="uniF6F7" unicode="&#xf6f7;" horiz-adv-x="381" 
d="M275 697q0 21 15.5 34.5t38.5 13.5q22 0 37 -13.5t15 -34.5q0 -23 -15 -37.5t-37 -14.5q-23 0 -38.5 14.5t-15.5 37.5z" />
    <glyph glyph-name="uniF6F8" unicode="&#xf6f8;" horiz-adv-x="531" 
d="M531 775l-135 -160l-47 35l123 170zM377 781l-128 -166l-48 35l118 173z" />
    <glyph glyph-name="uniF6F9" unicode="&#xf6f9;" horiz-adv-x="512" 
d="M0 108v89l70 48v315h87v-254l169 117v-89l-169 -117v-135h347v-82h-434v156z" />
    <glyph glyph-name="uniF6FA" unicode="&#xf6fa;" horiz-adv-x="996" 
d="M512 0v55q-80 -62 -179 -62q-127 0 -215 81.5t-88 205.5q0 121 87.5 204t215.5 83q104 0 179 -60v53h436v-81h-349v-155h325v-80h-325v-163h356v-81h-443zM333 77q57 0 103.5 23.5t75.5 65.5v226q-29 43 -76.5 67t-102.5 24q-88 0 -150 -57t-62 -146q0 -88 62 -145.5
t150 -57.5z" />
    <glyph glyph-name="uniF6FB" unicode="&#xf6fb;" horiz-adv-x="391" 
d="M393 -119l25 -58q-33 -23 -84 -23q-48 0 -82 25t-34 73q0 56 55.5 90t115.5 35v-23q-28 0 -56 -24t-28 -56q0 -21 12 -35t31 -14q24 0 45 10z" />
    <glyph glyph-name="uniF6FC" unicode="&#xf6fc;" horiz-adv-x="446" 
d="M227 712q0 44 31 75t77 31t78 -31t32 -75t-32 -74.5t-78 -30.5t-77 30.5t-31 74.5zM287 713q0 -21 13.5 -35t35.5 -14t35.5 13t13.5 36t-13.5 36t-35.5 13t-35.5 -13.5t-13.5 -35.5z" />
    <glyph glyph-name="uniF6FD" unicode="&#xf6fd;" horiz-adv-x="520" 
d="M399 151q0 34 -37 54.5t-90 32.5t-106 27.5t-90 51.5t-37 93q0 66 61.5 111.5t160.5 45.5q151 0 220 -86l-57 -56q-64 60 -169 60q-48 0 -86.5 -18.5t-38.5 -54.5q0 -28 26.5 -47.5t66.5 -29t87 -23t87 -28.5t66.5 -48t26.5 -79q0 -73 -60 -118.5t-157 -45.5
q-77 0 -146 32t-101 78l55 63q75 -91 203 -91q48 0 81.5 20.5t33.5 55.5zM260 619l-149 126l44 53l106 -93l111 90l39 -51l-147 -125h-4z" />
    <glyph glyph-name="uniF6FE" unicode="&#xf6fe;" horiz-adv-x="493" 
d="M199 635l-38 41q58 63 113 63q24 0 62.5 -23.5t58.5 -23.5q35 0 67 33l32 -43q-50 -61 -106 -61q-28 0 -64.5 23.5t-54.5 23.5q-30 0 -70 -33z" />
    <glyph glyph-name="uniF6FF" unicode="&#xf6ff;" horiz-adv-x="537" 
d="M26 479v81h486v-59l-372 -420h380v-81h-509v59l370 420h-355zM268 619l-149 126l44 53l106 -93l111 90l39 -51l-147 -125h-4z" />
    <glyph glyph-name="uniF760" unicode="&#xf760;" horiz-adv-x="389" 
d="M338 616l-127 148l66 51l112 -160z" />
    <glyph glyph-name="uniF761" unicode="&#xf761;" horiz-adv-x="590" 
d="M0 0l261 561h68l261 -561h-92l-62 131h-285l-61 -131h-90zM293 436l-109 -230h219z" />
    <glyph glyph-name="uniF762" unicode="&#xf762;" horiz-adv-x="573" 
d="M62 0v560h245q113 0 161 -36.5t48 -103.5q0 -89 -80 -126q48 -12 74.5 -45.5t26.5 -86.5q0 -162 -235 -162h-240zM307 246h-158v-165h150q77 0 112.5 21t35.5 65q0 79 -140 79zM297 479h-148v-153h160q54 0 85.5 20t31.5 55q0 40 -29 59t-100 19z" />
    <glyph glyph-name="uniF763" unicode="&#xf763;" horiz-adv-x="587" 
d="M521 151l51 -56q-36 -48 -99 -76.5t-136 -28.5q-140 0 -223.5 79.5t-83.5 210.5q0 124 83.5 207t218.5 83q77 0 138 -28t93 -71l-57 -54q-71 69 -171 69q-98 0 -156 -57t-58 -149t61.5 -149t160.5 -57q110 0 178 77z" />
    <glyph glyph-name="uniF764" unicode="&#xf764;" horiz-adv-x="607" 
d="M62 0v560h184q172 0 251.5 -76t79.5 -196q0 -128 -85.5 -208t-254.5 -80h-175zM245 479h-96v-398h94q124 0 183.5 55.5t59.5 151.5q0 88 -57.5 139.5t-183.5 51.5z" />
    <glyph glyph-name="uniF765" unicode="&#xf765;" horiz-adv-x="536" 
d="M62 0v560h425v-81h-337v-154h314v-81h-314v-163h345v-81h-433z" />
    <glyph glyph-name="uniF766" unicode="&#xf766;" horiz-adv-x="521" 
d="M62 0v560h431v-81h-344v-174h321v-81h-321v-224h-87z" />
    <glyph glyph-name="uniF767" unicode="&#xf767;" horiz-adv-x="606" 
d="M331 215v79h245v-214q-88 -90 -231 -90q-138 0 -226.5 80.5t-88.5 209.5q0 122 87 206t217 84q152 0 228 -92l-57 -55q-58 63 -166 63q-98 0 -158 -57t-60 -149q0 -95 62.5 -150.5t162.5 -55.5q86 0 147 45v96h-162z" />
    <glyph glyph-name="uniF768" unicode="&#xf768;" horiz-adv-x="636" 
d="M487 0v243h-338v-243h-87v560h87v-235h338v235h87v-560h-87z" />
    <glyph glyph-name="uniF769" unicode="&#xf769;" horiz-adv-x="225" 
d="M69 0v560h87v-560h-87z" />
    <glyph glyph-name="uniF76A" unicode="&#xf76a;" horiz-adv-x="413" 
d="M353 560v-388q0 -85 -48 -132t-129 -47q-67 0 -112.5 30t-67.5 73l65 49q42 -71 108 -71q50 1 73.5 26.5t23.5 87.5v372h87z" />
    <glyph glyph-name="uniF76B" unicode="&#xf76b;" horiz-adv-x="569" 
d="M62 0v560h87v-256l288 256h115l-277 -252l296 -308h-118l-250 255l-54 -48v-207h-87z" />
    <glyph glyph-name="uniF76C" unicode="&#xf76c;" horiz-adv-x="505" 
d="M62 0v560h87v-478h347v-82h-434z" />
    <glyph glyph-name="uniF76D" unicode="&#xf76d;" horiz-adv-x="714" 
d="M62 0v560h78l222 -268l213 268h77v-560h-87v415l-194 -245h-22l-200 244v-414h-87z" />
    <glyph glyph-name="uniF76E" unicode="&#xf76e;" horiz-adv-x="627" 
d="M565 0h-68l-351 407v-407h-84v560h68l351 -409v409h84v-560z" />
    <glyph glyph-name="uniF76F" unicode="&#xf76f;" horiz-adv-x="666" 
d="M30 280q0 121 87.5 204t215.5 83q127 0 215 -81.5t88 -205.5q0 -123 -88 -205t-215 -82t-215 81.5t-88 205.5zM121 280q0 -88 62 -145.5t150 -57.5q90 0 151 57t61 146t-62.5 146t-149.5 57q-88 0 -150 -57t-62 -146z" />
    <glyph glyph-name="uniF770" unicode="&#xf770;" horiz-adv-x="557" 
d="M149 0h-87v560h220q245 0 245 -181q0 -77 -59.5 -129t-186.5 -52h-132v-198zM286 479h-137v-200h130q157 0 157 101q0 99 -150 99z" />
    <glyph glyph-name="uniF771" unicode="&#xf771;" horiz-adv-x="666" 
d="M30 280q0 121 87.5 204t215.5 83q127 0 215 -81.5t88 -205.5q0 -119 -91 -205l58 -66l-60 -49l-60 68q-70 -35 -150 -35q-131 0 -217 81t-86 206zM121 280q0 -89 61 -146t151 -57q49 0 98 22l-50 55l55 48l53 -60q56 54 56 138q0 90 -60.5 146.5t-151.5 56.5
t-151.5 -56.5t-60.5 -146.5z" />
    <glyph glyph-name="uniF772" unicode="&#xf772;" horiz-adv-x="578" 
d="M149 0h-87v560h230q232 0 232 -172q0 -58 -38.5 -101.5t-102.5 -58.5l187 -228h-106l-172 212h-143v-212zM289 479h-140v-186h145q65 0 102 25.5t37 69.5q0 91 -144 91z" />
    <glyph glyph-name="uniF773" unicode="&#xf773;" horiz-adv-x="520" 
d="M399 151q0 34 -37 54.5t-90 32.5t-106 27.5t-90 51.5t-37 93q0 66 61.5 111.5t160.5 45.5q151 0 220 -86l-57 -56q-64 60 -169 60q-48 0 -86.5 -18.5t-38.5 -54.5q0 -28 26.5 -47.5t66.5 -29t87 -23t87 -28.5t66.5 -48t26.5 -79q0 -73 -60 -118.5t-157 -45.5
q-77 0 -146 32t-101 78l55 63q75 -91 203 -91q48 0 81.5 20.5t33.5 55.5z" />
    <glyph glyph-name="uniF774" unicode="&#xf774;" horiz-adv-x="503" 
d="M3 478v82h496v-82h-205v-478h-87v478h-204z" />
    <glyph glyph-name="uniF775" unicode="&#xf775;" horiz-adv-x="614" 
d="M559 560v-322q0 -63 -21 -111t-56 -76.5t-77.5 -42.5t-89.5 -14q-111 0 -185.5 65t-74.5 183v318h87v-306q0 -81 49 -129.5t124 -48.5q77 0 117 47t40 127v310h87z" />
    <glyph glyph-name="uniF776" unicode="&#xf776;" horiz-adv-x="610" 
d="M614 560l-271 -560h-62l-285 560h94l224 -436l208 436h92z" />
    <glyph glyph-name="uniF777" unicode="&#xf777;" horiz-adv-x="820" 
d="M819 560l-177 -560h-74l-155 409l-152 -409h-74l-185 560h90l136 -406l150 406h73l152 -405l130 405h86z" />
    <glyph glyph-name="uniF778" unicode="&#xf778;" horiz-adv-x="568" 
d="M552 560l-215 -275l222 -285h-105l-170 215l-170 -215h-105l223 285l-214 275h104l163 -205l162 205h105z" />
    <glyph glyph-name="uniF779" unicode="&#xf779;" horiz-adv-x="557" 
d="M561 560l-241 -357v-203h-87v203l-237 357h107l177 -265l178 265h103z" />
    <glyph glyph-name="uniF77A" unicode="&#xf77a;" horiz-adv-x="537" 
d="M26 479v81h486v-59l-372 -420h380v-81h-509v59l370 420h-355z" />
    <glyph glyph-name="uniF7A1" unicode="&#xf7a1;" horiz-adv-x="264" 
d="M89 0v405h85v-405h-85zM80 515q0 19 14.5 33t37.5 14q21 0 35.5 -14.5t14.5 -32.5q0 -17 -15 -31.5t-35 -14.5q-22 0 -37 14.5t-15 31.5z" />
    <glyph glyph-name="uniF7A8" unicode="&#xf7a8;" horiz-adv-x="478" 
d="M146 697q0 20 15 33.5t35 13.5t35.5 -13.5t15.5 -33.5q0 -22 -15.5 -35.5t-35.5 -13.5q-21 0 -35.5 13.5t-14.5 35.5zM375 697q0 20 15.5 33.5t37.5 13.5q20 0 35.5 -13.5t15.5 -33.5q0 -22 -15.5 -35.5t-35.5 -13.5q-22 0 -37.5 13.5t-15.5 35.5z" />
    <glyph glyph-name="uniF7AF" unicode="&#xf7af;" horiz-adv-x="448" 
d="M179 646v73h269v-73h-269z" />
    <glyph glyph-name="uniF7B4" unicode="&#xf7b4;" horiz-adv-x="462" 
d="M462 767l-121 -152l-56 39l113 161z" />
    <glyph glyph-name="uniF7B8" unicode="&#xf7b8;" horiz-adv-x="459" 
d="M229 -170l25 49q39 -22 77 -22q48 0 48 28q0 29 -54 29h-19v86h53v-37q50 -2 75 -24t25 -58q0 -37 -32 -61t-93 -24q-60 0 -105 34z" />
    <glyph glyph-name="uniF7BF" unicode="&#xf7bf;" horiz-adv-x="408" 
d="M106 150q0 -33 25 -53t67 -20q81 0 113 66l70 -32q-23 -59 -74 -88.5t-111 -29.5q-83 0 -130.5 40.5t-47.5 101.5q0 31 8 56t24.5 44t30 30.5t36.5 26.5q34 24 49 41t15 39q0 12 -4 34l78 1q7 -24 5 -43q-2 -42 -24 -67.5t-64 -53.5q-32 -21 -49 -41.5t-17 -51.5z
M269 515q0 -18 -14.5 -32t-36.5 -14q-21 0 -35.5 14.5t-14.5 31.5q0 19 14.5 33t35.5 14q22 0 36.5 -14t14.5 -33z" />
    <glyph glyph-name="uniF7E0" unicode="&#xf7e0;" horiz-adv-x="590" 
d="M0 0l261 561h68l261 -561h-92l-62 131h-285l-61 -131h-90zM293 436l-109 -230h219zM298 616l-127 148l66 51l112 -160z" />
    <glyph glyph-name="uniF7E1" unicode="&#xf7e1;" horiz-adv-x="590" 
d="M0 0l261 561h68l261 -561h-92l-62 131h-285l-61 -131h-90zM293 436l-109 -230h219zM424 767l-121 -152l-56 39l113 161z" />
    <glyph glyph-name="uniF7E2" unicode="&#xf7e2;" horiz-adv-x="590" 
d="M0 0l261 561h68l261 -561h-92l-62 131h-285l-61 -131h-90zM293 436l-109 -230h219zM297 792l148 -126l-44 -53l-106 93l-111 -91l-39 52l148 125h4z" />
    <glyph glyph-name="uniF7E3" unicode="&#xf7e3;" horiz-adv-x="590" 
d="M0 0l261 561h68l261 -561h-92l-62 131h-285l-61 -131h-90zM293 436l-109 -230h219zM167 635l-38 41q58 63 113 63q24 0 62.5 -23.5t58.5 -23.5q35 0 67 33l32 -43q-50 -61 -106 -61q-28 0 -64.5 23.5t-54.5 23.5q-30 0 -70 -33z" />
    <glyph glyph-name="uniF7E4" unicode="&#xf7e4;" horiz-adv-x="590" 
d="M0 0l261 561h68l261 -561h-92l-62 131h-285l-61 -131h-90zM293 436l-109 -230h219zM128 697q0 20 15 33.5t35 13.5t35.5 -13.5t15.5 -33.5q0 -22 -15.5 -35.5t-35.5 -13.5q-21 0 -35.5 13.5t-14.5 35.5zM357 697q0 20 15.5 33.5t37.5 13.5q20 0 35.5 -13.5t15.5 -33.5
q0 -22 -15.5 -35.5t-35.5 -13.5q-22 0 -37.5 13.5t-15.5 35.5z" />
    <glyph glyph-name="uniF7E5" unicode="&#xf7e5;" horiz-adv-x="590" 
d="M0 0l261 561h68l261 -561h-92l-62 131h-285l-61 -131h-90zM293 436l-109 -230h219zM186 712q0 44 31 75t77 31t78 -31t32 -75t-32 -74.5t-78 -30.5t-77 30.5t-31 74.5zM246 713q0 -21 13.5 -35t35.5 -14t35.5 13t13.5 36t-13.5 36t-35.5 13t-35.5 -13.5t-13.5 -35.5z" />
    <glyph glyph-name="uniF7E6" unicode="&#xf7e6;" horiz-adv-x="953" 
d="M469 0v131h-267l-107 -131h-95l439 560h465v-81h-348v-154h325v-81h-325v-163h356v-81h-443zM256 206h213v269z" />
    <glyph glyph-name="uniF7E7" unicode="&#xf7e7;" horiz-adv-x="587" 
d="M225 -170l25 49q39 -22 77 -22q48 0 48 28q0 29 -54 29h-19v81q-126 10 -199 86.5t-73 198.5q0 123 83.5 205t218.5 82q78 0 138.5 -26.5t92.5 -69.5l-57 -54q-68 66 -171 66q-98 0 -156 -55.5t-58 -147.5t61.5 -147.5t160.5 -55.5q112 0 178 74l51 -56q-33 -44 -91 -71
t-126 -30v-31q50 -2 75 -24t25 -58q0 -37 -32 -61t-93 -24q-60 0 -105 34z" />
    <glyph glyph-name="uniF7E8" unicode="&#xf7e8;" horiz-adv-x="536" 
d="M62 0v560h425v-81h-337v-154h314v-81h-314v-163h345v-81h-433zM312 616l-127 148l66 51l112 -160z" />
    <glyph glyph-name="uniF7E9" unicode="&#xf7e9;" horiz-adv-x="536" 
d="M62 0v560h425v-81h-337v-154h314v-81h-314v-163h345v-81h-433zM408 767l-121 -152l-56 39l113 161z" />
    <glyph glyph-name="uniF7EA" unicode="&#xf7ea;" horiz-adv-x="536" 
d="M62 0v560h425v-81h-337v-154h314v-81h-314v-163h345v-81h-433zM287 792l148 -126l-44 -53l-106 93l-111 -91l-39 52l148 125h4z" />
    <glyph glyph-name="uniF7EB" unicode="&#xf7eb;" horiz-adv-x="536" 
d="M62 0v560h425v-81h-337v-154h314v-81h-314v-163h345v-81h-433zM109 697q0 20 15 33.5t35 13.5t35.5 -13.5t15.5 -33.5q0 -22 -15.5 -35.5t-35.5 -13.5q-21 0 -35.5 13.5t-14.5 35.5zM338 697q0 20 15.5 33.5t37.5 13.5q20 0 35.5 -13.5t15.5 -33.5q0 -22 -15.5 -35.5
t-35.5 -13.5q-22 0 -37.5 13.5t-15.5 35.5z" />
    <glyph glyph-name="uniF7EC" unicode="&#xf7ec;" horiz-adv-x="225" 
d="M69 0v560h87v-560h-87zM120 616l-127 148l66 51l112 -160z" />
    <glyph glyph-name="uniF7ED" unicode="&#xf7ed;" horiz-adv-x="225" 
d="M69 0v560h87v-560h-87zM239 767l-121 -152l-56 39l113 161z" />
    <glyph glyph-name="uniF7EE" unicode="&#xf7ee;" horiz-adv-x="225" 
d="M69 0v560h87v-560h-87zM114 792l148 -126l-44 -53l-106 93l-111 -91l-39 52l148 125h4z" />
    <glyph glyph-name="uniF7EF" unicode="&#xf7ef;" horiz-adv-x="225" 
d="M69 0v560h87v-560h-87zM-54 697q0 20 15 33.5t35 13.5t35.5 -13.5t15.5 -33.5q0 -22 -15.5 -35.5t-35.5 -13.5q-21 0 -35.5 13.5t-14.5 35.5zM175 697q0 20 15.5 33.5t37.5 13.5q20 0 35.5 -13.5t15.5 -33.5q0 -22 -15.5 -35.5t-35.5 -13.5q-22 0 -37.5 13.5t-15.5 35.5z
" />
    <glyph glyph-name="uniF7F0" unicode="&#xf7f0;" horiz-adv-x="658" 
d="M11 242v73h101v245h185q172 0 251.5 -76t79.5 -196q0 -128 -86 -208t-255 -80h-175v242h-101zM295 479h-96v-164h157v-73h-157v-161h94q124 0 184 55.5t60 151.5q0 89 -57.5 140t-184.5 51z" />
    <glyph glyph-name="uniF7F1" unicode="&#xf7f1;" horiz-adv-x="627" 
d="M565 0h-68l-351 407v-407h-84v560h68l351 -409v409h84v-560zM181 635l-38 41q58 63 113 63q24 0 62.5 -23.5t58.5 -23.5q35 0 67 33l32 -43q-50 -61 -106 -61q-28 0 -64.5 23.5t-54.5 23.5q-30 0 -70 -33z" />
    <glyph glyph-name="uniF7F2" unicode="&#xf7f2;" horiz-adv-x="666" 
d="M30 280q0 121 87.5 204t215.5 83q127 0 215 -81.5t88 -205.5q0 -123 -88 -205t-215 -82t-215 81.5t-88 205.5zM121 280q0 -88 62 -145.5t150 -57.5q90 0 151 57t61 146t-62.5 146t-149.5 57q-88 0 -150 -57t-62 -146zM325 616l-127 148l66 51l112 -160z" />
    <glyph glyph-name="uniF7F3" unicode="&#xf7f3;" horiz-adv-x="666" 
d="M30 280q0 121 87.5 204t215.5 83q127 0 215 -81.5t88 -205.5q0 -123 -88 -205t-215 -82t-215 81.5t-88 205.5zM121 280q0 -88 62 -145.5t150 -57.5q90 0 151 57t61 146t-62.5 146t-149.5 57q-88 0 -150 -57t-62 -146zM462 767l-121 -152l-56 39l113 161z" />
    <glyph glyph-name="uniF7F4" unicode="&#xf7f4;" horiz-adv-x="666" 
d="M30 280q0 121 87.5 204t215.5 83q127 0 215 -81.5t88 -205.5q0 -123 -88 -205t-215 -82t-215 81.5t-88 205.5zM121 280q0 -88 62 -145.5t150 -57.5q90 0 151 57t61 146t-62.5 146t-149.5 57q-88 0 -150 -57t-62 -146zM335 792l148 -126l-44 -53l-106 93l-111 -91l-39 52
l148 125h4z" />
    <glyph glyph-name="uniF7F5" unicode="&#xf7f5;" horiz-adv-x="666" 
d="M30 280q0 121 87.5 204t215.5 83q127 0 215 -81.5t88 -205.5q0 -123 -88 -205t-215 -82t-215 81.5t-88 205.5zM121 280q0 -88 62 -145.5t150 -57.5q90 0 151 57t61 146t-62.5 146t-149.5 57q-88 0 -150 -57t-62 -146zM205 635l-38 41q58 63 113 63q24 0 62.5 -23.5
t58.5 -23.5q35 0 67 33l32 -43q-50 -61 -106 -61q-28 0 -64.5 23.5t-54.5 23.5q-30 0 -70 -33z" />
    <glyph glyph-name="uniF7F6" unicode="&#xf7f6;" horiz-adv-x="666" 
d="M30 280q0 121 87.5 204t215.5 83q127 0 215 -81.5t88 -205.5q0 -123 -88 -205t-215 -82t-215 81.5t-88 205.5zM121 280q0 -88 62 -145.5t150 -57.5q90 0 151 57t61 146t-62.5 146t-149.5 57q-88 0 -150 -57t-62 -146zM166 697q0 20 15 33.5t35 13.5t35.5 -13.5
t15.5 -33.5q0 -22 -15.5 -35.5t-35.5 -13.5q-21 0 -35.5 13.5t-14.5 35.5zM395 697q0 20 15.5 33.5t37.5 13.5q20 0 35.5 -13.5t15.5 -33.5q0 -22 -15.5 -35.5t-35.5 -13.5q-22 0 -37.5 13.5t-15.5 35.5z" />
    <glyph glyph-name="uniF7F8" unicode="&#xf7f8;" horiz-adv-x="666" 
d="M68 34l42 48q-80 80 -80 198q0 121 87.5 204t215.5 83q89 0 161 -42l41 47l58 -47l-39 -46q82 -80 82 -199q0 -123 -88 -205t-215 -82q-87 0 -161 41l-43 -50zM545 280q0 76 -49 132l-266 -311q46 -24 103 -24q90 0 151 57t61 146zM121 280q0 -76 47 -131l268 309
q-48 25 -103 25q-88 0 -150 -57t-62 -146z" />
    <glyph glyph-name="uniF7F9" unicode="&#xf7f9;" horiz-adv-x="614" 
d="M559 560v-322q0 -63 -21 -111t-56 -76.5t-77.5 -42.5t-89.5 -14q-111 0 -185.5 65t-74.5 183v318h87v-306q0 -81 49 -129.5t124 -48.5q77 0 117 47t40 127v310h87zM305 616l-127 148l66 51l112 -160z" />
    <glyph glyph-name="uniF7FA" unicode="&#xf7fa;" horiz-adv-x="614" 
d="M559 560v-322q0 -63 -21 -111t-56 -76.5t-77.5 -42.5t-89.5 -14q-111 0 -185.5 65t-74.5 183v318h87v-306q0 -81 49 -129.5t124 -48.5q77 0 117 47t40 127v310h87zM432 767l-121 -152l-56 39l113 161z" />
    <glyph glyph-name="uniF7FB" unicode="&#xf7fb;" horiz-adv-x="614" 
d="M559 560v-322q0 -63 -21 -111t-56 -76.5t-77.5 -42.5t-89.5 -14q-111 0 -185.5 65t-74.5 183v318h87v-306q0 -81 49 -129.5t124 -48.5q77 0 117 47t40 127v310h87zM309 792l148 -126l-44 -53l-106 93l-111 -91l-39 52l148 125h4z" />
    <glyph glyph-name="uniF7FC" unicode="&#xf7fc;" horiz-adv-x="614" 
d="M559 560v-322q0 -63 -21 -111t-56 -76.5t-77.5 -42.5t-89.5 -14q-111 0 -185.5 65t-74.5 183v318h87v-306q0 -81 49 -129.5t124 -48.5q77 0 117 47t40 127v310h87zM141 697q0 20 15 33.5t35 13.5t35.5 -13.5t15.5 -33.5q0 -22 -15.5 -35.5t-35.5 -13.5q-21 0 -35.5 13.5
t-14.5 35.5zM370 697q0 20 15.5 33.5t37.5 13.5q20 0 35.5 -13.5t15.5 -33.5q0 -22 -15.5 -35.5t-35.5 -13.5q-22 0 -37.5 13.5t-15.5 35.5z" />
    <glyph glyph-name="uniF7FD" unicode="&#xf7fd;" horiz-adv-x="557" 
d="M561 560l-241 -357v-203h-87v203l-237 357h107l177 -265l178 265h103zM399 767l-121 -152l-56 39l113 161z" />
    <glyph glyph-name="uniF7FE" unicode="&#xf7fe;" horiz-adv-x="557" 
d="M149 0h-87v560h87v-88h133q245 0 245 -180q0 -77 -59.5 -129t-186.5 -52h-132v-111zM286 392h-137v-201h130q80 0 118.5 27t38.5 75q0 99 -150 99z" />
    <glyph glyph-name="uniF7FF" unicode="&#xf7ff;" horiz-adv-x="557" 
d="M561 560l-241 -357v-203h-87v203l-237 357h107l177 -265l178 265h103zM111 697q0 20 15 33.5t35 13.5t35.5 -13.5t15.5 -33.5q0 -22 -15.5 -35.5t-35.5 -13.5q-21 0 -35.5 13.5t-14.5 35.5zM340 697q0 20 15.5 33.5t37.5 13.5q20 0 35.5 -13.5t15.5 -33.5
q0 -22 -15.5 -35.5t-35.5 -13.5q-22 0 -37.5 13.5t-15.5 35.5z" />
    <glyph glyph-name="uniFE56" unicode="&#xfe56;" horiz-adv-x="408" 
d="M293 411q0 32 -25 52t-67 20q-80 0 -113 -65l-70 32q23 59 74 88t112 29q82 0 129.5 -40t47.5 -102q0 -40 -16.5 -72.5t-34.5 -48t-48 -36.5q-35 -24 -49.5 -40.5t-14.5 -38.5q0 -14 4 -34l-77 -1q-8 26 -6 43q1 29 16.5 53.5t29.5 36t43 31.5q21 14 33 24t22 28.5
t10 40.5zM129 46q0 17 15 31t38 14q20 0 34.5 -14t14.5 -31q0 -19 -14 -33.5t-35 -14.5q-23 0 -38 14.5t-15 33.5z" />
    <glyph glyph-name="uniFE57" unicode="&#xfe57;" horiz-adv-x="264" 
d="M89 155v405h85v-405h-85zM80 46q0 17 15 31t37 14q20 0 35 -14t15 -31q0 -19 -14.5 -33.5t-35.5 -14.5q-23 0 -37.5 14.5t-14.5 33.5z" />
    <glyph glyph-name="uniFEFF" unicode="&#xfeff;" horiz-adv-x="0" 
 />
    <glyph glyph-name="nbspace" horiz-adv-x="300" 
 />
    <glyph glyph-name="caron.l" horiz-adv-x="199" 
d="M83 719h87q12 -22 12 -64q0 -47 -28.5 -88t-66.5 -64l-37 35q23 18 37.5 48.5t14.5 56.5q0 49 -19 76z" />
    <glyph glyph-name="caron.lsmall" horiz-adv-x="199" 
d="M83 560h87q12 -22 12 -64q0 -47 -28.5 -88t-66.5 -65l-37 35q24 19 38 49.5t14 56.5q0 49 -19 76z" />
    <glyph glyph-name="a.ss02" 
d="M455 0v62q-17 -27 -61.5 -49t-111.5 -22q-105 0 -177.5 73.5t-72.5 194.5q0 120 75.5 196.5t188.5 76.5q111 0 159 -53v42h84v-521h-84zM298 71q58 0 98.5 30.5t58.5 68.5v206q-48 77 -145 77q-81 0 -135 -52.5t-54 -139.5q0 -90 52.5 -140t124.5 -50z" />
    <glyph glyph-name="afii10065.ss02" 
d="M455 0v62q-17 -27 -61.5 -49t-111.5 -22q-105 0 -177.5 73.5t-72.5 194.5q0 120 75.5 196.5t188.5 76.5q111 0 159 -53v42h84v-521h-84zM298 71q58 0 98.5 30.5t58.5 68.5v206q-48 77 -145 77q-81 0 -135 -52.5t-54 -139.5q0 -90 52.5 -140t124.5 -50z" />
    <glyph glyph-name="afii10065.var.accented.ss02" 
d="M455 0v62q-17 -27 -61.5 -49t-111.5 -22q-105 0 -177.5 73.5t-72.5 194.5q0 120 75.5 196.5t188.5 76.5q111 0 159 -53v42h84v-521h-84zM298 71q58 0 98.5 30.5t58.5 68.5v206q-48 77 -145 77q-81 0 -135 -52.5t-54 -139.5q0 -90 52.5 -140t124.5 -50zM435 759l-122 -151
l-56 39l114 160z" />
    <glyph glyph-name="agrave.ss02" 
d="M455 0v62q-17 -27 -61.5 -49t-111.5 -22q-105 0 -177.5 73.5t-72.5 194.5q0 120 75.5 196.5t188.5 76.5q111 0 159 -53v42h84v-521h-84zM298 71q58 0 98.5 30.5t58.5 68.5v206q-48 77 -145 77q-81 0 -135 -52.5t-54 -139.5q0 -90 52.5 -140t124.5 -50zM320 608l-128 149
l66 50l112 -159z" />
    <glyph glyph-name="aacute.ss02" 
d="M455 0v62q-17 -27 -61.5 -49t-111.5 -22q-105 0 -177.5 73.5t-72.5 194.5q0 120 75.5 196.5t188.5 76.5q111 0 159 -53v42h84v-521h-84zM298 71q58 0 98.5 30.5t58.5 68.5v206q-48 77 -145 77q-81 0 -135 -52.5t-54 -139.5q0 -90 52.5 -140t124.5 -50zM435 759l-122 -151
l-56 39l114 160z" />
    <glyph glyph-name="atilde.ss02" 
d="M455 0v62q-17 -27 -61.5 -49t-111.5 -22q-105 0 -177.5 73.5t-72.5 194.5q0 120 75.5 196.5t188.5 76.5q111 0 159 -53v42h84v-521h-84zM298 71q58 0 98.5 30.5t58.5 68.5v206q-48 77 -145 77q-81 0 -135 -52.5t-54 -139.5q0 -90 52.5 -140t124.5 -50zM168 624l-38 41
q58 63 113 63q24 0 62.5 -23.5t58.5 -23.5q36 0 67 33l31 -43q-48 -61 -105 -61q-28 0 -64.5 23.5t-54.5 23.5q-30 0 -70 -33z" />
    <glyph glyph-name="adieresis.ss02" 
d="M455 0v62q-17 -27 -61.5 -49t-111.5 -22q-105 0 -177.5 73.5t-72.5 194.5q0 120 75.5 196.5t188.5 76.5q111 0 159 -53v42h84v-521h-84zM298 71q58 0 98.5 30.5t58.5 68.5v206q-48 77 -145 77q-81 0 -135 -52.5t-54 -139.5q0 -90 52.5 -140t124.5 -50zM125 682
q0 20 15 33.5t35 13.5t35.5 -13.5t15.5 -33.5q0 -22 -15.5 -35.5t-35.5 -13.5t-35 13.5t-15 35.5zM354 682q0 20 15.5 33.5t37.5 13.5q20 0 35.5 -13.5t15.5 -33.5q0 -22 -15.5 -35.5t-35.5 -13.5q-22 0 -37.5 13.5t-15.5 35.5z" />
    <glyph glyph-name="aring.ss02" 
d="M455 0v62q-17 -27 -61.5 -49t-111.5 -22q-105 0 -177.5 73.5t-72.5 194.5q0 120 75.5 196.5t188.5 76.5q111 0 159 -53v42h84v-521h-84zM298 71q58 0 98.5 30.5t58.5 68.5v206q-48 77 -145 77q-81 0 -135 -52.5t-54 -139.5q0 -90 52.5 -140t124.5 -50zM199 701
q0 44 31.5 75t77.5 31t78 -31t32 -75t-32 -74.5t-78 -30.5t-77.5 30.5t-31.5 74.5zM260 702q0 -22 13.5 -36t35.5 -14q21 0 34.5 13.5t13.5 36.5t-13 36t-35 13t-35.5 -13.5t-13.5 -35.5z" />
    <glyph glyph-name="aogonek.ss02" 
d="M527 -119l25 -58q-33 -23 -83 -23q-48 0 -82.5 25t-34.5 73q0 75 103 111v53q-17 -27 -61.5 -49t-111.5 -22q-105 0 -177.5 73.5t-72.5 194.5q0 120 75.5 196.5t188.5 76.5q111 0 159 -53v53h84v-532h-1q-34 0 -66.5 -24.5t-32.5 -56.5q0 -21 12.5 -34.5t30.5 -13.5
q24 0 45 10zM298 71q58 0 98.5 30.5t58.5 68.5v206q-48 77 -145 77q-81 0 -135 -52.5t-54 -139.5q0 -90 52.5 -140t124.5 -50z" />
    <glyph glyph-name="abreve.ss02" 
d="M455 0v62q-17 -27 -61.5 -49t-111.5 -22q-105 0 -177.5 73.5t-72.5 194.5q0 120 75.5 196.5t188.5 76.5q111 0 159 -53v42h84v-521h-84zM298 71q58 0 98.5 30.5t58.5 68.5v206q-48 77 -145 77q-81 0 -135 -52.5t-54 -139.5q0 -90 52.5 -140t124.5 -50zM148 727l38 41
q18 -21 50.5 -39t67.5 -18q76 0 119 56l30 -40q-61 -92 -152 -92q-52 0 -92 30t-61 62z" />
    <glyph glyph-name="amacron.ss02" 
d="M455 0v62q-17 -27 -61.5 -49t-111.5 -22q-105 0 -177.5 73.5t-72.5 194.5q0 120 75.5 196.5t188.5 76.5q111 0 159 -53v42h84v-521h-84zM298 71q58 0 98.5 30.5t58.5 68.5v206q-48 77 -145 77q-81 0 -135 -52.5t-54 -139.5q0 -90 52.5 -140t124.5 -50zM169 638v74h269
v-74h-269z" />
    <glyph glyph-name="K.ss01" horiz-adv-x="661" 
d="M74 0v700h91v-300h78l283 300h112l-314 -331l338 -369h-125l-287 315h-85v-315h-91z" />
    <glyph glyph-name="k.ss01" horiz-adv-x="524" 
d="M61 0v730h84v-417h45l214 207h106l-239 -237l256 -283h-111l-213 234h-58v-234h-84z" />
    <glyph glyph-name="afii10076.ss01" horiz-adv-x="533" 
d="M61 0v520h84v-218h49l210 218h106l-239 -248l256 -272h-111l-213 223h-58v-223h-84z" />
    <glyph glyph-name="afii10061.ss01" horiz-adv-x="661" 
d="M74 0v700h91v-300h78l283 300h112l-314 -331l338 -369h-125l-287 315h-85v-315h-91zM482 852l-200 -97l-31 56l193 115z" />
    <glyph glyph-name="afii10109.ss01" horiz-adv-x="533" 
d="M61 0v520h84v-218h49l210 218h106l-239 -248l256 -272h-111l-213 223h-58v-223h-84zM395 759l-122 -151l-56 39l114 160z" />
    <glyph glyph-name="afii10024.ss01" horiz-adv-x="929" 
d="M296 370l-288 330h111l258 -297h42v297h91v-297h44l256 297h112l-290 -330l296 -370h-109l-253 315h-56v-315h-91v315h-58l-254 -315h-105z" />
    <glyph glyph-name="afii10028.ss01" horiz-adv-x="661" 
d="M74 0v700h91v-300h78l283 300h112l-314 -331l338 -369h-125l-287 315h-85v-315h-91z" />
    <glyph glyph-name="afii10072.ss01" horiz-adv-x="734" 
d="M217 267l-212 253h107l181 -217h30v217h84v-217h29l185 217h104l-219 -250l228 -270h-104l-188 222h-35v-222h-84v222h-40l-181 -222h-102z" />
    <glyph glyph-name="Kcommaaccent.ss01" horiz-adv-x="661" 
d="M74 0v700h91v-300h78l283 300h112l-314 -331l338 -369h-125l-287 315h-85v-315h-91zM244 -91l70 46q40 -34 40 -79q0 -46 -25 -82.5t-57 -55.5l-39 33q39 39 39 81q0 29 -28 57z" />
    <glyph glyph-name="kcommaaccent.ss01" horiz-adv-x="524" 
d="M61 0v730h84v-417h45l214 207h106l-239 -237l256 -283h-111l-213 234h-58v-234h-84zM214 -91l70 46q40 -34 40 -79q0 -46 -25 -82.5t-57 -55.5l-39 33q39 39 39 81q0 29 -28 57z" />
    <glyph glyph-name="uniF356.ss01" horiz-adv-x="796" 
d="M239 286l-234 274h106l209 -242l34 1v241h87v-242h40l203 242h107l-236 -274l240 -286h-104l-204 238h-46v-238h-87v238h-51l-202 -238h-100z" />
    <glyph glyph-name="uniF35A.ss01" horiz-adv-x="569" 
d="M62 0v560h87v-243h62l226 243h115l-255 -272l274 -288h-115l-234 237h-73v-237h-87z" />
    <glyph glyph-name="uniF37C.ss01" horiz-adv-x="569" 
d="M62 0v560h87v-243h62l226 243h115l-255 -272l274 -288h-115l-234 237h-73v-237h-87zM401 767l-121 -152l-56 39l113 161z" />
    <glyph glyph-name="uniF76B.ss01" horiz-adv-x="569" 
d="M62 0v560h87v-243h62l226 243h115l-255 -272l274 -288h-115l-234 237h-73v-237h-87z" />
    <glyph glyph-name="uniF689.ss01" horiz-adv-x="569" 
d="M62 0v560h87v-243h62l226 243h115l-255 -272l274 -288h-115l-234 237h-73v-237h-87zM224 -91l70 46q40 -34 40 -79q0 -46 -25 -82.5t-57 -55.5l-39 33q39 39 39 81q0 29 -28 57z" />
    <glyph glyph-name="acircumflex.ss02" 
d="M455 0v62q-17 -27 -61.5 -49t-111.5 -22q-105 0 -177.5 73.5t-72.5 194.5q0 120 75.5 196.5t188.5 76.5q111 0 159 -53v42h84v-521h-84zM298 71q58 0 98.5 30.5t58.5 68.5v206q-48 77 -145 77q-81 0 -135 -52.5t-54 -139.5q0 -90 52.5 -140t124.5 -50zM296 785l149 -127
l-44 -53l-106 93l-111 -90l-39 51l147 126h4z" />
    </font>
</defs>
</svg>
