<?xml version="1.0" encoding="utf-8"?><svg xmlns="http://www.w3.org/2000/svg" xmlns:xlink="http://www.w3.org/1999/xlink"><symbol viewBox="0 0 512 512" id="clock" xmlns="http://www.w3.org/2000/svg"><path d="M256 0C114.615 0 0 114.615 0 256s114.615 256 256 256 256-114.615 256-256S397.385 0 256 0zm0 480C132.288 480 32 379.712 32 256S132.288 32 256 32s224 100.288 224 224-100.288 224-224 224z"/><path d="M272 96h-32v160a15.999 15.999 0 0 0 4.64 11.36l112 112 22.56-22.56L272 249.44V96z"/></symbol><symbol viewBox="0 0 490.268 490.268" id="commerce" xmlns="http://www.w3.org/2000/svg"><path d="M409.9 270.634c8.3 0 15.6-5.2 18.7-14.6l60.3-159.2c3.9-11.2 0-26-18.7-27H111.4v-10.4c0-32.3-24-59.3-53.1-59.3H20.8C9.4.134 0 9.534 0 20.934s9.4 20.8 20.8 20.8h38.5c6.2 0 12.5 7.3 12.5 18.7v266.3c0 11.4 9.4 20.8 20.8 20.8h356.8c11.4 0 20.8-9.4 19.8-20.8 0-11.4-9.4-20.8-20.8-20.8h-337v-35.4h298.5v.1zm-297.5-159.2h327.7l-44.7 118.6h-283v-118.6zm47.8 255.9c-34.3 0-61.4 28.1-61.4 61.4 0 34.3 28.1 61.4 61.4 61.4 34.3 0 61.4-27 61.4-61.4s-28.1-61.4-61.4-61.4zm0 82.2c-11.4 0-20.8-9.4-20.8-20.8s9.4-20.8 20.8-20.8 20.8 9.4 20.8 20.8c.1 11.5-9.3 20.8-20.8 20.8zm234.1-82.2c-34.3 0-61.4 28.1-61.4 61.4 0 34.3 28.1 61.4 61.4 61.4 34.3 0 61.4-27 61.4-61.4s-28.1-61.4-61.4-61.4zm0 82.2c-11.4 0-20.8-9.4-20.8-20.8s9.4-20.8 20.8-20.8 20.8 9.4 20.8 20.8c0 11.5-9.3 20.8-20.8 20.8z"/></symbol><symbol viewBox="0 0 401.952 401.952" id="down" xmlns="http://www.w3.org/2000/svg"><path d="M322.978 216.742H273.91c-8.673 0-15.771-7.096-15.771-15.77l-.077-51.191V14.693C257.5 6.517 250.398.002 242.093 0l-82.79.002c-8.673 0-15.77 7.094-15.77 15.764l.279 185.207c0 8.673-7.094 15.77-15.768 15.77H78.977c-8.675 0-11.163 5.396-5.535 11.994l117.294 168.267c5.633 6.598 14.848 6.598 20.479 0l117.29-168.265c5.633-6.598 3.148-11.997-5.527-11.997z"/></symbol><symbol viewBox="0 0 408 408" id="grid" xmlns="http://www.w3.org/2000/svg"><path d="M170 19.833c0-9.35-7.65-17-17-17H17c-9.35 0-17 7.65-17 17v136c0 9.35 7.65 17 17 17h136c9.35 0 17-7.65 17-17v-136zm-136 17h102v102H34v-102zm374-17c0-9.35-7.65-17-17-17H255c-9.35 0-17 7.65-17 17v136c0 9.35 7.65 17 17 17h136c9.35 0 17-7.65 17-17v-136zm-136 17h102v102H272v-102zM170 252.167c0-9.35-7.65-17-17-17H17c-9.35 0-17 7.65-17 17v136c0 9.35 7.65 17 17 17h136c9.35 0 17-7.65 17-17v-136zm-136 17h102v102H34v-102zm374-17c0-9.35-7.65-17-17-17H255c-9.35 0-17 7.65-17 17v136c0 9.35 7.65 17 17 17h136c9.35 0 17-7.65 17-17v-136zm-136 17h102v102H272v-102z"/></symbol><symbol viewBox="0 0 512 512" id="location" xmlns="http://www.w3.org/2000/svg"><path d="M256 0C153.755 0 70.573 83.182 70.573 185.426c0 126.888 165.939 313.167 173.004 321.035 6.636 7.391 18.222 7.378 24.846 0 7.065-7.868 173.004-194.147 173.004-321.035C441.425 83.182 358.244 0 256 0zm0 469.729c-55.847-66.338-152.035-197.217-152.035-284.301 0-83.834 68.202-152.036 152.035-152.036s152.035 68.202 152.035 152.035C408.034 272.515 311.861 403.37 256 469.729z"/><path d="M256 92.134c-51.442 0-93.292 41.851-93.292 93.293S204.559 278.72 256 278.72s93.291-41.851 93.291-93.293S307.441 92.134 256 92.134zm0 153.194c-33.03 0-59.9-26.871-59.9-59.901s26.871-59.901 59.9-59.901 59.9 26.871 59.9 59.901-26.871 59.901-59.9 59.901z"/></symbol><symbol viewBox="0 0 512 512" id="maximize" xmlns="http://www.w3.org/2000/svg"><path d="M151.414 0H72.975C32.737 0 0 32.737 0 72.975v78.439c0 11.422 9.26 20.682 20.682 20.682 11.422 0 20.682-9.26 20.682-20.682V72.975c0-17.43 14.181-31.611 31.611-31.611h78.439c11.422 0 20.682-9.26 20.682-20.682C172.096 9.26 162.836 0 151.414 0zm287.611 0h-78.44c-11.422 0-20.682 9.26-20.682 20.682 0 11.422 9.259 20.682 20.682 20.682h78.44c17.43 0 31.611 14.181 31.611 31.611v78.439c0 11.422 9.259 20.682 20.682 20.682 11.423 0 20.682-9.26 20.682-20.682V72.975C512 32.737 479.264 0 439.025 0zm52.293 339.903c-11.423 0-20.682 9.259-20.682 20.682v78.44c0 17.43-14.181 31.611-31.611 31.611h-78.44c-11.423 0-20.682 9.259-20.682 20.682 0 11.423 9.259 20.682 20.682 20.682h78.44C479.264 512 512 479.264 512 439.025v-78.44c0-11.423-9.259-20.682-20.682-20.682zM151.414 470.636H72.975c-17.43 0-31.611-14.181-31.611-31.611v-78.44c0-11.423-9.26-20.682-20.682-20.682C9.26 339.903 0 349.162 0 360.585v78.44C0 479.264 32.737 512 72.975 512h78.439c11.422 0 20.682-9.259 20.682-20.682 0-11.423-9.26-20.682-20.682-20.682z"/></symbol><symbol viewBox="0 0 615.52 615.52" id="search" xmlns="http://www.w3.org/2000/svg"><path d="M602.531 549.736l-184.31-185.368c26.679-37.72 42.528-83.729 42.528-133.548C460.75 103.35 357.997 0 231.258 0 104.518 0 1.765 103.35 1.765 230.82s102.753 230.82 229.493 230.82c49.53 0 95.271-15.944 132.78-42.777l184.31 185.366a38.117 38.117 0 0 0 27.102 11.291c9.812 0 19.62-3.77 27.083-11.291 14.963-15.041 14.963-39.452-.002-54.493zM355.9 319.763l-15.042 21.273-21.158 15.138c-26.083 18.658-56.667 28.526-88.442 28.526-84.365 0-152.995-69.035-152.995-153.88 0-84.846 68.63-153.88 152.995-153.88s152.996 69.034 152.996 153.88c.017 31.949-9.792 62.706-28.354 88.943z"/></symbol><symbol viewBox="0 0 511.999 511.999" id="shapes" xmlns="http://www.w3.org/2000/svg"><path d="M469.715 72.39l.002.002-.003-.003z"/><path d="M469.794 72.469l-.077-.077c-56.34-56.367-148.035-56.387-204.403-.048l-.019.019-.025.025-9.242 9.243-9.243-9.243c-27.304-27.305-63.608-42.342-102.222-42.342-38.615 0-74.917 15.038-102.222 42.342C15.037 99.693 0 135.996 0 174.61c0 38.615 15.037 74.917 42.342 102.223l199.061 199.061a20.684 20.684 0 0 0 29.253 0l199.056-199.057c56.352-56.328 56.385-147.993.082-204.368zM440.462 247.58L256.028 432.014 71.594 247.579c-19.49-19.491-30.224-45.404-30.224-72.969 0-27.563 10.734-53.478 30.224-72.968 20.118-20.118 46.544-30.176 72.969-30.176 26.426 0 52.852 10.058 72.969 30.176l23.87 23.869c8.078 8.078 21.174 8.078 29.252 0l23.87-23.869.005-.005.033-.033c40.22-40.202 105.639-40.202 145.857-.006l.08.081c40.214 40.234 40.2 105.682-.037 145.901z"/></symbol><symbol viewBox="0 0 22 22" id="squares" xmlns="http://www.w3.org/2000/svg"><path d="M0 6h6V0H0v6zm2-4h2v2H2V2zm6 4h6V0H8v6zm2-4h2v2h-2V2zm6-2v6h6V0h-6zm4 4h-2V2h2v2zM0 14h6V8H0v6zm2-4h2v2H2v-2zm6 4h6V8H8v6zm2-4h2v2h-2v-2zm6 4h6V8h-6v6zm2-4h2v2h-2v-2zM0 22h6v-6H0v6zm2-4h2v2H2v-2zm6 4h6v-6H8v6zm2-4h2v2h-2v-2zm6 4h6v-6h-6v6zm2-4h2v2h-2v-2z"/></symbol><symbol viewBox="0 0 78 78" id="technology" xmlns="http://www.w3.org/2000/svg"><path d="M55 0H23c-3.3 0-6 2.7-6 6v66c0 3.3 2.7 6 6 6h32c3.3 0 6-2.7 6-6V6c0-3.3-2.7-6-6-6zm2 72c0 1.1-.9 2-2 2H23c-1.1 0-2-.9-2-2v-4h36v4zm0-8H21V14h36v50zm0-54H21V6c0-1.1.9-2 2-2h32c1.1 0 2 .9 2 2v4z"/></symbol><symbol viewBox="0 0 401.949 401.949" id="up" xmlns="http://www.w3.org/2000/svg"><path d="M328.508 173.212L211.214 4.948c-5.633-6.598-14.846-6.598-20.479 0L73.445 173.209c-5.631 6.599-3.146 11.996 5.529 11.996h49.068c8.672 0 15.77 7.097 15.77 15.771l.077 51.518v133.428l-.021.292c.003 8.676 7.321 15.734 15.991 15.736l82.789-.002c8.674 0 15.771-7.096 15.771-15.766l-.279-185.207c0-8.674 7.094-15.771 15.769-15.771h49.066c8.672.001 11.161-5.396 5.533-11.992z"/></symbol><symbol viewBox="0 0 513.32 513.32" id="user" xmlns="http://www.w3.org/2000/svg"><path d="M346.491 316.547c49.193-29.944 81.275-83.414 81.275-145.44C427.767 76.998 350.768 0 256.66 0S85.553 76.998 85.553 171.107c0 62.026 32.082 115.497 81.275 145.44C81.275 348.63 17.11 423.489 0 513.32h42.777c21.388-98.386 109.081-171.107 213.883-171.107s192.495 72.72 213.883 171.107h42.777c-17.11-91.97-81.275-166.829-166.829-196.773zM128.33 171.107c0-70.581 57.749-128.33 128.33-128.33s128.33 57.749 128.33 128.33-57.749 128.33-128.33 128.33-128.33-57.749-128.33-128.33z"/></symbol></svg>